<?xml version="1.0" encoding="utf-8"?>
<!-- Generator: Adobe Illustrator 24.1.1, SVG Export Plug-In . SVG Version: 6.00 Build 0)  -->
<svg version="1.1" id="Layer_1" xmlns="http://www.w3.org/2000/svg" xmlns:xlink="http://www.w3.org/1999/xlink" x="0px" y="0px"
	 viewBox="0 0 458 314" style="enable-background:new 0 0 458 314;" xml:space="preserve">
<style type="text/css">
	.st0{fill:url(#SVGID_1_);}
	.st1{fill:#F2F2F2;}
	.st2{fill:url(#SVGID_2_);}
	.st3{fill:url(#SVGID_3_);}
	.st4{fill:#B9BCC1;}
	.st5{fill:url(#SVGID_4_);}
	.st6{fill:url(#SVGID_5_);}
	.st7{fill:#D4D5D6;}
	.st8{fill:#E6E6E6;}
	.st9{fill:url(#SVGID_6_);}
	.st10{fill:#E8E8E8;}
	.st11{fill:url(#SVGID_7_);}
	.st12{fill:url(#SVGID_8_);}
	.st13{fill:url(#SVGID_9_);}
	.st14{fill:url(#SVGID_10_);}
	.st15{fill:url(#SVGID_11_);}
	.st16{fill:url(#SVGID_12_);}
	.st17{fill:url(#SVGID_13_);}
	.st18{fill:url(#SVGID_14_);}
	.st19{fill:url(#SVGID_15_);}
	.st20{fill:url(#SVGID_16_);}
	.st21{fill:url(#SVGID_17_);}
</style>
<linearGradient id="SVGID_1_" gradientUnits="userSpaceOnUse" x1="309.088" y1="-2522.6189" x2="247.7267" y2="-2324.1748" gradientTransform="matrix(0.0453 3.3831 -0.1243 1.665398e-03 97.3821 -850.4102)">
	<stop  offset="0.4655" style="stop-color:#E6E6E6"/>
	<stop  offset="1" style="stop-color:#B3B3B3"/>
</linearGradient>
<polygon class="st0" points="394.32,79.95 393.77,39.35 420.75,38.99 420.88,79.66 "/>
<g>
	<polygon class="st1" points="179,170 3.15,170 30.36,239 66.28,239 179,170.22 	"/>
</g>
<linearGradient id="SVGID_2_" gradientUnits="userSpaceOnUse" x1="223.7648" y1="296.5504" x2="251.6178" y2="298.6046" gradientTransform="matrix(1.217 1.9278 -1.5851 1.0007 428.9281 -618.4771)">
	<stop  offset="0.4655" style="stop-color:#F2F2F2"/>
	<stop  offset="0.7015" style="stop-color:#B3B3B3"/>
</linearGradient>
<polygon class="st2" points="82.65,257.48 68.05,234.35 412.02,17.2 421.43,43.68 "/>
<linearGradient id="SVGID_3_" gradientUnits="userSpaceOnUse" x1="25.2809" y1="278.1909" x2="277.7191" y2="296.8091">
	<stop  offset="0" style="stop-color:#E6E6E6"/>
	<stop  offset="0.4721" style="stop-color:#EFEFEF"/>
	<stop  offset="0.5674" style="stop-color:#F2F2F2"/>
	<stop  offset="0.8652" style="stop-color:#CCCCCC"/>
	<stop  offset="0.9944" style="stop-color:#E6E6E6"/>
</linearGradient>
<rect x="25" y="282" class="st3" width="253" height="11"/>
<rect x="245" y="302.5" class="st4" width="26" height="3"/>
<rect x="134.92" y="302.42" class="st4" width="26" height="3"/>
<rect x="30.92" y="303.42" class="st4" width="26" height="3"/>
<linearGradient id="SVGID_4_" gradientUnits="userSpaceOnUse" x1="48.9727" y1="250.6801" x2="77" y2="250.6801" gradientTransform="matrix(1.0091 0.0221 0.0221 1.0537 -5.6818 -13.7797)">
	<stop  offset="0" style="stop-color:#CCCCCC"/>
	<stop  offset="0.1996" style="stop-color:#D5D5D5"/>
	<stop  offset="0.5304" style="stop-color:#EFEFEF"/>
	<stop  offset="0.5674" style="stop-color:#F2F2F2"/>
	<stop  offset="0.9971" style="stop-color:#CCCCCC"/>
</linearGradient>
<polygon class="st5" points="77.89,267.16 64.03,272.87 48.97,236.36 62.83,230.64 "/>
<linearGradient id="SVGID_5_" gradientUnits="userSpaceOnUse" x1="493.5734" y1="253.5722" x2="765.9714" y2="253.5722" gradientTransform="matrix(0.132 -0.0583 0.4038 0.9148 -92.4503 61.7652)">
	<stop  offset="0" style="stop-color:#E6E6E6"/>
	<stop  offset="0.4485" style="stop-color:#EFEFEF"/>
	<stop  offset="0.5391" style="stop-color:#F2F2F2"/>
	<stop  offset="0.9976" style="stop-color:#E6E6E6"/>
</linearGradient>
<polygon class="st6" points="110.78,249.1 76.64,268.46 75.4,264.99 109.54,245.63 "/>
<path class="st7" d="M95.98,249.84l-12.19,7.04c-3.27,1.89-7.45,0.77-9.34-2.5l-10.7-18.53c-1.89-3.27-0.77-7.45,2.5-9.34
	l12.19-7.04c3.27-1.89,7.45-0.77,9.34,2.5l10.7,18.53C100.37,243.77,99.25,247.95,95.98,249.84z"/>
<rect x="92.37" y="226.09" transform="matrix(0.866 -0.5 0.5 0.866 -102.3026 82.0423)" class="st8" width="19.15" height="11.66"/>
<linearGradient id="SVGID_6_" gradientUnits="userSpaceOnUse" x1="523.4169" y1="219.1644" x2="486.5878" y2="260.6953" gradientTransform="matrix(0.7051 -0.4071 0.3047 0.5277 -313.7121 305.0778)">
	<stop  offset="0" style="stop-color:#E6E6E6"/>
	<stop  offset="0.8206" style="stop-color:#EFEFEF"/>
	<stop  offset="0.9864" style="stop-color:#F2F2F2"/>
</linearGradient>
<path class="st9" d="M133.28,231.64l-21.96,12.68c-1.14,0.66-2.59,0.27-3.25-0.87l-11.33-19.62c-0.66-1.14-0.27-2.59,0.87-3.25
	l21.96-12.68c1.14-0.66,2.59-0.27,3.25,0.87l11.33,19.62C134.81,229.53,134.42,230.98,133.28,231.64z"/>
<circle class="st10" cx="83.5" cy="242.5" r="16.5"/>
<radialGradient id="SVGID_7_" cx="55.5245" cy="-8.8663" r="12.6343" fx="57.6503" fy="-21.3204" gradientTransform="matrix(0.6157 -0.3487 0.1243 0.2803 38.4142 243.3489)" gradientUnits="userSpaceOnUse">
	<stop  offset="0" style="stop-color:#E6E6E6"/>
	<stop  offset="0.265" style="stop-color:#DDDDDD"/>
	<stop  offset="0.5674" style="stop-color:#CCCCCC"/>
	<stop  offset="0.8652" style="stop-color:#CCCCCC"/>
	<stop  offset="0.9944" style="stop-color:#CCCCCC"/>
</radialGradient>
<path class="st11" d="M82.01,215.67c0.34,0.87-4.09,4.19-9.89,7.41c-5.8,3.22-10.78,5.12-11.12,4.25s4.09-4.19,9.89-7.41
	C76.69,216.7,81.67,214.8,82.01,215.67z"/>
<linearGradient id="SVGID_8_" gradientUnits="userSpaceOnUse" x1="135.2839" y1="210.0621" x2="160.7161" y2="211.9379">
	<stop  offset="0" style="stop-color:#E6E6E6"/>
	<stop  offset="0.4721" style="stop-color:#EFEFEF"/>
	<stop  offset="0.5674" style="stop-color:#F2F2F2"/>
	<stop  offset="0.8652" style="stop-color:#CCCCCC"/>
	<stop  offset="0.9944" style="stop-color:#E6E6E6"/>
</linearGradient>
<rect x="142" y="119" class="st12" width="12" height="184"/>
<linearGradient id="SVGID_9_" gradientUnits="userSpaceOnUse" x1="147.0762" y1="207.8787" x2="163.9238" y2="209.1213">
	<stop  offset="0" style="stop-color:#CCCCCC"/>
	<stop  offset="0.1681" style="stop-color:#D5D5D5"/>
	<stop  offset="0.4469" style="stop-color:#EFEFEF"/>
	<stop  offset="0.478" style="stop-color:#F2F2F2"/>
	<stop  offset="0.787" style="stop-color:#CCCCCC"/>
	<stop  offset="0.9944" style="stop-color:#CCCCCC"/>
</linearGradient>
<rect x="154" y="114" class="st13" width="3" height="189"/>
<linearGradient id="SVGID_10_" gradientUnits="userSpaceOnUse" x1="132.4223" y1="207.8018" x2="149.27" y2="209.0444">
	<stop  offset="0" style="stop-color:#CCCCCC"/>
	<stop  offset="0.1681" style="stop-color:#D5D5D5"/>
	<stop  offset="0.4469" style="stop-color:#EFEFEF"/>
	<stop  offset="0.478" style="stop-color:#F2F2F2"/>
	<stop  offset="0.787" style="stop-color:#CCCCCC"/>
	<stop  offset="0.9944" style="stop-color:#CCCCCC"/>
</linearGradient>
<rect x="139.35" y="113.92" class="st14" width="3" height="189"/>
<linearGradient id="SVGID_11_" gradientUnits="userSpaceOnUse" x1="249.0735" y1="193.4729" x2="276.9265" y2="195.5271">
	<stop  offset="0" style="stop-color:#E6E6E6"/>
	<stop  offset="0.4721" style="stop-color:#EFEFEF"/>
	<stop  offset="0.5674" style="stop-color:#F2F2F2"/>
	<stop  offset="0.8652" style="stop-color:#CCCCCC"/>
	<stop  offset="0.9944" style="stop-color:#E6E6E6"/>
</linearGradient>
<rect x="257" y="86" class="st15" width="12" height="217"/>
<linearGradient id="SVGID_12_" gradientUnits="userSpaceOnUse" x1="259.9392" y1="191.7949" x2="279.0608" y2="193.2051">
	<stop  offset="0" style="stop-color:#CCCCCC"/>
	<stop  offset="0.1681" style="stop-color:#D5D5D5"/>
	<stop  offset="0.4469" style="stop-color:#EFEFEF"/>
	<stop  offset="0.478" style="stop-color:#F2F2F2"/>
	<stop  offset="0.787" style="stop-color:#CCCCCC"/>
	<stop  offset="0.9944" style="stop-color:#CCCCCC"/>
</linearGradient>
<rect x="268" y="82.5" class="st16" width="3" height="220"/>
<linearGradient id="SVGID_13_" gradientUnits="userSpaceOnUse" x1="245.7469" y1="191.7372" x2="264.8685" y2="193.1474">
	<stop  offset="0" style="stop-color:#CCCCCC"/>
	<stop  offset="0.1681" style="stop-color:#D5D5D5"/>
	<stop  offset="0.4469" style="stop-color:#EFEFEF"/>
	<stop  offset="0.478" style="stop-color:#F2F2F2"/>
	<stop  offset="0.787" style="stop-color:#CCCCCC"/>
	<stop  offset="0.9944" style="stop-color:#CCCCCC"/>
</linearGradient>
<rect x="253.81" y="82.44" class="st17" width="3" height="220"/>
<linearGradient id="SVGID_14_" gradientUnits="userSpaceOnUse" x1="29.7143" y1="230.6676" x2="52.2857" y2="232.3324">
	<stop  offset="0" style="stop-color:#E6E6E6"/>
	<stop  offset="0.4721" style="stop-color:#EFEFEF"/>
	<stop  offset="0.5674" style="stop-color:#F2F2F2"/>
	<stop  offset="0.8652" style="stop-color:#CCCCCC"/>
	<stop  offset="0.9944" style="stop-color:#E6E6E6"/>
</linearGradient>
<rect x="35" y="159" class="st18" width="12" height="145"/>
<linearGradient id="SVGID_15_" gradientUnits="userSpaceOnUse" x1="26.3151" y1="227.7329" x2="40.3387" y2="228.7671">
	<stop  offset="0" style="stop-color:#CCCCCC"/>
	<stop  offset="0.1681" style="stop-color:#D5D5D5"/>
	<stop  offset="0.4469" style="stop-color:#EFEFEF"/>
	<stop  offset="0.478" style="stop-color:#F2F2F2"/>
	<stop  offset="0.787" style="stop-color:#CCCCCC"/>
	<stop  offset="0.9944" style="stop-color:#CCCCCC"/>
</linearGradient>
<rect x="31.83" y="153" class="st19" width="3" height="150.5"/>
<linearGradient id="SVGID_16_" gradientUnits="userSpaceOnUse" x1="41.1421" y1="228.4829" x2="55.1656" y2="229.5171">
	<stop  offset="0" style="stop-color:#CCCCCC"/>
	<stop  offset="0.1681" style="stop-color:#D5D5D5"/>
	<stop  offset="0.4469" style="stop-color:#EFEFEF"/>
	<stop  offset="0.478" style="stop-color:#F2F2F2"/>
	<stop  offset="0.787" style="stop-color:#CCCCCC"/>
	<stop  offset="0.9944" style="stop-color:#CCCCCC"/>
</linearGradient>
<rect x="46.65" y="153.75" class="st20" width="3" height="150.5"/>
<linearGradient id="SVGID_17_" gradientUnits="userSpaceOnUse" x1="252.1701" y1="-3693.4517" x2="190.8086" y2="-3495.0068" gradientTransform="matrix(1.1782 1.9518 -0.0581 0.0351 -38.8656 -262.8004)">
	<stop  offset="0.4655" style="stop-color:#E6E6E6"/>
	<stop  offset="1" style="stop-color:#B3B3B3"/>
</linearGradient>
<polygon class="st21" points="420.54,43.65 406.4,20.23 419.02,12.62 432.99,36.19 "/>
</svg>
