<?xml version="1.0" encoding="utf-8"?>
<!-- Generator: Adobe Illustrator 24.1.1, SVG Export Plug-In . SVG Version: 6.00 Build 0)  -->
<svg version="1.1" id="Layer_1" xmlns="http://www.w3.org/2000/svg" xmlns:xlink="http://www.w3.org/1999/xlink" x="0px" y="0px"
	 viewBox="0 0 396 180" style="enable-background:new 0 0 396 180;" xml:space="preserve">
<style type="text/css">
	.st0{fill:#F2F2F2;}
	.st1{fill:url(#SVGID_1_);}
	.st2{fill:#E6E6E6;}
	.st3{fill:#B9BCC1;}
	.st4{fill:#F2F2F2;stroke:#B3B3B3;stroke-width:0.5;stroke-miterlimit:10;}
	.st5{fill:#808080;}
	.st6{fill:url(#SVGID_2_);}
	.st7{fill:url(#SVGID_3_);}
	.st8{fill:#F2F2F2;stroke:#CCCCCC;stroke-width:0.5;stroke-miterlimit:10;}
	.st9{fill:url(#SVGID_4_);}
	.st10{fill:url(#SVGID_5_);}
	.st11{fill:url(#SVGID_6_);}
	.st12{fill:url(#SVGID_7_);}
	.st13{fill:url(#SVGID_8_);}
	.st14{fill:url(#SVGID_9_);}
	.st15{fill:url(#SVGID_10_);}
</style>
<rect x="47" y="86" class="st0" width="268" height="5"/>
<rect x="46.58" y="145.19" class="st0" width="263" height="5"/>
<rect x="102" y="75" class="st0" width="263" height="5"/>
<linearGradient id="SVGID_1_" gradientUnits="userSpaceOnUse" x1="297.8074" y1="115.7356" x2="365.7478" y2="120.235">
	<stop  offset="0" style="stop-color:#E6E6E6"/>
	<stop  offset="0.5382" style="stop-color:#F2F2F2"/>
	<stop  offset="1" style="stop-color:#E6E6E6"/>
</linearGradient>
<rect x="300" y="86" class="st1" width="64" height="64"/>
<rect x="52" y="91" class="st2" width="263" height="54"/>
<rect x="109" y="22" class="st2" width="249" height="53"/>
<rect x="275" y="157" class="st3" width="26" height="3"/>
<rect x="112.15" y="156.62" class="st3" width="26" height="3"/>
<polygon class="st4" points="358.94,108.09 321.5,107.89 321.61,91.9 359.04,92.1 "/>
<rect x="241.5" y="102.5" class="st5" width="7" height="29"/>
<rect x="247.5" y="104.5" class="st5" width="7" height="24.5"/>
<rect x="102" y="19" class="st0" width="263" height="5"/>
<linearGradient id="SVGID_2_" gradientUnits="userSpaceOnUse" x1="770.7668" y1="117.9126" x2="1028.9042" y2="117.9126" gradientTransform="matrix(0.0439 1.403103e-03 -0.072 2.2523 264.3411 -181.8899)">
	<stop  offset="0" style="stop-color:#F2F2F2"/>
	<stop  offset="0.4721" style="stop-color:#E9E9E9"/>
	<stop  offset="0.5674" style="stop-color:#E6E6E6"/>
	<stop  offset="0.8652" style="stop-color:#E6E6E6"/>
	<stop  offset="0.9944" style="stop-color:#F2F2F2"/>
</linearGradient>
<polygon class="st6" points="298.72,157.07 287.39,156.76 292,12.82 303.33,13.14 "/>
<linearGradient id="SVGID_3_" gradientUnits="userSpaceOnUse" x1="293.789" y1="81.4817" x2="297.9289" y2="81.4817" gradientTransform="matrix(0.9594 0.034 -0.0286 0.8079 19.9284 8.1388)">
	<stop  offset="0" style="stop-color:#CCCCCC"/>
	<stop  offset="0.265" style="stop-color:#D5D5D5"/>
	<stop  offset="0.5674" style="stop-color:#E6E6E6"/>
	<stop  offset="0.8652" style="stop-color:#F2F2F2"/>
	<stop  offset="0.9944" style="stop-color:#CCCCCC"/>
</linearGradient>
<polygon class="st7" points="300.82,157.21 297.94,157.09 302.03,10.86 304.91,10.98 "/>
<circle class="st8" cx="197.5" cy="118.5" r="20.5"/>
<linearGradient id="SVGID_4_" gradientUnits="userSpaceOnUse" x1="280.8411" y1="81.5102" x2="284.981" y2="81.5102" gradientTransform="matrix(0.9594 0.034 -0.0286 0.8079 19.9284 8.1388)">
	<stop  offset="0" style="stop-color:#CCCCCC"/>
	<stop  offset="0.265" style="stop-color:#D5D5D5"/>
	<stop  offset="0.5674" style="stop-color:#E6E6E6"/>
	<stop  offset="0.8652" style="stop-color:#F2F2F2"/>
	<stop  offset="0.9944" style="stop-color:#CCCCCC"/>
</linearGradient>
<polygon class="st9" points="288.39,156.79 285.52,156.67 289.61,10.44 292.48,10.56 "/>
<linearGradient id="SVGID_5_" gradientUnits="userSpaceOnUse" x1="-3117.9043" y1="120.2474" x2="-2859.7671" y2="120.2474" gradientTransform="matrix(0.0439 1.403103e-03 -0.072 2.2523 264.3411 -181.8899)">
	<stop  offset="0" style="stop-color:#F2F2F2"/>
	<stop  offset="0.4721" style="stop-color:#E9E9E9"/>
	<stop  offset="0.5674" style="stop-color:#E6E6E6"/>
	<stop  offset="0.8652" style="stop-color:#E6E6E6"/>
	<stop  offset="0.9944" style="stop-color:#F2F2F2"/>
</linearGradient>
<polygon class="st10" points="127.82,156.87 116.49,156.56 121.1,12.63 132.43,12.94 "/>
<linearGradient id="SVGID_6_" gradientUnits="userSpaceOnUse" x1="103.3054" y1="89.1517" x2="107.4454" y2="89.1517" gradientTransform="matrix(0.9594 0.034 -0.0286 0.8079 19.9284 8.1388)">
	<stop  offset="0" style="stop-color:#CCCCCC"/>
	<stop  offset="0.265" style="stop-color:#D5D5D5"/>
	<stop  offset="0.5674" style="stop-color:#E6E6E6"/>
	<stop  offset="0.8652" style="stop-color:#F2F2F2"/>
	<stop  offset="0.9944" style="stop-color:#CCCCCC"/>
</linearGradient>
<polygon class="st11" points="117.86,156.92 114.98,156.8 119.07,10.58 121.95,10.7 "/>
<linearGradient id="SVGID_7_" gradientUnits="userSpaceOnUse" x1="115.7981" y1="88.6257" x2="119.9381" y2="88.6257" gradientTransform="matrix(0.9594 0.034 -0.0286 0.8079 19.9284 8.1388)">
	<stop  offset="0" style="stop-color:#CCCCCC"/>
	<stop  offset="0.265" style="stop-color:#D5D5D5"/>
	<stop  offset="0.5674" style="stop-color:#E6E6E6"/>
	<stop  offset="0.8652" style="stop-color:#F2F2F2"/>
	<stop  offset="0.9944" style="stop-color:#CCCCCC"/>
</linearGradient>
<polygon class="st12" points="129.86,156.92 126.98,156.8 131.07,10.58 133.95,10.7 "/>
<polygon class="st0" points="200.13,75.17 194.47,74.88 194.92,23.8 200.57,24.1 "/>
<polygon class="st0" points="266.28,75.09 260.62,74.82 260.75,23.81 266.41,24.07 "/>
<linearGradient id="SVGID_8_" gradientUnits="userSpaceOnUse" x1="129.0186" y1="108.4845" x2="161.9814" y2="127.5155" gradientTransform="matrix(0.9996 0.0287 -0.0287 0.9996 3.4483 -4.1292)">
	<stop  offset="5.586592e-03" style="stop-color:#E6E6E6"/>
	<stop  offset="0.5279" style="stop-color:#F2F2F2"/>
	<stop  offset="1" style="stop-color:#E6E6E6"/>
</linearGradient>
<polygon class="st13" points="148.08,150.09 141.08,149.89 142.92,85.91 149.92,86.11 "/>
<linearGradient id="SVGID_9_" gradientUnits="userSpaceOnUse" x1="256.0186" y1="108.4845" x2="288.9814" y2="127.5155" gradientTransform="matrix(0.9996 0.0287 -0.0287 0.9996 3.5006 -7.7759)">
	<stop  offset="5.586592e-03" style="stop-color:#E6E6E6"/>
	<stop  offset="0.5279" style="stop-color:#F2F2F2"/>
	<stop  offset="1" style="stop-color:#E6E6E6"/>
</linearGradient>
<polygon class="st14" points="275.08,150.09 268.08,149.89 269.92,85.91 276.92,86.11 "/>
<linearGradient id="SVGID_10_" gradientUnits="userSpaceOnUse" x1="38.831" y1="110.9306" x2="71.7938" y2="129.9617" gradientTransform="matrix(1 0 0 1 -4.749799e-03 -2.5615)">
	<stop  offset="5.586592e-03" style="stop-color:#E6E6E6"/>
	<stop  offset="0.5279" style="stop-color:#F2F2F2"/>
	<stop  offset="1" style="stop-color:#E6E6E6"/>
</linearGradient>
<rect x="51.81" y="85.88" class="st15" width="7" height="64"/>
<polygon class="st0" points="112.96,77.15 107.3,76.86 107.85,23.55 113.51,23.84 "/>
<polygon class="st0" points="358.19,76.1 352.53,75.84 352.78,22.4 358.44,22.66 "/>
</svg>
