<?xml version="1.0" encoding="utf-8"?>
<!-- Generator: Adobe Illustrator 24.1.1, SVG Export Plug-In . SVG Version: 6.00 Build 0)  -->
<svg version="1.1" id="Layer_1" xmlns="http://www.w3.org/2000/svg" xmlns:xlink="http://www.w3.org/1999/xlink" x="0px" y="0px"
	 viewBox="0 0 311 296" style="enable-background:new 0 0 311 296;" xml:space="preserve">
<style type="text/css">
	.st0{fill:#A4A4A4;}
	.st1{fill:url(#SVGID_1_);}
	.st2{fill:#E6E6E6;stroke:#000000;stroke-miterlimit:10;}
	.st3{fill:url(#SVGID_2_);}
	.st4{fill:#333333;}
	.st5{fill:#222326;}
	.st6{fill:#39B54A;}
	.st7{fill:#10B665;}
	.st8{fill:#CAE444;}
	.st9{fill:#B12E2C;}
	.st10{fill:#E6E6E6;}
	.st11{fill:url(#SVGID_3_);}
	.st12{fill:url(#SVGID_4_);}
</style>
<rect x="28" y="5" class="st0" width="264" height="98"/>
<g>
	
		<linearGradient id="SVGID_1_" gradientUnits="userSpaceOnUse" x1="149.713" y1="92.3698" x2="149.713" y2="288.5721" gradientTransform="matrix(1.0183 -0.0428 0.0436 0.9991 -7.7189 6.6689)">
		<stop  offset="0.2007" style="stop-color:#698C43"/>
		<stop  offset="0.94" style="stop-color:#465534"/>
	</linearGradient>
	<rect x="19" y="98" class="st1" width="268.11" height="185.11"/>
</g>
<ellipse transform="matrix(0.9988 -0.0492 0.0492 0.9988 -4.6019 7.1858)" class="st2" cx="143.77" cy="97.14" rx="15.53" ry="15.42"/>
<linearGradient id="SVGID_2_" gradientUnits="userSpaceOnUse" x1="222.4554" y1="106.8988" x2="190.5628" y2="162.1384" gradientTransform="matrix(0.999 0.0342 -4.790655e-03 0.7285 -1.2144 23.4404)">
	<stop  offset="0.2063" style="stop-color:#F2F2F2"/>
	<stop  offset="1" style="stop-color:#CCCCCC"/>
	<stop  offset="1" style="stop-color:#999999"/>
	<stop  offset="1" style="stop-color:#4A5A36"/>
	<stop  offset="1" style="stop-color:#485735"/>
	<stop  offset="1" style="stop-color:#E6E6E6"/>
</linearGradient>
<polygon class="st3" points="261.08,136.73 147.21,129.27 147.8,120.25 261.67,127.71 "/>
<polygon class="st4" points="286.32,141.69 272.2,142.09 272.56,123.49 286.68,123.08 "/>
<rect x="140" y="187.96" class="st5" width="4" height="92"/>
<g>
	<g>
		<path class="st5" d="M131.47,182.81c3.7,2.22,7.08,5.77,11.76,5.23c1.77-0.2,3.23-1.23,4.58-2.35c1.23-1.02,2.72-2.41,3.07-4.03
			c0.41-1.88-2.48-2.69-2.89-0.8c-0.01,0.04-0.12,0.41-0.01,0.13c-0.05,0.12-0.12,0.23-0.18,0.33c-0.14,0.24-0.29,0.44-0.45,0.63
			c-0.5,0.59-1.07,1.12-1.66,1.61c-1.07,0.88-1.97,1.5-3.24,1.53c-3.63,0.08-6.56-3.14-9.47-4.88
			C131.32,179.22,129.81,181.82,131.47,182.81L131.47,182.81z"/>
	</g>
</g>
<g>
	<path class="st6" d="M135.15,245.87c0.27-1.86,1.77-3.2,3.32-3.97c1.55-0.77,3.25-1.17,4.72-2.11c2.29-1.46,3.75-4.06,5.13-6.56
		c1.51-2.75,3.02-5.5,4.53-8.25c1.39-2.53,2.79-5.07,3.71-7.85c0.39-1.16,0.72-2.41,1.5-3.31c1.69-1.96,4.83-1.31,6.55,0.61
		s2.4,4.67,3.04,7.28c1.62,6.68,3.61,13.75,8.45,18.1c2.22,1.99,5.12,3.58,5.9,6.62c-4.21,0.49-8.51,0.98-12.64-0.02
		c-2.21-0.54-4.33-1.49-6.55-1.96c-3.01-0.64-6.11-0.38-9.16-0.12c-5.97,0.51-11.95,1.02-17.92,1.54"/>
	<g>
		<path class="st7" d="M136.6,246.26c0.54-2.79,3.58-3.4,5.82-4.39c2.54-1.12,4.31-3.09,5.77-5.41c1.69-2.69,3.12-5.56,4.65-8.35
			c1.49-2.72,3.06-5.41,4.28-8.27c0.54-1.27,0.9-2.61,1.43-3.89c0.46-1.12,1.18-1.92,2.47-1.82c2.53,0.21,3.75,2.92,4.41,5.02
			c1.62,5.17,2.46,10.46,4.93,15.35c1.24,2.46,2.87,4.77,4.96,6.58c1.93,1.68,4.5,3.12,5.25,5.73c0.48-0.63,0.96-1.27,1.45-1.9
			c-3.73,0.43-7.6,0.94-11.32,0.23c-1.81-0.34-3.53-1.01-5.28-1.56c-1.86-0.59-3.75-0.95-5.71-1.03c-3.91-0.17-7.88,0.41-11.77,0.75
			c-4.07,0.35-8.13,0.7-12.2,1.05c-1.91,0.16-1.93,3.17,0,3c3.98-0.34,7.97-0.68,11.95-1.02c3.97-0.34,8.03-0.94,12.02-0.77
			c3.81,0.16,7.16,2.03,10.88,2.6c3.81,0.59,7.62,0.2,11.43-0.24c0.94-0.11,1.74-0.87,1.45-1.9c-0.75-2.6-2.63-4.31-4.67-5.94
			c-2.17-1.74-3.93-3.63-5.3-6.06c-1.42-2.53-2.37-5.28-3.17-8.06c-0.81-2.83-1.3-5.79-2.32-8.55c-0.95-2.57-2.48-4.95-5.17-5.91
			c-2.47-0.89-5.15-0.07-6.51,2.21c-0.79,1.32-1.1,2.9-1.66,4.32c-0.63,1.58-1.41,3.09-2.22,4.59c-1.69,3.15-3.44,6.28-5.17,9.41
			c-1.72,3.13-3.33,6.04-6.8,7.42c-2.94,1.18-6.08,2.54-6.76,6.01C133.34,247.35,136.23,248.16,136.6,246.26L136.6,246.26z"/>
	</g>
</g>
<g>
	<g>
		<path class="st8" d="M151.73,233.04c-2.62,2.18-5.25,4.36-7.87,6.54c-0.6,0.5-0.56,1.62,0,2.12c2.55,2.27,6.04,0.21,8.64-0.88
			c0.84-0.35,1.68-0.68,2.51-1.05c0.83-0.37,1.49-1.1,1.49-2.06c0-0.92-0.65-1.67-1.14-2.4c-0.46-0.69-0.93-1.37-1.39-2.06
			c-0.45-0.67-1.32-0.97-2.05-0.54c-0.66,0.39-0.99,1.38-0.54,2.05c0.36,0.53,0.71,1.06,1.07,1.59c0.35,0.51,0.67,1.17,1.09,1.62
			c0.09,0.17,0.08,0.08-0.04-0.26c0.08-0.2,0.16-0.41,0.23-0.61c0.03-0.13,0.15-0.09-0.07,0c-0.08,0.04-0.08,0.04,0,0
			c-0.06,0.03-0.12,0.05-0.18,0.08c-0.15,0.06-0.3,0.13-0.45,0.19c-0.63,0.26-1.25,0.53-1.88,0.79c-1.09,0.46-2.17,0.98-3.3,1.34
			c-0.24,0.08-0.48,0.14-0.72,0.2c-0.03,0.01-0.48,0.06-0.18,0.04c-0.12,0.01-0.24,0.02-0.35,0.02c-0.12,0-0.23,0-0.35-0.01
			c0.22,0.02,0.06,0-0.06-0.03c-0.1-0.03-0.09-0.02,0.05,0.04c-0.04-0.02-0.08-0.04-0.12-0.06c-0.04-0.02-0.08-0.05-0.12-0.07
			c0.12,0.1,0.11,0.1-0.02-0.02c0,0.71,0,1.41,0,2.12c2.62-2.18,5.25-4.36,7.87-6.54c0.62-0.52,0.54-1.59,0-2.12
			C153.24,232.42,152.36,232.52,151.73,233.04L151.73,233.04z"/>
	</g>
</g>
<g>
	<g>
		<path class="st8" d="M162.02,240.49c3.55,1.25,7.1,2.5,10.65,3.75c0.69,0.24,1.74-0.28,1.85-1.05c0.25-1.84-0.55-3.35-1.88-4.58
			c-1.27-1.18-2.78-2.13-4.18-3.14c-0.74-0.53-1.46-1.08-2.21-1.6c-0.84-0.58-1.85-0.79-2.75-0.21c-0.83,0.54-1.09,1.6-1.44,2.46
			c-0.37,0.9-0.73,1.8-1.1,2.7c-0.31,0.75,0.33,1.65,1.05,1.85c0.86,0.24,1.54-0.29,1.85-1.05c0.26-0.64,0.52-1.28,0.78-1.93
			c0.14-0.35,0.29-0.71,0.43-1.06c0.07-0.16,0.13-0.32,0.2-0.48c0.03-0.06,0.05-0.13,0.08-0.19c-0.05,0.12-0.05,0.13,0,0.03
			c0.1-0.16,0.02-0.1-0.22,0.18c-0.2,0.04-0.39,0.08-0.59,0.12c-0.02,0-0.05-0.01-0.07-0.01c0.07,0.04,0.14,0.09,0.2,0.14
			c0.28,0.19,0.55,0.4,0.83,0.6c0.59,0.43,1.19,0.86,1.78,1.29c0.57,0.41,1.13,0.82,1.7,1.23c0.52,0.38,0.87,0.61,1.29,0.97
			c0.21,0.18,0.42,0.37,0.61,0.58c0.23,0.24,0.3,0.32,0.43,0.52c0.07,0.11,0.13,0.22,0.2,0.34c0.02,0.05,0.04,0.09,0.07,0.14
			c-0.05-0.1-0.05-0.1-0.02-0.01c0.02,0.09,0.08,0.33,0.05,0.11c0.01,0.06-0.01,0.47,0.03,0.21c0.62-0.35,1.23-0.7,1.85-1.05
			c-3.55-1.25-7.1-2.5-10.65-3.75c-0.76-0.27-1.64,0.31-1.85,1.05C160.74,239.47,161.25,240.22,162.02,240.49L162.02,240.49z"/>
	</g>
</g>
<g>
	<circle class="st8" cx="160" cy="232" r="10"/>
</g>
<rect x="143.23" y="247" class="st5" width="2.77" height="33"/>
<rect x="168.76" y="249" class="st5" width="3.24" height="29.82"/>
<circle class="st9" cx="158.5" cy="263.5" r="10.5"/>
<rect x="10" y="280" class="st10" width="286" height="13"/>
<rect x="10" y="4" class="st10" width="18" height="285"/>
<rect x="287" y="4" class="st10" width="18" height="289"/>
<linearGradient id="SVGID_3_" gradientUnits="userSpaceOnUse" x1="151.4007" y1="114.3803" x2="140.3372" y2="133.5428">
	<stop  offset="0.2063" style="stop-color:#F2F2F2"/>
	<stop  offset="1" style="stop-color:#999999"/>
	<stop  offset="1" style="stop-color:#4A5A36"/>
	<stop  offset="1" style="stop-color:#485735"/>
	<stop  offset="1" style="stop-color:#465534"/>
</linearGradient>
<ellipse class="st11" cx="145.87" cy="123.96" rx="11.13" ry="11.04"/>
<linearGradient id="SVGID_4_" gradientUnits="userSpaceOnUse" x1="273.8394" y1="122.1495" x2="262.7759" y2="141.312">
	<stop  offset="0.2063" style="stop-color:#F2F2F2"/>
	<stop  offset="1" style="stop-color:#999999"/>
	<stop  offset="1" style="stop-color:#4A5A36"/>
	<stop  offset="1" style="stop-color:#485735"/>
	<stop  offset="1" style="stop-color:#465534"/>
</linearGradient>
<ellipse class="st12" cx="268.31" cy="131.73" rx="11.13" ry="11.04"/>
<g>
	<g>
		<path class="st10" d="M189.84,249.64c9.99,3.08,20.45,3.25,30.64,1.04c10.19-2.2,19.82-6.38,29.29-10.64
			c4.43-1.99,9.27-3.9,12.16-8.03c0.22-0.32-0.3-0.62-0.52-0.3c-2.6,3.71-6.89,5.53-10.89,7.34c-4.69,2.11-9.39,4.21-14.18,6.08
			c-9.22,3.59-18.9,6.38-28.86,6.5c-5.92,0.07-11.81-0.82-17.47-2.56C189.63,248.94,189.48,249.52,189.84,249.64L189.84,249.64z"/>
	</g>
</g>
<g>
	<g>
		<path class="st10" d="M188.81,252.84c7.78,0.26,15.59-0.52,23.16-2.34c3.88-0.93,7.7-2.14,11.41-3.6c3.19-1.26,6.49-2.6,9.33-4.55
			c2.59-1.78,4.81-4.21,4.99-7.48c0.02-0.39-0.58-0.38-0.6,0c-0.23,4.22-4.09,6.88-7.52,8.63c-4.14,2.11-8.53,3.78-12.97,5.12
			c-9,2.72-18.4,3.94-27.8,3.62C188.42,252.23,188.42,252.83,188.81,252.84L188.81,252.84z"/>
	</g>
</g>
<g>
	<g>
		<path class="st10" d="M192.72,255.9c22.16,2.51,45.06-2.7,63.93-14.59c4.6-2.9,9.96-6.2,11.88-11.57
			c0.13-0.36-0.45-0.52-0.58-0.16c-1.82,5.09-6.91,8.23-11.25,10.99c-4.51,2.87-9.26,5.36-14.18,7.44
			c-10.05,4.27-20.81,6.87-31.7,7.66c-6.04,0.44-12.1,0.31-18.11-0.37C192.34,255.26,192.34,255.86,192.72,255.9L192.72,255.9z"/>
	</g>
</g>
<g>
	<g>
		<path class="st10" d="M191.45,266.35c13.97-2.2,27.88-4.75,41.71-7.67c12.11-2.55,24.73-5.23,34.98-12.57
			c4.95-3.54,9.18-8.07,11.89-13.56c0.17-0.35-0.35-0.65-0.52-0.3c-5.28,10.67-15.92,17.15-26.85,20.87
			c-5.94,2.02-12.08,3.37-18.22,4.68c-6.75,1.44-13.53,2.79-20.32,4.05c-7.6,1.42-15.21,2.72-22.85,3.92
			C190.91,265.84,191.07,266.41,191.45,266.35L191.45,266.35z"/>
	</g>
</g>
<g>
	<g>
		<path class="st10" d="M183.29,260.55c18.18,1.98,36.87-1.44,53.13-9.82c3.7-1.91,7.65-4.14,9.25-8.21
			c0.14-0.36-0.44-0.52-0.58-0.16c-1.51,3.83-5.31,5.96-8.78,7.75c-3.96,2.05-8.06,3.8-12.27,5.26c-8.38,2.89-17.16,4.59-26.01,5.03
			c-4.92,0.24-9.85,0.09-14.74-0.45C182.91,259.91,182.91,260.51,183.29,260.55L183.29,260.55z"/>
	</g>
</g>
<g>
	<g>
		<path class="st10" d="M81.53,236.73c1.98,1.22,3.27,3.14,4.82,4.81c1.27,1.37,2.7,2.6,4.24,3.67c3.18,2.22,6.81,3.77,10.54,4.78
			c9.07,2.45,18.59,1.59,27.82,0.75c0.38-0.03,0.39-0.64,0-0.6c-9.17,0.83-18.64,1.71-27.66-0.73c-3.82-1.03-7.5-2.63-10.72-4.95
			c-1.71-1.23-3.23-2.66-4.6-4.26c-1.27-1.47-2.47-2.97-4.14-4C81.5,236.01,81.2,236.53,81.53,236.73L81.53,236.73z"/>
	</g>
</g>
<g>
	<g>
		<path class="st10" d="M37.05,240.8c22.37,11.83,47.85,17.51,73.13,16.43c7.13-0.3,14.22-1.16,21.22-2.53
			c0.38-0.07,0.22-0.65-0.16-0.58c-24.66,4.84-50.5,2.95-74.24-5.28c-6.76-2.34-13.32-5.21-19.65-8.55
			C37.01,240.1,36.7,240.62,37.05,240.8L37.05,240.8z"/>
	</g>
</g>
<g>
	<g>
		<path class="st10" d="M31.82,247.18c4.79,3.84,9.62,7.72,15.1,10.55c5.7,2.94,11.84,4.06,18.15,4.81
			c14.07,1.68,28.22,2.77,42.38,3.27c8.07,0.29,16.15,0.38,24.23,0.29c0.39,0,0.39-0.6,0-0.6c-13.85,0.16-27.7-0.24-41.52-1.2
			c-6.91-0.48-13.81-1.1-20.7-1.86c-6.73-0.74-13.63-1.36-19.9-4.12c-6.39-2.81-11.9-7.23-17.31-11.57
			C31.95,246.52,31.52,246.94,31.82,247.18L31.82,247.18z"/>
	</g>
</g>
<g>
	<g>
		<path class="st10" d="M57.31,239.54c14.3,10.5,31.88,16.3,49.61,16.53c5,0.07,9.99-0.32,14.91-1.13c0.38-0.06,0.22-0.64-0.16-0.58
			c-17.44,2.88-35.68,0.09-51.53-7.72c-4.4-2.17-8.59-4.72-12.54-7.62C57.31,238.79,57.01,239.31,57.31,239.54L57.31,239.54z"/>
	</g>
</g>
<g>
	<g>
		<path class="st10" d="M41.45,242.98c5.86,8.59,15.61,13.13,25.43,15.57c12.1,3.02,24.95,3.77,37.38,3.3
			c7.6-0.29,15.17-1.15,22.64-2.54c0.38-0.07,0.22-0.65-0.16-0.58c-12.97,2.42-26.23,3.18-39.4,2.23
			c-10.9-0.79-22.33-2.33-32.23-7.24c-5.21-2.59-9.86-6.21-13.15-11.04C41.75,242.36,41.23,242.66,41.45,242.98L41.45,242.98z"/>
	</g>
</g>
</svg>
