<?xml version="1.0" encoding="utf-8"?>
<!-- Generator: Adobe Illustrator 24.1.1, SVG Export Plug-In . SVG Version: 6.00 Build 0)  -->
<svg version="1.1" id="Layer_1" xmlns="http://www.w3.org/2000/svg" xmlns:xlink="http://www.w3.org/1999/xlink" x="0px" y="0px"
	 viewBox="0 0 311 296" style="enable-background:new 0 0 311 296;" xml:space="preserve">
<style type="text/css">
	.st0{fill:#A4A4A4;}
	.st1{fill:url(#SVGID_1_);}
	.st2{fill:#E6E6E6;stroke:#000000;stroke-miterlimit:10;}
	.st3{fill:url(#SVGID_2_);}
	.st4{fill:#333333;}
	.st5{fill:#222326;}
	.st6{fill:#39B54A;}
	.st7{fill:#10B665;}
	.st8{fill:#CAE444;}
	.st9{fill:#B12E2C;}
	.st10{fill:#E6E6E6;}
	.st11{fill:url(#SVGID_3_);}
	.st12{fill:url(#SVGID_4_);}
</style>
<rect x="28" y="5" class="st0" width="264" height="73"/>
<g>
	
		<linearGradient id="SVGID_1_" gradientUnits="userSpaceOnUse" x1="149.1598" y1="72.304" x2="149.1598" y2="288.5721" gradientTransform="matrix(1.0183 -0.0428 0.0436 0.9991 -7.7189 6.6689)">
		<stop  offset="0.2007" style="stop-color:#698C43"/>
		<stop  offset="0.94" style="stop-color:#465534"/>
	</linearGradient>
	<rect x="17" y="78" class="st1" width="270.11" height="205.11"/>
</g>
<ellipse transform="matrix(0.1145 -0.9934 0.9934 0.1145 53.6235 214.9191)" class="st2" cx="147.36" cy="77.38" rx="15" ry="12.07"/>
<linearGradient id="SVGID_2_" gradientUnits="userSpaceOnUse" x1="220.4981" y1="87.9074" x2="188.6055" y2="143.147" gradientTransform="matrix(0.9903 0.1354 -0.0787 0.7242 10.9591 3.1188)">
	<stop  offset="0.2063" style="stop-color:#F2F2F2"/>
	<stop  offset="1" style="stop-color:#CCCCCC"/>
	<stop  offset="1" style="stop-color:#999999"/>
	<stop  offset="1" style="stop-color:#4A5A36"/>
	<stop  offset="1" style="stop-color:#485735"/>
	<stop  offset="1" style="stop-color:#E6E6E6"/>
</linearGradient>
<polygon class="st3" points="259.95,128.44 147.43,109.46 148.93,100.54 261.45,119.52 "/>
<polygon class="st4" points="286.32,133.69 272.2,134.09 272.56,115.49 286.68,115.08 "/>
<rect x="137" y="187.96" class="st5" width="4" height="92"/>
<g>
	<g>
		<path class="st5" d="M128.47,182.81c3.7,2.22,7.08,5.77,11.76,5.23c1.77-0.2,3.23-1.23,4.58-2.35c1.23-1.02,2.72-2.41,3.07-4.03
			c0.41-1.88-2.48-2.69-2.89-0.8c-0.01,0.04-0.12,0.41-0.01,0.13c-0.05,0.12-0.12,0.23-0.18,0.33c-0.14,0.24-0.29,0.44-0.45,0.63
			c-0.5,0.59-1.07,1.12-1.66,1.61c-1.07,0.88-1.97,1.5-3.24,1.53c-3.63,0.08-6.56-3.14-9.47-4.88
			C128.32,179.22,126.81,181.82,128.47,182.81L128.47,182.81z"/>
	</g>
</g>
<g>
	<path class="st6" d="M131.15,245.87c0.27-1.86,1.77-3.2,3.32-3.97c1.55-0.77,3.25-1.17,4.72-2.11c2.29-1.46,3.75-4.06,5.13-6.56
		c1.51-2.75,3.02-5.5,4.53-8.25c1.39-2.53,2.79-5.07,3.71-7.85c0.39-1.16,0.72-2.41,1.5-3.31c1.69-1.96,4.83-1.31,6.55,0.61
		s2.4,4.67,3.04,7.28c1.62,6.68,3.61,13.75,8.45,18.1c2.22,1.99,5.12,3.58,5.9,6.62c-4.21,0.49-8.51,0.98-12.64-0.02
		c-2.21-0.54-4.33-1.49-6.55-1.96c-3.01-0.64-6.11-0.38-9.16-0.12c-5.97,0.51-11.95,1.02-17.92,1.54"/>
	<g>
		<path class="st7" d="M132.6,246.26c0.54-2.79,3.58-3.4,5.82-4.39c2.54-1.12,4.31-3.09,5.77-5.41c1.69-2.69,3.12-5.56,4.65-8.35
			c1.49-2.72,3.06-5.41,4.28-8.27c0.54-1.27,0.9-2.61,1.43-3.89c0.46-1.12,1.18-1.92,2.47-1.82c2.53,0.21,3.75,2.92,4.41,5.02
			c1.62,5.17,2.46,10.46,4.93,15.35c1.24,2.46,2.87,4.77,4.96,6.58c1.93,1.68,4.5,3.12,5.25,5.73c0.48-0.63,0.96-1.27,1.45-1.9
			c-3.73,0.43-7.6,0.94-11.32,0.23c-1.81-0.34-3.53-1.01-5.28-1.56c-1.86-0.59-3.75-0.95-5.71-1.03c-3.91-0.17-7.88,0.41-11.77,0.75
			c-4.07,0.35-8.13,0.7-12.2,1.05c-1.91,0.16-1.93,3.17,0,3c3.98-0.34,7.97-0.68,11.95-1.02c3.97-0.34,8.03-0.94,12.02-0.77
			c3.81,0.16,7.16,2.03,10.88,2.6c3.81,0.59,7.62,0.2,11.43-0.24c0.94-0.11,1.74-0.87,1.45-1.9c-0.75-2.6-2.63-4.31-4.67-5.94
			c-2.17-1.74-3.93-3.63-5.3-6.06c-1.42-2.53-2.37-5.28-3.17-8.06c-0.81-2.83-1.3-5.79-2.32-8.55c-0.95-2.57-2.48-4.95-5.17-5.91
			c-2.47-0.89-5.15-0.07-6.51,2.21c-0.79,1.32-1.1,2.9-1.66,4.32c-0.63,1.58-1.41,3.09-2.22,4.59c-1.69,3.15-3.44,6.28-5.17,9.41
			c-1.72,3.13-3.33,6.04-6.8,7.42c-2.94,1.18-6.08,2.54-6.76,6.01C129.34,247.35,132.23,248.16,132.6,246.26L132.6,246.26z"/>
	</g>
</g>
<g>
	<g>
		<path class="st8" d="M149.72,234.01c-2.62,2.19-5.24,4.37-7.86,6.56c-0.6,0.5-0.56,1.62,0,2.12c2.55,2.28,6.03,0.21,8.63-0.89
			c0.83-0.35,1.68-0.69,2.51-1.05c0.83-0.37,1.49-1.1,1.49-2.06c0-0.92-0.65-1.68-1.14-2.4c-0.46-0.69-0.93-1.38-1.39-2.07
			c-0.45-0.67-1.32-0.97-2.05-0.54c-0.67,0.39-0.99,1.38-0.54,2.05c0.36,0.53,0.71,1.06,1.07,1.59c0.35,0.52,0.67,1.17,1.09,1.63
			c0.09,0.17,0.08,0.08-0.04-0.26c0.08-0.2,0.16-0.41,0.23-0.61c0.03-0.13,0.15-0.09-0.07,0c-0.08,0.04-0.08,0.04,0.01,0
			c-0.06,0.03-0.12,0.05-0.18,0.08c-0.15,0.06-0.3,0.13-0.45,0.19c-0.63,0.26-1.25,0.53-1.88,0.79c-1.09,0.46-2.17,0.98-3.29,1.34
			c-0.24,0.08-0.48,0.14-0.72,0.2c-0.03,0.01-0.48,0.06-0.18,0.04c-0.12,0.01-0.24,0.02-0.35,0.02c-0.12,0-0.23,0-0.35-0.01
			c0.22,0.02,0.06,0-0.06-0.04c-0.1-0.03-0.09-0.02,0.05,0.04c-0.04-0.02-0.08-0.04-0.12-0.06c-0.04-0.02-0.08-0.05-0.12-0.07
			c0.12,0.1,0.11,0.1-0.02-0.02c0,0.71,0,1.41,0,2.12c2.62-2.19,5.24-4.37,7.86-6.56c0.62-0.52,0.54-1.58,0-2.12
			C151.23,233.39,150.35,233.49,149.72,234.01L149.72,234.01z"/>
	</g>
</g>
<g>
	<g>
		<path class="st8" d="M159.95,241.09c3.25,1.04,6.5,2.08,9.75,3.13c0.71,0.23,1.72-0.27,1.85-1.05c0.57-3.43-2.99-5.25-5.36-6.9
			c-0.66-0.46-1.33-0.93-1.99-1.39c-0.86-0.59-1.87-0.88-2.81-0.27c-0.74,0.48-1.01,1.37-1.35,2.14c-0.33,0.76-0.67,1.52-1,2.28
			c-0.33,0.74-0.22,1.61,0.54,2.05c0.64,0.37,1.73,0.21,2.05-0.54c0.5-1.15,0.97-2.33,1.52-3.46c0.03-0.06,0.06-0.12,0.09-0.18
			c0.1-0.16,0.02-0.09-0.24,0.21c-0.26,0.02-0.51,0.03-0.77,0.05c0.05,0.03,0.1,0.06,0.15,0.09c0.23,0.2,0.53,0.36,0.78,0.54
			c0.56,0.39,1.12,0.78,1.67,1.16c0.53,0.37,1.06,0.74,1.59,1.11c0.25,0.17,0.49,0.34,0.74,0.51c0.1,0.07,0.2,0.14,0.3,0.22
			c-0.16-0.12,0.05,0.05,0.11,0.09c0.19,0.16,0.37,0.33,0.55,0.51c0.08,0.09,0.17,0.18,0.24,0.27c-0.13-0.16,0.01,0.02,0.06,0.1
			c0.06,0.1,0.12,0.2,0.17,0.3c-0.1-0.18-0.01-0.03,0.02,0.08c0.04,0.14,0.04,0.28,0.03,0.06c0,0.07-0.03,0.45,0.02,0.15
			c0.62-0.35,1.23-0.7,1.85-1.05c-3.25-1.04-6.5-2.08-9.75-3.13c-0.75-0.24-1.67,0.28-1.85,1.05
			C158.71,240.06,159.15,240.83,159.95,241.09L159.95,241.09z"/>
	</g>
</g>
<g>
	<circle class="st8" cx="156" cy="232" r="10"/>
</g>
<rect x="140" y="247" class="st5" width="5" height="32.84"/>
<rect x="165.76" y="248.91" class="st5" width="3.58" height="30.91"/>
<circle class="st9" cx="155.5" cy="263.5" r="10.5"/>
<rect x="10" y="280" class="st10" width="286" height="13"/>
<rect x="10" y="4" class="st10" width="18" height="285"/>
<rect x="287" y="4" class="st10" width="18" height="289"/>
<linearGradient id="SVGID_3_" gradientUnits="userSpaceOnUse" x1="151.4007" y1="94.3803" x2="140.3372" y2="113.5428">
	<stop  offset="0.2063" style="stop-color:#F2F2F2"/>
	<stop  offset="1" style="stop-color:#999999"/>
	<stop  offset="1" style="stop-color:#4A5A36"/>
	<stop  offset="1" style="stop-color:#485735"/>
	<stop  offset="1" style="stop-color:#465534"/>
</linearGradient>
<ellipse class="st11" cx="145.87" cy="103.96" rx="11.13" ry="11.04"/>
<linearGradient id="SVGID_4_" gradientUnits="userSpaceOnUse" x1="273.8394" y1="115.1495" x2="262.7759" y2="134.312">
	<stop  offset="0.2063" style="stop-color:#F2F2F2"/>
	<stop  offset="1" style="stop-color:#999999"/>
	<stop  offset="1" style="stop-color:#4A5A36"/>
	<stop  offset="1" style="stop-color:#485735"/>
	<stop  offset="1" style="stop-color:#465534"/>
</linearGradient>
<ellipse class="st12" cx="268.31" cy="124.73" rx="11.13" ry="11.04"/>
</svg>
