<?xml version="1.0" encoding="utf-8"?>
<!-- Generator: Adobe Illustrator 24.1.1, SVG Export Plug-In . SVG Version: 6.00 Build 0)  -->
<svg version="1.1" id="Layer_1" xmlns="http://www.w3.org/2000/svg" xmlns:xlink="http://www.w3.org/1999/xlink" x="0px" y="0px"
	 viewBox="0 0 75 75" style="enable-background:new 0 0 75 75;" xml:space="preserve">
<style type="text/css">
	.st0{fill:#00B33D;}
	.st1{fill:#060909;stroke:#09AB39;stroke-width:5;stroke-miterlimit:10;}
	.st2{fill:#00B33D;stroke:#808080;stroke-width:0.3;stroke-miterlimit:10;}
	.st3{fill:none;}
</style>
<rect x="44.5" y="15.5" transform="matrix(-1.836970e-16 1 -1 -1.836970e-16 85.5 -39.5)" class="st0" width="36" height="15"/>
<circle class="st1" cx="40.5" cy="41.5" r="27"/>
<circle class="st0" cx="40.5" cy="41.5" r="11.5"/>
<rect x="6" y="35" class="st0" width="27" height="15"/>
<ellipse class="st0" cx="4.5" cy="42.5" rx="3.5" ry="13.5"/>
<ellipse class="st0" cx="62" cy="4" rx="12" ry="3"/>
<ellipse class="st2" cx="62" cy="4" rx="11" ry="2.5"/>
<ellipse class="st2" cx="4.5" cy="42.5" rx="2.5" ry="12.5"/>
<line class="st3" x1="43" y1="20" x2="51" y2="12"/>
<g>
	<g>
		<path class="st0" d="M39.5,17c0.41,4.33,0.91,8.85-0.81,12.98c-0.22,0.53,0.65,0.77,0.87,0.24c1.75-4.2,1.25-8.81,0.84-13.22
			C40.35,16.43,39.45,16.42,39.5,17L39.5,17z"/>
	</g>
</g>
<g>
	<g>
		<path class="st0" d="M59.09,25.8c-3,3.08-6.09,6.41-10.3,7.75c-0.55,0.18-0.31,1.04,0.24,0.87c4.38-1.39,7.58-4.78,10.7-7.99
			C60.13,26.02,59.5,25.38,59.09,25.8L59.09,25.8z"/>
	</g>
</g>
<g>
	<g>
		<path class="st0" d="M64.59,44.4c-4.3,0.02-8.83,0.14-12.74-1.93c-0.51-0.27-0.97,0.51-0.45,0.78c4.07,2.14,8.72,2.07,13.2,2.05
			C65.17,45.29,65.17,44.39,64.59,44.4L64.59,44.4z"/>
	</g>
</g>
<g>
	<g>
		<path class="st0" d="M57.26,58.84c-3.65-2.28-7.55-4.59-9.76-8.43c-0.29-0.5-1.07-0.05-0.78,0.45c2.29,3.98,6.3,6.39,10.08,8.75
			C57.3,59.93,57.75,59.15,57.26,58.84L57.26,58.84z"/>
	</g>
</g>
<g>
	<g>
		<path class="st0" d="M35.86,51.68c-1.03,4.17-2.02,8.6-4.98,11.89c-0.39,0.43,0.25,1.07,0.64,0.64c3.07-3.41,4.14-7.95,5.21-12.29
			C36.86,51.35,35.99,51.11,35.86,51.68L35.86,51.68z"/>
	</g>
</g>
</svg>
