<?xml version="1.0" encoding="utf-8"?>
<!-- Generator: Adobe Illustrator 24.1.1, SVG Export Plug-In . SVG Version: 6.00 Build 0)  -->
<svg version="1.1" id="Layer_1" xmlns="http://www.w3.org/2000/svg" xmlns:xlink="http://www.w3.org/1999/xlink" x="0px" y="0px"
	 viewBox="0 0 145 135" style="enable-background:new 0 0 145 135;" xml:space="preserve">
<style type="text/css">
	.st0{fill:#BFBFC1;}
	.st1{fill:#606060;}
	.st2{fill:#A3A3A3;}
	.st3{fill:#B6B7B7;}
	.st4{fill:#717272;}
	.st5{fill:#00002C;stroke:#666666;stroke-miterlimit:10;}
	.st6{fill:url(#SVGID_1_);}
	.st7{fill:url(#SVGID_2_);}
	.st8{fill:url(#SVGID_3_);}
	.st9{fill:url(#SVGID_4_);}
	.st10{fill:url(#SVGID_5_);}
	.st11{fill:url(#SVGID_6_);}
	.st12{fill:url(#SVGID_7_);}
	.st13{fill:url(#SVGID_8_);}
	.st14{fill:#898989;}
	.st15{fill:#B9BABA;}
</style>
<path class="st0" d="M122.08,124.92H25.99c-7.73,0-13.99-6.26-13.99-13.99V43.97c0-7.73,6.26-13.99,13.99-13.99h96.09
	c7.73,0,13.99,6.26,13.99,13.99v66.95C136.07,118.66,129.81,124.92,122.08,124.92z"/>
<rect x="121" y="96" class="st1" width="15" height="10"/>
<path class="st2" d="M120.32,115.05H84.64c-0.36,0-0.66-0.3-0.66-0.66V75.66c0-0.36,0.3-0.66,0.66-0.66h35.68
	c0.36,0,0.66,0.3,0.66,0.66v38.73C120.98,114.76,120.68,115.05,120.32,115.05z"/>
<g>
	<path class="st3" d="M122.51,29.4l-96.45,1.26c-7.07,0.09-12.82,5.7-13.42,12.79l123.55-1.62
		C135.45,34.76,129.58,29.31,122.51,29.4z"/>
</g>
<rect x="33" y="85" class="st2" width="45" height="34"/>
<rect x="21.35" y="90.13" class="st4" width="4.65" height="26.07"/>
<g>
	<path class="st4" d="M27.72,85.01c-1.66,0.03-2.99,1.4-2.96,3.07l0.48,27.97c0.03,1.66,1.4,2.99,3.07,2.96l6.74-0.12l-0.23-34
		L27.72,85.01z"/>
</g>
<rect x="78" y="93" class="st4" width="6" height="16"/>
<ellipse class="st5" cx="103.5" cy="98.5" rx="20" ry="19"/>
<g>
	
		<linearGradient id="SVGID_1_" gradientUnits="userSpaceOnUse" x1="219.8818" y1="170.4228" x2="227.5962" y2="183.7845" gradientTransform="matrix(0.5973 0.802 -0.802 0.5973 121.188 -194.2118)">
		<stop  offset="0.0112" style="stop-color:#A6A6A6"/>
		<stop  offset="1" style="stop-color:#B9B9BB"/>
	</linearGradient>
	<polygon class="st6" points="120.1,88.76 116.81,84.34 112.4,87.63 105.23,93.9 107.7,97.22 115.66,92.06 	"/>
</g>
<g>
	
		<linearGradient id="SVGID_2_" gradientUnits="userSpaceOnUse" x1="106.4559" y1="-23.6397" x2="114.1703" y2="-10.278" gradientTransform="matrix(-1.156950e-03 1 -1 -1.156950e-03 98.6961 -11.8458)">
		<stop  offset="5.586592e-03" style="stop-color:#AAAAAA"/>
		<stop  offset="1" style="stop-color:#B7B7B9"/>
	</linearGradient>
	<polygon class="st7" points="122.73,101.04 122.73,95.54 117.23,95.54 107.73,96.27 107.73,100.4 117.2,101.04 	"/>
</g>
<g>
	
		<linearGradient id="SVGID_3_" gradientUnits="userSpaceOnUse" x1="47.1572" y1="108.9026" x2="54.8716" y2="122.2643" gradientTransform="matrix(-0.5522 0.8337 -0.8337 -0.5522 237.123 127.1759)">
		<stop  offset="0.0112" style="stop-color:#ACACAC"/>
		<stop  offset="1" style="stop-color:#B5B5B7"/>
	</linearGradient>
	<polygon class="st8" points="117.19,111.98 120.23,107.4 115.64,104.36 107.31,99.74 105.03,103.18 112.58,108.93 	"/>
</g>
<g>
	
		<linearGradient id="SVGID_4_" gradientUnits="userSpaceOnUse" x1="-32.1595" y1="228.9267" x2="-24.4451" y2="242.2884" gradientTransform="matrix(-0.9976 -0.0699 0.0699 -0.9976 58.4721 342.623)">
		<stop  offset="0.0112" style="stop-color:#ADADAE"/>
		<stop  offset="1" style="stop-color:#B8B8BA"/>
	</linearGradient>
	<polygon class="st9" points="100.13,116.58 105.62,116.96 106,111.48 105.92,101.95 101.8,101.66 100.52,111.06 	"/>
</g>
<g>
	
		<linearGradient id="SVGID_5_" gradientUnits="userSpaceOnUse" x1="56.5833" y1="361.3543" x2="64.2977" y2="374.716" gradientTransform="matrix(-0.56 -0.8285 0.8285 -0.56 -177.0193 361.4509)">
		<stop  offset="0.0112" style="stop-color:#ACACAC"/>
		<stop  offset="1" style="stop-color:#B4B4B6"/>
	</linearGradient>
	<polygon class="st10" points="86.64,107.19 89.72,111.75 94.28,108.67 101.73,102.73 99.42,99.3 91.22,104.09 	"/>
</g>
<g>
	
		<linearGradient id="SVGID_6_" gradientUnits="userSpaceOnUse" x1="84.5207" y1="226.3635" x2="92.2351" y2="239.7253" gradientTransform="matrix(-7.948524e-04 -1 1.0846 -8.620919e-04 -161.153 186.665)">
		<stop  offset="0.0112" style="stop-color:#A8A8A8"/>
		<stop  offset="0.9944" style="stop-color:#B8B8BA"/>
	</linearGradient>
	<polygon class="st11" points="83.73,95.54 83.73,101.04 89.7,101.04 100,100.29 100,96.15 89.73,95.54 	"/>
</g>
<g>
	
		<linearGradient id="SVGID_7_" gradientUnits="userSpaceOnUse" x1="188.1757" y1="314.1833" x2="195.8901" y2="327.5451" gradientTransform="matrix(0.7166 -0.6974 0.6974 0.7166 -265.9021 -6.0996)">
		<stop  offset="0.0112" style="stop-color:#A6A6A6"/>
		<stop  offset="1" style="stop-color:#B7B7B9"/>
		<stop  offset="1" style="stop-color:#567EE3"/>
	</linearGradient>
	<polygon class="st12" points="92.3,82.97 88.36,86.81 92.2,90.75 99.36,97.04 102.32,94.16 96.16,86.94 	"/>
</g>
<g>
	<linearGradient id="SVGID_8_" gradientUnits="userSpaceOnUse" x1="99.5948" y1="81.0226" x2="107.3092" y2="94.3843">
		<stop  offset="0.0112" style="stop-color:#A3A3A3"/>
		<stop  offset="1" style="stop-color:#BFBFC1"/>
	</linearGradient>
	<polygon class="st13" points="106,80.5 100.5,80.5 100.5,86 101.25,95.5 105.38,95.5 106,86.03 	"/>
</g>
<path class="st2" d="M110.29,75.01h-17.1c-0.36,0-0.66-0.3-0.66-0.66v-2.19c0-0.36,0.3-0.66,0.66-0.66h17.1
	c0.36,0,0.66,0.3,0.66,0.66v2.19C110.95,74.71,110.66,75.01,110.29,75.01z"/>
<rect x="99.6" y="56" transform="matrix(-1.836970e-16 1 -1 -1.836970e-16 170.9615 -32.8846)" class="st14" width="4.65" height="26.07"/>
<path class="st3" d="M102.17,30.66h-17.1c-0.36,0-0.66-0.3-0.66-0.66v-2.19c0-0.36,0.3-0.66,0.66-0.66h17.1
	c0.36,0,0.66,0.3,0.66,0.66V30C102.83,30.36,102.53,30.66,102.17,30.66z"/>
<path class="st3" d="M114.49,27.98H72.11c-0.36,0-0.66-0.3-0.66-0.66v-3.58c0-0.36,0.3-0.66,0.66-0.66h42.38
	c0.36,0,0.66,0.3,0.66,0.66v3.58C115.15,27.69,114.85,27.98,114.49,27.98z"/>
<circle class="st2" cx="103.5" cy="98.5" r="4.5"/>
<g>
	<g>
		<path class="st15" d="M104.38,98.72c0.05-0.14,0.11-0.28,0.16-0.42c0.01-0.04,0.1-0.27,0.03-0.08c0.02-0.05,0.04-0.1,0.07-0.15
			c0.12-0.26,0.24-0.52,0.37-0.78c0.26-0.51,0.55-0.99,0.87-1.47c0.22-0.33,0.07-0.84-0.27-1.03c-0.38-0.2-0.79-0.08-1.03,0.27
			c-0.68,1.02-1.22,2.11-1.65,3.26c-0.14,0.37,0.15,0.84,0.52,0.92C103.88,99.34,104.23,99.12,104.38,98.72L104.38,98.72z"/>
	</g>
</g>
<g>
	<g>
		<path class="st15" d="M103.81,99.28c0.26-0.01,0.53,0,0.79,0.01c0.14,0.01,0.28,0.02,0.42,0.04c0.05,0.01,0.13,0.01,0.18,0.02
			c-0.18-0.05,0.03,0,0.07,0.01c0.53,0.08,1.05,0.21,1.56,0.38c0.37,0.13,0.84-0.14,0.92-0.52c0.09-0.42-0.13-0.79-0.52-0.92
			c-1.1-0.37-2.27-0.55-3.42-0.52c-0.39,0.01-0.77,0.34-0.75,0.75C103.08,98.93,103.39,99.29,103.81,99.28L103.81,99.28z"/>
	</g>
</g>
<g>
	<g>
		<path class="st15" d="M103.3,99.51c0.09,0.09,0.17,0.19,0.25,0.28c0.06,0.08-0.01-0.01-0.03-0.04c0.02,0.03,0.04,0.05,0.06,0.08
			c0.04,0.05,0.07,0.1,0.11,0.16c0.07,0.11,0.13,0.21,0.19,0.33c0.03,0.06,0.06,0.11,0.09,0.17c0.01,0.03,0.03,0.06,0.04,0.09
			c0.01,0.02,0.07,0.15,0.02,0.04c-0.05-0.11,0,0,0.01,0.02c0.01,0.03,0.02,0.06,0.03,0.09c0.02,0.06,0.04,0.12,0.06,0.18
			c0.04,0.12,0.07,0.24,0.1,0.37c0.01,0.06,0.03,0.12,0.04,0.19c0.01,0.03,0.01,0.06,0.02,0.09c0.02,0.1-0.02-0.16-0.01-0.06
			c0.01,0.13,0.02,0.27,0.03,0.4c0.01,0.39,0.34,0.77,0.75,0.75c0.4-0.02,0.76-0.33,0.75-0.75c-0.03-1.28-0.54-2.52-1.44-3.44
			c-0.27-0.28-0.79-0.3-1.06,0C103.02,98.75,103.01,99.21,103.3,99.51L103.3,99.51z"/>
	</g>
</g>
<g>
	<g>
		<path class="st15" d="M102.65,99.15c-0.05,0.25-0.12,0.49-0.22,0.73c-0.01,0.02-0.06,0.15-0.01,0.03c0.05-0.11,0.01-0.02,0,0.01
			c-0.03,0.06-0.05,0.12-0.08,0.17c-0.06,0.12-0.13,0.24-0.2,0.35c-0.07,0.11-0.14,0.21-0.21,0.32c-0.01,0.02-0.08,0.1-0.01,0.01
			c0.08-0.1,0,0-0.02,0.02c-0.04,0.05-0.08,0.1-0.12,0.15c-0.17,0.2-0.36,0.38-0.57,0.54c-0.14,0.11-0.22,0.36-0.22,0.53
			c0,0.18,0.08,0.4,0.22,0.53c0.14,0.13,0.33,0.23,0.53,0.22c0.21-0.01,0.37-0.09,0.53-0.22c0.92-0.74,1.58-1.84,1.82-3
			c0.08-0.38-0.11-0.83-0.52-0.92C103.2,98.54,102.74,98.74,102.65,99.15L102.65,99.15z"/>
	</g>
</g>
<g>
	<g>
		<path class="st15" d="M103.58,98.13c-1.38,0-2.77,0-4.15,0c-0.39,0-0.77,0.34-0.75,0.75c0.02,0.41,0.33,0.75,0.75,0.75
			c1.38,0,2.77,0,4.15,0c0.39,0,0.77-0.34,0.75-0.75C104.31,98.48,104,98.13,103.58,98.13L103.58,98.13z"/>
	</g>
</g>
<g>
	<g>
		<path class="st15" d="M103.9,98.07c-0.08-0.04-0.16-0.08-0.23-0.13c-0.03-0.02-0.06-0.04-0.09-0.06
			c-0.06-0.04,0.14,0.12,0.02,0.01c-0.06-0.05-0.12-0.11-0.17-0.16c-0.03-0.03-0.06-0.06-0.09-0.1c-0.02-0.02-0.1-0.13-0.02-0.03
			c0.07,0.1,0-0.01-0.02-0.03c-0.03-0.04-0.05-0.07-0.07-0.11c-0.05-0.07-0.1-0.15-0.14-0.23c-0.08-0.15-0.16-0.3-0.23-0.45
			c-0.3-0.63-0.53-1.3-0.92-1.89c-0.21-0.33-0.67-0.5-1.03-0.27c-0.33,0.21-0.5,0.67-0.27,1.03c0.82,1.25,1.04,2.98,2.51,3.71
			c0.35,0.17,0.83,0.11,1.03-0.27C104.35,98.76,104.28,98.26,103.9,98.07L103.9,98.07z"/>
	</g>
</g>
</svg>
