<?xml version="1.0" encoding="utf-8"?>
<!-- Generator: Adobe Illustrator 24.1.1, SVG Export Plug-In . SVG Version: 6.00 Build 0)  -->
<svg version="1.1" id="Layer_1" xmlns="http://www.w3.org/2000/svg" xmlns:xlink="http://www.w3.org/1999/xlink" x="0px" y="0px"
	 viewBox="0 0 75 75" style="enable-background:new 0 0 75 75;" xml:space="preserve">
<style type="text/css">
	.st0{fill:#CCCCCC;}
	.st1{stroke:#CCCCCC;stroke-width:5;stroke-miterlimit:10;}
	.st2{fill:#CFD0D1;}
	.st3{fill:#CFD0D1;stroke:#808080;stroke-width:0.05;stroke-miterlimit:10;}
</style>
<rect x="32" y="55" class="st0" width="36" height="15"/>
<circle class="st1" cx="30.5" cy="40.5" r="27"/>
<circle class="st1" cx="30.5" cy="39.5" r="11.5"/>
<rect x="18" y="10" transform="matrix(-1.836970e-16 1 -1 -1.836970e-16 48 -13)" class="st2" width="25" height="15"/>
<ellipse class="st2" cx="30.5" cy="4.5" rx="13.5" ry="3.5"/>
<ellipse class="st3" cx="69.5" cy="61" rx="3.5" ry="12"/>
<ellipse class="st3" cx="69.5" cy="61" rx="2.5" ry="11"/>
<ellipse class="st3" cx="30.5" cy="4.5" rx="12.5" ry="2.5"/>
<g>
	<g>
		<path class="st0" d="M6.92,48.24c4.96-1.22,10.12-2.62,15.26-1.71c0.57,0.1,0.81-0.77,0.24-0.87c-5.32-0.94-10.6,0.45-15.74,1.71
			C6.12,47.51,6.36,48.38,6.92,48.24L6.92,48.24z"/>
	</g>
</g>
<g>
	<g>
		<path class="st0" d="M27.82,50.6c-1.29,2.18-2.55,4.42-4.28,6.29c-1.86,2.01-4.19,3.29-6.91,3.71c-0.57,0.09-0.33,0.96,0.24,0.87
			c2.8-0.44,5.26-1.79,7.2-3.84c1.84-1.94,3.17-4.29,4.52-6.58C28.89,50.55,28.12,50.1,27.82,50.6L27.82,50.6z"/>
	</g>
</g>
<g>
	<g>
		<path class="st0" d="M34.92,49.67c3.35,3.34,6.94,6.84,7.28,11.85c0.04,0.57,0.94,0.58,0.9,0c-0.17-2.54-1.09-4.89-2.55-6.96
			c-1.43-2.04-3.23-3.77-4.99-5.52C35.15,48.62,34.51,49.26,34.92,49.67L34.92,49.67z"/>
	</g>
</g>
<g>
	<g>
		<path class="st0" d="M41.19,42.95c4.33,1.37,8.96,2.77,11.69,6.68c0.33,0.47,1.11,0.02,0.78-0.45c-2.88-4.13-7.65-5.64-12.23-7.09
			C40.88,41.91,40.64,42.78,41.19,42.95L41.19,42.95z"/>
	</g>
</g>
<g>
	<g>
		<path class="st0" d="M41.2,36.79c3.86-1.92,7.85-4.02,12.28-3.9c0.58,0.02,0.58-0.88,0-0.9c-4.59-0.12-8.74,2.03-12.74,4.02
			C40.23,36.28,40.69,37.05,41.2,36.79L41.2,36.79z"/>
	</g>
</g>
<g>
	<g>
		<path class="st0" d="M6.65,34.58c4.29,0.38,8.79,0.71,12.5,3.13c0.49,0.32,0.94-0.46,0.45-0.78c-3.84-2.51-8.51-2.85-12.95-3.25
			C6.07,33.63,6.07,34.53,6.65,34.58L6.65,34.58z"/>
	</g>
</g>
</svg>
