<?xml version="1.0" encoding="utf-8"?>
<!-- Generator: Adobe Illustrator 24.1.1, SVG Export Plug-In . SVG Version: 6.00 Build 0)  -->
<svg version="1.1" id="Layer_1" xmlns="http://www.w3.org/2000/svg" xmlns:xlink="http://www.w3.org/1999/xlink" x="0px" y="0px"
	 viewBox="0 0 420 70" style="enable-background:new 0 0 420 70;" xml:space="preserve">
<style type="text/css">
	.st0{fill:#FE0000;}
	.st1{fill:#FE0000;stroke:#FE0000;stroke-miterlimit:10;}
</style>
<rect x="65" y="23" class="st0" width="355" height="21"/>
<path class="st1" d="M68.14,2.64L7.59,26.67c-1.35,0.53-2.45,1.55-3.1,2.84l-0.9,1.8c-0.7,1.4-0.81,3.02-0.32,4.5l0.42,1.26
	c0.52,1.55,1.65,2.81,3.14,3.49L28.5,50.5l22,10l14.19,7.1c1.17,0.59,4.52,1.16,5.81,0.9l2.75-1.35c2.25-1.65,3.55-2.72,4.25-4.65
	l1-3c0.73-2-1.62-5.39-3-7l-6.43-10.34c-0.38-0.44-0.68-0.93-0.92-1.46l-2.79-6.33c-0.67-1.52-0.67-3.24,0-4.76l2.29-5.18
	c0.55-1.26,1.53-2.28,2.76-2.89l5.06-2.53c0.69-0.35,1.31-0.82,1.81-1.4l1.08-1.25c1.89-2.17,1.93-5.38,0.11-7.6l-3.59-4.38
	c-1.44-1.76-3.78-2.53-5.99-1.98v0C68.63,2.47,68.38,2.55,68.14,2.64z"/>
</svg>
