<?xml version="1.0" encoding="UTF-8"?>
<svg id="Layer_2" data-name="Layer 2" xmlns="http://www.w3.org/2000/svg" viewBox="0 0 38.61 38.61">
  <defs>
    <style>
      .cls-1 {
        fill: none;
        stroke: #000;
        stroke-miterlimit: 10;
      }

      .cls-2 {
        fill: #c8c8c8;
      }
    </style>
  </defs>
  <g id="Layer_1-2" data-name="Layer 1">
    <line class="cls-1" x1="19.45" y1="25.5" x2="19.45" y2="15.35"/>
    <path class="cls-2" d="M0,0v38.61h38.61V0H0ZM19.45,9.19c6.42,0,7.96,5.99,7.96,5.99h-15.92s1.44-5.99,7.96-5.99ZM9.78,29.42v-7.55l9.59,3.77-9.59,3.77ZM28.84,29.36l-9.59-3.77,9.59-3.77v7.55Z"/>
    <g>
      <line class="cls-1" x1="19.47" y1="25.66" x2="19.47" y2="15.51"/>
      <polygon class="cls-1" points="19.38 25.81 9.79 22.03 9.79 29.58 19.38 25.81"/>
      <polygon class="cls-1" points="19.26 25.75 28.85 29.52 28.85 21.97 19.26 25.75"/>
      <path class="cls-1" d="M19.47,9.35c-6.52,0-7.96,5.99-7.96,5.99h15.92s-1.54-5.99-7.96-5.99Z"/>
    </g>
  </g>
</svg>