<?xml version="1.0" encoding="UTF-8"?>
<svg id="Layer_2" data-name="Layer 2" xmlns="http://www.w3.org/2000/svg" viewBox="0 0 62.1 62.1">
  <defs>
    <style>
      .cls-1 {
        fill: none;
        stroke: #000;
        stroke-miterlimit: 10;
      }

      .cls-2 {
        fill: #c8c8c8;
      }
    </style>
  </defs>
  <g id="Layer_1-2" data-name="Layer 1">
    <path class="cls-2" d="M0,0v62.1h62.1V0H0ZM2.66,12.19c0-3.07,6.41-5.55,14.32-5.55s14.32,2.49,14.32,5.55-6.41,5.55-14.32,5.55S2.66,15.25,2.66,12.19ZM31.41,59.63c-8.92,0-9-3.32-9-3.32h18s.03,3.32-9,3.32ZM40.41,55.74h-18v-19.94h18v19.94ZM22.41,35.42s-.03-3.32,9-3.32,9,3.32,9,3.32h-18ZM45.85,17.74c-7.91,0-14.32-2.49-14.32-5.55s6.41-5.55,14.32-5.55,14.32,2.49,14.32,5.55-6.41,5.55-14.32,5.55Z"/>
    <g>
      <rect class="cls-1" x="22.41" y="35.32" width="18" height="19.94"/>
      <path class="cls-1" d="M31.41,31.62c-9.03,0-9,3.32-9,3.32h18s-.08-3.32-9-3.32Z"/>
      <path class="cls-1" d="M31.41,59.16c9.03,0,9-3.32,9-3.32h-18s.08,3.32,9,3.32Z"/>
    </g>
    <g>
      <ellipse class="cls-1" cx="16.98" cy="12.19" rx="14.32" ry="5.55"/>
      <ellipse class="cls-1" cx="45.85" cy="12.19" rx="14.32" ry="5.55"/>
    </g>
    <line class="cls-1" x1="31.41" y1="31.62" x2="31.41" y2="12.19"/>
  </g>
</svg>