<?xml version="1.0" encoding="UTF-8"?>
<svg id="Layer_2" data-name="Layer 2" xmlns="http://www.w3.org/2000/svg" viewBox="0 0 38.86 38.86">
  <defs>
    <style>
      .cls-1 {
        fill: none;
        stroke: #000;
        stroke-miterlimit: 10;
      }

      .cls-2 {
        fill: #c8c8c8;
      }
    </style>
  </defs>
  <g id="Layer_1-2" data-name="Layer 1">
    <g>
      <path class="cls-2" d="M0,0v38.86h38.86V0H0ZM11.74,19.28l7.68,4.99-7.68,4.99v-9.97ZM14.45,32.09l4.99-7.68,4.99,7.68h-9.97ZM27.13,29.26l-7.68-4.99,7.68-4.99v9.97Z"/>
      <g>
        <g>
          <g>
            <polygon class="cls-1" points="19.41 24.32 11.74 19.34 11.74 29.31 19.41 24.32"/>
            <polygon class="cls-1" points="19.44 24.32 27.12 29.31 27.12 19.34 19.44 24.32"/>
          </g>
          <polygon class="cls-1" points="19.43 24.47 14.44 32.15 24.41 32.15 19.43 24.47"/>
        </g>
        <line class="cls-1" x1="19.42" y1="24.32" x2="19.42" y2="16.18"/>
        <rect class="cls-1" x="14.55" y="6.71" width="9.74" height="9.74"/>
        <path d="M19.8,10.37c0-.54-.04-1.06-.66-1.06-.38,0-.62.15-.62.56,0,.46.29.63.64.86.37.23,1.05.68,1.36.98.38.38.5.74.5,1.26,0,1.14-.75,1.73-1.85,1.73-1.34,0-1.82-.75-1.82-1.82v-.44h1.12v.35c-.02.58.15,1.01.7,1.01.47,0,.7-.25.7-.7,0-.35-.16-.59-.45-.79-.58-.46-1.31-.78-1.77-1.38-.18-.27-.29-.6-.29-.92,0-1.02.58-1.58,1.76-1.58,1.78,0,1.74,1.38,1.74,1.97h-1.08Z"/>
      </g>
    </g>
  </g>
</svg>