<?xml version="1.0" encoding="UTF-8"?>
<svg id="Layer_2" data-name="Layer 2" xmlns="http://www.w3.org/2000/svg" viewBox="0 0 62.1 62.1">
  <defs>
    <style>
      .cls-1 {
        fill: none;
        stroke: #020000;
        stroke-miterlimit: 10;
      }

      .cls-2 {
        fill: #c8c8c8;
      }
    </style>
  </defs>
  <g id="Layer_1-2" data-name="Layer 1">
    <path class="cls-2" d="M0,0v62.1h62.1V0H0ZM31.05,52.32c-11.93,0-21.6-9.52-21.6-21.27S19.12,9.78,31.05,9.78s21.6,9.52,21.6,21.27-9.67,21.27-21.6,21.27Z"/>
    <g>
      <ellipse class="cls-1" cx="31.05" cy="31.05" rx="21.6" ry="21.27"/>
      <line class="cls-1" x1="9.45" y1="31.05" x2="52.65" y2="31.05"/>
    </g>
    <g>
      <path d="M27.11,19.47c-.06-1.33-1.16-1.75-2.13-1.75-.73,0-1.97.2-1.97,1.51,0,.73.52.97,1.02,1.09l2.46.56c1.12.26,1.95.94,1.95,2.3,0,2.04-1.89,2.6-3.37,2.6-1.59,0-2.22-.48-2.6-.83-.73-.66-.88-1.38-.88-2.18h1.09c0,1.56,1.27,2.01,2.38,2.01.84,0,2.25-.22,2.25-1.45,0-.9-.42-1.19-1.83-1.52l-1.76-.41c-.56-.13-1.83-.53-1.83-2.03,0-1.34.88-2.66,2.96-2.66,3.01,0,3.31,1.8,3.36,2.75h-1.09Z"/>
      <path d="M31.26,25.57h-1.16v-8.61h1.16v8.61Z"/>
      <path d="M39.3,19.55c-.32-1.51-1.58-1.79-2.41-1.79-1.56,0-2.82,1.15-2.82,3.42,0,2.03.72,3.59,2.85,3.59.76,0,2.06-.36,2.46-2.36h1.13c-.48,3.25-3.12,3.39-3.77,3.39-1.96,0-3.87-1.27-3.87-4.58,0-2.65,1.51-4.49,4.02-4.49,2.22,0,3.37,1.38,3.54,2.82h-1.13Z"/>
    </g>
    <g>
      <path d="M26.04,38.24c-.13-.74-.54-1.3-1.45-1.3-1.66,0-2,2.23-2,3.12l.02.02c.26-.46.85-1.03,2-1.03,1.03,0,2.64.66,2.64,2.67,0,.86-.23,1.49-.8,2.11-.44.49-.95.82-2.13.82-.65,0-1.57-.29-2.17-1.22-.5-.79-.65-1.82-.65-2.93,0-1.85.6-4.51,3.12-4.51.97,0,2.35.53,2.46,2.24h-1.03ZM24.5,43.71c1.01,0,1.66-.79,1.66-1.93,0-.74-.4-1.78-1.7-1.78-1.16,0-1.73.84-1.73,1.83,0,.9.54,1.87,1.77,1.87Z"/>
      <path d="M28.15,36.18h5.83v.92c-.84.88-2.85,3.56-3.47,7.33h-1.16c.29-2.31,1.82-5.34,3.44-7.22h-4.64v-1.03Z"/>
      <path d="M37.71,44.66c-2.42,0-2.89-2.58-2.89-4.33s.47-4.33,2.89-4.33,2.89,2.58,2.89,4.33-.47,4.33-2.89,4.33ZM37.71,36.95c-1.21,0-1.76,1.27-1.76,3.38s.55,3.38,1.76,3.38,1.76-1.27,1.76-3.38-.55-3.38-1.76-3.38Z"/>
    </g>
  </g>
</svg>