<?xml version="1.0" encoding="UTF-8" standalone="no"?>
<svg xmlns:dc="http://purl.org/dc/elements/1.1/" xmlns:cc="http://creativecommons.org/ns#" xmlns:rdf="http://www.w3.org/1999/02/22-rdf-syntax-ns#" xmlns:svg="http://www.w3.org/2000/svg" xmlns="http://www.w3.org/2000/svg" xmlns:sodipodi="http://sodipodi.sourceforge.net/DTD/sodipodi-0.dtd" xmlns:inkscape="http://www.inkscape.org/namespaces/inkscape" version="1.1" id="svg47911" xml:space="preserve" width="75.519997" height="53.599998" viewBox="0 0 75.519996 53.6" sodipodi:docname="ISO 7000 0032.svg" inkscape:version="1.0.1 (3bc2e813f5, 2020-09-07)"><title id="title100346">Blowing</title><metadata id="metadata47917"><rdf:RDF><cc:Work rdf:about=""><dc:format>image/svg+xml</dc:format><dc:type rdf:resource="http://purl.org/dc/dcmitype/StillImage"/><dc:title>Blowing</dc:title></cc:Work></rdf:RDF></metadata><defs id="defs47915"/><sodipodi:namedview pagecolor="#ffffff" bordercolor="#666666" borderopacity="1" objecttolerance="10" gridtolerance="10" guidetolerance="10" inkscape:pageopacity="0" inkscape:pageshadow="2" inkscape:window-width="958" inkscape:window-height="1008" id="namedview47913" showgrid="false" fit-margin-top="0" fit-margin-left="0" fit-margin-right="0" fit-margin-bottom="0" inkscape:zoom="0.65511365" inkscape:cx="264.97915" inkscape:cy="-11.318251" inkscape:window-x="953" inkscape:window-y="0" inkscape:window-maximized="0" inkscape:current-layer="g88110"/><g id="g47919" inkscape:groupmode="layer" inkscape:label="4457193" transform="matrix(0,1.3333333,1.3333333,0,-1131.1581,2155.1516)"><g id="g88110" transform="translate(42.677037,662.69413)"><g id="g231184"><path d="m -1634.9208,234.03445 -0.96,-0.96 v -16.44 h 1.92 v 16.44 l -0.96,-0.96 0.96,0.96 -0.12,0.48 -0.24,0.24 -0.24,0.12 -0.36,0.12 -0.36,-0.12 -0.24,-0.12 -0.24,-0.24 -0.12,-0.48" style="fill:#000000;fill-opacity:1;fill-rule:nonzero;stroke:none;stroke-width:0.12" id="path215503"/><path d="m -1631.4408,232.47445 0.6,1.56 h -4.08 v -1.92 h 4.08 l 0.72,1.68 -0.72,-1.68 0.48,0.12 0.24,0.24 0.12,0.36 0.12,0.24 -0.12,0.36 -0.12,0.36 -0.24,0.12 -0.48,0.12" style="fill:#000000;fill-opacity:1;fill-rule:nonzero;stroke:none;stroke-width:0.12" id="path215505"/><path d="m -1638.4008,240.63445 h -1.2 l 8.16,-8.16 1.32,1.32 -8.28,8.16 h -1.2 1.2 l -0.24,0.24 -0.36,0.12 -0.36,-0.12 -0.24,-0.24 -0.24,-0.24 -0.12,-0.36 0.12,-0.36 0.24,-0.36" style="fill:#000000;fill-opacity:1;fill-rule:nonzero;stroke:none;stroke-width:0.12" id="path215507"/><path d="m -1647.1608,234.03445 0.6,-1.56 8.16,8.16 -1.2,1.32 -8.28,-8.16 0.72,-1.68 -0.72,1.68 -0.24,-0.36 v -0.36 l 0.12,-0.36 0.12,-0.24 0.36,-0.24 0.24,-0.12 0.36,0.12 0.36,0.24" style="fill:#000000;fill-opacity:1;fill-rule:nonzero;stroke:none;stroke-width:0.12" id="path215509"/><path d="m -1642.1208,233.07445 -0.96,0.96 h -4.08 v -1.92 h 4.08 l -0.96,0.96 0.96,-0.96 0.48,0.12 0.24,0.24 0.12,0.36 v 0.6 l -0.12,0.36 -0.24,0.12 -0.48,0.12" style="fill:#000000;fill-opacity:1;fill-rule:nonzero;stroke:none;stroke-width:0.12" id="path215511"/><path d="m -1643.0808,217.59445 0.84,-0.96 0.12,16.44 h -1.92 v -16.44 l 0.96,-0.96 -0.96,0.96 0.12,-0.36 0.12,-0.36 0.36,-0.12 h 0.6 l 0.36,0.12 0.24,0.36 v 0.36" style="fill:#000000;fill-opacity:1;fill-rule:nonzero;stroke:none;stroke-width:0.12" id="path215513"/><path d="m -1635.8808,216.63445 0.96,0.96 h -8.16 v -1.92 h 8.16 l 0.96,0.96 -0.96,-0.96 0.36,0.12 0.36,0.24 0.12,0.24 v 0.72 l -0.12,0.36 -0.36,0.12 -0.36,0.12" style="fill:#000000;fill-opacity:1;fill-rule:nonzero;stroke:none;stroke-width:0.12" id="path215515"/><path d="m -1647.1608,223.95445 0.36,0.12 0.24,0.24 0.24,0.24 v 0.6 l -0.24,0.36 -0.24,0.12 -0.36,0.12" style="fill:#000000;fill-opacity:1;fill-rule:nonzero;stroke:none;stroke-width:0.12" id="path215517"/><path d="m -1652.0808,224.19445 -0.6,-0.24 h 5.52 v 1.8 h -5.52 l -0.72,-0.24 0.72,0.24 -0.36,-0.12 -0.36,-0.12 -0.12,-0.36 -0.12,-0.24 0.12,-0.36 0.12,-0.24 0.36,-0.24 0.36,-0.12" style="fill:#000000;fill-opacity:1;fill-rule:nonzero;stroke:none;stroke-width:0.12" id="path215519"/><path d="m -1657.2408,219.39445 -0.24,-0.6 5.4,5.4 -1.32,1.32 -5.4,-5.52 -0.24,-0.6 0.24,0.6 -0.24,-0.24 v -0.72 l 0.24,-0.24 0.24,-0.24 0.36,-0.12 0.36,0.12 0.36,0.24" style="fill:#000000;fill-opacity:1;fill-rule:nonzero;stroke:none;stroke-width:0.12" id="path215521"/><path d="m -1658.2008,186.51445 h 0.96 v 32.88 h -1.8 v -32.88 h 0.84" style="fill:#000000;fill-opacity:1;fill-rule:nonzero;stroke:none;stroke-width:0.12" id="path215523"/><path d="m -1659.0408,186.51445 0.12,-0.36 0.12,-0.36 0.36,-0.12 h 0.6 l 0.24,0.12 0.24,0.36 0.12,0.36" style="fill:#000000;fill-opacity:1;fill-rule:nonzero;stroke:none;stroke-width:0.12" id="path215525"/><path d="m -1630.8408,225.75445 -0.36,-0.12 -0.24,-0.12 -0.24,-0.36 v -0.6 l 0.24,-0.24 0.24,-0.24 0.36,-0.12" style="fill:#000000;fill-opacity:1;fill-rule:nonzero;stroke:none;stroke-width:0.12" id="path215527"/><path d="m -1624.6008,225.51445 -0.72,0.24 h -5.52 v -1.8 h 5.52 l -0.6,0.24 0.6,-0.24 0.36,0.12 0.36,0.24 0.12,0.24 0.12,0.36 -0.12,0.24 -0.12,0.36 -0.36,0.12 -0.36,0.12" style="fill:#000000;fill-opacity:1;fill-rule:nonzero;stroke:none;stroke-width:0.12" id="path215529"/><path d="m -1618.9608,219.39445 -0.24,0.6 -5.4,5.52 -1.32,-1.32 5.4,-5.4 -0.24,0.6 0.24,-0.6 0.36,-0.24 0.36,-0.12 0.36,0.12 0.24,0.24 0.24,0.24 0.12,0.36 -0.12,0.36 -0.24,0.24" style="fill:#000000;fill-opacity:1;fill-rule:nonzero;stroke:none;stroke-width:0.12" id="path215531"/><path d="m -1619.8008,186.51445 h 0.84 v 32.88 h -1.8 v -32.88 h 0.96" style="fill:#000000;fill-opacity:1;fill-rule:nonzero;stroke:none;stroke-width:0.12" id="path215533"/><path d="m -1620.7608,186.51445 0.12,-0.36 0.24,-0.36 0.24,-0.12 h 0.6 l 0.36,0.12 0.12,0.36 0.12,0.36" style="fill:#000000;fill-opacity:1;fill-rule:nonzero;stroke:none;stroke-width:0.12" id="path215535"/></g></g></g></svg>