<?xml version="1.0" encoding="UTF-8" standalone="no"?>
<svg xmlns:dc="http://purl.org/dc/elements/1.1/" xmlns:cc="http://creativecommons.org/ns#" xmlns:rdf="http://www.w3.org/1999/02/22-rdf-syntax-ns#" xmlns:svg="http://www.w3.org/2000/svg" xmlns="http://www.w3.org/2000/svg" xmlns:sodipodi="http://sodipodi.sourceforge.net/DTD/sodipodi-0.dtd" xmlns:inkscape="http://www.inkscape.org/namespaces/inkscape" version="1.1" id="svg47911" xml:space="preserve" width="75.360001" height="70.559998" viewBox="0 0 75.36 70.559999" sodipodi:docname="ISO 7000 0025.svg" inkscape:version="1.0.1 (3bc2e813f5, 2020-09-07)"><title id="title100346">Close (a container)</title><metadata id="metadata47917"><rdf:RDF><cc:Work rdf:about=""><dc:format>image/svg+xml</dc:format><dc:type rdf:resource="http://purl.org/dc/dcmitype/StillImage"/><dc:title>Close (a container)</dc:title></cc:Work></rdf:RDF></metadata><defs id="defs47915"/><sodipodi:namedview pagecolor="#ffffff" bordercolor="#666666" borderopacity="1" objecttolerance="10" gridtolerance="10" guidetolerance="10" inkscape:pageopacity="0" inkscape:pageshadow="2" inkscape:window-width="958" inkscape:window-height="1008" id="namedview47913" showgrid="false" fit-margin-top="0" fit-margin-left="0" fit-margin-right="0" fit-margin-bottom="0" inkscape:zoom="0.65511365" inkscape:cx="115.95291" inkscape:cy="125.42722" inkscape:window-x="953" inkscape:window-y="0" inkscape:window-maximized="0" inkscape:current-layer="g88110"/><g id="g47919" inkscape:groupmode="layer" inkscape:label="4457193" transform="matrix(0,1.3333333,1.3333333,0,-1768.6492,1864.4903)"><g id="g88110" transform="translate(42.677037,662.69413)"><g id="g189037"><path d="m -1412.9648,675.67281 v 0.24 l -0.12,0.36 -0.36,0.12 -0.36,0.12 -0.36,-0.12 -0.24,-0.12 -0.24,-0.36 v -0.24" style="fill:#000000;fill-opacity:1;fill-rule:nonzero;stroke:none;stroke-width:0.12" id="path187586"/><path d="m -1413.8048,665.59281 0.84,-0.96 v 11.04 h -1.68 v -11.04 l 0.84,-0.84 -0.84,0.84 v -0.48 l 0.24,-0.24 0.24,-0.12 h 0.72 l 0.36,0.12 0.12,0.24 v 0.48" style="fill:#000000;fill-opacity:1;fill-rule:nonzero;stroke:none;stroke-width:0.12" id="path187588"/><path d="m -1390.0448,664.63281 0.96,0.96 h -24.72 v -1.8 h 24.72 l 0.96,0.84 -0.96,-0.84 0.48,0.12 0.24,0.12 0.24,0.36 v 0.6 l -0.24,0.24 -0.24,0.24 -0.48,0.12" style="fill:#000000;fill-opacity:1;fill-rule:nonzero;stroke:none;stroke-width:0.12" id="path187590"/><path d="m -1389.0848,718.39281 -0.96,0.96 v -54.72 h 1.92 v 54.72 l -0.96,0.96 0.96,-0.96 v 0.48 l -0.36,0.24 -0.36,0.24 h -0.6 l -0.24,-0.24 -0.24,-0.24 -0.12,-0.48" style="fill:#000000;fill-opacity:1;fill-rule:nonzero;stroke:none;stroke-width:0.12" id="path187592"/><path d="m -1412.9648,719.35281 -0.84,-0.96 h 24.72 v 1.92 h -24.72 l -0.84,-0.96 0.84,0.96 -0.36,-0.24 -0.36,-0.12 -0.12,-0.36 v -0.6 l 0.12,-0.24 0.36,-0.24 0.36,-0.12" style="fill:#000000;fill-opacity:1;fill-rule:nonzero;stroke:none;stroke-width:0.12" id="path187594"/><path d="m -1413.8048,708.31281 h 0.84 v 11.04 h -1.68 v -11.04 h 0.84" style="fill:#000000;fill-opacity:1;fill-rule:nonzero;stroke:none;stroke-width:0.12" id="path187596"/><path d="m -1414.6448,708.31281 v -0.24 l 0.24,-0.36 0.24,-0.12 0.36,-0.12 0.36,0.12 0.36,0.12 0.12,0.36 v 0.24" style="fill:#000000;fill-opacity:1;fill-rule:nonzero;stroke:none;stroke-width:0.12" id="path187598"/><path d="m -1413.5648,675.67281 h 1.68 v 30.12 h -3.72 l 0.12,-30.12 h 1.92" style="fill:#000000;fill-opacity:1;fill-rule:nonzero;stroke:none;stroke-width:0.12" id="path187600"/><path d="m -1417.6448,701.83281 0.48,-0.12 0.12,-0.12 0.24,-0.36 0.12,-0.48 -0.12,-0.24 -0.24,-0.12 -0.24,-0.36 h -0.48" style="fill:#000000;fill-opacity:1;fill-rule:nonzero;stroke:none;stroke-width:0.12" id="path187602"/><path d="m -1440.4448,696.79281 3,1.2 2.88,1.08 2.88,0.96 2.76,0.72 2.76,0.72 2.76,0.24 3,0.12 h 2.76 l -0.12,-1.8 h -2.64 l -2.76,-0.12 -2.64,-0.36 -2.64,-0.48 -2.64,-0.72 -2.76,-0.96 -3,-1.08 -3,-1.2" style="fill:#000000;fill-opacity:1;fill-rule:nonzero;stroke:none;stroke-width:0.12" id="path187604"/><path d="m -1439.8448,695.11281 h -0.6 l -0.24,0.12 -0.24,0.36 -0.12,0.24 v 0.36 l 0.12,0.24 0.48,0.36" style="fill:#000000;fill-opacity:1;fill-rule:nonzero;stroke:none;stroke-width:0.12" id="path187606"/><path d="m -1428.4448,695.35281 -0.48,-0.12 -0.36,0.12 -0.24,0.24 -0.24,0.24 v 0.6 l 0.24,0.36 0.24,0.24" style="fill:#000000;fill-opacity:1;fill-rule:nonzero;stroke:none;stroke-width:0.12" id="path187608"/><path d="m -1417.2848,701.71281 v -1.68 l -11.16,-4.68 -0.84,1.68 11.4,4.68 v -1.68 1.68 h 0.72 l 0.12,-0.24 0.24,-0.36 0.12,-0.36 v -0.24 l -0.36,-0.36 -0.24,-0.12" style="fill:#000000;fill-opacity:1;fill-rule:nonzero;stroke:none;stroke-width:0.12" id="path187610"/><path d="m -1428.6848,704.47281 0.24,0.84 11.16,-3.6 -0.6,-1.68 -11.04,3.6 0.24,0.84" style="fill:#000000;fill-opacity:1;fill-rule:nonzero;stroke:none;stroke-width:0.12" id="path187612"/><path d="m -1428.9248,703.63281 -0.48,0.12 -0.12,0.24 v 0.84 l 0.12,0.12 0.36,0.36 0.24,0.12 0.36,-0.12" style="fill:#000000;fill-opacity:1;fill-rule:nonzero;stroke:none;stroke-width:0.12" id="path187614"/><path d="m -1416.5648,675.43281 v 0.6 l 0.12,0.48 0.36,0.48 0.36,0.36 0.48,0.48 0.24,0.12 0.6,0.12 0.48,0.12 0.6,-0.12 0.48,-0.12 0.48,-0.12 0.36,-0.48 0.48,-0.36 0.12,-0.48 0.12,-0.48 0.12,-0.6 -0.12,-0.6 -0.12,-0.48 -0.12,-0.48 -0.48,-0.24 -0.36,-0.48 -0.48,-0.12 -0.48,-0.24 -0.6,-0.12 -0.48,0.12 -0.6,0.24 -0.24,0.12 -0.48,0.48 -0.36,0.24 -0.36,0.48 -0.12,0.48 v 0.6" style="fill:#ffffff;fill-opacity:1;fill-rule:evenodd;stroke:none;stroke-width:0.12" id="path187616"/><path d="m -1413.9248,679.15281 -0.6,-0.12 -0.72,-0.12 -0.72,-0.48 -0.48,-0.36 -0.36,-0.6 -0.36,-0.6 -0.12,-0.6 -0.24,-0.84 h 1.92 v 0.36 l 0.12,0.48 0.24,0.24 0.12,0.24 0.24,0.24 0.36,0.12 0.36,0.24 h 0.24" style="fill:#000000;fill-opacity:1;fill-rule:nonzero;stroke:none;stroke-width:0.12" id="path187618"/><path d="m -1410.3248,675.43281 v 0.84 l -0.12,0.6 -0.48,0.6 -0.36,0.6 -0.6,0.36 -0.6,0.48 -0.6,0.12 -0.84,0.12 v -1.8 h 0.48 l 0.36,-0.24 0.24,-0.12 0.12,-0.24 0.36,-0.24 0.12,-0.24 v -0.48 l 0.24,-0.36" style="fill:#000000;fill-opacity:1;fill-rule:nonzero;stroke:none;stroke-width:0.12" id="path187620"/><path d="m -1413.9248,671.95281 h 0.84 l 0.6,0.12 0.6,0.48 0.6,0.24 0.36,0.72 0.48,0.6 0.12,0.6 v 0.72 h -1.68 l -0.24,-0.24 v -0.48 l -0.12,-0.36 -0.36,-0.12 -0.12,-0.36 -0.24,-0.12 -0.36,-0.12 h -0.48" style="fill:#000000;fill-opacity:1;fill-rule:nonzero;stroke:none;stroke-width:0.12" id="path187622"/><path d="m -1417.5248,675.43281 0.24,-0.72 0.12,-0.6 0.36,-0.6 0.36,-0.72 0.48,-0.24 0.72,-0.48 0.72,-0.12 h 0.6 v 1.68 h -0.24 l -0.36,0.12 -0.36,0.12 -0.24,0.36 -0.12,0.12 -0.24,0.36 -0.12,0.48 v 0.24" style="fill:#000000;fill-opacity:1;fill-rule:nonzero;stroke:none;stroke-width:0.12" id="path187624"/></g></g></g></svg>