<?xml version="1.0" encoding="UTF-8" standalone="no"?>
<svg xmlns:dc="http://purl.org/dc/elements/1.1/" xmlns:cc="http://creativecommons.org/ns#" xmlns:rdf="http://www.w3.org/1999/02/22-rdf-syntax-ns#" xmlns:svg="http://www.w3.org/2000/svg" xmlns="http://www.w3.org/2000/svg" xmlns:sodipodi="http://sodipodi.sourceforge.net/DTD/sodipodi-0.dtd" xmlns:inkscape="http://www.inkscape.org/namespaces/inkscape" version="1.1" id="svg47911" xml:space="preserve" width="67.03968" height="75.360001" viewBox="0 0 67.039679 75.360003" sodipodi:docname="ISO 7000 0027.svg" inkscape:version="1.0.1 (3bc2e813f5, 2020-09-07)"><title id="title100346">Cooling</title><metadata id="metadata47917"><rdf:RDF><cc:Work rdf:about=""><dc:format>image/svg+xml</dc:format><dc:type rdf:resource="http://purl.org/dc/dcmitype/StillImage"/><dc:title>Cooling</dc:title></cc:Work></rdf:RDF></metadata><defs id="defs47915"/><sodipodi:namedview pagecolor="#ffffff" bordercolor="#666666" borderopacity="1" objecttolerance="10" gridtolerance="10" guidetolerance="10" inkscape:pageopacity="0" inkscape:pageshadow="2" inkscape:window-width="958" inkscape:window-height="1008" id="namedview47913" showgrid="false" fit-margin-top="0" fit-margin-left="0" fit-margin-right="0" fit-margin-bottom="0" inkscape:zoom="0.92647061" inkscape:cx="244.13539" inkscape:cy="302.62142" inkscape:window-x="953" inkscape:window-y="0" inkscape:window-maximized="0" inkscape:current-layer="g88110"/><g id="g47919" inkscape:groupmode="layer" inkscape:label="4457193" transform="matrix(0,1.3333333,1.3333333,0,-140.31005,377.20815)"><g id="g88110" transform="translate(42.677037,662.69413)"><g id="g120945"><path d="m -318.02316,-539.46159 -0.12,-0.48 0.12,-0.48 0.12,-0.36 0.36,-0.24 0.48,-0.24 h 0.36 l 0.48,0.24 0.36,0.36" style="fill:#000000;fill-opacity:1;fill-rule:nonzero;stroke:none;stroke-width:0.12" id="path117637"/><path d="m -301.10316,-511.74159 -1.08,0.59976 -15.84,-28.31976 2.16,-1.2 15.84,28.32 -1.08,0.6" style="fill:#000000;fill-opacity:1;fill-rule:nonzero;stroke:none;stroke-width:0.12" id="path117639"/><path d="m -300.02316,-512.34159 0.24,0.48 -0.12,0.47976 -0.24,0.36 -0.36,0.36 -0.36,0.12 h -0.48 l -0.36,-0.24 -0.48,-0.36" style="fill:#000000;fill-opacity:1;fill-rule:nonzero;stroke:none;stroke-width:0.12" id="path117641"/><path d="m -294.86316,-553.14159 -0.24,-0.48 0.12,-0.48 0.24,-0.36 0.36,-0.24 0.36,-0.24 h 0.48 l 0.36,0.24 0.36,0.36" style="fill:#000000;fill-opacity:1;fill-rule:nonzero;stroke:none;stroke-width:0.12" id="path117643"/><path d="m -277.94316,-525.42159 -1.08,0.6 -15.84,-28.32 2.04,-1.2 15.96,28.32 -1.08,0.6" style="fill:#000000;fill-opacity:1;fill-rule:nonzero;stroke:none;stroke-width:0.12" id="path117645"/><path d="m -276.86316,-526.02159 0.24,0.48 -0.12,0.48 -0.24,0.36 -0.36,0.24 -0.36,0.24 h -0.48 l -0.48,-0.24 -0.36,-0.36" style="fill:#000000;fill-opacity:1;fill-rule:nonzero;stroke:none;stroke-width:0.12" id="path117647"/><path d="m -313.82316,-517.62159 -0.6,-0.12 -0.36,-0.24 -0.24,-0.48 -0.12,-0.36 0.12,-0.48 0.24,-0.48 0.36,-0.24 0.6,-0.12" style="fill:#000000;fill-opacity:1;fill-rule:nonzero;stroke:none;stroke-width:0.12" id="path117649"/><path d="m -280.82316,-519.30159 v 1.32 l -33,0.36 v -2.52 l 33,-0.36 v 1.2" style="fill:#000000;fill-opacity:1;fill-rule:nonzero;stroke:none;stroke-width:0.12" id="path117651"/><path d="m -280.82316,-520.50159 0.48,0.12 0.36,0.24 0.24,0.48 0.12,0.36 -0.12,0.48 -0.24,0.48 -0.36,0.24 -0.48,0.12" style="fill:#000000;fill-opacity:1;fill-rule:nonzero;stroke:none;stroke-width:0.12" id="path117653"/><path d="m -314.30316,-544.50159 -0.48,-0.12 -0.36,-0.24 -0.24,-0.48 -0.12,-0.48 0.12,-0.48 0.24,-0.36 0.36,-0.24 0.48,-0.12" style="fill:#000000;fill-opacity:1;fill-rule:nonzero;stroke:none;stroke-width:0.12" id="path117655"/><path d="m -281.18316,-546.18159 v 1.32 l -33.12,0.36 v -2.52 l 33.12,-0.36 v 1.2" style="fill:#000000;fill-opacity:1;fill-rule:nonzero;stroke:none;stroke-width:0.12" id="path117657"/><path d="m -281.18316,-547.38159 0.48,0.12 0.36,0.24 0.24,0.36 0.12,0.48 -0.12,0.48 -0.24,0.36 -0.36,0.36 -0.48,0.12" style="fill:#000000;fill-opacity:1;fill-rule:nonzero;stroke:none;stroke-width:0.12" id="path117659"/><path d="m -301.82316,-553.86159 0.36,-0.48 0.36,-0.12 h 0.48 l 0.48,0.12 0.24,0.36 0.24,0.36 0.12,0.48 -0.24,0.48" style="fill:#000000;fill-opacity:1;fill-rule:nonzero;stroke:none;stroke-width:0.12" id="path117661"/><path d="m -316.94316,-525.06159 -1.08,-0.6 16.2,-28.2 2.04,1.2 -16.08,28.2 -1.08,-0.6" style="fill:#000000;fill-opacity:1;fill-rule:nonzero;stroke:none;stroke-width:0.12" id="path117663"/><path d="m -315.86316,-524.46159 -0.36,0.36 -0.48,0.24 h -0.36 l -0.48,-0.24 -0.36,-0.24 -0.12,-0.36 -0.12,-0.48 0.12,-0.48" style="fill:#000000;fill-opacity:1;fill-rule:nonzero;stroke:none;stroke-width:0.12" id="path117665"/><path d="m -278.78316,-540.54159 0.36,-0.36 0.48,-0.24 h 0.48 l 0.36,0.24 0.36,0.24 0.24,0.36 v 0.48 l -0.12,0.48" style="fill:#000000;fill-opacity:1;fill-rule:nonzero;stroke:none;stroke-width:0.12" id="path117667"/><path d="m -293.78316,-511.74159 -1.08,-0.6 16.08,-28.2 2.16,1.2 -16.2,28.19976 -0.96,-0.59976" style="fill:#000000;fill-opacity:1;fill-rule:nonzero;stroke:none;stroke-width:0.12" id="path117669"/><path d="m -292.82316,-511.14183 -0.36,0.36 -0.36,0.24 h -0.48 l -0.36,-0.12 -0.36,-0.36 -0.24,-0.36 -0.12,-0.47976 0.24,-0.48" style="fill:#000000;fill-opacity:1;fill-rule:nonzero;stroke:none;stroke-width:0.12" id="path117671"/><path d="m -324.38316,-531.54159 -0.6,-0.12 -0.36,-0.24 -0.24,-0.48 v -0.84 l 0.24,-0.48 0.36,-0.24 0.6,-0.12" style="fill:#000000;fill-opacity:1;fill-rule:nonzero;stroke:none;stroke-width:0.12" id="path117673"/><path d="m -312.62316,-532.86159 v 1.32 h -11.76 v -2.52 h 11.76 v 1.2" style="fill:#000000;fill-opacity:1;fill-rule:nonzero;stroke:none;stroke-width:0.12" id="path117675"/><path d="m -312.62316,-534.06159 0.6,0.12 0.36,0.24 0.12,0.48 0.12,0.36 -0.12,0.48 -0.12,0.48 -0.36,0.24 -0.6,0.12" style="fill:#000000;fill-opacity:1;fill-rule:nonzero;stroke:none;stroke-width:0.12" id="path117677"/><path d="m -282.14316,-531.54159 -0.48,-0.12 -0.36,-0.24 -0.24,-0.48 -0.12,-0.48 0.12,-0.36 0.24,-0.48 0.36,-0.24 0.48,-0.12" style="fill:#000000;fill-opacity:1;fill-rule:nonzero;stroke:none;stroke-width:0.12" id="path117679"/><path d="m -270.38316,-532.86159 v 1.32 h -11.76 v -2.52 h 11.76 v 1.2" style="fill:#000000;fill-opacity:1;fill-rule:nonzero;stroke:none;stroke-width:0.12" id="path117681"/><path d="m -270.38316,-534.06159 0.6,0.12 0.36,0.24 0.24,0.48 0.12,0.36 -0.12,0.48 -0.24,0.48 -0.36,0.24 -0.6,0.12" style="fill:#000000;fill-opacity:1;fill-rule:nonzero;stroke:none;stroke-width:0.12" id="path117683"/><path d="m -306.14316,-520.02159 0.36,-0.48 0.48,-0.12 h 0.36 l 0.48,0.12 0.36,0.24 0.24,0.36 v 0.48 l -0.12,0.6" style="fill:#000000;fill-opacity:1;fill-rule:nonzero;stroke:none;stroke-width:0.12" id="path117685"/><path d="m -310.46316,-509.58183 -1.08,-0.6 5.4,-9.83976 2.16,1.2 -5.4,9.83976 -1.08,-0.6" style="fill:#000000;fill-opacity:1;fill-rule:nonzero;stroke:none;stroke-width:0.12" id="path117687"/><path d="m -309.38316,-508.98183 -0.36,0.48 -0.48,0.12 h -0.48 l -0.36,-0.12 -0.36,-0.36 -0.24,-0.36 v -0.36 l 0.12,-0.6" style="fill:#000000;fill-opacity:1;fill-rule:nonzero;stroke:none;stroke-width:0.12" id="path117689"/><path d="m -284.66316,-556.86159 0.48,-0.48 0.36,-0.12 h 0.48 l 0.36,0.12 0.36,0.24 0.24,0.36 0.12,0.48 -0.24,0.6" style="fill:#000000;fill-opacity:1;fill-rule:nonzero;stroke:none;stroke-width:0.12" id="path117691"/><path d="m -288.98316,-546.42159 -0.96,-0.6 5.28,-9.84 2.16,1.2 -5.4,9.84 -1.08,-0.6" style="fill:#000000;fill-opacity:1;fill-rule:nonzero;stroke:none;stroke-width:0.12" id="path117693"/><path d="m -287.90316,-545.82159 -0.36,0.48 -0.36,0.12 h -0.48 l -0.48,-0.12 -0.24,-0.36 -0.24,-0.36 -0.12,-0.48 0.24,-0.48" style="fill:#000000;fill-opacity:1;fill-rule:nonzero;stroke:none;stroke-width:0.12" id="path117695"/><path d="m -303.98316,-546.54159 0.12,0.48 v 0.48 l -0.24,0.36 -0.36,0.36 -0.48,0.12 h -0.36 l -0.48,-0.12 -0.36,-0.48" style="fill:#000000;fill-opacity:1;fill-rule:nonzero;stroke:none;stroke-width:0.12" id="path117697"/><path d="m -311.06316,-556.14159 1.08,-0.6 6,10.2 -2.16,1.2 -6,-10.2 1.08,-0.6" style="fill:#000000;fill-opacity:1;fill-rule:nonzero;stroke:none;stroke-width:0.12" id="path117699"/><path d="m -312.14316,-555.54159 -0.12,-0.48 v -0.48 l 0.24,-0.36 0.36,-0.24 0.36,-0.24 h 0.48 l 0.48,0.24 0.36,0.36" style="fill:#000000;fill-opacity:1;fill-rule:nonzero;stroke:none;stroke-width:0.12" id="path117701"/><path d="m -282.62316,-508.98183 0.24,0.48 -0.12,0.48 -0.24,0.36 -0.36,0.24 -0.36,0.24 h -0.48 l -0.48,-0.24 -0.36,-0.36" style="fill:#000000;fill-opacity:1;fill-rule:nonzero;stroke:none;stroke-width:0.12" id="path117703"/><path d="m -289.70316,-518.58159 1.08,-0.6 6,10.19976 -2.16,1.2 -6,-10.19976 1.08,-0.6" style="fill:#000000;fill-opacity:1;fill-rule:nonzero;stroke:none;stroke-width:0.12" id="path117705"/><path d="m -290.78316,-517.98159 -0.12,-0.48 0.12,-0.48 0.24,-0.36 0.24,-0.36 0.48,-0.12 h 0.48 l 0.36,0.12 0.36,0.48" style="fill:#000000;fill-opacity:1;fill-rule:nonzero;stroke:none;stroke-width:0.12" id="path117707"/></g></g></g></svg>