<?xml version="1.0" encoding="UTF-8" standalone="no"?>
<svg xmlns:dc="http://purl.org/dc/elements/1.1/" xmlns:cc="http://creativecommons.org/ns#" xmlns:rdf="http://www.w3.org/1999/02/22-rdf-syntax-ns#" xmlns:svg="http://www.w3.org/2000/svg" xmlns="http://www.w3.org/2000/svg" xmlns:sodipodi="http://sodipodi.sourceforge.net/DTD/sodipodi-0.dtd" xmlns:inkscape="http://www.inkscape.org/namespaces/inkscape" version="1.1" id="svg47911" xml:space="preserve" width="75.519997" height="53.599998" viewBox="0 0 75.519996 53.599999" sodipodi:docname="ISO 7000 0023.svg" inkscape:version="1.0.1 (3bc2e813f5, 2020-09-07)"><title id="title100346">Disengaging</title><metadata id="metadata47917"><rdf:RDF><cc:Work rdf:about=""><dc:format>image/svg+xml</dc:format><dc:type rdf:resource="http://purl.org/dc/dcmitype/StillImage"/><dc:title>Disengaging</dc:title></cc:Work></rdf:RDF></metadata><defs id="defs47915"/><sodipodi:namedview pagecolor="#ffffff" bordercolor="#666666" borderopacity="1" objecttolerance="10" gridtolerance="10" guidetolerance="10" inkscape:pageopacity="0" inkscape:pageshadow="2" inkscape:window-width="958" inkscape:window-height="1008" id="namedview47913" showgrid="false" fit-margin-top="0" fit-margin-left="0" fit-margin-right="0" fit-margin-bottom="0" inkscape:zoom="0.32755683" inkscape:cx="-381.13718" inkscape:cy="-519.10935" inkscape:window-x="953" inkscape:window-y="0" inkscape:window-maximized="0" inkscape:current-layer="g88110" inkscape:document-rotation="0"/><g id="g47919" inkscape:groupmode="layer" inkscape:label="4457193" transform="matrix(0,1.3333333,1.3333333,0,-2660.7192,1878.9626)"><g id="g88110" transform="translate(42.677037,662.69413)"><g id="g243697"><path d="m -1443.739,1356.9653 0.96,0.96 h 16.44 v -1.8 h -16.44 l 0.96,0.84 -0.96,-0.84 h -0.36 l -0.36,0.24 -0.12,0.36 -0.12,0.24 0.12,0.36 0.12,0.36 0.36,0.12 0.36,0.12" style="fill:#000000;fill-opacity:1;fill-rule:nonzero;stroke:none;stroke-width:0.12" id="path241802"/><path d="m -1442.179,1353.4853 -1.56,-0.6 v 4.08 h 1.92 v -4.08 l -1.56,-0.6 1.56,0.6 -0.12,-0.48 -0.24,-0.24 -0.24,-0.12 h -0.72 l -0.24,0.12 -0.24,0.24 -0.12,0.48" style="fill:#000000;fill-opacity:1;fill-rule:nonzero;stroke:none;stroke-width:0.12" id="path241804"/><path d="m -1450.339,1360.4453 v 1.32 l 8.16,-8.28 -1.2,-1.2 -8.28,8.16 v 1.32 -1.32 l -0.24,0.36 v 0.6 l 0.24,0.36 0.24,0.12 0.36,0.12 h 0.36 l 0.36,-0.24" style="fill:#000000;fill-opacity:1;fill-rule:nonzero;stroke:none;stroke-width:0.12" id="path241806"/><path d="m -1443.739,1369.3253 1.56,-0.72 -8.16,-8.16 -1.32,1.32 8.28,8.16 1.56,-0.6 -1.56,0.6 0.24,0.24 h 0.72 l 0.24,-0.24 0.24,-0.24 0.12,-0.36 -0.12,-0.36 -0.24,-0.36" style="fill:#000000;fill-opacity:1;fill-rule:nonzero;stroke:none;stroke-width:0.12" id="path241808"/><path d="m -1442.779,1364.2853 -0.96,0.84 v 4.2 h 1.92 v -4.2 l -0.96,0.96 0.96,-0.96 -0.12,-0.36 -0.24,-0.24 -0.24,-0.24 h -0.72 l -0.24,0.24 -0.24,0.24 -0.12,0.36" style="fill:#000000;fill-opacity:1;fill-rule:nonzero;stroke:none;stroke-width:0.12" id="path241810"/><path d="m -1427.299,1365.2453 0.96,-0.96 h -16.44 v 1.8 h 16.44 l 0.96,-0.84 -0.96,0.84 h 0.36 l 0.36,-0.24 0.12,-0.36 v -0.6 l -0.12,-0.36 -0.36,-0.12 -0.36,-0.12" style="fill:#000000;fill-opacity:1;fill-rule:nonzero;stroke:none;stroke-width:0.12" id="path241812"/><path d="m -1426.339,1357.9253 -0.96,-0.96 v 8.28 h 1.92 v -8.28 l -0.96,-0.84 0.96,0.84 -0.12,-0.36 -0.24,-0.24 -0.36,-0.24 h -0.6 l -0.36,0.24 -0.12,0.24 -0.12,0.36" style="fill:#000000;fill-opacity:1;fill-rule:nonzero;stroke:none;stroke-width:0.12" id="path241814"/><path d="m -1435.579,1333.6853 0.12,-0.48 0.24,-0.24 0.24,-0.12 h 0.72 l 0.24,0.12 0.24,0.24 0.12,0.48" style="fill:#000000;fill-opacity:1;fill-rule:nonzero;stroke:none;stroke-width:0.12" id="path241816"/><path d="m -1434.619,1345.5653 -0.96,-0.96 v -10.92 h 1.92 v 10.92 l -0.96,-0.96 0.96,0.96 -0.12,0.48 -0.24,0.24 -0.24,0.12 -0.36,0.12 -0.36,-0.12 -0.24,-0.12 -0.24,-0.24 -0.12,-0.48" style="fill:#000000;fill-opacity:1;fill-rule:nonzero;stroke:none;stroke-width:0.12" id="path241818"/><path d="m -1413.619,1344.6053 0.96,0.96 h -21.96 v -1.92 h 21.96 l 0.96,0.96 -0.96,-0.96 0.36,0.12 0.36,0.24 0.12,0.24 v 0.72 l -0.12,0.36 -0.36,0.12 -0.36,0.12" style="fill:#000000;fill-opacity:1;fill-rule:nonzero;stroke:none;stroke-width:0.12" id="path241820"/><path d="m -1412.659,1376.6453 -0.96,0.96 v -33 h 1.92 v 33 l -0.96,0.84 0.96,-0.84 -0.12,0.36 -0.24,0.24 -0.36,0.24 h -0.6 l -0.36,-0.24 -0.12,-0.24 -0.12,-0.36" style="fill:#000000;fill-opacity:1;fill-rule:nonzero;stroke:none;stroke-width:0.12" id="path241822"/><path d="m -1435.579,1377.6053 0.96,-0.96 h 21.96 v 1.8 h -21.96 l 0.96,-0.84 -0.96,0.84 h -0.36 l -0.36,-0.24 -0.12,-0.36 -0.12,-0.24 0.12,-0.36 0.12,-0.36 0.36,-0.12 0.36,-0.12" style="fill:#000000;fill-opacity:1;fill-rule:nonzero;stroke:none;stroke-width:0.12" id="path241824"/><path d="m -1434.619,1388.5253 h -0.96 v -10.92 h 1.92 v 10.92 h -0.96" style="fill:#000000;fill-opacity:1;fill-rule:nonzero;stroke:none;stroke-width:0.12" id="path241826"/><path d="m -1433.659,1388.5253 -0.12,0.36 -0.24,0.36 -0.24,0.12 -0.36,0.12 -0.36,-0.12 -0.24,-0.12 -0.24,-0.36 -0.12,-0.36" style="fill:#000000;fill-opacity:1;fill-rule:nonzero;stroke:none;stroke-width:0.12" id="path241828"/></g></g></g></svg>