<?xml version="1.0" encoding="UTF-8" standalone="no"?>
<svg xmlns:dc="http://purl.org/dc/elements/1.1/" xmlns:cc="http://creativecommons.org/ns#" xmlns:rdf="http://www.w3.org/1999/02/22-rdf-syntax-ns#" xmlns:svg="http://www.w3.org/2000/svg" xmlns="http://www.w3.org/2000/svg" xmlns:sodipodi="http://sodipodi.sourceforge.net/DTD/sodipodi-0.dtd" xmlns:inkscape="http://www.inkscape.org/namespaces/inkscape" version="1.1" id="svg47911" xml:space="preserve" width="65.439995" height="75.519997" viewBox="0 0 65.439994 75.519997" sodipodi:docname="ISO 7000 0029.svg" inkscape:version="1.0.1 (3bc2e813f5, 2020-09-07)"><title id="title100346">Draining</title><metadata id="metadata47917"><rdf:RDF><cc:Work rdf:about=""><dc:format>image/svg+xml</dc:format><dc:type rdf:resource="http://purl.org/dc/dcmitype/StillImage"/><dc:title>Draining</dc:title></cc:Work></rdf:RDF></metadata><defs id="defs47915"/><sodipodi:namedview pagecolor="#ffffff" bordercolor="#666666" borderopacity="1" objecttolerance="10" gridtolerance="10" guidetolerance="10" inkscape:pageopacity="0" inkscape:pageshadow="2" inkscape:window-width="958" inkscape:window-height="1008" id="namedview47913" showgrid="false" fit-margin-top="0" fit-margin-left="0" fit-margin-right="0" fit-margin-bottom="0" inkscape:zoom="0.32755683" inkscape:cx="129.33604" inkscape:cy="97.993536" inkscape:window-x="953" inkscape:window-y="0" inkscape:window-maximized="0" inkscape:current-layer="g88110" inkscape:document-rotation="0"/><g id="g47919" inkscape:groupmode="layer" inkscape:label="4457193" transform="matrix(0,1.3333333,1.3333333,0,-2150.246,2496.0655)"><g id="g88110" transform="translate(42.677037,662.69413)"><g id="g251392"><path d="m -1879.9262,966.4304 1.56,-1.8 -6,-5.16 v -9.48 h -30.36 v 49.08 h 30.36 v -9.6 l 6,-5.04 -1.56,-1.92 -6.84,5.76 v 8.28 h -25.56 v -44.16 h 25.56 v 8.28 z m -5.52,5.52 h 16.68 v -3.36 l 6.84,5.88 -6.84,5.88 v -3.36 h -16.68 z m 14.16,-2.4 h -16.68 v 9.84 h 16.68 v 6.24 l 2.04,-1.8 9.96,-8.4 1.2,-0.96 -1.2,-0.96 -9.96,-8.4 -2.04,-1.8 v 6.24" style="fill:#1f1a17;fill-opacity:1;fill-rule:nonzero;stroke:none;stroke-width:0.12" id="path248607"/></g></g></g></svg>