<?xml version="1.0" encoding="UTF-8" standalone="no"?>
<svg xmlns:dc="http://purl.org/dc/elements/1.1/" xmlns:cc="http://creativecommons.org/ns#" xmlns:rdf="http://www.w3.org/1999/02/22-rdf-syntax-ns#" xmlns:svg="http://www.w3.org/2000/svg" xmlns="http://www.w3.org/2000/svg" xmlns:sodipodi="http://sodipodi.sourceforge.net/DTD/sodipodi-0.dtd" xmlns:inkscape="http://www.inkscape.org/namespaces/inkscape" version="1.1" id="svg47911" xml:space="preserve" width="75.040001" height="75.360001" viewBox="0 0 75.04 75.360001" sodipodi:docname="ISO 7000 0012.svg" inkscape:version="1.0.1 (3bc2e813f5, 2020-09-07)"><title id="title100346">Gear drive</title><metadata id="metadata47917"><rdf:RDF><cc:Work rdf:about=""><dc:format>image/svg+xml</dc:format><dc:type rdf:resource="http://purl.org/dc/dcmitype/StillImage"/><dc:title>Gear drive</dc:title></cc:Work></rdf:RDF></metadata><defs id="defs47915"/><sodipodi:namedview pagecolor="#ffffff" bordercolor="#666666" borderopacity="1" objecttolerance="10" gridtolerance="10" guidetolerance="10" inkscape:pageopacity="0" inkscape:pageshadow="2" inkscape:window-width="958" inkscape:window-height="1008" id="namedview47913" showgrid="false" fit-margin-top="0" fit-margin-left="0" fit-margin-right="0" fit-margin-bottom="0" inkscape:zoom="0.65511365" inkscape:cx="-255.12729" inkscape:cy="157.58821" inkscape:window-x="953" inkscape:window-y="0" inkscape:window-maximized="0" inkscape:current-layer="g88110"/><g id="g47919" inkscape:groupmode="layer" inkscape:label="4457193" transform="matrix(0,1.3333333,1.3333333,0,-2091.9956,1896.6514)"><g id="g88110" transform="translate(42.677037,662.69413)"><g id="g178423"><path d="m -1431.2056,931.50263 -0.36,-0.36 -0.24,-0.36 -0.36,-0.36 -0.24,-0.36 -0.36,-0.24 -0.36,-0.36 -0.36,-0.36 -0.36,-0.24 -0.36,-0.36 -0.36,-0.24 -0.36,-0.24 -0.36,-0.24 -0.36,-0.24 -0.36,-0.36 -0.48,-0.24 -0.36,-0.12 -0.36,-0.24 -0.48,-0.24 -0.36,-0.24 -0.48,-0.12 -0.48,-0.24 -0.36,-0.12 -0.48,-0.12 -0.48,-0.24 -0.36,-0.12 -0.48,-0.12 -0.48,-0.12 -0.48,-0.12 h -0.48 l -0.48,-0.12 -0.48,-0.12 h -0.48 l -0.12,2.28 h 0.48 l 0.36,0.12 h 0.48 l 0.36,0.12 0.36,0.12 h 0.48 l 0.36,0.12 0.36,0.12 0.36,0.12 0.48,0.24 0.36,0.12 0.36,0.12 0.36,0.12 0.36,0.24 0.36,0.12 0.36,0.24 0.36,0.24 0.36,0.12 0.24,0.24 0.36,0.24 0.36,0.24 0.36,0.24 0.24,0.24 0.36,0.24 0.24,0.24 0.36,0.24 0.24,0.24 0.36,0.36 0.24,0.24 0.24,0.36 0.24,0.24 0.36,0.36 1.8,-1.32" style="fill:#0e1313;fill-opacity:1;fill-rule:evenodd;stroke:none;stroke-width:0.12" id="path177052"/><path d="m -1442.3656,943.50263 -0.12,0.12 v 0.72 l -0.12,0.24 v 0.12 l -0.12,0.24 v 0.12 l -0.12,0.12 -0.12,0.12 -0.12,0.24 -0.12,0.12 v 0.12 l -0.12,0.12 -0.12,0.12 -0.12,0.12 -0.24,0.12 -0.12,0.12 -0.12,0.12 -0.12,0.12 h -0.12 l -0.24,0.12 -0.12,0.12 h -0.12 l -0.24,0.12 h -0.36 l -0.12,0.12 h -1.2 l -0.12,-0.12 h -0.36 l -0.12,-0.12 h -0.24 l -0.12,-0.12 -0.12,-0.12 h -0.24 l -0.12,-0.12 -0.12,-0.12 -0.12,-0.12 -0.12,-0.12 -0.12,-0.12 -0.24,-0.12 v -0.12 l -0.12,-0.12 -0.12,-0.12 -0.12,-0.24 -0.12,-0.12 v -0.12 l -0.12,-0.12 -0.12,-0.24 v -0.12 l -0.12,-0.24 v -1.8 l 0.12,-0.12 v -0.24 l 0.12,-0.12 0.12,-0.12 v -0.24 l 0.12,-0.12 0.12,-0.12 0.12,-0.12 0.12,-0.24 v -0.12 l 0.24,-0.12 0.12,-0.12 0.12,-0.12 0.12,-0.12 h 0.12 l 0.12,-0.12 0.24,-0.12 0.12,-0.12 h 0.12 l 0.24,-0.12 h 0.12 l 0.12,-0.12 h 0.6 l 0.12,-0.12 h 0.48 l 0.12,0.12 h 0.6 l 0.12,0.12 h 0.24 l 0.12,0.12 h 0.12 l 0.24,0.12 0.12,0.12 0.12,0.12 h 0.12 l 0.12,0.12 0.24,0.12 0.12,0.12 0.12,0.12 0.12,0.12 v 0.24 l 0.12,0.12 0.12,0.12 0.12,0.12 0.12,0.24 v 0.12 l 0.12,0.12 v 0.24 l 0.12,0.12 v 0.72 l 0.12,0.24" style="fill:#0e1313;fill-opacity:1;fill-rule:evenodd;stroke:none;stroke-width:0.12" id="path177054"/><path d="m -1444.6456,943.50263 v 0.24 l -0.12,0.12 v 0.24 h -0.12 v 0.12 l -0.12,0.12 v 0.12 h -0.12 v 0.12 h -0.12 v 0 l -0.12,0.12 h -0.12 v 0 l -0.12,0.12 h -0.24 -0.12 -0.24 -0.12 -0.12 -0.12 l -0.12,-0.12 h -0.12 v 0 l -0.12,-0.12 v 0 l -0.12,-0.12 h -0.12 v -0.12 l -0.12,-0.12 v -0.12 h -0.12 v -0.36 l -0.12,-0.12 v -0.36 l 0.12,-0.12 v -0.24 l 0.12,-0.12 v -0.12 h 0.12 v -0.12 l 0.12,-0.12 h 0.12 v -0.12 h 0.12 v -0.12 h 0.12 0.24 v -0.12 h 0.12 0.12 0.24 0.12 0.12 l 0.12,0.12 h 0.12 0.12 v 0.12 h 0.12 v 0 l 0.12,0.12 v 0 l 0.12,0.12 v 0.12 h 0.12 v 0.12 l 0.12,0.12 v 0.24 h 0.12 v 0.36" style="fill:#ffffff;fill-opacity:1;fill-rule:evenodd;stroke:none;stroke-width:0.12" id="path177056"/><path d="m -1446.2056,924.42263 h -1.44 l -0.48,0.12 h -0.36 l -0.48,0.12 h -0.48 l -0.48,0.12 -0.48,0.12 -0.36,0.12 -0.48,0.12 -0.48,0.12 -0.36,0.12 -0.48,0.12 -0.48,0.24 -0.36,0.12 -0.48,0.24 -0.36,0.12 -0.48,0.24 -0.36,0.24 -0.48,0.24 -0.36,0.12 -0.36,0.36 -0.48,0.24 -0.36,0.24 -0.36,0.24 -0.36,0.36 -0.36,0.24 -0.36,0.36 -0.36,0.24 -0.36,0.36 -0.36,0.36 1.68,1.44 0.24,-0.24 0.36,-0.36 0.36,-0.24 0.24,-0.24 0.36,-0.24 0.36,-0.24 0.24,-0.24 0.36,-0.24 0.36,-0.24 0.36,-0.24 0.36,-0.12 0.36,-0.24 0.36,-0.12 0.36,-0.24 0.36,-0.12 0.36,-0.24 0.36,-0.12 0.36,-0.12 0.36,-0.12 0.36,-0.12 0.48,-0.12 0.36,-0.12 0.36,-0.12 h 0.36 l 0.48,-0.12 0.36,-0.12 h 0.36 l 0.36,-0.12 h 1.68 l 0.12,-2.28" style="fill:#0e1313;fill-opacity:1;fill-rule:evenodd;stroke:none;stroke-width:0.12" id="path177058"/><path d="m -1461.2056,931.74263 -0.24,0.36 -0.24,0.36 -0.24,0.36 -0.24,0.36 -0.24,0.48 -0.24,0.36 -0.24,0.36 -0.24,0.48 -0.24,0.36 -0.12,0.36 -0.24,0.48 -0.12,0.36 -0.24,0.48 -0.12,0.48 -0.12,0.36 -0.12,0.48 -0.12,0.48 -0.12,0.36 -0.12,0.48 -0.12,0.48 v 0.48 l -0.12,0.48 -0.12,0.48 v 3.72 l 0.12,0.48 2.16,-0.36 v -0.84 l -0.12,-0.48 v -1.2 l 0.12,-0.36 v -0.84 l 0.12,-0.36 v -0.48 l 0.12,-0.36 v -0.36 l 0.12,-0.36 0.12,-0.48 0.12,-0.36 0.12,-0.36 0.12,-0.36 0.12,-0.36 0.12,-0.36 0.12,-0.36 0.24,-0.48 0.12,-0.36 0.12,-0.24 0.24,-0.36 0.24,-0.36 0.12,-0.36 0.24,-0.36 0.24,-0.36 0.24,-0.24 0.24,-0.36 0.24,-0.36 -1.8,-1.44" style="fill:#0e1313;fill-opacity:1;fill-rule:evenodd;stroke:none;stroke-width:0.12" id="path177060"/><path d="m -1464.6856,947.82263 0.12,0.48 0.12,0.48 0.12,0.36 0.12,0.48 0.12,0.48 0.24,0.36 0.12,0.48 0.24,0.36 0.12,0.48 0.24,0.36 0.24,0.48 0.24,0.36 0.24,0.36 0.24,0.36 0.24,0.48 0.24,0.36 0.24,0.36 0.36,0.36 0.24,0.36 0.36,0.36 0.24,0.36 0.36,0.36 0.36,0.24 0.24,0.36 0.36,0.36 0.36,0.24 0.36,0.36 0.36,0.24 0.48,0.36 0.36,0.24 0.36,0.24 0.48,0.24 1.08,-1.92 -0.36,-0.24 -0.36,-0.24 -0.36,-0.24 -0.36,-0.24 -0.24,-0.24 -0.36,-0.24 -0.36,-0.24 -0.24,-0.36 -0.24,-0.24 -0.36,-0.36 -0.24,-0.24 -0.24,-0.36 -0.24,-0.24 -0.36,-0.36 -0.24,-0.24 -0.24,-0.36 -0.12,-0.36 -0.24,-0.36 -0.24,-0.24 -0.24,-0.36 -0.12,-0.36 -0.24,-0.36 -0.12,-0.36 -0.24,-0.36 -0.12,-0.36 -0.24,-0.36 -0.12,-0.36 -0.12,-0.36 -0.12,-0.36 -0.12,-0.36 -0.12,-0.48 -0.12,-0.36 -2.16,0.36" style="fill:#0e1313;fill-opacity:1;fill-rule:evenodd;stroke:none;stroke-width:0.12" id="path177062"/><path d="m -1454.2456,960.66263 0.48,0.24 0.36,0.12 0.48,0.24 0.36,0.12 0.48,0.12 0.48,0.24 0.36,0.12 0.48,0.12 0.48,0.12 h 0.36 l 0.48,0.12 0.48,0.12 h 0.48 l 0.48,0.12 h 1.32 l 0.48,0.12 h 0.48 l 0.48,-0.12 h 0.96 l 0.48,-0.12 h 0.36 l 0.48,-0.12 h 0.48 l 0.48,-0.12 0.48,-0.12 0.48,-0.12 0.48,-0.12 0.36,-0.12 0.48,-0.24 -0.84,-2.04 -0.36,0.12 -0.48,0.12 -0.36,0.12 -0.36,0.12 -0.48,0.12 h -0.36 l -0.36,0.12 -0.48,0.12 h -0.72 l -0.48,0.12 h -2.04 l -0.36,-0.12 h -0.84 l -0.36,-0.12 h -0.36 l -0.36,-0.12 -0.48,-0.12 h -0.36 l -0.36,-0.12 -0.36,-0.12 -0.36,-0.12 -0.48,-0.12 -0.36,-0.12 -0.36,-0.12 -0.36,-0.24 -0.36,-0.12 -1.08,1.92" style="fill:#0e1313;fill-opacity:1;fill-rule:evenodd;stroke:none;stroke-width:0.12" id="path177064"/><path d="m -1437.5656,960.54263 0.36,-0.24 0.36,-0.12 0.48,-0.24 0.36,-0.24 0.36,-0.24 0.36,-0.24 0.36,-0.36 0.48,-0.24 0.36,-0.24 0.36,-0.36 0.24,-0.24 0.36,-0.36 0.36,-0.24 0.36,-0.36 0.36,-0.36 0.24,-0.36 0.36,-0.36 0.24,-0.36 0.36,-0.36 0.24,-0.36 0.24,-0.36 0.24,-0.36 0.24,-0.36 0.24,-0.48 0.24,-0.36 0.24,-0.36 0.24,-0.48 0.24,-0.48 0.12,-0.36 0.24,-0.48 0.12,-0.48 0.24,-0.36 -2.16,-0.6 -0.24,0.36 -0.12,0.36 -0.12,0.36 -0.24,0.36 -0.12,0.36 -0.24,0.36 -0.12,0.36 -0.24,0.36 -0.24,0.36 -0.24,0.36 -0.12,0.36 -0.24,0.36 -0.24,0.24 -0.36,0.36 -0.24,0.24 -0.24,0.36 -0.24,0.24 -0.24,0.36 -0.36,0.24 -0.24,0.24 -0.36,0.36 -0.24,0.24 -0.36,0.24 -0.24,0.24 -0.36,0.24 -0.36,0.24 -0.24,0.24 -0.36,0.12 -0.36,0.24 -0.36,0.24 -0.36,0.12 -0.36,0.24 0.96,2.04" style="fill:#0e1313;fill-opacity:1;fill-rule:evenodd;stroke:none;stroke-width:0.12" id="path177066"/><path d="m -1427.3656,947.58263 0.12,-0.48 v -0.48 l 0.12,-0.48 v -0.36 l 0.12,-0.48 v -1.44 l 0.12,-0.36 -0.12,-0.48 v -1.44 l -0.12,-0.48 v -0.36 l -0.12,-0.48 v -0.48 l -0.12,-0.48 -0.12,-0.36 -0.12,-0.48 -0.12,-0.48 -0.12,-0.48 -0.24,-0.36 -0.12,-0.48 -0.12,-0.48 -0.24,-0.36 -0.24,-0.48 -0.12,-0.36 -0.24,-0.48 -0.24,-0.36 -0.24,-0.48 -0.24,-0.36 -1.8,1.32 0.12,0.36 0.24,0.36 0.24,0.36 0.12,0.36 0.24,0.36 0.12,0.36 0.12,0.36 0.24,0.36 0.12,0.36 0.12,0.48 0.12,0.36 0.12,0.36 0.12,0.36 v 0.36 l 0.12,0.48 0.12,0.36 v 0.36 l 0.12,0.48 v 0.72 l 0.12,0.36 v 1.68 l -0.12,0.36 v 0.84 l -0.12,0.36 v 0.36 l -0.12,0.36 v 0.48 l 2.16,0.6" style="fill:#0e1313;fill-opacity:1;fill-rule:evenodd;stroke:none;stroke-width:0.12" id="path177068"/><path d="m -1410.2056,926.46263 0.24,-0.36 0.24,-0.48 0.12,-0.48 0.12,-0.48 0.24,-0.36 0.12,-0.48 0.12,-0.48 0.12,-0.48 v -0.48 l 0.12,-0.48 v -0.96 l 0.12,-0.48 v -0.48 l -0.12,-0.48 v -0.84 l -0.12,-0.48 v -0.48 l -0.12,-0.48 -0.12,-0.48 -0.12,-0.48 -0.12,-0.48 -0.24,-0.48 -0.12,-0.36 -0.24,-0.48 -0.24,-0.48 -0.24,-0.36 -0.24,-0.48 -0.24,-0.36 -0.24,-0.48 -0.24,-0.36 -1.56,1.32 0.24,0.36 0.24,0.36 0.24,0.24 0.24,0.36 0.12,0.36 0.12,0.48 0.24,0.36 0.12,0.36 0.12,0.36 0.12,0.36 0.12,0.36 0.12,0.48 v 0.36 l 0.12,0.36 v 0.48 l 0.12,0.36 v 1.92 l -0.12,0.48 v 0.36 l -0.12,0.36 v 0.48 l -0.12,0.36 -0.12,0.36 -0.12,0.36 -0.12,0.36 -0.12,0.48 -0.12,0.36 -0.24,0.36 1.68,0.96" style="fill:#0e1313;fill-opacity:1;fill-rule:evenodd;stroke:none;stroke-width:0.12" id="path177070"/><path d="m -1420.1656,922.86263 0.12,-0.12 0.12,-0.24 0.12,-0.12 0.12,-0.12 0.12,-0.12 v -0.24 l 0.12,-0.12 0.12,-0.12 v -0.36 l 0.12,-0.12 v -0.36 l 0.12,-0.24 v -0.72 l -0.12,-0.12 v -0.36 l -0.12,-0.12 v -0.36 l -0.12,-0.12 -0.12,-0.24 v -0.12 l -0.12,-0.12 -0.12,-0.24 -0.12,-0.12 -0.12,-0.12 -0.12,-0.12 -0.12,-0.12 -0.12,-0.12 -0.24,-0.12 -0.12,-0.12 -0.12,-0.12 -0.24,-0.12 h -0.12 l -0.12,-0.12 h -0.24 l -0.12,-0.12 h -0.36 l -0.12,-0.12 h -1.08 l -0.24,0.12 h -0.24 l -0.24,0.12 h -0.12 l -0.24,0.12 h -0.12 l -0.12,0.12 -0.12,0.12 -0.24,0.12 -0.12,0.12 -0.12,0.12 -0.12,0.12 -0.12,0.12 -0.12,0.12 -0.12,0.12 -0.12,0.24 -0.12,0.12 -0.12,0.12 v 0.24 l -0.12,0.12 v 0.12 l -0.12,0.24 v 0.12 l -0.12,0.24 v 1.32 l 0.12,0.24 v 0.12 l 0.12,0.12 v 0.24 l 0.12,0.12 v 0.12 l 0.12,0.24 0.12,0.12 0.12,0.12 0.12,0.12 0.12,0.24 0.12,0.12 0.12,0.12 0.12,0.12 0.12,0.12 0.24,0.12 h 0.12 l 0.12,0.12 0.12,0.12 h 0.24 l 0.12,0.12 h 0.24 l 0.12,0.12 h 0.36 l 0.12,0.12 h 0.72 l 0.24,-0.12 h 0.36 l 0.12,-0.12 h 0.12 l 0.24,-0.12 h 0.12 l 0.12,-0.12 0.24,-0.12 h 0.12 l 0.12,-0.12 0.24,-0.12 0.12,-0.12 0.12,-0.12" style="fill:#0e1313;fill-opacity:1;fill-rule:evenodd;stroke:none;stroke-width:0.12" id="path177072"/><path d="m -1421.7256,921.30263 v -0.12 l 0.12,-0.12 v -0.12 h 0.12 v -0.24 h 0.12 v -0.84 l -0.12,-0.12 v -0.12 l -0.12,-0.12 v -0.12 h -0.12 v -0.12 h -0.12 v -0.12 h -0.12 v 0 l -0.12,-0.12 h -0.12 v 0 l -0.12,-0.12 h -0.12 -0.24 -0.12 -0.12 -0.24 -0.12 v 0.12 h -0.12 -0.12 v 0.12 h -0.12 v 0 l -0.12,0.12 v 0 l -0.12,0.12 v 0 l -0.12,0.12 v 0.12 l -0.12,0.12 v 1.08 h 0.12 v 0.24 h 0.12 v 0.12 h 0.12 v 0.12 h 0.12 v 0.12 h 0.12 v 0 l 0.12,0.12 h 0.12 0.12 v 0.12 h 0.24 0.12 0.12 0.24 v 0 l 0.12,-0.12 h 0.12 0.12 v -0.12 h 0.12 v 0 l 0.12,-0.12 h 0.12" style="fill:#ffffff;fill-opacity:1;fill-rule:evenodd;stroke:none;stroke-width:0.12" id="path177074"/><path d="m -1412.9656,910.26263 -0.36,-0.36 -0.36,-0.36 -0.36,-0.24 -0.36,-0.36 -0.36,-0.24 -0.48,-0.24 -0.36,-0.24 -0.36,-0.24 -0.48,-0.24 -0.36,-0.24 -0.48,-0.12 -0.48,-0.24 -0.48,-0.12 -0.36,-0.12 -0.48,-0.12 -0.48,-0.12 -0.48,-0.12 -0.48,-0.12 h -0.48 l -0.48,-0.12 h -2.88 l -0.48,0.12 h -0.48 l -0.48,0.12 -0.48,0.12 -0.48,0.12 -0.48,0.24 0.84,1.8 0.36,-0.12 0.36,-0.12 0.48,-0.12 0.36,-0.12 h 0.36 l 0.48,-0.12 h 2.4 l 0.36,0.12 h 0.48 l 0.36,0.12 0.36,0.12 h 0.36 l 0.48,0.12 0.36,0.12 0.36,0.12 0.36,0.24 0.36,0.12 0.36,0.12 0.36,0.24 0.36,0.24 0.36,0.12 0.36,0.24 0.36,0.24 0.24,0.24 0.36,0.24 0.24,0.24 0.36,0.36 1.44,-1.32" style="fill:#0e1313;fill-opacity:1;fill-rule:evenodd;stroke:none;stroke-width:0.12" id="path177076"/><path d="m -1429.2856,907.86263 -0.48,0.24 -0.36,0.24 -0.36,0.24 -0.48,0.24 -0.36,0.36 -0.36,0.24 -0.36,0.36 -0.36,0.24 -0.36,0.36 -0.36,0.36 -0.24,0.36 -0.36,0.36 -0.24,0.36 -0.36,0.36 -0.24,0.48 -0.24,0.36 -0.24,0.36 -0.24,0.48 -0.24,0.36 -0.12,0.48 -0.24,0.48 -0.12,0.36 -0.24,0.48 -0.12,0.48 -0.12,0.48 -0.12,0.48 v 0.48 l -0.12,0.48 v 0.48 l -0.12,0.48 v 0.96 l 1.92,-0.12 v -0.48 l 0.12,-0.36 v -0.84 l 0.12,-0.36 0.12,-0.48 v -0.36 l 0.12,-0.36 0.12,-0.36 0.12,-0.48 0.24,-0.36 0.12,-0.36 0.12,-0.36 0.24,-0.36 0.12,-0.36 0.24,-0.36 0.24,-0.24 0.24,-0.36 0.24,-0.36 0.24,-0.36 0.24,-0.24 0.24,-0.36 0.24,-0.24 0.36,-0.24 0.24,-0.36 0.36,-0.24 0.24,-0.24 0.36,-0.24 0.36,-0.24 0.36,-0.24 0.24,-0.12 0.36,-0.24 -0.72,-1.8" style="fill:#0e1313;fill-opacity:1;fill-rule:evenodd;stroke:none;stroke-width:0.12" id="path177078"/><path d="m -1436.6056,922.62263 v 0.48 l 0.12,0.48 0.12,0.48 0.12,0.36 0.24,0.48 0.12,0.48 0.24,0.48 0.12,0.36 0.24,0.48 0.24,0.36 0.24,0.48 0.24,0.36 0.24,0.36 0.36,0.48 0.24,0.36 0.36,0.36 0.24,0.36 0.36,0.24 0.36,0.36 0.36,0.36 0.36,0.36 0.36,0.24 0.36,0.24 0.36,0.36 0.48,0.24 0.36,0.24 0.48,0.24 0.48,0.24 0.36,0.12 0.48,0.24 0.48,0.12 0.48,0.24 0.48,-1.92 -0.48,-0.24 -0.36,-0.12 -0.36,-0.12 -0.36,-0.24 -0.36,-0.12 -0.36,-0.24 -0.36,-0.12 -0.36,-0.24 -0.36,-0.24 -0.24,-0.24 -0.36,-0.24 -0.36,-0.36 -0.24,-0.24 -0.24,-0.24 -0.36,-0.36 -0.24,-0.24 -0.24,-0.36 -0.24,-0.24 -0.24,-0.36 -0.24,-0.36 -0.24,-0.24 -0.24,-0.36 -0.12,-0.36 -0.24,-0.36 -0.12,-0.36 -0.12,-0.36 -0.24,-0.36 -0.12,-0.48 -0.12,-0.36 -0.12,-0.36 v -0.36 l -0.12,-0.48 -1.92,0.24" style="fill:#0e1313;fill-opacity:1;fill-rule:evenodd;stroke:none;stroke-width:0.12" id="path177080"/><path d="m -1424.8456,934.14263 h 0.48 l 0.48,0.12 h 2.4 l 0.48,-0.12 h 0.48 l 0.48,-0.12 0.48,-0.12 0.48,-0.12 0.48,-0.12 0.36,-0.12 0.48,-0.24 0.48,-0.12 0.36,-0.24 0.48,-0.12 0.48,-0.24 0.36,-0.24 0.36,-0.24 0.48,-0.24 0.36,-0.36 0.36,-0.24 0.36,-0.36 0.36,-0.24 0.36,-0.36 0.36,-0.36 0.36,-0.36 0.36,-0.36 0.24,-0.36 0.36,-0.48 -1.68,-0.96 -0.36,0.36 -0.24,0.24 -0.24,0.36 -0.24,0.24 -0.36,0.36 -0.24,0.24 -0.36,0.24 -0.24,0.24 -0.36,0.24 -0.36,0.24 -0.36,0.24 -0.36,0.24 -0.36,0.24 -0.36,0.12 -0.36,0.24 -0.36,0.12 -0.36,0.12 -0.36,0.12 -0.36,0.12 -0.36,0.12 -0.36,0.12 -0.48,0.12 h -0.36 l -0.36,0.12 h -0.48 l -0.36,0.12 h -1.56 l -0.48,-0.12 h -0.36 l -0.48,1.92" style="fill:#0e1313;fill-opacity:1;fill-rule:evenodd;stroke:none;stroke-width:0.12" id="path177082"/></g></g></g></svg>