<?xml version="1.0" encoding="UTF-8" standalone="no"?>
<svg xmlns:dc="http://purl.org/dc/elements/1.1/" xmlns:cc="http://creativecommons.org/ns#" xmlns:rdf="http://www.w3.org/1999/02/22-rdf-syntax-ns#" xmlns:svg="http://www.w3.org/2000/svg" xmlns="http://www.w3.org/2000/svg" xmlns:sodipodi="http://sodipodi.sourceforge.net/DTD/sodipodi-0.dtd" xmlns:inkscape="http://www.inkscape.org/namespaces/inkscape" version="1.1" id="svg47911" xml:space="preserve" width="66.239998" height="75.360001" viewBox="0 0 66.239997 75.360003" sodipodi:docname="ISO 7000 0028.svg" inkscape:version="1.0.1 (3bc2e813f5, 2020-09-07)"><metadata id="metadata47917"><rdf:RDF><cc:Work rdf:about=""><dc:format>image/svg+xml</dc:format><dc:type rdf:resource="http://purl.org/dc/dcmitype/StillImage"/><dc:title/></cc:Work></rdf:RDF></metadata><defs id="defs47915"/><sodipodi:namedview pagecolor="#ffffff" bordercolor="#666666" borderopacity="1" objecttolerance="10" gridtolerance="10" guidetolerance="10" inkscape:pageopacity="0" inkscape:pageshadow="2" inkscape:window-width="958" inkscape:window-height="1008" id="namedview47913" showgrid="false" fit-margin-top="0" fit-margin-left="0" fit-margin-right="0" fit-margin-bottom="0" inkscape:zoom="0.65511365" inkscape:cx="100.71307" inkscape:cy="-168.13633" inkscape:window-x="953" inkscape:window-y="0" inkscape:window-maximized="0" inkscape:current-layer="g88110"/><g id="g47919" inkscape:groupmode="layer" inkscape:label="4457193" transform="matrix(0,1.3333333,1.3333333,0,-998.09099,-655.03867)"><g id="g88110" transform="translate(42.677037,662.69413)"><g id="g97238"><path d="m 451.00198,108.07413 h 16.92 v -3.36 l 6.96,6 -6.96,5.88 v -3.36 h -16.92 z m 14.4,-2.4 h -16.8 v 9.96 h 16.8 v 6.24 l 2.04,-1.68 10.2,-8.64 1.08,-0.84 -1.08,-0.96 -10.2,-8.64 -2.04,-1.68 v 6.24" style="fill:#1f1a17;fill-opacity:1;fill-rule:nonzero;stroke:none;stroke-width:0.12" id="path95208"/><path d="m 474.28198,85.87413 v 12.24 l -6.24,-5.28 v 3.24 l 6.24,5.28 h 2.4 v -13.08 h 25.92 v 44.76 h -25.92 v -13.08 h -2.4 l -6.24,5.4 v 3.12 l 6.24,-5.28 v 12.36 h 30.84 v -49.68 h -30.84" style="fill:#1f1a17;fill-opacity:1;fill-rule:evenodd;stroke:none;stroke-width:0.12" id="path95210"/></g></g></g></svg>