<?xml version="1.0" encoding="UTF-8" standalone="no"?>
<svg xmlns:dc="http://purl.org/dc/elements/1.1/" xmlns:cc="http://creativecommons.org/ns#" xmlns:rdf="http://www.w3.org/1999/02/22-rdf-syntax-ns#" xmlns:svg="http://www.w3.org/2000/svg" xmlns="http://www.w3.org/2000/svg" xmlns:sodipodi="http://sodipodi.sourceforge.net/DTD/sodipodi-0.dtd" xmlns:inkscape="http://www.inkscape.org/namespaces/inkscape" version="1.1" id="svg47911" xml:space="preserve" width="75.35968" height="58.079998" viewBox="0 0 75.35968 58.079999" sodipodi:docname="ISO 7000 0024.svg" inkscape:version="1.0.1 (3bc2e813f5, 2020-09-07)"><title id="title100346">Open (a container)</title><metadata id="metadata47917"><rdf:RDF><cc:Work rdf:about=""><dc:format>image/svg+xml</dc:format><dc:type rdf:resource="http://purl.org/dc/dcmitype/StillImage"/><dc:title>Open (a container)</dc:title></cc:Work></rdf:RDF></metadata><defs id="defs47915"/><sodipodi:namedview pagecolor="#ffffff" bordercolor="#666666" borderopacity="1" objecttolerance="10" gridtolerance="10" guidetolerance="10" inkscape:pageopacity="0" inkscape:pageshadow="2" inkscape:window-width="958" inkscape:window-height="1008" id="namedview47913" showgrid="false" fit-margin-top="0" fit-margin-left="0" fit-margin-right="0" fit-margin-bottom="0" inkscape:zoom="0.65511365" inkscape:cx="477.10199" inkscape:cy="417.06095" inkscape:window-x="953" inkscape:window-y="0" inkscape:window-maximized="0" inkscape:current-layer="g88110"/><g id="g47919" inkscape:groupmode="layer" inkscape:label="4457193" transform="matrix(0,1.3333333,1.3333333,0,-1407.5001,2156.124)"><g id="g88110" transform="translate(42.677037,662.69413)"><g id="g194728"><path d="m -1640.9301,404.81099 v 0.24 l -0.36,0.36 -0.36,0.12 -0.24,0.12 -0.36,-0.12 -0.24,-0.12 -0.24,-0.36 -0.12,-0.24" style="fill:#000000;fill-opacity:1;fill-rule:nonzero;stroke:none;stroke-width:0.12" id="path189051"/><path d="m -1641.8901,394.73099 0.96,-0.96 v 11.04 h -1.92 v -11.04 l 0.96,-0.84 -0.96,0.84 0.12,-0.48 0.24,-0.24 0.24,-0.12 h 0.6 l 0.36,0.12 0.36,0.24 v 0.48" style="fill:#000000;fill-opacity:1;fill-rule:nonzero;stroke:none;stroke-width:0.12" id="path189053"/><path d="m -1618.1301,393.77099 0.96,0.96 h -24.72 v -1.8 h 24.72 l 0.96,0.84 -0.96,-0.84 0.48,0.12 0.24,0.12 0.24,0.36 v 0.6 l -0.24,0.24 -0.24,0.24 -0.48,0.12" style="fill:#000000;fill-opacity:1;fill-rule:nonzero;stroke:none;stroke-width:0.12" id="path189055"/><path d="m -1617.1701,447.53075 -0.96,0.96 v -54.71976 h 1.92 v 54.71976 l -0.96,0.96 0.96,-0.96 -0.24,0.48 -0.12,0.24 -0.36,0.24 h -0.6 l -0.24,-0.24 -0.24,-0.24 -0.12,-0.48" style="fill:#000000;fill-opacity:1;fill-rule:nonzero;stroke:none;stroke-width:0.12" id="path189057"/><path d="m -1640.9301,448.49075 -0.96,-0.96 h 24.72 v 1.92 h -24.72 l -0.96,-0.96 0.96,0.96 -0.36,-0.24 -0.24,-0.12 -0.24,-0.36 -0.12,-0.24 0.12,-0.36 0.24,-0.24 0.24,-0.24 0.36,-0.12" style="fill:#000000;fill-opacity:1;fill-rule:nonzero;stroke:none;stroke-width:0.12" id="path189059"/><path d="m -1641.8901,437.45099 h 0.96 v 11.03976 h -1.92 v -11.03976 h 0.96" style="fill:#000000;fill-opacity:1;fill-rule:nonzero;stroke:none;stroke-width:0.12" id="path189061"/><path d="m -1642.8501,437.45099 0.12,-0.24 0.24,-0.36 0.24,-0.12 0.36,-0.12 0.24,0.12 0.36,0.12 0.36,0.36 v 0.24" style="fill:#000000;fill-opacity:1;fill-rule:nonzero;stroke:none;stroke-width:0.12" id="path189063"/><path d="m -1641.8901,404.81099 1.56,0.84 -16.44,25.2 -3,-2.04 16.32,-25.08 1.56,1.08" style="fill:#000000;fill-opacity:1;fill-rule:nonzero;stroke:none;stroke-width:0.12" id="path189065"/><path d="m -1653.2901,423.65099 -0.36,-0.36 -0.12,-0.36 0.12,-0.24 v -0.36 l 0.36,-0.24 0.24,-0.24 h 0.36 l 0.48,0.24" style="fill:#000000;fill-opacity:1;fill-rule:nonzero;stroke:none;stroke-width:0.12" id="path189067"/><path d="m -1630.9701,430.61099 -3.36,-0.36 -3.12,-0.48 -2.88,-0.6 -2.76,-0.72 -2.64,-0.96 -2.64,-1.08 -2.52,-1.44 -2.4,-1.32 1.08,-1.56 2.28,1.32 2.28,1.32 2.52,1.08 2.64,0.84 2.64,0.72 2.88,0.6 2.88,0.48 3.36,0.36" style="fill:#000000;fill-opacity:1;fill-rule:nonzero;stroke:none;stroke-width:0.12" id="path189069"/><path d="m -1630.7301,428.81099 h 0.24 l 0.36,0.36 0.12,0.36 v 0.24 l -0.12,0.36 -0.24,0.24 -0.24,0.24 h -0.36" style="fill:#000000;fill-opacity:1;fill-rule:nonzero;stroke:none;stroke-width:0.12" id="path189071"/><path d="m -1640.6901,423.41099 0.36,0.24 0.24,0.12 0.24,0.24 v 0.36 l -0.24,0.36 -0.12,0.24 -0.36,0.12 h -0.24" style="fill:#000000;fill-opacity:1;fill-rule:nonzero;stroke:none;stroke-width:0.12" id="path189073"/><path d="m -1653.5301,423.29099 0.84,-1.44 12,1.56 -0.12,1.68 -12.12,-1.44 0.84,-1.56 -0.84,1.56 -0.36,-0.24 -0.24,-0.12 -0.12,-0.36 v -0.72 l 0.36,-0.12 0.24,-0.24 h 0.36" style="fill:#000000;fill-opacity:1;fill-rule:nonzero;stroke:none;stroke-width:0.12" id="path189075"/><path d="m -1645.0101,431.45099 -0.72,0.48 -7.8,-8.64 1.44,-1.2 7.68,8.76 -0.6,0.6" style="fill:#000000;fill-opacity:1;fill-rule:nonzero;stroke:none;stroke-width:0.12" id="path189077"/><path d="m -1644.4101,430.85099 0.24,0.36 0.12,0.24 -0.12,0.36 -0.24,0.24 -0.24,0.24 h -0.84 l -0.24,-0.36" style="fill:#000000;fill-opacity:1;fill-rule:nonzero;stroke:none;stroke-width:0.12" id="path189079"/><path d="m -1644.6501,404.57099 0.12,0.6 0.12,0.48 0.24,0.48 0.36,0.36 0.36,0.48 0.48,0.12 0.48,0.12 0.6,0.12 0.48,-0.12 0.6,-0.12 0.48,-0.12 0.24,-0.48 0.36,-0.36 0.24,-0.48 0.24,-0.48 v -1.2 l -0.24,-0.48 -0.24,-0.48 -0.36,-0.24 -0.24,-0.48 -0.48,-0.12 -0.6,-0.24 -0.48,-0.12 -0.6,0.12 -0.48,0.24 -0.48,0.12 -0.36,0.48 -0.36,0.24 -0.24,0.48 -0.12,0.48 -0.12,0.6" style="fill:#ffffff;fill-opacity:1;fill-rule:evenodd;stroke:none;stroke-width:0.12" id="path189081"/><path d="m -1641.8901,408.29099 -0.84,-0.12 -0.6,-0.12 -0.6,-0.48 -0.6,-0.36 -0.36,-0.6 -0.36,-0.6 -0.24,-0.6 v -0.84 h 1.68 l 0.24,0.36 v 0.48 l 0.12,0.24 0.36,0.24 0.12,0.24 0.24,0.12 0.36,0.24 h 0.48" style="fill:#000000;fill-opacity:1;fill-rule:nonzero;stroke:none;stroke-width:0.12" id="path189083"/><path d="m -1638.4101,404.57099 v 0.84 l -0.24,0.6 -0.36,0.6 -0.48,0.6 -0.36,0.36 -0.72,0.48 -0.72,0.12 -0.6,0.12 v -1.8 h 0.24 l 0.36,-0.24 0.36,-0.12 0.24,-0.24 0.12,-0.24 0.24,-0.24 0.12,-0.48 v -0.36" style="fill:#000000;fill-opacity:1;fill-rule:nonzero;stroke:none;stroke-width:0.12" id="path189085"/><path d="m -1641.8901,401.09099 h 0.6 l 0.72,0.12 0.72,0.48 0.36,0.24 0.48,0.72 0.36,0.6 0.24,0.6 v 0.72 h -1.8 v -0.24 l -0.12,-0.48 -0.24,-0.36 -0.12,-0.12 -0.24,-0.36 -0.36,-0.12 -0.36,-0.12 h -0.24" style="fill:#000000;fill-opacity:1;fill-rule:nonzero;stroke:none;stroke-width:0.12" id="path189087"/><path d="m -1645.4901,404.57099 v -0.72 l 0.24,-0.6 0.36,-0.6 0.36,-0.72 0.6,-0.24 0.6,-0.48 0.6,-0.12 h 0.84 v 1.68 h -0.48 l -0.36,0.12 -0.24,0.12 -0.12,0.36 -0.36,0.12 -0.12,0.36 v 0.48 l -0.24,0.24" style="fill:#000000;fill-opacity:1;fill-rule:nonzero;stroke:none;stroke-width:0.12" id="path189089"/></g></g></g></svg>