<?xml version="1.0" encoding="UTF-8" standalone="no"?>
<svg xmlns:dc="http://purl.org/dc/elements/1.1/" xmlns:cc="http://creativecommons.org/ns#" xmlns:rdf="http://www.w3.org/1999/02/22-rdf-syntax-ns#" xmlns:svg="http://www.w3.org/2000/svg" xmlns="http://www.w3.org/2000/svg" xmlns:sodipodi="http://sodipodi.sourceforge.net/DTD/sodipodi-0.dtd" xmlns:inkscape="http://www.inkscape.org/namespaces/inkscape" version="1.1" id="svg47911" xml:space="preserve" width="65.119995" height="75.360001" viewBox="0 0 65.119995 75.360002" sodipodi:docname="ISO 7000 0030.svg" inkscape:version="1.0.1 (3bc2e813f5, 2020-09-07)"><title id="title100346">Overflow</title><metadata id="metadata47917"><rdf:RDF><cc:Work rdf:about=""><dc:format>image/svg+xml</dc:format><dc:type rdf:resource="http://purl.org/dc/dcmitype/StillImage"/><dc:title>Overflow</dc:title></cc:Work></rdf:RDF></metadata><defs id="defs47915"/><sodipodi:namedview pagecolor="#ffffff" bordercolor="#666666" borderopacity="1" objecttolerance="10" gridtolerance="10" guidetolerance="10" inkscape:pageopacity="0" inkscape:pageshadow="2" inkscape:window-width="958" inkscape:window-height="1008" id="namedview47913" showgrid="false" fit-margin-top="0" fit-margin-left="0" fit-margin-right="0" fit-margin-bottom="0" inkscape:zoom="0.65511365" inkscape:cx="-265.78598" inkscape:cy="506.38608" inkscape:window-x="953" inkscape:window-y="0" inkscape:window-maximized="0" inkscape:current-layer="g88110"/><g id="g47919" inkscape:groupmode="layer" inkscape:label="4457193" transform="matrix(0,1.3333333,1.3333333,0,-2102.6542,2245.4492)"><g id="g88110" transform="translate(42.677037,662.69413)"><g id="g184256"><path d="m -1697.484,936.13658 h 16.56 v -3.24 l 6.84,5.76 -6.84,5.76 v -3.24 h -16.56 z m 6.84,12.96 v -2.4 h -16.08 l -8.64,4.92 1.2,2.16 8.04,-4.68 h 7.08 v 11.52 h -25.32 v -43.92 h 25.32 v 11.52 h -7.08 l -8.04,-4.68 -1.2,2.16 8.64,4.92 h 16.08 v -2.4 h -5.88 v -13.92 h -30.24 v 48.84 h 30.24 v -14.04 z m 7.32,-15.36 h -16.56 v 9.84 h 16.56 v 6.12 l 2.04,-1.68 9.84,-8.4 1.2,-0.96 -1.2,-0.96 -9.84,-8.4 -2.04,-1.68 v 6.12" style="fill:#1f1a17;fill-opacity:1;fill-rule:nonzero;stroke:none;stroke-width:0.12" id="path182222"/></g></g></g></svg>