<?xml version="1.0" encoding="UTF-8" standalone="no"?>
<svg xmlns:dc="http://purl.org/dc/elements/1.1/" xmlns:cc="http://creativecommons.org/ns#" xmlns:rdf="http://www.w3.org/1999/02/22-rdf-syntax-ns#" xmlns:svg="http://www.w3.org/2000/svg" xmlns="http://www.w3.org/2000/svg" xmlns:sodipodi="http://sodipodi.sourceforge.net/DTD/sodipodi-0.dtd" xmlns:inkscape="http://www.inkscape.org/namespaces/inkscape" version="1.1" id="svg47911" xml:space="preserve" width="75.360001" height="55.84" viewBox="0 0 75.359999 55.840002" sodipodi:docname="ISO 7000 0086.svg" inkscape:version="1.0.1 (3bc2e813f5, 2020-09-07)"><title id="title100346">Windscreen wiper</title><metadata id="metadata47917"><rdf:RDF><cc:Work rdf:about=""><dc:format>image/svg+xml</dc:format><dc:type rdf:resource="http://purl.org/dc/dcmitype/StillImage"/><dc:title>Windscreen wiper</dc:title></cc:Work></rdf:RDF></metadata><defs id="defs47915"/><sodipodi:namedview pagecolor="#ffffff" bordercolor="#666666" borderopacity="1" objecttolerance="10" gridtolerance="10" guidetolerance="10" inkscape:pageopacity="0" inkscape:pageshadow="2" inkscape:window-width="958" inkscape:window-height="1008" id="namedview47913" showgrid="false" fit-margin-top="0" fit-margin-left="0" fit-margin-right="0" fit-margin-bottom="0" inkscape:zoom="0.65511365" inkscape:cx="-189.90499" inkscape:cy="247.40022" inkscape:window-x="953" inkscape:window-y="0" inkscape:window-maximized="0" inkscape:current-layer="g88110"/><g id="g47919" inkscape:groupmode="layer" inkscape:label="4457193" transform="matrix(0,1.3333333,1.3333333,0,-1095.7174,503.6577)"><g id="g88110" transform="translate(42.677037,662.69413)"><g id="g152632"><path d="m -420.42032,187.29393 v 2.64 l 0.12,0.96 v 0.84 l 0.12,0.84 0.12,0.96 0.12,0.84 0.12,0.84 0.12,0.84 0.12,0.84 0.24,0.96 0.12,0.84 0.24,0.84 0.24,0.84 0.24,0.84 0.24,0.84 0.24,0.84 0.24,0.84 0.36,0.84 0.24,0.72 0.36,0.84 0.36,0.84 0.24,0.72 0.36,0.84 0.48,0.84 0.36,0.72 0.36,0.84 0.48,0.72 0.36,0.72 0.48,0.84 0.48,0.72 0.96,1.68 26.16,-15.24 -0.24,-0.36 -0.36,-0.48 -0.24,-0.48 -0.24,-0.36 -0.36,-0.36 -0.24,-0.48 -0.12,-0.24 -0.12,-0.12 -0.12,-0.24 -0.12,-0.24 -0.12,-0.12 -0.12,-0.24 v -0.24 l -0.12,-0.24 -0.12,-0.12 -0.12,-0.24 -0.12,-0.24 -0.12,-0.24 -0.12,-0.24 v -0.24 l -0.12,-0.24 -0.12,-0.24 -0.12,-0.24 v -0.36 l -0.12,-0.24 -0.12,-0.24 -0.12,-0.24 v -0.24 l -0.12,-0.24 v -0.36 l -0.12,-0.24 v -0.24 l -0.12,-0.24 v -0.48 l -0.12,-0.24 v -0.48 l -0.12,-0.24 v -0.72 l -0.12,-0.24 v -3.6 l 0.12,-0.24 4.92,2.4 v 0.12 l 0.12,0.12 v 0.36 l 0.12,0.12 v 0.24 l 0.12,0.24 0.12,0.12 v 0.12 l 0.12,0.12 0.12,0.12 v 0.12 l 0.12,0.12 0.12,0.12 0.12,0.12 h 0.12 l 0.12,0.12 0.12,0.12 0.12,0.12 h 0.12 l 0.12,0.12 h 0.12 l 0.24,0.12 h 0.12 l 0.12,0.12 h 0.48 l 0.12,0.12 h 0.72 l 0.12,-0.12 h 0.48 l 0.12,-0.12 h 0.24 l 0.12,-0.12 0.12,-0.12 h 0.12 l 0.12,-0.12 0.12,-0.12 0.12,-0.12 h 0.12 l 0.12,-0.12 0.12,-0.12 0.12,-0.12 0.12,-0.12 0.12,-0.12 0.12,-0.24 v -0.12 l 0.12,-0.12 v -0.12 l 0.12,-0.12 v -0.24 l 0.12,-0.12 v -0.48 l 0.12,-0.24 v -0.24 l -0.12,-0.24 v -0.48 l -0.12,-0.12 v -0.24 l -0.12,-0.12 v -0.12 l -0.12,-0.12 v -0.12 l -0.12,-0.12 -0.12,-0.24 -0.12,-0.12 -0.12,-0.12 -0.12,-0.12 -0.12,-0.12 h -0.12 l -0.12,-0.12 -0.12,-0.12 -0.12,-0.12 h -0.12 l -0.12,-0.12 -0.12,-0.12 h -0.36 l -0.12,-0.12 h -0.36 l -0.12,-0.12 h -0.72 l -0.24,0.12 h -0.36 l -0.12,0.12 h -0.24 v 0.12 h -0.12 l -0.12,0.12 h -0.12 l -0.12,0.12 h -0.12 l -5.76,-2.64 v -0.24 l 0.12,-0.24 v -0.12 l 0.12,-0.24 v -0.12 l 0.12,-0.24 v -0.24 l 0.12,-0.12 0.12,-0.24 v -0.12 l 0.12,-0.24 v -0.24 l 0.12,-0.12 0.12,-0.24 v -0.12 l 0.12,-0.24 0.12,-0.12 0.12,-0.24 v -0.24 l 0.12,-0.12 0.12,-0.24 0.12,-0.12 v -0.24 l 0.12,-0.12 0.12,-0.24 0.12,-0.12 0.12,-0.24 0.12,-0.12 0.12,-0.12 0.12,-0.24 0.12,-0.12 v -0.24 l 1.2,-1.68 -26.16,-15.12 -0.96,1.56 -0.48,0.72 -0.48,0.84 -0.36,0.72 -0.48,0.72 -0.36,0.84 -0.36,0.72 -0.48,0.84 -0.36,0.84 -0.24,0.72 -0.36,0.84 -0.36,0.84 -0.24,0.84 -0.36,0.72 -0.24,0.84 -0.24,0.84 -0.24,0.84 -0.24,0.84 -0.24,0.84 -0.24,0.84 -0.12,0.96 -0.24,0.84 -0.12,0.84 -0.12,0.84 -0.12,0.84 -0.12,0.96 -0.12,0.84 -0.12,0.84 v 0.84 l -0.12,0.96 v 2.64" style="fill:#1f1a17;fill-opacity:1;fill-rule:nonzero;stroke:none;stroke-width:0.12" id="path150964"/><path d="m -414.54032,173.97393 20.52,9.6 v 0.48 l -0.12,0.48 v 0.96 l -0.12,0.48 v 2.52 l 0.12,0.48 v 1.08 l 0.12,0.48 v 0.48 l 0.12,0.48 0.12,0.48 0.12,0.48 0.12,0.48 0.12,0.48 0.12,0.48 0.12,0.48 0.12,0.48 0.12,0.48 0.24,0.48 0.12,0.48 0.24,0.48 0.24,0.48 0.12,0.48 0.24,0.48 0.24,0.36 0.24,0.48 -19.32,11.16 -0.12,-0.24 -0.12,-0.36 -0.24,-0.24 -0.12,-0.36 -0.12,-0.24 -0.24,-0.36 -0.12,-0.24 -0.12,-0.36 -0.12,-0.36 -0.24,-0.24 -0.12,-0.36 -0.12,-0.24 -0.12,-0.36 -0.12,-0.36 -0.24,-0.24 -0.12,-0.36 -0.12,-0.24 -0.12,-0.36 -0.12,-0.36 -0.12,-0.24 -0.12,-0.36 -0.12,-0.36 -0.12,-0.36 -0.12,-0.24 -0.12,-0.36 -0.12,-0.36 -0.12,-0.36 -0.12,-0.24 v -0.36 l -0.12,-0.36 -0.12,-0.36 -0.12,-0.24 -0.24,-0.84 -0.12,-0.84 -0.24,-0.84 -0.24,-0.72 -0.12,-0.84 -0.12,-0.84 -0.12,-0.84 -0.12,-0.84 -0.12,-0.84 -0.12,-0.84 v -0.84 l -0.12,-0.72 v -0.84 l -0.12,-0.84 v -2.52 l 0.12,-0.84 v -0.84 l 0.12,-0.72 v -0.84 l 0.12,-0.84 0.12,-0.84 0.12,-0.84 0.12,-0.84 0.12,-0.72 0.12,-0.84 0.24,-0.84 0.12,-0.84 0.24,-0.72 0.24,-0.84 0.24,-0.72" style="fill:#ffffff;fill-opacity:1;fill-rule:nonzero;stroke:none;stroke-width:0.12" id="path150966"/><path d="m -393.18032,180.21393 -20.28,-9.48 0.12,-0.48 0.12,-0.36 0.24,-0.36 0.12,-0.48 0.12,-0.36 0.24,-0.36 0.12,-0.48 0.24,-0.36 0.24,-0.36 0.12,-0.48 0.24,-0.36 0.12,-0.36 0.24,-0.36 0.24,-0.48 0.24,-0.36 0.12,-0.36 19.32,11.16 -0.12,0.24 -0.12,0.36 -0.12,0.24 -0.24,0.24 -0.12,0.36 -0.12,0.24 -0.12,0.36 -0.12,0.24 -0.12,0.24 -0.12,0.36 -0.12,0.24 -0.12,0.36 -0.12,0.24 -0.12,0.36 v 0.24 l -0.12,0.36" style="fill:#ffffff;fill-opacity:1;fill-rule:nonzero;stroke:none;stroke-width:0.12" id="path150968"/></g></g></g></svg>