<svg version="1.1" id="Layer_1" xmlns="http://www.w3.org/2000/svg" xmlns:xlink="http://www.w3.org/1999/xlink" x="0px" y="0px" viewBox="0 0 100 100" xml:space="preserve"><desc>Copyright Opto 22</desc> 
<g>
    <g id="frame">
		<rect fill="none" width="100" height="100"></rect>
</g>
<g id="shape">
	<polygon fill="#006838" points="64.262,93.031 60.792,93.031 60.792,72.714 65.92,77.841 64.988,78.774 70.421,84.207 
		73.535,81.093 76.529,84.087 87.057,73.558 84.063,70.564 87.177,67.45 81.744,62.017 80.704,63.057 60.792,43.145 60.792,42.63 
		60.792,6.851 64.262,6.851 64.262,0.131 60.792,0.131 39.542,0.131 35.738,0.131 35.738,6.851 39.542,6.851 39.542,93.031 
		35.738,93.031 35.738,100 39.542,100 60.792,100 64.262,100 	"></polygon>
</g>
<g id="dark">
	<polygon fill="#009245" points="59.042,68.5 69.202,78.659 71.931,75.93 69.111,73.11 76.081,66.141 78.9,68.961 81.522,66.339 
		59.042,43.859 59.042,43.351 59.042,0.131 41.035,0.131 41.035,51.149 42.756,52.87 41.035,54.591 41.035,100 59.042,100 	"></polygon>
	
		<rect x="82.472" y="71.222" transform="matrix(0.7071 -0.7071 0.7071 0.7071 -27.1733 81.0759)" fill="#009245" width="3.617" height="4.234"></rect>
</g>
<g id="light">
	<polygon fill="#96D48D" points="56.542,63.786 70.183,77.427 71.806,75.805 69.111,73.11 76.081,66.141 78.775,68.836 
		80.04,67.571 56.542,44.073 56.542,0.131 43.527,0.131 43.527,50.792 45.606,52.87 43.527,54.949 43.527,100 56.542,100 	"></polygon>
</g>
<g id="hlight">
	<polygon fill="#FFFFFF" points="54.542,58.898 69.971,74.327 70.149,74.148 69.111,73.11 76.081,66.141 77.118,67.179 
		77.363,66.934 54.542,44.114 54.542,0.131 45.542,0.131 45.542,50.434 47.978,52.87 45.542,55.306 45.542,100 54.542,100 	"></polygon>
</g>
<g id="shadow">
		<rect x="74.502" y="79.193" transform="matrix(0.7071 -0.7071 0.7071 0.7071 -35.1442 77.7748)" fill="#004F2A" width="3.617" height="4.234"></rect>
	<polygon fill="#004F2A" points="64.397,69.237 53.544,58.384 54.119,55.181 57.897,51.403 61.099,50.828 71.953,61.682 	"></polygon>
	<g>
		<path fill="#004F2A" d="M62.479,65.208c0-1.216,0.662-2.667,1.888-3.893c0.87-0.87,1.897-1.493,2.894-1.756
			c1.139-0.3,2.123-0.107,2.772,0.542c0.649,0.648,0.84,1.633,0.543,2.773c-0.263,0.996-0.887,2.023-1.756,2.894l0,0
			c-0.87,0.87-1.897,1.493-2.894,1.756c-1.14,0.3-2.124,0.107-2.773-0.542C62.697,66.527,62.479,65.907,62.479,65.208z
			 M69.211,61.881c0-0.31-0.081-0.559-0.239-0.717c-0.253-0.253-0.737-0.309-1.33-0.153c-0.732,0.193-1.54,0.691-2.215,1.366
			c-0.675,0.675-1.173,1.482-1.366,2.215c-0.153,0.593-0.1,1.078,0.152,1.33c0.253,0.253,0.737,0.309,1.33,0.152
			c0.733-0.193,1.541-0.691,2.216-1.366c0.675-0.675,1.173-1.483,1.365-2.215C69.183,62.272,69.211,62.065,69.211,61.881z"></path>
		<path fill="#004F2A" d="M65.058,67.787c0-1.216,0.661-2.667,1.887-3.893c1.93-1.929,4.419-2.462,5.667-1.214
			c1.247,1.247,0.716,3.737-1.214,5.667l0,0c-1.929,1.928-4.418,2.462-5.667,1.214C65.275,69.106,65.058,68.485,65.058,67.787z
			 M71.789,64.455c0-0.306-0.08-0.555-0.238-0.714c-0.55-0.55-2.184-0.148-3.546,1.214c-1.361,1.362-1.764,2.996-1.214,3.545
			c0.551,0.55,2.184,0.147,3.546-1.214C71.306,66.317,71.789,65.211,71.789,64.455z"></path>
		<path fill="#004F2A" d="M66.629,69.37c0-0.316,0.046-0.652,0.139-1.003c0.263-0.996,0.886-2.023,1.756-2.893
			c0.869-0.87,1.896-1.494,2.894-1.756c1.139-0.3,2.123-0.108,2.772,0.542c1.247,1.249,0.715,3.736-1.214,5.667l0,0
			c-0.87,0.87-1.897,1.493-2.894,1.756c-1.139,0.3-2.123,0.107-2.772-0.542C66.859,70.69,66.629,70.08,66.629,69.37z M73.368,66.038
			c0-0.31-0.081-0.56-0.239-0.718c-0.253-0.253-0.737-0.309-1.33-0.152c-0.732,0.193-1.54,0.691-2.215,1.366
			s-1.173,1.482-1.366,2.215c-0.156,0.593-0.1,1.078,0.152,1.33c0.253,0.253,0.737,0.309,1.33,0.153
			c0.732-0.193,1.54-0.691,2.215-1.366c0.675-0.675,1.173-1.482,1.366-2.215C73.339,66.429,73.368,66.222,73.368,66.038z"></path>
	</g>
</g>
    </g>
</svg>