<svg version="1.1" id="Layer_1" xmlns="http://www.w3.org/2000/svg" xmlns:xlink="http://www.w3.org/1999/xlink" x="0px" y="0px" viewBox="0 0 100 100" xml:space="preserve"><desc>Copyright Opto 22</desc> 
    <g>
    <g id="frame">
            <rect fill="none" width="100" height="100"></rect>
    </g>
    <g id="shape">
        <polygon fill="#006838" points="93.031,35.738 93.031,39.208 72.714,39.208 77.841,34.08 78.774,35.012 84.207,29.579 
            81.093,26.465 84.087,23.471 73.558,12.943 70.564,15.937 67.45,12.823 62.017,18.256 63.057,19.296 43.145,39.208 42.63,39.208 
            6.851,39.208 6.851,35.738 0.131,35.738 0.131,39.208 0.131,60.458 0.131,64.262 6.851,64.262 6.851,60.458 93.031,60.458 
            93.031,64.262 100,64.262 100,60.458 100,39.208 100,35.738 	"></polygon>
    </g>
    <g id="dark">
        <polygon fill="#009245" points="68.5,40.958 78.659,30.798 75.93,28.069 73.11,30.889 66.141,23.919 68.961,21.1 66.339,18.478 
            43.859,40.958 43.351,40.958 0.131,40.958 0.131,58.965 51.149,58.965 52.87,57.244 54.591,58.965 100,58.965 100,40.958 	"></polygon>

            <rect x="71.222" y="13.911" transform="matrix(0.7071 -0.7071 0.7071 0.7071 10.3653 56.4626)" fill="#009245" width="4.234" height="3.617"></rect>
    </g>
    <g id="light">
        <polygon fill="#96D48D" points="63.786,43.458 77.427,29.817 75.805,28.194 73.11,30.889 66.141,23.919 68.836,21.225 
            67.571,19.96 44.073,43.458 0.131,43.458 0.131,56.473 50.792,56.473 52.87,54.394 54.949,56.473 100,56.473 100,43.458 	"></polygon>
    </g>
    <g id="hlight">
        <polygon fill="#FFFFFF" points="58.898,45.458 74.327,30.029 74.148,29.851 73.11,30.889 66.141,23.919 67.179,22.882 
            66.934,22.637 44.114,45.458 0.131,45.458 0.131,54.458 50.434,54.458 52.87,52.022 55.306,54.458 100,54.458 100,45.458 	"></polygon>
    </g>
    <g id="shadow">

            <rect x="79.193" y="21.881" transform="matrix(0.7071 -0.7071 0.7071 0.7071 7.0641 64.4336)" fill="#004F2A" width="4.234" height="3.617"></rect>
        <polygon fill="#004F2A" points="69.237,35.603 58.384,46.456 55.181,45.881 51.403,42.103 50.828,38.901 61.682,28.047 	"></polygon>
        <g>
            <path fill="#004F2A" d="M65.208,37.521c-1.216,0-2.667-0.662-3.893-1.888c-0.87-0.87-1.493-1.897-1.756-2.894
                c-0.3-1.139-0.107-2.123,0.542-2.772c0.648-0.649,1.633-0.84,2.773-0.543c0.996,0.263,2.023,0.887,2.894,1.756l0,0
                c0.87,0.87,1.493,1.897,1.756,2.894c0.3,1.14,0.107,2.124-0.542,2.773C66.527,37.303,65.907,37.521,65.208,37.521z M61.881,30.789
                c-0.31,0-0.559,0.081-0.717,0.239c-0.253,0.253-0.309,0.737-0.153,1.33c0.193,0.732,0.691,1.54,1.366,2.215
                s1.482,1.173,2.215,1.366c0.593,0.153,1.078,0.1,1.33-0.152c0.253-0.253,0.309-0.737,0.152-1.33
                c-0.193-0.733-0.691-1.541-1.366-2.216c-0.675-0.675-1.483-1.173-2.215-1.365C62.272,30.817,62.065,30.789,61.881,30.789z"></path>
            <path fill="#004F2A" d="M67.787,34.942c-1.216,0-2.667-0.661-3.893-1.887c-1.929-1.93-2.462-4.419-1.214-5.667
                c1.247-1.247,3.737-0.716,5.667,1.214l0,0c1.928,1.929,2.462,4.418,1.214,5.667C69.106,34.725,68.485,34.942,67.787,34.942z
                 M64.455,28.211c-0.306,0-0.555,0.08-0.714,0.238c-0.55,0.55-0.148,2.184,1.214,3.546c1.362,1.361,2.996,1.764,3.545,1.214
                c0.55-0.551,0.147-2.184-1.214-3.546C66.317,28.694,65.211,28.211,64.455,28.211z"></path>
            <path fill="#004F2A" d="M69.37,33.371c-0.316,0-0.652-0.046-1.003-0.139c-0.996-0.263-2.023-0.886-2.893-1.756
                c-0.87-0.869-1.494-1.896-1.756-2.894c-0.3-1.139-0.108-2.123,0.542-2.772c1.249-1.247,3.736-0.715,5.667,1.214l0,0
                c0.87,0.87,1.493,1.897,1.756,2.894c0.3,1.139,0.107,2.123-0.542,2.772C70.69,33.141,70.08,33.371,69.37,33.371z M66.038,26.632
                c-0.31,0-0.56,0.081-0.718,0.239c-0.253,0.253-0.309,0.737-0.152,1.33c0.193,0.732,0.691,1.54,1.366,2.215
                s1.482,1.173,2.215,1.366c0.593,0.156,1.078,0.1,1.33-0.152c0.253-0.253,0.309-0.737,0.153-1.33
                c-0.193-0.732-0.691-1.54-1.366-2.215c-0.675-0.675-1.482-1.173-2.215-1.366C66.429,26.661,66.222,26.632,66.038,26.632z"></path>
        </g>
    </g>
        </g>
</svg>