<svg version="1.1" id="Layer_1" xmlns="http://www.w3.org/2000/svg" xmlns:xlink="http://www.w3.org/1999/xlink" x="0px" y="0px" viewBox="0 0 100 100" xml:space="preserve"><desc>Copyright Opto 22</desc> 
<g>
<g id="frame">
	<rect fill="none" width="100" height="100"></rect>
</g>
<g id="shape">
	<path fill="#006837" d="M21.27,71.27C9.542,71.27,0,61.728,0,50c0-11.729,9.542-21.27,21.27-21.27h57.46
		C90.458,28.73,100,38.271,100,50c0,11.728-9.542,21.27-21.27,21.27H21.27z"></path>
</g>
<g id="dark">
	<path fill="#009245" d="M78.73,29.03H21.27C9.707,29.03,0.3,38.437,0.3,50S9.707,70.97,21.27,70.97h57.46
		C90.293,70.97,99.7,61.563,99.7,50S90.293,29.03,78.73,29.03z M75,64.063H25c-0.276,0-0.5-0.224-0.5-0.5s0.224-0.5,0.5-0.5h50
		c0.276,0,0.5,0.224,0.5,0.5S75.276,64.063,75,64.063z M75,55.021H25c-0.276,0-0.5-0.224-0.5-0.5s0.224-0.5,0.5-0.5h50
		c0.276,0,0.5,0.224,0.5,0.5S75.276,55.021,75,55.021z M75,45.979H25c-0.276,0-0.5-0.224-0.5-0.5s0.224-0.5,0.5-0.5h50
		c0.276,0,0.5,0.224,0.5,0.5S75.276,45.979,75,45.979z M75,36.938H25c-0.276,0-0.5-0.224-0.5-0.5s0.224-0.5,0.5-0.5h50
		c0.276,0,0.5,0.224,0.5,0.5S75.276,36.938,75,36.938z"></path>
</g>
<g id="light">
	<path fill="#96D48D" d="M78.73,29.629H21.27C10.038,29.629,0.899,38.768,0.899,50c0,11.233,9.138,20.37,20.371,20.37h57.46
		c11.232,0,20.371-9.138,20.371-20.37C99.101,38.768,89.962,29.629,78.73,29.629z M75,64.563H25c-0.552,0-1-0.447-1-1s0.448-1,1-1
		h50c0.553,0,1,0.447,1,1S75.553,64.563,75,64.563z M75,55.521H25c-0.552,0-1-0.447-1-1s0.448-1,1-1h50c0.553,0,1,0.447,1,1
		S75.553,55.521,75,55.521z M75,46.479H25c-0.552,0-1-0.448-1-1s0.448-1,1-1h50c0.553,0,1,0.448,1,1S75.553,46.479,75,46.479z
		 M75,37.438H25c-0.552,0-1-0.448-1-1s0.448-1,1-1h50c0.553,0,1,0.448,1,1S75.553,37.438,75,37.438z"></path>
</g>
<g id="hlight">
	<path fill="#FFFFFF" d="M78.73,30.079H21.27C10.286,30.079,1.349,39.016,1.349,50c0,10.985,8.937,19.921,20.921,19.921h55.46
		c11.984,0,20.921-8.936,20.921-19.921C98.651,39.016,89.714,30.079,78.73,30.079z M75,65.063H25c-0.829,0-1.5-0.672-1.5-1.5
		s0.671-1.5,1.5-1.5h50c0.828,0,1.5,0.672,1.5,1.5S75.828,65.063,75,65.063z M75,56.021H25c-0.829,0-1.5-0.672-1.5-1.5
		s0.671-1.5,1.5-1.5h50c0.828,0,1.5,0.672,1.5,1.5S75.828,56.021,75,56.021z M75,46.979H25c-0.829,0-1.5-0.671-1.5-1.5
		s0.671-1.5,1.5-1.5h50c0.828,0,1.5,0.671,1.5,1.5S75.828,46.979,75,46.979z M75,37.938H25c-0.829,0-1.5-0.671-1.5-1.5
		s0.671-1.5,1.5-1.5h50c0.828,0,1.5,0.671,1.5,1.5S75.828,37.938,75,37.938z"></path>
</g>
</g>
</svg>