<svg version="1.1" id="Layer_1" xmlns="http://www.w3.org/2000/svg" xmlns:xlink="http://www.w3.org/1999/xlink" x="0px" y="0px" viewBox="0 0 100 100" xml:space="preserve"><desc>Copyright Opto 22</desc> 
<g id="frame">
	<g id="frame_1_">
		<rect fill="none" width="100" height="100"></rect>
	</g>
</g>
<g id="shape">
	<polygon fill="#006837" points="64.979,13 64.979,8.213 60.25,8.213 60.25,-0.063 56,-0.063 56,8.213 44,8.213 44,-0.063 
		39.75,-0.063 39.75,8.213 35.021,8.213 35.021,13 24.181,13 24.181,87 35.021,87 35.021,91.787 39.75,91.787 39.75,100 44,100 
		44,91.787 56,91.787 56,100 60.25,100 60.25,91.787 64.979,91.787 64.979,87 75.771,87 75.771,13 	"></polygon>
</g>
<g id="radial" display="none">
</g>
<g id="linear">
</g>
<g id="dark">
	<rect x="25.181" y="14" fill="#526980" width="11.202" height="72"></rect>
	<rect x="63.569" y="14" fill="#526980" width="11.202" height="72"></rect>
</g>
<g id="light">
	<polygon fill="#E6E6E6" points="59.125,9.213 59.125,-0.063 57.125,-0.063 57.125,9.213 42.875,9.213 42.875,-0.063 40.875,-0.063 
		40.875,9.213 36.521,9.213 36.521,90.787 40.875,90.787 40.875,100 42.875,100 42.875,90.787 57.125,90.787 57.125,100 59.125,100 
		59.125,90.787 63.479,90.787 63.479,9.213 	"></polygon>
</g>
<g id="shadow">
	<path fill="#90B091" d="M50.362,85.643c-0.829,0-1.5-0.672-1.5-1.5v-2.007c0-0.828,0.671-1.5,1.5-1.5s1.5,0.672,1.5,1.5v2.007
		C51.862,84.971,51.19,85.643,50.362,85.643z"></path>
	<path fill="#90B091" d="M50.362,79.624c-0.829,0-1.5-0.672-1.5-1.5v-2.006c0-0.828,0.671-1.5,1.5-1.5s1.5,0.672,1.5,1.5v2.006
		C51.862,78.952,51.19,79.624,50.362,79.624z"></path>
	<path fill="#90B091" d="M48.862,90.16v-2.007c0-0.828,0.671-1.5,1.5-1.5s1.5,0.672,1.5,1.5v2.007"></path>
	<path fill="#90B091" d="M50.362,73.606c-0.829,0-1.5-0.672-1.5-1.5V70.1c0-0.828,0.671-1.5,1.5-1.5s1.5,0.672,1.5,1.5v2.007
		C51.862,72.935,51.19,73.606,50.362,73.606z"></path>
	<path fill="#90B091" d="M50.362,67.588c-0.829,0-1.5-0.672-1.5-1.5v-2.006c0-0.828,0.671-1.5,1.5-1.5s1.5,0.672,1.5,1.5v2.006
		C51.862,66.916,51.19,67.588,50.362,67.588z"></path>
	<path fill="#90B091" d="M50.362,61.57c-0.829,0-1.5-0.672-1.5-1.5v-2.007c0-0.828,0.671-1.5,1.5-1.5s1.5,0.672,1.5,1.5v2.007
		C51.862,60.898,51.19,61.57,50.362,61.57z"></path>
	<path fill="#90B091" d="M50.362,55.552c-0.829,0-1.5-0.672-1.5-1.5v-2.006c0-0.828,0.671-1.5,1.5-1.5s1.5,0.672,1.5,1.5v2.006
		C51.862,54.88,51.19,55.552,50.362,55.552z"></path>
	<path fill="#90B091" d="M50.362,49.534c-0.829,0-1.5-0.672-1.5-1.5v-2.007c0-0.828,0.671-1.5,1.5-1.5s1.5,0.672,1.5,1.5v2.007
		C51.862,48.862,51.19,49.534,50.362,49.534z"></path>
	<path fill="#90B091" d="M50.362,43.516c-0.829,0-1.5-0.672-1.5-1.5V40.01c0-0.828,0.671-1.5,1.5-1.5s1.5,0.672,1.5,1.5v2.006
		C51.862,42.844,51.19,43.516,50.362,43.516z"></path>
	<path fill="#90B091" d="M50.362,37.498c-0.829,0-1.5-0.672-1.5-1.5v-2.007c0-0.828,0.671-1.5,1.5-1.5s1.5,0.672,1.5,1.5v2.007
		C51.862,36.826,51.19,37.498,50.362,37.498z"></path>
	<path fill="#90B091" d="M50.362,31.479c-0.829,0-1.5-0.672-1.5-1.5v-2.006c0-0.828,0.671-1.5,1.5-1.5s1.5,0.672,1.5,1.5v2.006
		C51.862,30.808,51.19,31.479,50.362,31.479z"></path>
	<path fill="#90B091" d="M50.362,25.462c-0.829,0-1.5-0.672-1.5-1.5v-2.007c0-0.828,0.671-1.5,1.5-1.5s1.5,0.672,1.5,1.5v2.007
		C51.862,24.79,51.19,25.462,50.362,25.462z"></path>
	<path fill="#90B091" d="M50.362,19.443c-0.829,0-1.5-0.672-1.5-1.5v-2.006c0-0.828,0.671-1.5,1.5-1.5s1.5,0.672,1.5,1.5v2.006
		C51.862,18.771,51.19,19.443,50.362,19.443z"></path>
	<path fill="#90B091" d="M51.862,9.919v2.006c0,0.828-0.671,1.5-1.5,1.5s-1.5-0.672-1.5-1.5V9.919"></path>
</g>
<g id="hlight">
	<rect x="26.691" y="48.971" fill="#FBB03B" width="6.638" height="2.057"></rect>
	<polygon fill="#FBB03B" points="73.229,48.971 70.938,48.971 70.938,46.681 68.881,46.681 68.881,48.971 66.59,48.971 
		66.59,51.029 68.881,51.029 68.881,53.319 70.938,53.319 70.938,51.029 73.229,51.029 	"></polygon>
</g>
</svg>