<svg version="1.1" id="Layer_1" xmlns="http://www.w3.org/2000/svg" xmlns:xlink="http://www.w3.org/1999/xlink" x="0px" y="0px" viewBox="0 0 100 100" xml:space="preserve"><desc>Copyright Opto 22</desc> 
    <g>
<g id="frame">
		<rect fill="none" width="100" height="100"></rect>
</g>
<g id="shape">
	<path fill="#006837" d="M100.144,76.224H22.649c-8.195,0-14.862-6.667-14.862-14.862c0-8.194,6.667-14.861,14.862-14.861h54.702
		c4.335,0,7.862-3.526,7.862-7.861s-3.527-7.862-7.862-7.862H0.075v-7h77.276c8.195,0,14.862,6.667,14.862,14.862
		c0,8.194-6.667,14.861-14.862,14.861H22.649c-4.335,0-7.862,3.526-7.862,7.861s3.527,7.862,7.862,7.862h77.495V76.224z"></path>
	<path fill="#006837" d="M92.394,66.724H36.786V56h35.565c3.313,0,6-2.687,6-6s-2.687-6-6-6h-0.49V33.276h0.49c3.313,0,6-2.687,6-6
		s-2.687-6-6-6H18.899v-6.377h1v-2h-1h-9h-1v2h1v6.377H7.825c-3.313,0-6,2.687-6,6s2.687,6,6,6h55.036V44H27.649
		c-3.313,0-6,2.687-6,6s2.687,6,6,6h0.137v10.724h-0.137c-3.313,0-6,2.687-6,6s2.687,6,6,6h53.484v6.05h-1.5v2h1.5h9h1.5v-2h-1.5
		v-6.05h2.261c3.313,0,6-2.687,6-6S95.707,66.724,92.394,66.724z"></path>
</g>
<g id="dark">

		<path fill="#009245" d="M100.144,75.724H22.649c-7.919,0-14.362-6.443-14.362-14.362S14.73,47,22.649,47h54.702
			c4.611,0,8.362-3.751,8.362-8.361c0-4.611-3.751-8.362-8.362-8.362H0.075v-6h77.276c7.919,0,14.362,6.443,14.362,14.362
			S85.27,53,77.351,53H22.649c-4.611,0-8.362,3.751-8.362,8.361c0,4.611,3.751,8.362,8.362,8.362h77.495V75.724z"></path>


		<path fill="#009245" d="M36.286,55.5h36.065c1.708,0,3.234-0.779,4.243-2H23.406c1.009,1.221,2.535,2,4.243,2h0.637v11.724h-0.637
			c-1.708,0-3.234,0.779-4.243,2h73.23c-1.009-1.221-2.535-2-4.243-2H36.286V55.5z"></path>
		<path fill="#009245" d="M76.594,23.776c-1.009-1.221-2.535-2-4.243-2H18.399v-8.877h-8v8.877H7.825c-1.708,0-3.234,0.779-4.243,2
			H76.594z"></path>
		<path fill="#009245" d="M23.406,76.224c1.009,1.221,2.535,2,4.243,2h53.984v8.55h8v-8.55h2.761c1.708,0,3.234-0.779,4.243-2
			H23.406z"></path>
		<path fill="#009245" d="M63.361,32.776V44.5H27.649c-1.708,0-3.234,0.779-4.243,2h53.187c-1.009-1.221-2.535-2-4.243-2h-0.99
			V32.776h0.99c1.708,0,3.234-0.779,4.243-2H3.582c1.009,1.221,2.535,2,4.243,2H63.361z"></path>

</g>
<g id="light">
	<path fill="#96D48D" d="M100.144,75.224H22.649c-7.644,0-13.862-6.219-13.862-13.862S15.005,47.5,22.649,47.5h54.702
		c4.886,0,8.862-3.976,8.862-8.861c0-4.887-3.976-8.862-8.862-8.862H0.075v-5h77.276c7.644,0,13.862,6.219,13.862,13.862
		S84.995,52.5,77.351,52.5H22.649c-4.886,0-8.862,3.976-8.862,8.861c0,4.887,3.976,8.862,8.862,8.862h77.495V75.224z"></path>
	<path fill="#96D48D" d="M35.786,55h36.565c1.391,0,2.637-0.58,3.54-1.5H24.109c0.903,0.92,2.149,1.5,3.54,1.5h1.137v12.724h-1.137
		c-1.391,0-2.637,0.58-3.54,1.5h71.825c-0.903-0.92-2.149-1.5-3.54-1.5H35.786V55z"></path>
	<path fill="#96D48D" d="M63.861,32.276V45H27.649c-1.391,0-2.637,0.58-3.54,1.5h51.783c-0.903-0.92-2.149-1.5-3.54-1.5h-1.49
		V32.276h1.49c1.391,0,2.637-0.58,3.54-1.5H4.284c0.903,0.92,2.149,1.5,3.54,1.5H63.861z"></path>
	<path fill="#96D48D" d="M72.351,22.276H17.899v-9.377h-7v9.377H7.825c-1.391,0-2.637,0.58-3.54,1.5h71.607
		C74.988,22.857,73.742,22.276,72.351,22.276z"></path>
	<path fill="#96D48D" d="M95.934,76.224H24.109c0.903,0.92,2.149,1.5,3.54,1.5h54.484v9.05h7v-9.05h3.261
		C93.785,77.724,95.03,77.143,95.934,76.224z"></path>
</g>
<g id="shadow">

		<path fill="#29ABE2" d="M71.436,31.776h0.915c1.063,0,2.027-0.384,2.797-1H5.028c0.77,0.616,1.734,1,2.797,1h56.536V45.5H27.649
			c-1.063,0-2.027,0.384-2.797,1h50.295c-0.77-0.616-1.734-1-2.797-1h-0.915h-1.075V31.776H71.436z"></path>
		<path fill="#29ABE2" d="M35.286,54.5h37.065c1.063,0,2.027-0.384,2.797-1H24.852c0.77,0.616,1.734,1,2.797,1h0.426h1.211v13.724
			h-1.211h-0.426c-1.063,0-2.027,0.384-2.797,1H95.19c-0.77-0.616-1.734-1-2.797-1H35.286V54.5z"></path>
		<path fill="#29ABE2" d="M24.852,76.224c0.77,0.616,1.734,1,2.797,1h64.745c1.063,0,2.027-0.384,2.797-1H24.852z"></path>
		<path fill="#29ABE2" d="M75.148,23.776c-0.77-0.616-1.734-1-2.797-1H7.825c-1.063,0-2.027,0.384-2.797,1H75.148z"></path>

	<rect x="11.399" y="12.899" fill="#29ABE2" width="6" height="10.224"></rect>
	<rect x="82.633" y="76.55" fill="#29ABE2" width="6" height="10.224"></rect>
</g>
<g id="hlight">
	<path fill="#E6E6E6" d="M100.144,74.724H22.649c-7.368,0-13.362-5.994-13.362-13.362C9.287,53.994,15.281,48,22.649,48h54.702
		c5.162,0,9.362-4.199,9.362-9.361s-4.2-9.362-9.362-9.362H0.075v-4h77.276c7.368,0,13.362,5.994,13.362,13.362
		C90.713,46.006,84.719,52,77.351,52H22.649c-5.162,0-9.362,4.199-9.362,9.361s4.2,9.362,9.362,9.362h77.495V74.724z"></path>
</g>
        </g>
</svg>