<svg version="1.1" id="Layer_1" xmlns="http://www.w3.org/2000/svg" xmlns:xlink="http://www.w3.org/1999/xlink" x="0px" y="0px" viewBox="0 0 100 100" xml:space="preserve"><desc>Copyright Opto 22</desc> 
<g><g id="frame">
		<rect fill="none" width="100" height="100"></rect>
</g>
<g id="shape">
	<path fill="#006837" d="M97,42v2.343h-9.637c-0.966-3.68-2.869-7.165-5.754-10.05h-4.013V16.489h2.356v-3h-2.356h-9.234h-2.41v3
		h2.41v17.804h-49.97c-2.885,2.885-4.788,6.369-5.754,10.05H3V42H0v2.343v11.314V58h3v-2.343h9.637
		c0.966,3.68,2.869,7.165,5.754,10.05h4.013v17.804h-2.282v3h2.282h9.234h2.484v-3h-2.484V65.707h49.97
		c2.885-2.885,4.788-6.369,5.754-10.05H97V58h3v-2.343V44.343V42H97z"></path>
</g>
<g id="dark">
	<path fill="#009245" d="M100,45.3H86.674c-0.836-3.775-2.671-7.375-5.546-10.353h-4.283V13.489h-7.734v21.457h-50.24
		c-2.875,2.978-4.71,6.578-5.546,10.353H0v9.4h13.326c0.836,3.775,2.671,7.375,5.546,10.353h4.283v21.457h7.734V65.053h50.24
		c2.875-2.978,4.71-6.578,5.546-10.353H100V45.3z"></path>
</g>
<g id="light">
	<rect y="46.465" fill="#96D48D" width="100" height="7.07"></rect>
	<rect y="46.465" fill="#96D48D" width="100" height="7.07"></rect>
	<path fill="#96D48D" d="M85.927,54.7H14.073c0.801,3.536,2.495,6.913,5.126,9.747h4.706v22.064h6.234V64.447h50.664
		C83.433,61.613,85.127,58.237,85.927,54.7z"></path>
	<path fill="#96D48D" d="M80.802,35.553h-4.706V13.489h-6.234v22.064H19.198c-2.631,2.834-4.325,6.21-5.126,9.747h71.855
		C85.127,41.763,83.433,38.387,80.802,35.553z"></path>
</g>
<g id="shadow">
	<path fill="#29ABE2" d="M85.008,54.7H14.992c0.781,3.264,2.377,6.373,4.811,8.994h4.851v22.816h4.734V63.694h50.809
		C82.631,61.073,84.227,57.964,85.008,54.7z"></path>
	<path fill="#29ABE2" d="M80.197,36.306h-4.851V13.489h-4.734v22.816H19.803c-2.434,2.621-4.03,5.73-4.811,8.994h70.016
		C84.227,42.036,82.631,38.927,80.197,36.306z"></path>
</g>
<g id="hlight">
	<rect y="47.525" fill="#FFFFFF" width="100" height="4.949"></rect>
</g></g>
</svg>