<svg version="1.1" id="Layer_1" xmlns="http://www.w3.org/2000/svg" xmlns:xlink="http://www.w3.org/1999/xlink" x="0px" y="0px" viewBox="0 0 100 100" xml:space="preserve"><desc>Copyright Opto 22</desc> 
<g><g id="frame">
	<rect fill="none" width="100" height="100"></rect>
</g>
<g id="shape">
	<path fill="#006837" d="M50,99.782c-7.736,0-15.471-2.925-21.36-8.775l-0.59-0.587V9.58l0.59-0.587
		c11.778-11.701,30.942-11.701,42.721,0l0.59,0.587v80.84l-0.59,0.587C65.471,96.857,57.736,99.782,50,99.782z"></path>
</g>
<g id="dark">
	<path fill="#009245" d="M50,99.033c-7.544,0-15.088-2.853-20.832-8.559l-0.369-0.366V9.892l0.369-0.366
		c11.486-11.412,30.177-11.412,41.663,0l0.369,0.366v80.217l-0.369,0.366C65.088,96.181,57.544,99.033,50,99.033z"></path>
</g>
<g id="light">
	<path fill="#96D48D" d="M50,98.533c-7.417,0-14.833-2.804-20.479-8.413l-0.221-0.22V10.1l0.221-0.22
		c11.293-11.219,29.666-11.219,40.959,0l0.221,0.22V89.9l-0.221,0.22C64.833,95.729,57.417,98.533,50,98.533z"></path>
</g>
<g id="hlight">
	<path fill="#FFFFFF" d="M30.05,10.413c11.018-10.947,28.883-10.947,39.901,0v79.175c-11.018,10.947-28.883,10.947-39.901,0V10.413z
		"></path>
</g>
<g id="shadow">
	<polygon fill="#333333" points="32.859,28.471 35.396,27.016 35.396,24.105 32.859,22.65 30.321,24.105 30.321,27.016 	"></polygon>
	<polygon fill="#333333" points="38.572,28.471 41.11,27.016 41.11,24.105 38.572,22.65 36.035,24.105 36.035,27.016 	"></polygon>
	<polygon fill="#333333" points="44.286,28.471 46.823,27.016 46.823,24.105 44.286,22.65 41.749,24.105 41.749,27.016 	"></polygon>
	<polygon fill="#333333" points="50,28.471 52.537,27.016 52.537,24.105 50,22.65 47.463,24.105 47.463,27.016 	"></polygon>
	<polygon fill="#333333" points="55.714,28.471 58.251,27.016 58.251,24.105 55.714,22.65 53.177,24.105 53.177,27.016 	"></polygon>
	<polygon fill="#333333" points="61.428,28.471 63.965,27.016 63.965,24.105 61.428,22.65 58.89,24.105 58.89,27.016 	"></polygon>
	<polygon fill="#333333" points="67.141,28.471 69.679,27.016 69.679,24.105 67.141,22.65 64.604,24.105 64.604,27.016 	"></polygon>
	<polyline fill="#333333" points="30.002,33.381 32.539,31.925 32.539,29.015 30.002,27.559 	"></polyline>
	<polygon fill="#333333" points="35.716,33.381 38.253,31.925 38.253,29.015 35.716,27.559 33.178,29.015 33.178,31.925 	"></polygon>
	<polygon fill="#333333" points="41.429,33.381 43.967,31.925 43.967,29.015 41.429,27.559 38.892,29.015 38.892,31.925 	"></polygon>
	<polygon fill="#333333" points="47.143,33.381 49.68,31.925 49.68,29.015 47.143,27.559 44.606,29.015 44.606,31.925 	"></polygon>
	<polygon fill="#333333" points="52.857,33.381 55.394,31.925 55.394,29.015 52.857,27.559 50.32,29.015 50.32,31.925 	"></polygon>
	<polygon fill="#333333" points="58.571,33.381 61.108,31.925 61.108,29.015 58.571,27.559 56.033,29.015 56.033,31.925 	"></polygon>
	<polygon fill="#333333" points="64.284,33.381 66.822,31.925 66.822,29.015 64.284,27.559 61.747,29.015 61.747,31.925 	"></polygon>
	<polyline fill="#333333" points="69.998,27.559 67.461,29.015 67.461,31.925 69.998,33.381 	"></polyline>
	<polygon fill="#333333" points="32.859,38.232 35.396,36.777 35.396,33.866 32.859,32.411 30.321,33.866 30.321,36.777 	"></polygon>
	<polygon fill="#333333" points="38.572,38.232 41.11,36.777 41.11,33.866 38.572,32.411 36.035,33.866 36.035,36.777 	"></polygon>
	<polygon fill="#333333" points="44.286,38.232 46.823,36.777 46.823,33.866 44.286,32.411 41.749,33.866 41.749,36.777 	"></polygon>
	<polygon fill="#333333" points="50,38.232 52.537,36.777 52.537,33.866 50,32.411 47.463,33.866 47.463,36.777 	"></polygon>
	<polygon fill="#333333" points="55.714,38.232 58.251,36.777 58.251,33.866 55.714,32.411 53.177,33.866 53.177,36.777 	"></polygon>
	<polygon fill="#333333" points="61.428,38.232 63.965,36.777 63.965,33.866 61.428,32.411 58.89,33.866 58.89,36.777 	"></polygon>
	<polygon fill="#333333" points="67.141,38.232 69.679,36.777 69.679,33.866 67.141,32.411 64.604,33.866 64.604,36.777 	"></polygon>
	<polyline fill="#333333" points="30.002,43.142 32.539,41.686 32.539,38.776 30.002,37.32 	"></polyline>
	<polygon fill="#333333" points="35.716,43.142 38.253,41.686 38.253,38.776 35.716,37.32 33.178,38.776 33.178,41.686 	"></polygon>
	<polygon fill="#333333" points="41.429,43.142 43.967,41.686 43.967,38.776 41.429,37.32 38.892,38.776 38.892,41.686 	"></polygon>
	<polygon fill="#333333" points="47.143,43.142 49.68,41.686 49.68,38.776 47.143,37.32 44.606,38.776 44.606,41.686 	"></polygon>
	<polygon fill="#333333" points="52.857,43.142 55.394,41.686 55.394,38.776 52.857,37.32 50.32,38.776 50.32,41.686 	"></polygon>
	<polygon fill="#333333" points="58.571,43.142 61.108,41.686 61.108,38.776 58.571,37.32 56.033,38.776 56.033,41.686 	"></polygon>
	<polygon fill="#333333" points="64.284,43.142 66.822,41.686 66.822,38.776 64.284,37.32 61.747,38.776 61.747,41.686 	"></polygon>
	<polyline fill="#333333" points="69.998,37.32 67.461,38.776 67.461,41.686 69.998,43.142 	"></polyline>
	<polygon fill="#333333" points="32.859,48.067 35.396,46.612 35.396,43.701 32.859,42.246 30.321,43.701 30.321,46.612 	"></polygon>
	<polygon fill="#333333" points="38.572,48.067 41.11,46.612 41.11,43.701 38.572,42.246 36.035,43.701 36.035,46.612 	"></polygon>
	<polygon fill="#333333" points="44.286,48.067 46.823,46.612 46.823,43.701 44.286,42.246 41.749,43.701 41.749,46.612 	"></polygon>
	<polygon fill="#333333" points="50,48.067 52.537,46.612 52.537,43.701 50,42.246 47.463,43.701 47.463,46.612 	"></polygon>
	<polygon fill="#333333" points="55.714,48.067 58.251,46.612 58.251,43.701 55.714,42.246 53.177,43.701 53.177,46.612 	"></polygon>
	<polygon fill="#333333" points="61.428,48.067 63.965,46.612 63.965,43.701 61.428,42.246 58.89,43.701 58.89,46.612 	"></polygon>
	<polygon fill="#333333" points="67.141,48.067 69.679,46.612 69.679,43.701 67.141,42.246 64.604,43.701 64.604,46.612 	"></polygon>
	<polyline fill="#333333" points="30.002,52.977 32.539,51.521 32.539,48.611 30.002,47.155 	"></polyline>
	<polygon fill="#333333" points="35.716,52.977 38.253,51.521 38.253,48.611 35.716,47.155 33.178,48.611 33.178,51.521 	"></polygon>
	<polygon fill="#333333" points="41.429,52.977 43.967,51.521 43.967,48.611 41.429,47.155 38.892,48.611 38.892,51.521 	"></polygon>
	<polygon fill="#333333" points="47.143,52.977 49.68,51.521 49.68,48.611 47.143,47.155 44.606,48.611 44.606,51.521 	"></polygon>
	<polygon fill="#333333" points="52.857,52.977 55.394,51.521 55.394,48.611 52.857,47.155 50.32,48.611 50.32,51.521 	"></polygon>
	<polygon fill="#333333" points="58.571,52.977 61.108,51.521 61.108,48.611 58.571,47.155 56.033,48.611 56.033,51.521 	"></polygon>
	<polygon fill="#333333" points="64.284,52.977 66.822,51.521 66.822,48.611 64.284,47.155 61.747,48.611 61.747,51.521 	"></polygon>
	<polyline fill="#333333" points="69.998,47.155 67.461,48.611 67.461,51.521 69.998,52.977 	"></polyline>
	<polygon fill="#333333" points="32.859,57.828 35.396,56.373 35.396,53.462 32.859,52.007 30.321,53.462 30.321,56.373 	"></polygon>
	<polygon fill="#333333" points="38.572,57.828 41.11,56.373 41.11,53.462 38.572,52.007 36.035,53.462 36.035,56.373 	"></polygon>
	<polygon fill="#333333" points="44.286,57.828 46.823,56.373 46.823,53.462 44.286,52.007 41.749,53.462 41.749,56.373 	"></polygon>
	<polygon fill="#333333" points="50,57.828 52.537,56.373 52.537,53.462 50,52.007 47.463,53.462 47.463,56.373 	"></polygon>
	<polygon fill="#333333" points="55.714,57.828 58.251,56.373 58.251,53.462 55.714,52.007 53.177,53.462 53.177,56.373 	"></polygon>
	<polygon fill="#333333" points="61.428,57.828 63.965,56.373 63.965,53.462 61.428,52.007 58.89,53.462 58.89,56.373 	"></polygon>
	<polygon fill="#333333" points="67.141,57.828 69.679,56.373 69.679,53.462 67.141,52.007 64.604,53.462 64.604,56.373 	"></polygon>
	<polyline fill="#333333" points="30.002,62.738 32.539,61.282 32.539,58.372 30.002,56.916 	"></polyline>
	<polygon fill="#333333" points="35.716,62.738 38.253,61.282 38.253,58.372 35.716,56.916 33.178,58.372 33.178,61.282 	"></polygon>
	<polygon fill="#333333" points="41.429,62.738 43.967,61.282 43.967,58.372 41.429,56.916 38.892,58.372 38.892,61.282 	"></polygon>
	<polygon fill="#333333" points="47.143,62.738 49.68,61.282 49.68,58.372 47.143,56.916 44.606,58.372 44.606,61.282 	"></polygon>
	<polygon fill="#333333" points="52.857,62.738 55.394,61.282 55.394,58.372 52.857,56.916 50.32,58.372 50.32,61.282 	"></polygon>
	<polygon fill="#333333" points="58.571,62.738 61.108,61.282 61.108,58.372 58.571,56.916 56.033,58.372 56.033,61.282 	"></polygon>
	<polygon fill="#333333" points="64.284,62.738 66.822,61.282 66.822,58.372 64.284,56.916 61.747,58.372 61.747,61.282 	"></polygon>
	<polyline fill="#333333" points="69.998,56.916 67.461,58.372 67.461,61.282 69.998,62.738 	"></polyline>
	<polygon fill="#333333" points="32.859,67.589 35.396,66.134 35.396,63.223 32.859,61.768 30.321,63.223 30.321,66.134 	"></polygon>
	<polygon fill="#333333" points="38.572,67.589 41.11,66.134 41.11,63.223 38.572,61.768 36.035,63.223 36.035,66.134 	"></polygon>
	<polygon fill="#333333" points="44.286,67.589 46.823,66.134 46.823,63.223 44.286,61.768 41.749,63.223 41.749,66.134 	"></polygon>
	<polygon fill="#333333" points="50,67.589 52.537,66.134 52.537,63.223 50,61.768 47.463,63.223 47.463,66.134 	"></polygon>
	<polygon fill="#333333" points="55.714,67.589 58.251,66.134 58.251,63.223 55.714,61.768 53.177,63.223 53.177,66.134 	"></polygon>
	<polygon fill="#333333" points="61.428,67.589 63.965,66.134 63.965,63.223 61.428,61.768 58.89,63.223 58.89,66.134 	"></polygon>
	<polygon fill="#333333" points="67.141,67.589 69.679,66.134 69.679,63.223 67.141,61.768 64.604,63.223 64.604,66.134 	"></polygon>
	<polyline fill="#333333" points="30.002,72.499 32.539,71.043 32.539,68.133 30.002,66.677 	"></polyline>
	<polygon fill="#333333" points="35.716,72.499 38.253,71.043 38.253,68.133 35.716,66.677 33.178,68.133 33.178,71.043 	"></polygon>
	<polygon fill="#333333" points="41.429,72.499 43.967,71.043 43.967,68.133 41.429,66.677 38.892,68.133 38.892,71.043 	"></polygon>
	<polygon fill="#333333" points="47.143,72.499 49.68,71.043 49.68,68.133 47.143,66.677 44.606,68.133 44.606,71.043 	"></polygon>
	<polygon fill="#333333" points="52.857,72.499 55.394,71.043 55.394,68.133 52.857,66.677 50.32,68.133 50.32,71.043 	"></polygon>
	<polygon fill="#333333" points="58.571,72.499 61.108,71.043 61.108,68.133 58.571,66.677 56.033,68.133 56.033,71.043 	"></polygon>
	<polygon fill="#333333" points="64.284,72.499 66.822,71.043 66.822,68.133 64.284,66.677 61.747,68.133 61.747,71.043 	"></polygon>
	<polyline fill="#333333" points="69.998,66.677 67.461,68.133 67.461,71.043 69.998,72.499 	"></polyline>
	<polygon fill="#333333" points="32.859,77.35 35.396,75.895 35.396,72.984 32.859,71.529 30.321,72.984 30.321,75.895 	"></polygon>
	<polygon fill="#333333" points="38.572,77.35 41.11,75.895 41.11,72.984 38.572,71.529 36.035,72.984 36.035,75.895 	"></polygon>
	<polygon fill="#333333" points="44.286,77.35 46.823,75.895 46.823,72.984 44.286,71.529 41.749,72.984 41.749,75.895 	"></polygon>
	<polygon fill="#333333" points="50,77.35 52.537,75.895 52.537,72.984 50,71.529 47.463,72.984 47.463,75.895 	"></polygon>
	<polygon fill="#333333" points="55.714,77.35 58.251,75.895 58.251,72.984 55.714,71.529 53.177,72.984 53.177,75.895 	"></polygon>
	<polygon fill="#333333" points="61.428,77.35 63.965,75.895 63.965,72.984 61.428,71.529 58.89,72.984 58.89,75.895 	"></polygon>
	<polygon fill="#333333" points="67.141,77.35 69.679,75.895 69.679,72.984 67.141,71.529 64.604,72.984 64.604,75.895 	"></polygon>
</g></g>
</svg>