<svg version="1.1" id="Layer_1" xmlns="http://www.w3.org/2000/svg" xmlns:xlink="http://www.w3.org/1999/xlink" x="0px" y="0px" viewBox="0 0 100 100" xml:space="preserve"><desc>Copyright Opto 22</desc> 
    <g>
    <g id="frame">

		<rect fill="none" width="100" height="100"></rect>

</g>
<g id="shape">
	<path fill="#006837" d="M50,95.406c-5.043,0-9.785-1.964-13.351-5.53l-0.586-0.586V10.71l0.586-0.586
		c3.566-3.566,8.307-5.53,13.351-5.53s9.785,1.964,13.351,5.53l0.586,0.586v78.58l-0.586,0.586
		C59.785,93.442,55.043,95.406,50,95.406z"></path>
</g>
<g id="dark">
	<path fill="#009245" d="M50,94.406c-4.776,0-9.267-1.859-12.644-5.237l-0.293-0.293V11.124l0.293-0.293
		C40.733,7.453,45.224,5.594,50,5.594s9.267,1.859,12.644,5.237l0.293,0.293v77.752l-0.293,0.293
		C59.267,92.547,54.776,94.406,50,94.406z"></path>
</g>
<g id="light">
	<path fill="#96D48D" d="M50,93.906c-4.643,0-9.007-1.808-12.29-5.091l-0.146-0.146V11.331l0.146-0.146
		C40.993,7.901,45.357,6.094,50,6.094s9.007,1.808,12.29,5.091l0.146,0.146v77.338l-0.146,0.146
		C59.007,92.099,54.643,93.906,50,93.906z"></path>
</g>
<g id="hlight">
	<path fill="#29ABE2" d="M38.063,11.538c6.592-6.592,17.281-6.592,23.873,0v76.924c-6.592,6.592-17.281,6.592-23.873,0V11.538z"></path>
</g>
<g id="shadow">
	<circle fill="#333333" cx="41.303" cy="23.798" r="1.436"></circle>
	<circle fill="#333333" cx="45.152" cy="23.798" r="1.436"></circle>
	<circle fill="#333333" cx="49.001" cy="23.798" r="1.436"></circle>
	<circle fill="#333333" cx="52.85" cy="23.798" r="1.436"></circle>
	<circle fill="#333333" cx="56.699" cy="23.798" r="1.436"></circle>
	<circle fill="#333333" cx="60.548" cy="23.798" r="1.436"></circle>
	<circle fill="#333333" cx="39.452" cy="26.399" r="1.436"></circle>
	<circle fill="#333333" cx="43.301" cy="26.399" r="1.436"></circle>
	<circle fill="#333333" cx="47.15" cy="26.399" r="1.436"></circle>
	<circle fill="#333333" cx="50.999" cy="26.399" r="1.436"></circle>
	<circle fill="#333333" cx="54.848" cy="26.399" r="1.436"></circle>
	<circle fill="#333333" cx="58.697" cy="26.399" r="1.436"></circle>
	<circle fill="#333333" cx="41.303" cy="29.332" r="1.436"></circle>
	<circle fill="#333333" cx="45.152" cy="29.332" r="1.436"></circle>
	<circle fill="#333333" cx="49.001" cy="29.332" r="1.436"></circle>
	<circle fill="#333333" cx="52.85" cy="29.332" r="1.436"></circle>
	<circle fill="#333333" cx="56.699" cy="29.332" r="1.436"></circle>
	<circle fill="#333333" cx="60.548" cy="29.332" r="1.436"></circle>
	<circle fill="#333333" cx="39.452" cy="31.933" r="1.436"></circle>
	<circle fill="#333333" cx="43.301" cy="31.933" r="1.436"></circle>
	<circle fill="#333333" cx="47.15" cy="31.933" r="1.436"></circle>
	<circle fill="#333333" cx="50.999" cy="31.933" r="1.436"></circle>
	<circle fill="#333333" cx="54.848" cy="31.933" r="1.436"></circle>
	<circle fill="#333333" cx="58.697" cy="31.933" r="1.436"></circle>
	<circle fill="#333333" cx="41.303" cy="34.865" r="1.436"></circle>
	<circle fill="#333333" cx="45.152" cy="34.865" r="1.436"></circle>
	<circle fill="#333333" cx="49.001" cy="34.865" r="1.436"></circle>
	<circle fill="#333333" cx="52.85" cy="34.865" r="1.436"></circle>
	<circle fill="#333333" cx="56.699" cy="34.865" r="1.436"></circle>
	<circle fill="#333333" cx="60.548" cy="34.865" r="1.436"></circle>
	<circle fill="#333333" cx="39.452" cy="37.466" r="1.436"></circle>
	<circle fill="#333333" cx="43.301" cy="37.466" r="1.436"></circle>
	<circle fill="#333333" cx="47.15" cy="37.466" r="1.436"></circle>
	<circle fill="#333333" cx="50.999" cy="37.466" r="1.436"></circle>
	<circle fill="#333333" cx="54.848" cy="37.466" r="1.436"></circle>
	<circle fill="#333333" cx="58.697" cy="37.466" r="1.436"></circle>
	<circle fill="#333333" cx="41.303" cy="40.399" r="1.436"></circle>
	<circle fill="#333333" cx="45.152" cy="40.399" r="1.436"></circle>
	<circle fill="#333333" cx="49.001" cy="40.399" r="1.436"></circle>
	<circle fill="#333333" cx="52.85" cy="40.399" r="1.436"></circle>
	<circle fill="#333333" cx="56.699" cy="40.399" r="1.436"></circle>
	<circle fill="#333333" cx="60.548" cy="40.399" r="1.436"></circle>
	<circle fill="#333333" cx="39.452" cy="43" r="1.436"></circle>
	<circle fill="#333333" cx="43.301" cy="43" r="1.436"></circle>
	<circle fill="#333333" cx="47.15" cy="43" r="1.436"></circle>
	<circle fill="#333333" cx="50.999" cy="43" r="1.436"></circle>
	<circle fill="#333333" cx="54.848" cy="43" r="1.436"></circle>
	<circle fill="#333333" cx="58.697" cy="43" r="1.436"></circle>
	<circle fill="#333333" cx="41.303" cy="45.933" r="1.436"></circle>
	<circle fill="#333333" cx="45.152" cy="45.933" r="1.436"></circle>
	<circle fill="#333333" cx="49.001" cy="45.933" r="1.436"></circle>
	<circle fill="#333333" cx="52.85" cy="45.933" r="1.436"></circle>
	<circle fill="#333333" cx="56.699" cy="45.933" r="1.436"></circle>
	<circle fill="#333333" cx="60.548" cy="45.933" r="1.436"></circle>
	<circle fill="#333333" cx="39.452" cy="48.534" r="1.436"></circle>
	<circle fill="#333333" cx="43.301" cy="48.534" r="1.436"></circle>
	<circle fill="#333333" cx="47.15" cy="48.534" r="1.436"></circle>
	<circle fill="#333333" cx="50.999" cy="48.534" r="1.436"></circle>
	<circle fill="#333333" cx="54.848" cy="48.534" r="1.436"></circle>
	<circle fill="#333333" cx="58.697" cy="48.534" r="1.436"></circle>
	<circle fill="#333333" cx="41.303" cy="51.466" r="1.436"></circle>
	<circle fill="#333333" cx="45.152" cy="51.466" r="1.436"></circle>
	<circle fill="#333333" cx="49.001" cy="51.466" r="1.436"></circle>
	<circle fill="#333333" cx="52.85" cy="51.466" r="1.436"></circle>
	<circle fill="#333333" cx="56.699" cy="51.466" r="1.436"></circle>
	<circle fill="#333333" cx="60.548" cy="51.466" r="1.436"></circle>
	<circle fill="#333333" cx="39.452" cy="54.067" r="1.436"></circle>
	<circle fill="#333333" cx="43.301" cy="54.067" r="1.436"></circle>
	<circle fill="#333333" cx="47.15" cy="54.067" r="1.436"></circle>
	<circle fill="#333333" cx="50.999" cy="54.067" r="1.436"></circle>
	<circle fill="#333333" cx="54.848" cy="54.067" r="1.436"></circle>
	<circle fill="#333333" cx="58.697" cy="54.067" r="1.436"></circle>
	<circle fill="#333333" cx="41.303" cy="57" r="1.436"></circle>
	<circle fill="#333333" cx="45.152" cy="57" r="1.436"></circle>
	<circle fill="#333333" cx="49.001" cy="57" r="1.436"></circle>
	<circle fill="#333333" cx="52.85" cy="57" r="1.436"></circle>
	<circle fill="#333333" cx="56.699" cy="57" r="1.436"></circle>
	<circle fill="#333333" cx="60.548" cy="57" r="1.436"></circle>
	<circle fill="#333333" cx="39.452" cy="59.601" r="1.436"></circle>
	<circle fill="#333333" cx="43.301" cy="59.601" r="1.436"></circle>
	<circle fill="#333333" cx="47.15" cy="59.601" r="1.436"></circle>
	<circle fill="#333333" cx="50.999" cy="59.601" r="1.436"></circle>
	<circle fill="#333333" cx="54.848" cy="59.601" r="1.436"></circle>
	<circle fill="#333333" cx="58.697" cy="59.601" r="1.436"></circle>
	<circle fill="#333333" cx="41.303" cy="62.534" r="1.436"></circle>
	<circle fill="#333333" cx="45.152" cy="62.534" r="1.436"></circle>
	<circle fill="#333333" cx="49.001" cy="62.534" r="1.436"></circle>
	<circle fill="#333333" cx="52.85" cy="62.534" r="1.436"></circle>
	<circle fill="#333333" cx="56.699" cy="62.534" r="1.436"></circle>
	<circle fill="#333333" cx="60.548" cy="62.534" r="1.436"></circle>
	<circle fill="#333333" cx="39.452" cy="65.135" r="1.436"></circle>
	<circle fill="#333333" cx="43.301" cy="65.135" r="1.436"></circle>
	<circle fill="#333333" cx="47.15" cy="65.135" r="1.436"></circle>
	<circle fill="#333333" cx="50.999" cy="65.135" r="1.436"></circle>
	<circle fill="#333333" cx="54.848" cy="65.135" r="1.436"></circle>
	<circle fill="#333333" cx="58.697" cy="65.135" r="1.436"></circle>
	<circle fill="#333333" cx="41.303" cy="68.067" r="1.436"></circle>
	<circle fill="#333333" cx="45.152" cy="68.067" r="1.436"></circle>
	<circle fill="#333333" cx="49.001" cy="68.067" r="1.436"></circle>
	<circle fill="#333333" cx="52.85" cy="68.067" r="1.436"></circle>
	<circle fill="#333333" cx="56.699" cy="68.067" r="1.436"></circle>
	<circle fill="#333333" cx="60.548" cy="68.067" r="1.436"></circle>
	<circle fill="#333333" cx="39.452" cy="70.668" r="1.436"></circle>
	<circle fill="#333333" cx="43.301" cy="70.668" r="1.436"></circle>
	<circle fill="#333333" cx="47.15" cy="70.668" r="1.436"></circle>
	<circle fill="#333333" cx="50.999" cy="70.668" r="1.436"></circle>
	<circle fill="#333333" cx="54.848" cy="70.668" r="1.436"></circle>
	<circle fill="#333333" cx="58.697" cy="70.668" r="1.436"></circle>
	<circle fill="#333333" cx="41.303" cy="73.601" r="1.436"></circle>
	<circle fill="#333333" cx="45.152" cy="73.601" r="1.436"></circle>
	<circle fill="#333333" cx="49.001" cy="73.601" r="1.436"></circle>
	<circle fill="#333333" cx="52.85" cy="73.601" r="1.436"></circle>
	<circle fill="#333333" cx="56.699" cy="73.601" r="1.436"></circle>
	<circle fill="#333333" cx="60.548" cy="73.601" r="1.436"></circle>
	<circle fill="#333333" cx="39.452" cy="76.202" r="1.436"></circle>
	<circle fill="#333333" cx="43.301" cy="76.202" r="1.436"></circle>
	<circle fill="#333333" cx="47.15" cy="76.202" r="1.436"></circle>
	<circle fill="#333333" cx="50.999" cy="76.202" r="1.436"></circle>
	<circle fill="#333333" cx="54.848" cy="76.202" r="1.436"></circle>
	<circle fill="#333333" cx="58.697" cy="76.202" r="1.436"></circle>
</g>
        </g>
</svg>