<svg version="1.1" id="Layer_1" xmlns="http://www.w3.org/2000/svg" xmlns:xlink="http://www.w3.org/1999/xlink" x="0px" y="0px" viewBox="0 0 100 100" xml:space="preserve"><desc>Copyright Opto 22</desc> 
<g>
    <g id="frame">
		<rect fill="none" width="100" height="100"></rect>
</g>
<g id="shape">
	<path fill="#006837" d="M50,98.75c-15.26,0-27.675-7.684-27.675-17.128V18.378C22.325,8.934,34.74,1.25,50,1.25
		s27.675,7.684,27.675,17.128v63.244C77.675,91.066,65.26,98.75,50,98.75z"></path>
</g>
<g id="dark">
	<g>
		<polygon fill="#009245" points="23.075,28.014 23.075,71.986 48.473,50 		"></polygon>
		<polygon fill="#009245" points="50,48.678 74.157,27.766 25.843,27.766 		"></polygon>
		<polygon fill="#009245" points="76.925,71.986 76.925,28.014 51.527,50 		"></polygon>
		<polygon fill="#009245" points="50,51.322 25.843,72.234 74.157,72.234 		"></polygon>
		<path fill="#009245" d="M23.563,25.793h52.874l0.488-0.423v-6.992C76.925,9.347,64.847,2,50,2S23.075,9.347,23.075,18.378v6.992
			L23.563,25.793z"></path>
		<path fill="#009245" d="M76.437,74.207H23.563l-0.488,0.423v6.992C23.075,90.653,35.153,98,50,98s26.925-7.347,26.925-16.378
			V74.63L76.437,74.207z"></path>
	</g>
</g>
<g id="light">
	<g display="none">
		<path display="inline" fill="none" stroke="#96D48D" stroke-width="6" stroke-miterlimit="10" d="M24.575,71.277v10.346
			C24.575,89.826,35.98,96.5,50,96.5s25.425-6.674,25.425-14.878V71.277V28.723V18.378C75.425,10.174,64.02,3.5,50,3.5
			s-25.425,6.674-25.425,14.878v10.345V71.277z"></path>
	</g>
	<g>
		<polygon fill="#96D48D" points="75.925,71.12 75.925,28.88 51.527,50 		"></polygon>
		<polygon fill="#96D48D" points="24.075,28.88 24.075,71.12 48.473,50 		"></polygon>
		<polygon fill="#96D48D" points="50,48.678 74.157,27.766 25.843,27.766 		"></polygon>
		<polygon fill="#96D48D" points="50,51.322 25.843,72.234 74.157,72.234 		"></polygon>
		<path fill="#96D48D" d="M24.075,74.957v6.665C24.075,90.102,35.705,97,50,97s25.925-6.898,25.925-15.378v-6.665H24.075z"></path>
		<path fill="#96D48D" d="M75.925,25.043v-6.665C75.925,9.898,64.295,3,50,3S24.075,9.898,24.075,18.378v6.665H75.925z"></path>
	</g>
</g>
<g id="hlight">
	<g>
		<polygon fill="#FFFFFF" points="50,48.678 74.157,27.766 25.843,27.766 		"></polygon>
		<polygon fill="#FFFFFF" points="75.425,70.687 75.425,29.313 51.527,50 		"></polygon>
		<polygon fill="#FFFFFF" points="24.575,29.313 24.575,70.687 48.473,50 		"></polygon>
		<path fill="#FFFFFF" d="M24.575,75.457v6.165C24.575,89.826,35.98,96.5,50,96.5s25.425-6.674,25.425-14.878v-6.165H24.575z"></path>
		<polygon fill="#FFFFFF" points="50,51.322 25.843,72.234 74.157,72.234 		"></polygon>
		<path fill="#FFFFFF" d="M75.425,24.543v-6.165C75.425,10.174,64.02,3.5,50,3.5s-25.425,6.674-25.425,14.878v6.165H75.425z"></path>
	</g>
</g>
<g id="radial" display="none">
</g>
<g id="linear" display="none">
</g>
<g id="shadow">
</g>
    </g>
</svg>