<svg version="1.1" id="Layer_1" xmlns="http://www.w3.org/2000/svg" xmlns:xlink="http://www.w3.org/1999/xlink" x="0px" y="0px" viewBox="0 0 100 100" xml:space="preserve"><desc>Copyright Opto 22</desc> 
<g><g id="frame">

		<rect fill="none" width="100" height="100"></rect>

</g>
<g id="shape">
	<path fill="#006837" d="M50,95.406c-5.043,0-9.785-1.964-13.351-5.53l-0.586-0.586V10.71l0.586-0.586
		c3.566-3.566,8.307-5.53,13.351-5.53s9.785,1.964,13.351,5.53l0.586,0.586v78.58l-0.586,0.586
		C59.785,93.442,55.043,95.406,50,95.406z"></path>
</g>
<g id="dark">

		<rect x="48.551" y="23.702" fill="#009245" width="2.897" height="52.596"></rect>
		<rect x="42.654" y="23.702" fill="#009245" width="2.897" height="52.596"></rect>
		<path fill="#009245" d="M62.644,10.831C59.267,7.453,54.776,5.594,50,5.594s-9.267,1.859-12.644,5.237l-0.293,0.293v77.752
			l0.293,0.293c3.377,3.378,7.867,5.237,12.644,5.237s9.267-1.859,12.644-5.237l0.293-0.293V11.124L62.644,10.831z M62.814,23.702
			h-2.468v52.596h2.468v2.298H37.186v-2.298h2.468V23.702h-2.468v-2.298h25.628V23.702z"></path>
		<rect x="54.449" y="23.702" fill="#009245" width="2.897" height="52.596"></rect>

</g>
<g id="light">
	<path fill="#96D48D" d="M62.437,21.404V11.331l-0.146-0.146C59.007,7.901,54.643,6.094,50,6.094s-9.007,1.808-12.29,5.091
		l-0.146,0.146v10.073H62.437z"></path>
	<path fill="#96D48D" d="M37.563,78.596v10.073l0.146,0.146c3.283,3.283,7.647,5.091,12.29,5.091s9.007-1.808,12.29-5.091
		l0.146-0.146V78.596H37.563z"></path>

		<rect x="42.654" y="23.702" fill="#96D48D" width="2.897" height="52.596"></rect>
		<rect x="48.551" y="23.702" fill="#96D48D" width="2.897" height="52.596"></rect>
		<rect x="54.449" y="23.702" fill="#96D48D" width="2.897" height="52.596"></rect>
		<rect x="37.563" y="23.702" fill="#96D48D" width="2.091" height="52.596"></rect>
		<rect x="60.346" y="23.702" fill="#96D48D" width="2.091" height="52.596"></rect>

	<rect x="40.154" y="21.67" fill="#96D48D" width="2" height="56.66"></rect>
	<rect x="46.051" y="21.67" fill="#96D48D" width="2" height="56.66"></rect>
	<rect x="51.949" y="21.67" fill="#96D48D" width="2" height="56.66"></rect>
	<rect x="57.846" y="21.67" fill="#96D48D" width="2" height="56.66"></rect>
</g>
<g id="shadow">

		<rect x="42.654" y="23.702" fill="#00467F" width="2.897" height="52.596"></rect>
		<rect x="48.551" y="23.702" fill="#00467F" width="2.897" height="52.596"></rect>
		<rect x="38.063" y="23.702" fill="#00467F" width="1.591" height="52.596"></rect>
		<rect x="54.449" y="23.702" fill="#00467F" width="2.897" height="52.596"></rect>
		<rect x="60.346" y="23.702" fill="#00467F" width="1.591" height="52.596"></rect>

</g>
<g id="hlight">
	<path fill="#2CB0CF" d="M61.937,21.404v-9.866c-6.592-6.592-17.281-6.592-23.873,0v9.866H61.937z"></path>
	<path fill="#2CB0CF" d="M38.063,78.596v9.866c6.592,6.592,17.281,6.592,23.873,0v-9.866H38.063z"></path>
	<rect x="40.654" y="21.67" fill="#2CB0CF" width="1" height="56.66"></rect>
	<rect x="46.551" y="21.67" fill="#2CB0CF" width="1" height="56.66"></rect>
	<rect x="52.449" y="21.67" fill="#2CB0CF" width="1" height="56.66"></rect>
	<rect x="58.346" y="21.67" fill="#2CB0CF" width="1" height="56.66"></rect>
</g>
    </g>
</svg>