<svg version="1.1" id="Layer_1" xmlns="http://www.w3.org/2000/svg" xmlns:xlink="http://www.w3.org/1999/xlink" x="0px" y="0px" viewBox="0 0 100 100" xml:space="preserve"><desc>Copyright Opto 22</desc> 
<g>
<g id="frame">
	<rect fill="none" width="100" height="100"></rect>
</g>
<g id="shape">
	<path fill="#006837" d="M50,79H35c-7.72,0-14-5.532-14-12.333s6.28-12.334,14-12.334h30c3.252,0,6-1.984,6-4.333
		c0-2.349-2.748-4.333-6-4.333H35c-7.72,0-14-5.533-14-12.333C21,26.533,27.28,21,35,21h15v8H35c-3.252,0-6,1.984-6,4.333
		c0,2.349,2.748,4.333,6,4.333h30c7.72,0,14,5.533,14,12.333s-6.28,12.333-14,12.333H35c-3.252,0-6,1.984-6,4.334
		C29,69.016,31.748,71,35,71h15V79z"></path>
</g>
<g id="dark">
	<path fill="#009245" d="M50,78.5H35c-7.444,0-13.5-5.309-13.5-11.833c0-6.525,6.056-11.834,13.5-11.834h30
		c3.523,0,6.5-2.213,6.5-4.833s-2.977-4.833-6.5-4.833H35c-7.444,0-13.5-5.308-13.5-11.833S27.556,21.5,35,21.5h15v7H35
		c-3.523,0-6.5,2.213-6.5,4.833c0,2.62,2.977,4.833,6.5,4.833h30c7.444,0,13.5,5.309,13.5,11.833c0,6.524-6.056,11.833-13.5,11.833
		H35c-3.523,0-6.5,2.214-6.5,4.834S31.477,71.5,35,71.5h15V78.5z"></path>
</g>
<g id="light">
	<path fill="#96D48D" d="M50,77.5H35c-6.893,0-12.5-4.859-12.5-10.833S28.107,55.833,35,55.833h30c4.065,0,7.5-2.671,7.5-5.833
		s-3.435-5.833-7.5-5.833H35c-6.893,0-12.5-4.86-12.5-10.833C22.5,27.36,28.107,22.5,35,22.5h15v5H35c-4.065,0-7.5,2.671-7.5,5.833
		c0,3.162,3.435,5.833,7.5,5.833h30c6.893,0,12.5,4.86,12.5,10.833S71.893,60.833,65,60.833H35c-4.065,0-7.5,2.672-7.5,5.834
		S30.935,72.5,35,72.5h15V77.5z"></path>
</g>
<g id="hlight">
		<path fill="#FFFFFF" d="M50,76.75H35c-6.479,0-11.75-4.523-11.75-10.083c0-5.561,5.271-10.084,11.75-10.084h30
			c4.549,0,8.25-2.953,8.25-6.583c0-3.63-3.701-6.583-8.25-6.583H35c-6.479,0-11.75-4.523-11.75-10.083
			c0-5.56,5.271-10.083,11.75-10.083h15v3.5H35c-4.549,0-8.25,2.953-8.25,6.583c0,3.63,3.701,6.583,8.25,6.583h30
			c6.479,0,11.75,4.523,11.75,10.083c0,5.56-5.271,10.083-11.75,10.083H35c-4.549,0-8.25,2.953-8.25,6.584
			c0,3.63,3.701,6.583,8.25,6.583h15V76.75z"></path>
</g>
</g>
</svg>