<svg version="1.1" id="Layer_1" xmlns="http://www.w3.org/2000/svg" xmlns:xlink="http://www.w3.org/1999/xlink" x="0px" y="0px" viewBox="0 0 100 100" xml:space="preserve"><desc>Copyright Opto 22</desc> 
<g>
<g id="frame">
	<rect fill="none" width="100" height="100"></rect>
</g>
<g id="shape">
	<path fill="#006837" d="M50,79H37c-8.822,0-16-7.178-16-16v-1c0-8.822,7.178-16,16-16h26c4.411,0,8-3.589,8-8v-1
		c0-4.411-3.589-8-8-8H50v-8h13c8.822,0,16,7.178,16,16v1c0,8.822-7.178,16-16,16H37c-4.411,0-8,3.589-8,8v1c0,4.411,3.589,8,8,8h13
		V79z"></path>
</g>
<g id="dark">
	<path fill="#009245" d="M50,78.5H37c-8.547,0-15.5-6.953-15.5-15.5v-1c0-8.547,6.953-15.5,15.5-15.5h26c4.687,0,8.5-3.813,8.5-8.5
		v-1c0-4.687-3.813-8.5-8.5-8.5H50v-7h13c8.547,0,15.5,6.953,15.5,15.5v1c0,8.547-6.953,15.5-15.5,15.5H37
		c-4.687,0-8.5,3.813-8.5,8.5v1c0,4.687,3.813,8.5,8.5,8.5h13V78.5z"></path>
</g>
<g id="light">
	<path fill="#96D48D" d="M50,77.5H37c-7.995,0-14.5-6.505-14.5-14.5v-1c0-7.995,6.505-14.5,14.5-14.5h26c5.238,0,9.5-4.262,9.5-9.5
		v-1c0-5.238-4.262-9.5-9.5-9.5H50v-5h13c7.995,0,14.5,6.505,14.5,14.5v1c0,7.995-6.505,14.5-14.5,14.5H37
		c-5.238,0-9.5,4.262-9.5,9.5v1c0,5.238,4.262,9.5,9.5,9.5h13V77.5z"></path>
</g>
<g id="hlight">
		<path fill="#FFFFFF" d="M50,76.75H37c-7.582,0-13.75-6.168-13.75-13.75v-1c0-7.582,6.168-13.75,13.75-13.75h26
			c5.652,0,10.25-4.598,10.25-10.25v-1c0-5.652-4.598-10.25-10.25-10.25H50v-3.5h13c7.582,0,13.75,6.168,13.75,13.75v1
			c0,7.582-6.168,13.75-13.75,13.75H37c-5.652,0-10.25,4.598-10.25,10.25v1c0,5.652,4.598,10.25,10.25,10.25h13V76.75z"></path>
</g>
</g>
</svg>