<svg version="1.1" id="Layer_1" xmlns="http://www.w3.org/2000/svg" xmlns:xlink="http://www.w3.org/1999/xlink" x="0px" y="0px" viewBox="0 0 100 100" xml:space="preserve"><desc>Copyright Opto 22</desc> 
<g>
<g id="frame">
	<rect fill="none" width="100" height="100"></rect>
</g>
<g id="shape">
	<path fill="#006837" d="M63,54H50v-8h13c4.411,0,8-3.589,8-8v-1c0-4.411-3.589-8-8-8H50v-8h13c8.822,0,16,7.178,16,16v1
		C79,46.822,71.822,54,63,54z"></path>
</g>
<g id="dark">
	<path fill="#009245" d="M63,53.5H50v-7h13c4.687,0,8.5-3.813,8.5-8.5v-1c0-4.687-3.813-8.5-8.5-8.5H50v-7h13
		c8.547,0,15.5,6.953,15.5,15.5v1C78.5,46.547,71.547,53.5,63,53.5z"></path>
</g>
<g id="light">
	<path fill="#96D48D" d="M63,52.5H50v-5h13c5.238,0,9.5-4.262,9.5-9.5v-1c0-5.238-4.262-9.5-9.5-9.5H50v-5h13
		c7.995,0,14.5,6.505,14.5,14.5v1C77.5,45.995,70.995,52.5,63,52.5z"></path>
</g>
<g id="hlight">
		<path fill="#FFFFFF" d="M63,51.75H50v-3.5h13c5.652,0,10.25-4.598,10.25-10.25v-1c0-5.652-4.598-10.25-10.25-10.25H50v-3.5h13
			c7.582,0,13.75,6.168,13.75,13.75v1C76.75,45.582,70.582,51.75,63,51.75z"></path>
</g>
</g>
</svg>