<svg version="1.1" id="Layer_1" xmlns="http://www.w3.org/2000/svg" xmlns:xlink="http://www.w3.org/1999/xlink" x="0px" y="0px" viewBox="0 0 100 100" xml:space="preserve"><desc>Copyright Opto 22</desc> 
<g><g id="frame">
	<g id="frame_1_">
		<rect fill="none" width="100" height="100"></rect>
	</g>
</g>
<g id="shape">
	<path fill="#006837" d="M96.679,48.621L75.884,33.062c-6.536-5.813-13.635-9.278-20.846-10.374v-3.156h-2.979v-3.269
		c1.787-0.792,3.038-2.575,3.038-4.655c0-2.428-1.702-4.452-3.976-4.964V3.426h-2.241v3.218c-2.274,0.512-3.976,2.536-3.976,4.964
		c0,2.081,1.251,3.864,3.038,4.655v3.269h-2.979v3.156c-7.38,1.122-14.642,4.732-21.303,10.794L3.426,48.621H3.321
		c-1.211,0-2.194,1.601-2.194,3.575v3.581v3.581c0,1.975,0.982,3.575,2.194,3.575h0.292l19.225,14.384
		c4.711,4.465,9.738,7.673,14.906,9.629v7.649h24.511v-7.649c5.003-1.893,9.871-4.966,14.45-9.21l19.786-14.803h0.188
		c1.211,0,2.194-1.601,2.194-3.575v-3.581v-3.581C98.872,50.221,97.89,48.621,96.679,48.621z"></path>
</g>
<g id="dark">
	<path fill="#009245" d="M11.44,48.621c21.296-35.095,55.824-35.095,77.12,0H11.44z"></path>
	<path fill="#009245" d="M88.56,62.934c-21.296,35.095-55.824,35.095-77.12,0H88.56z"></path>
	<path fill="#009245" d="M1.128,55.027v-2.831c0-1.975,0.982-3.575,2.194-3.575h8.119h77.12h8.119c1.212,0,2.194,1.601,2.194,3.575
		v2.831H1.128z"></path>
	<path fill="#009245" d="M98.872,56.527v2.831c0,1.975-0.982,3.575-2.194,3.575H88.56H11.44H3.321c-1.212,0-2.194-1.601-2.194-3.575
		v-2.831H98.872z"></path>
</g>
<g id="light">
	<path fill="#006837" d="M32.8,79.857c0,0-3.928-6.304-5.201-17.063h-6.054L32.8,79.857z"></path>
	<path fill="#006837" d="M21.546,48.621h6.134c1.358-10.516,5.12-17.063,5.12-17.063L21.546,48.621z"></path>
	<path fill="#006837" d="M65.349,79.857c0,0,3.928-6.304,5.201-17.063h6.054L65.349,79.857z"></path>
	<path fill="#006837" d="M76.603,48.621h-6.134c-1.358-10.516-5.12-17.063-5.12-17.063L76.603,48.621z"></path>
</g>
<g id="shadow">
</g>
<g id="hlight">
	<circle fill="#FFFFFF" cx="50" cy="11.607" r="4.191"></circle>
</g></g>
</svg>