<svg version="1.1" id="Layer_1" xmlns="http://www.w3.org/2000/svg" xmlns:xlink="http://www.w3.org/1999/xlink" x="0px" y="0px" viewBox="0 0 100 100" xml:space="preserve"><desc>Copyright Opto 22</desc> 
<g>
	<g id="frame">
		<rect fill="none" width="100" height="100"></rect>
	</g>

<g id="shape">
	<circle fill="#006837" cx="50.042" cy="50" r="35.208"></circle>
	<rect x="50" y="14.833" fill="#006837" width="50" height="16"></rect>
	<path fill="#006837" d="M50,57.667H0v-16h50c4.418,0,8,3.582,8,8S54.418,57.667,50,57.667z"></path>
	<path fill="#006837" d="M8,60.667H0v-22h8"></path>
	<rect x="92" y="11.833" fill="#006837" width="8" height="22"></rect>
</g>
<g id="dark">
	<path fill="#009245" d="M50.042,15.875c-15.971,0-29.376,10.974-33.096,25.792H50c4.418,0,8,3.582,8,8s-3.582,8-8,8H16.792
		c3.48,15.153,17.04,26.458,33.25,26.458c18.847,0,34.125-15.278,34.125-34.125C84.167,31.153,68.888,15.875,50.042,15.875z"></path>
	<path fill="#009245" d="M50,56.667c3.866,0,7-3.134,7-7s-3.134-7-7-7H0v14C0,56.667,50,56.667,50,56.667z"></path>
	<g>
		<path fill="#009245" d="M50,15.833v0.043c0.014,0,0.028-0.001,0.042-0.001c11.301,0,21.314,5.497,27.524,13.958H100v-14H50z"></path>
	</g>
	<rect x="50" y="15.833" fill="#009245" width="50" height="14"></rect>
</g>
<g id="light">
	<path fill="#96D48D" d="M61.443,17.833c5.692,2.018,10.685,5.502,14.533,10H100v-10H61.443z"></path>
	<g>
		<path fill="#96D48D" d="M50,44.667H0v10c0,0,50,0,50,0c2.761,0,5-2.239,5-5C55,46.905,52.761,44.667,50,44.667z"></path>
	</g>
</g>
<g id="shadow">
	<path fill="#006837" d="M50.042,21.292c-12.932,0-23.891,8.597-27.47,20.375h1.045c3.546-11.219,14.05-19.375,26.425-19.375
		C65.32,22.292,77.75,34.722,77.75,50S65.32,77.708,50.042,77.708c-12.619,0-23.286-8.482-26.621-20.041h-1.04
		c3.363,12.118,14.486,21.041,27.66,21.041C65.871,78.708,78.75,65.83,78.75,50S65.871,21.292,50.042,21.292z"></path>
	<path fill="#006837" d="M50.042,35.792c-4.72,0-8.898,2.323-11.483,5.875h1.247c2.424-2.972,6.111-4.875,10.236-4.875
		c7.283,0,13.208,5.925,13.208,13.208s-5.926,13.208-13.208,13.208c-4.423,0-8.336-2.193-10.734-5.541h-1.209
		c2.53,3.928,6.933,6.541,11.943,6.541c7.834,0,14.208-6.374,14.208-14.208C64.25,42.166,57.876,35.792,50.042,35.792z"></path>
	<polygon fill="#006837" points="51.463,16.488 52.426,18.155 51.463,19.823 49.537,19.823 48.574,18.155 49.537,16.488 	"></polygon>
	<polygon fill="#006837" points="51.463,37.488 52.426,39.155 51.463,40.823 49.537,40.823 48.574,39.155 49.537,37.488 	"></polygon>
	<polygon fill="#006837" points="51.463,58.988 52.426,60.655 51.463,62.323 49.537,62.323 48.574,60.655 49.537,58.988 	"></polygon>
	<polygon fill="#006837" points="58.847,53.613 60.773,53.613 61.735,55.28 60.773,56.948 58.847,56.948 57.884,55.28 	"></polygon>
	<polygon fill="#006837" points="57.884,44.53 58.847,42.863 60.773,42.863 61.735,44.53 60.773,46.198 58.847,46.198 	"></polygon>
	<polygon fill="#006837" points="51.463,80.238 52.426,81.905 51.463,83.573 49.537,83.573 48.574,81.905 49.537,80.238 	"></polygon>
	<polygon fill="#006837" points="34.563,20.5 36.23,21.463 36.23,23.389 34.563,24.351 32.895,23.389 32.895,21.463 	"></polygon>
	<polygon fill="#006837" points="66.438,75.709 68.105,76.672 68.105,78.598 66.438,79.56 64.77,78.598 64.77,76.672 	"></polygon>
	<polygon fill="#006837" points="21.933,32.425 23.858,32.425 24.821,34.093 23.858,35.76 21.933,35.76 20.97,34.093 	"></polygon>
	<polygon fill="#006837" points="77.142,64.3 79.067,64.3 80.03,65.968 79.067,67.635 77.142,67.635 76.179,65.968 	"></polygon>
	<polygon fill="#006837" points="80.707,49.067 82.375,48.105 84.043,49.067 84.043,50.993 82.375,51.956 80.707,50.993 	"></polygon>
	<polygon fill="#006837" points="20.97,65.968 21.933,64.3 23.858,64.3 24.821,65.968 23.858,67.635 21.933,67.635 	"></polygon>
	<polygon fill="#006837" points="76.179,34.093 77.142,32.425 79.067,32.425 80.03,34.093 79.067,35.76 77.142,35.76 	"></polygon>
	<polygon fill="#006837" points="32.895,78.598 32.895,76.672 34.563,75.709 36.23,76.672 36.23,78.598 34.563,79.56 	"></polygon>
	<polygon fill="#006837" points="64.77,23.389 64.77,21.463 66.438,20.5 68.105,21.463 68.105,23.389 66.438,24.351 	"></polygon>
</g>
<g id="hlight">
	<path fill="#FFFFFF" d="M50,53.167H0v-7h50c1.933,0,3.5,1.567,3.5,3.5C53.5,51.6,51.933,53.167,50,53.167z"></path>
	<path fill="#FFFFFF" d="M67.332,19.333c3.289,1.858,6.254,4.223,8.777,7H100v-7H67.332z"></path>
</g>
</g>
</svg>