<svg version="1.1" id="Layer_1" xmlns="http://www.w3.org/2000/svg" xmlns:xlink="http://www.w3.org/1999/xlink" x="0px" y="0px" viewBox="0 0 100 100" xml:space="preserve"><desc>Copyright Opto 22</desc> 
<g>
<g id="frame">
	<rect fill="none" width="100" height="100"></rect>
</g>
<g id="shape">
	<path fill="#006837" d="M84.031,71.27H21.27C9.542,71.27,0,61.728,0,50c0-11.729,9.542-21.27,21.27-21.27h23.85l21.204,10.602
		h17.707c8.805,0,15.969,7.164,15.969,15.969C100,64.106,92.836,71.27,84.031,71.27z"></path>
</g>
<g id="dark">
	<path fill="#009245" d="M84.031,39.631H66.253L45.049,29.03H21.27C9.707,29.03,0.3,38.437,0.3,50S9.707,70.97,21.27,70.97h15.643
		V44.093c0-0.275,0.225-0.5,0.5-0.5h0.008c0.275,0,0.5,0.225,0.5,0.5V70.97h46.11c8.64,0,15.67-7.03,15.67-15.67
		C99.7,46.661,92.671,39.631,84.031,39.631z"></path>
</g>
<g id="light">
	<path fill="#96D48D" d="M84.031,40.231H66.112L44.908,29.629H21.27C10.038,29.629,0.899,38.768,0.899,50
		c0,11.233,9.138,20.37,20.371,20.37h15.041V43.843c0-0.55,0.45-1,1-1h0.212c0.55,0,1,0.45,1,1V70.37h45.508
		c8.31,0,15.07-6.76,15.07-15.07C99.1,46.991,92.34,40.231,84.031,40.231z"></path>
</g>
<g id="hlight">
	<path fill="#FFFFFF" d="M84.031,40.681H66.005L44.801,30.079H21.27C10.286,30.079,1.349,39.016,1.349,50
		c0,10.985,8.937,19.921,20.921,19.921h13.615V43.843c0-0.825,0.675-1.5,1.5-1.5h0.063c0.825,0,1.5,0.675,1.5,1.5v26.078h46.082
		c7.062,0,13.62-6.558,13.62-14.62C98.65,47.239,92.092,40.681,84.031,40.681z"></path>
</g>
</g>
</svg>