<svg version="1.1" id="Layer_1" xmlns="http://www.w3.org/2000/svg" xmlns:xlink="http://www.w3.org/1999/xlink" x="0px" y="0px" viewBox="0 0 100 100" xml:space="preserve"><desc>Copyright Opto 22</desc> 
<g>
<g id="frame">
	<rect fill="none" width="100" height="100"></rect>
</g>
<g id="shape">
		<path fill="#006837" d="M75.157,25.25c0-13.728-11.054-24.923-24.727-25.153C36.359-0.14,24.843,11.749,24.843,25.822l0,41.043
			c0,1.326,0.527,2.598,1.464,3.536L50,94.094l23.693-23.693c0.938-0.938,1.464-2.209,1.464-3.536V25.25z"></path>
	<rect x="44.343" y="81.833" fill="#006837" width="11.314" height="18.25"></rect>
	<rect x="42" y="98" fill="#006837" width="16" height="2"></rect>
</g>
<g id="dark">
		<path fill="#009245" d="M74.45,25.25c0-13.342-10.742-24.222-24.032-24.446C36.743,0.573,25.55,12.128,25.55,25.806l0,40.81
			c0,1.326,0.527,2.598,1.464,3.536L50,93.136l22.985-22.985c0.938-0.938,1.464-2.209,1.464-3.536V25.25z"></path>
	<rect x="45.05" y="81.833" fill="#009245" width="9.9" height="18.25"></rect>
</g>
<g id="light">
		<path fill="#96D48D" d="M73.035,25.25c0-12.996-10.818-23.514-23.923-23.019c-12.466,0.471-22.148,11.11-22.148,23.585l0,40.3
			c0,1.326,0.527,2.598,1.464,3.536L50,91.222l21.571-21.571c0.938-0.938,1.464-2.209,1.464-3.536V25.25z"></path>
	<rect x="46.464" y="81.833" fill="#96D48D" width="7.071" height="18.25"></rect>
</g>
<g id="hlight">
		<rect x="47.525" y="81.833" fill="#FFFFFF" width="4.95" height="18.25"></rect>
		<path fill="#FFFFFF" d="M71.975,25c0-12.398-10.32-22.431-22.822-21.959C37.261,3.49,28.025,13.639,28.025,25.54l0,40.326
			c0,1.326,0.527,2.598,1.464,3.536L50,89.911l20.51-20.51c0.938-0.938,1.464-2.209,1.464-3.536V25z"></path>
</g>
</g>
</svg>