<svg version="1.1" id="Layer_1" xmlns="http://www.w3.org/2000/svg" xmlns:xlink="http://www.w3.org/1999/xlink" x="0px" y="0px" viewBox="0 0 100 100" xml:space="preserve"><desc>Copyright Opto 22</desc> 
<g>
<g id="frame">
	<rect fill="none" width="100" height="100"></rect>
</g>
<g id="shape">
	<path fill="#006837" d="M17.322,85c-15.007-19.33-15.007-50.67,0-70h65.356c15.007,19.33,15.007,50.67,0,70H17.322z"></path>
	<rect x="42" y="82.5" fill="#006837" width="16" height="17.5"></rect>
	<rect x="42" fill="#006837" width="16" height="17.5"></rect>
</g>
<g id="dark">
	<path fill="#009245" d="M17.857,83h64.286c13.049-18.755,13.049-47.245,0-66H17.857C4.808,35.755,4.808,64.245,17.857,83z"></path>
	<rect x="43" y="82.5" fill="#009245" width="14" height="17.5"></rect>
	<rect x="43" fill="#009245" width="14" height="21.333"></rect>
</g>
<g id="light">
	<path fill="#96D48D" d="M21.322,19h-2.783c-11.29,18.056-11.29,43.944,0,62h2.783h57.356h2.783c11.29-18.056,11.29-43.944,0-62
		h-2.783H21.322z"></path>
	<rect x="45" y="76.667" fill="#96D48D" width="10" height="23.333"></rect>
	<rect x="45" fill="#96D48D" width="10" height="21.5"></rect>
</g>
<g id="hlight">
	<rect x="46.5" y="74.25" fill="#FFFFFF" width="7" height="25.75"></rect>
	<rect x="46.5" fill="#FFFFFF" width="7" height="23.25"></rect>
	<path fill="#FFFFFF" d="M19.442,80h61.117c10.482-17.668,10.482-42.332,0-60H19.442C8.959,37.668,8.959,62.332,19.442,80z"></path>
</g>
</g>
</svg>