<svg version="1.1" id="Layer_1" xmlns="http://www.w3.org/2000/svg" xmlns:xlink="http://www.w3.org/1999/xlink" x="0px" y="0px" viewBox="0 0 100 100" xml:space="preserve"><desc>Copyright Opto 22</desc> 
<g>
<g id="frame">
	<rect fill="none" width="100" height="100"></rect>
</g>
<g id="shape">
	<path fill="#006837" d="M21.27,71.27C9.542,71.27,0,61.728,0,50c0-11.729,9.542-21.27,21.27-21.27h57.46
		C90.458,28.73,100,38.271,100,50c0,11.728-9.542,21.27-21.27,21.27H21.27z"></path>
</g>
<g id="dark">
	<path fill="#009245" d="M78.73,29.03H21.27C9.707,29.03,0.3,38.437,0.3,50S9.707,70.97,21.27,70.97h57.46
		C90.293,70.97,99.7,61.563,99.7,50S90.293,29.03,78.73,29.03z"></path>
</g>
<g id="light">
	<path fill="#96D48D" d="M78.73,29.629H21.27C10.038,29.629,0.899,38.768,0.899,50c0,11.233,9.138,20.37,20.371,20.37h57.46
		c11.232,0,20.371-9.138,20.371-20.37C99.101,38.768,89.962,29.629,78.73,29.629z"></path>
</g>
<g id="hlight">
	<path fill="#FFFFFF" d="M78.73,30.079H21.27C10.286,30.079,1.349,39.016,1.349,50c0,10.985,8.937,19.921,20.921,19.921h55.46
		c11.984,0,20.921-8.936,20.921-19.921C98.651,39.016,89.714,30.079,78.73,30.079z"></path>
</g>
</g>
</svg>