<svg version="1.1" id="Layer_1" xmlns="http://www.w3.org/2000/svg" xmlns:xlink="http://www.w3.org/1999/xlink" x="0px" y="0px" viewBox="0 0 100 100" xml:space="preserve"><desc>Copyright Opto 22</desc> 
<g>
<g id="frame">
		<rect fill="none" width="100" height="100"></rect>
</g>
<g id="shape">
	<path fill="#006837" d="M50,100.044c-16.867,0-33.735-2.948-48.779-8.844L0,90.72V9.53l1.221-0.479
		c30.088-11.792,67.47-11.792,97.557,0L100,9.53v81.19l-1.222,0.479C83.735,97.095,66.867,100.044,50,100.044z"></path>
</g>
<g id="dark">
	<path fill="#009245" d="M50,99.803c-16.837,0-33.674-2.943-48.691-8.828L0.24,90.556V9.694l1.069-0.419
		c30.034-11.771,67.349-11.771,97.382,0l1.069,0.419v80.862l-1.069,0.419C83.675,96.86,66.837,99.803,50,99.803z"></path>
</g>
<g id="light">
	<path fill="#96D48D" d="M50,99.324c-16.776,0-33.553-2.933-48.515-8.797l-0.763-0.3V10.022l0.763-0.299
		c29.925-11.729,67.107-11.729,97.031,0l0.763,0.299v80.206l-0.763,0.3C83.553,96.392,66.776,99.324,50,99.324z"></path>
</g>
<g id="hlight">
		<path fill="#FFFFFF" d="M50,98.965c-16.731,0-33.462-2.924-48.384-8.773l-0.534-0.209V10.268l0.534-0.209
			c29.844-11.698,66.926-11.697,96.768,0l0.534,0.209v79.714l-0.534,0.209C83.462,96.041,66.731,98.965,50,98.965z"></path>
</g>
</g>
</svg>