<svg version="1.1" id="Layer_1" xmlns="http://www.w3.org/2000/svg" xmlns:xlink="http://www.w3.org/1999/xlink" x="0px" y="0px" viewBox="0 0 100 100" xml:space="preserve"><desc>Copyright Opto 22</desc> 
<g>
	<g id="frame">
		<rect fill="none" width="100" height="100"></rect>
	</g>
	<g id="shape">
		<path fill="#006837" d="M85,18.614c-7.623-5.918-17.115-9.492-27-10.742V0H42v7.872c-9.885,1.25-19.377,4.824-27,10.742V83.97
			c7.623,5.918,17.115,9.492,27,10.742V100h16v-5.288c9.885-1.25,19.377-4.824,27-10.742V18.614z"></path>
	</g>
	<g id="dark">
		<path fill="#009245" d="M83,19.149c-7.52-5.232-16.605-8.361-26-9.397V0H43v9.752c-9.395,1.036-18.48,4.165-26,9.397v64.286
			c7.52,5.232,16.605,8.361,26,9.397V100h14v-7.168c9.395-1.036,18.48-4.165,26-9.397V19.149z"></path>
	</g>
	<g id="light">
		<path fill="#96D48D" d="M55,11.567V0H45v11.567c-9.278,0.727-18.344,3.477-26,8.264v2.783V79.97v2.783
			c7.656,4.787,16.722,7.537,26,8.264V100h10v-8.983c9.278-0.727,18.344-3.477,26-8.264V79.97V22.614v-2.783
			C73.344,15.044,64.278,12.295,55,11.567z"></path>
	</g>
	<g id="hlight">
		<path fill="#FFFFFF" d="M53.5,12.973V0h-7v12.973c-9.201,0.504-18.248,3.005-26,7.486v61.665c7.752,4.482,16.799,6.983,26,7.486
			V100h7V89.611c9.201-0.504,18.248-3.005,26-7.486V20.459C71.748,15.978,62.701,13.477,53.5,12.973z"></path>
	</g>
</g>
</svg>