<svg xmlns="http://www.w3.org/2000/svg" viewBox="0 0 20 20"><defs><style>.cls-1{fill:#626262;}</style></defs><title>maskScriptAsset 2</title><g id="Layer_2" data-name="Layer 2"><g id="Layer_1-2" data-name="Layer 1"><path class="cls-1" d="M13,18a1,1,0,0,0,1-1V2H6A1,1,0,0,0,5,3V14H3V3A3,3,0,0,1,6,0H17a3,3,0,0,1,3,3V4H18V3a1,1,0,0,0-2,0V17a3,3,0,0,1-3,3H3a3,3,0,0,1-3-3V16H11A2,2,0,0,0,13,18Z"/><path class="cls-1" d="M8.08,6h.34l.2,0a3.15,3.15,0,0,1,.76.32.11.11,0,0,0,.12,0A3.39,3.39,0,0,1,10.18,6l.27,0h.39a3.12,3.12,0,0,1,1.08.27c.28.12.56.25.85.36a3.31,3.31,0,0,0,1.2.22,1,1,0,0,0,.6-.21l.34-.27v.07s0,0,0,0c0,.19-.06.37-.08.56-.06.54-.11,1.09-.15,1.63s-.07.82-.15,1.23A3,3,0,0,1,14.05,11a4.86,4.86,0,0,1-.87.94,3.15,3.15,0,0,1-1.45.72l-.4.07h-.46l-.08,0a3.07,3.07,0,0,1-.94-.22.93.93,0,0,0-.83,0,2.34,2.34,0,0,1-.64.18L8,12.76H7.55l-.06,0a2.91,2.91,0,0,1-1-.27,4.05,4.05,0,0,1-1.3-1,3.08,3.08,0,0,1-.76-1.35,9.23,9.23,0,0,1-.23-1.65A12.85,12.85,0,0,0,4,6.85C4,6.71,4,6.57,4,6.43V6.36l.06,0,.48.33a.77.77,0,0,0,.39.11,4.17,4.17,0,0,0,.79-.1,5.53,5.53,0,0,0,1.09-.41,4.09,4.09,0,0,1,1-.32ZM5.27,9.18c.09.09.16.18.23.26a3.5,3.5,0,0,0,.64.58,2.15,2.15,0,0,0,1,.3,5.23,5.23,0,0,0,1.12-.05l.37,0a2.89,2.89,0,0,0,0-.29,1.32,1.32,0,0,0-.65-1,1.64,1.64,0,0,0-1-.2A5.79,5.79,0,0,0,5.27,9.18Zm5,1,.14,0a5.58,5.58,0,0,0,1.47.06,1.89,1.89,0,0,0,.87-.27,3.81,3.81,0,0,0,.86-.84v0l-.81-.27a3.2,3.2,0,0,0-1.27-.16,1.36,1.36,0,0,0-.95.52A1.67,1.67,0,0,0,10.24,10.22Z"/></g></g></svg>