<?xml version="1.0" encoding="utf-8"?>
<!-- Generator: Adobe Illustrator 22.0.1, SVG Export Plug-In . SVG Version: 6.00 Build 0)  -->
<svg version="1.1" id="Layer_1" xmlns="http://www.w3.org/2000/svg" xmlns:xlink="http://www.w3.org/1999/xlink" x="0px" y="0px"
	 viewBox="0 0 50 50" style="enable-background:new 0 0 50 50;" xml:space="preserve">
<style type="text/css">
	.st0{fill:#D2DCE1;}
	.st1{opacity:0.74;fill:url(#SVGID_1_);enable-background:new    ;}
	.st2{fill:#557C91;}
</style>
<path class="st0" d="M8,3C5.3,3,3,5.3,3,8v33c0,2.7,2.3,5,5,5h34c2.7,0,5-2.3,5-5V8c0-2.7-2.3-5-5-5H8z"/>
<radialGradient id="SVGID_1_" cx="25" cy="27.5" r="21.7514" gradientTransform="matrix(1 0 0 -1 0 52)" gradientUnits="userSpaceOnUse">
	<stop  offset="5.618000e-03" style="stop-color:#C4C6C8"/>
	<stop  offset="0.2978" style="stop-color:#BCBEC0"/>
	<stop  offset="0.6573" style="stop-color:#A7A9AC"/>
	<stop  offset="1" style="stop-color:#9B9DA0"/>
</radialGradient>
<path class="st1" d="M8,3C5.3,3,3,5.3,3,8v33c0,2.7,2.3,5,5,5h34c2.7,0,5-2.3,5-5V8c0-2.7-2.3-5-5-5H8z"/>
<path class="st2" d="M25,5.1c-6.2,0-11.8,2.5-16,6.7l5.8,7.3h20.5l5.8-7.3C36.8,7.6,31.2,5.1,25,5.1z M34.3,17.1h-8l1.8-7l-5.2,7h-7
	l-4-5.1c1.3-1,2.6-1.9,4-2.6l0.8,2l1.8-0.8l-0.9-2.1c2.1-0.8,4.2-1.3,6.4-1.4v3h2v-3c2.2,0.1,4.4,0.6,6.4,1.4l-0.9,2.1l1.8,0.8
	l0.8-2c1.4,0.7,2.8,1.6,4,2.6L34.3,17.1z"/>
</svg>
