<?xml version="1.0" encoding="utf-8"?>
<!-- Generator: Adobe Illustrator 22.0.1, SVG Export Plug-In . SVG Version: 6.00 Build 0)  -->
<svg version="1.1" id="Layer_1" xmlns="http://www.w3.org/2000/svg" xmlns:xlink="http://www.w3.org/1999/xlink" x="0px" y="0px"
	 viewBox="0 0 50 50" style="enable-background:new 0 0 50 50;" xml:space="preserve">
<style type="text/css">
	.st0{fill:#868889;}
	.st1{fill:#D2DCE1;}
	.st2{opacity:0.74;enable-background:new    ;}
	.st3{fill:url(#SVGID_1_);}
	.st4{opacity:0.74;fill:url(#SVGID_2_);enable-background:new    ;}
</style>
<rect x="22.6" y="8.2" class="st0" width="4.8" height="5.5"/>
<g>
	<path class="st1" d="M47.3,43.7c0,2-1.6,3.6-3.6,3.6H6.3c-2,0-3.6-1.6-3.6-3.6V15.4c0-2,1.6-3.6,3.6-3.6h37.5c2,0,3.6,1.6,3.6,3.6
		V43.7z"/>
</g>
<g class="st2">
	<radialGradient id="SVGID_1_" cx="25" cy="29.5558" r="20.1844" gradientUnits="userSpaceOnUse">
		<stop  offset="5.618000e-03" style="stop-color:#C4C6C8"/>
		<stop  offset="0.2978" style="stop-color:#BCBEC0"/>
		<stop  offset="0.6573" style="stop-color:#A7A9AC"/>
		<stop  offset="1" style="stop-color:#9B9DA0"/>
	</radialGradient>
	<path class="st3" d="M47.3,43.7c0,2-1.6,3.6-3.6,3.6H6.3c-2,0-3.6-1.6-3.6-3.6V15.4c0-2,1.6-3.6,3.6-3.6h37.5c2,0,3.6,1.6,3.6,3.6
		V43.7z"/>
</g>
<path class="st1" d="M2.7,2.7v3.7c0,1.7,2.3,3.1,5.1,3.1h34.5c2.7,0,5.1-1.4,5.1-3.1V2.7H2.7z"/>
<radialGradient id="SVGID_2_" cx="25" cy="6.0779" r="15.9752" gradientUnits="userSpaceOnUse">
	<stop  offset="5.618000e-03" style="stop-color:#C4C6C8"/>
	<stop  offset="0.2978" style="stop-color:#BCBEC0"/>
	<stop  offset="0.6573" style="stop-color:#A7A9AC"/>
	<stop  offset="1" style="stop-color:#9B9DA0"/>
</radialGradient>
<path class="st4" d="M2.7,2.7v3.7c0,1.7,2.3,3.1,5.1,3.1h34.5c2.7,0,5.1-1.4,5.1-3.1V2.7H2.7z"/>
</svg>
