<svg xmlns="http://www.w3.org/2000/svg" xmlns:xlink="http://www.w3.org/1999/xlink" viewBox="0 0 158.4 177.06"><defs><style>.cls-1{fill:#3c241c;}.cls-2{fill:#573c2c;}.cls-3{fill:#3e3028;}.cls-4{fill:url(#Tin);}.cls-5{fill:#cdcbce;}.cls-6{fill:url(#Silver);}.cls-7{fill:url(#Tin-2);}.cls-8{fill:#82a53c;}</style><linearGradient id="Tin" x1="67.12" y1="41.88" x2="91.28" y2="41.88" gradientUnits="userSpaceOnUse"><stop offset="0.03" stop-color="#a7a9ac"/><stop offset="0.23" stop-color="#b6b8ba"/><stop offset="0.38" stop-color="#c4c6c8"/><stop offset="0.57" stop-color="#b5b7ba"/><stop offset="0.72" stop-color="#a7a9ac"/><stop offset="1" stop-color="#d1d3d4"/><stop offset="1" stop-color="#a7a9ac"/></linearGradient><linearGradient id="Silver" x1="77.77" y1="61.74" x2="80.63" y2="61.74" gradientUnits="userSpaceOnUse"><stop offset="0" stop-color="#e5e2df"/><stop offset="0" stop-color="#ded9d6"/><stop offset="0.06" stop-color="#cfcac9"/><stop offset="0.18" stop-color="#a8a4a7"/><stop offset="0.26" stop-color="#8b878d"/><stop offset="0.52" stop-color="#f3f4f4"/><stop offset="0.58" stop-color="#e5e5e6"/><stop offset="0.7" stop-color="#c0bec0"/><stop offset="0.86" stop-color="#858085"/><stop offset="0.88" stop-color="#807b80"/><stop offset="1" stop-color="#d1d3d4"/><stop offset="1" stop-color="#a7a9ac"/></linearGradient><linearGradient id="Tin-2" x1="75.23" y1="132.31" x2="83.17" y2="132.31" xlink:href="#Tin"/></defs><g id="Layer_2" data-name="Layer 2"><g id="Layer_1-2" data-name="Layer 1"><path class="cls-1" d="M81.21,159.54a7.25,7.25,0,0,0-1.28-.55,3.15,3.15,0,0,0-1.18-.18c-.46,0-.46-.55-.55-.82a.62.62,0,0,1,0-.45l-.27-.55-1.82-.37H74.74a3,3,0,0,1-1.19-.45c-.27-.09-1.27-.27-2.18-.46a11.74,11.74,0,0,1-2.23-1,13.46,13.46,0,0,1-1.78-1.09,2.13,2.13,0,0,1-.64-.55l-.45-.82.18-1.37h.27c.27,0,.46.46.46.46a7.54,7.54,0,0,0,.91.91c.27.18.36.46.64,1s1,.55,1.45.73a16.53,16.53,0,0,1,2.28.82c.37.28,1.55,0,1.55,0l1.09-.64.46-1.09.18-1.37S75,150.61,74.56,150s-2-.31-2-.31H71l-2.18,0s-2.37-.09-2.83,0l-1.46.27-2-.27a4.48,4.48,0,0,0-.73.91,3.57,3.57,0,0,0,0,1v1.73a3,3,0,0,1-.18,1.28,4.27,4.27,0,0,1-.46,1,11.09,11.09,0,0,1-.91,1.28c-.54.82,0,0-.18.73a2.56,2.56,0,0,0,0,1.64c.18.73,1,0,1,0s1.73.63,2,.82a13.06,13.06,0,0,1,1.45,1c.55.45.73.73,1,.91a11.84,11.84,0,0,0,1.91.55c.36.09,2.82.36,3.28.45A9.65,9.65,0,0,0,73,163a15.41,15.41,0,0,1,2.46-.82,13.93,13.93,0,0,0,1.91-.27,8.1,8.1,0,0,1,1.19.27h4.37c.18,0,0-.91,0-.91l-.37-.55A5.89,5.89,0,0,0,81.21,159.54Z"/><path class="cls-1" d="M0,55.47V177.06H158.4V55.47ZM150.36,144.6l-.64,1.64-1.18.55-1.28,1.09-1.09,1-2,.36-2.46-.18-1.54.18-2.37.37-1.37.27-.73,1.1-.82,1.36-.45,1.19L135,155l.64.82.36,1.28-.09,1.09-.45,1.73H133.6l-1.19-.72-.91-.64-1.55-.91h-2.09l-.82.63s-1.19.46-1.55.28-2.19-1.73-2.19-1.73a16.51,16.51,0,0,0-1.73-1.83c-.27-.09-2.1-1-2.37-1.18s-.82-.82-1.28-1.18-2.09-1.83-2.09-1.83l-1.55-1.18-1.46.36-3.37.37-1.82-.55-.36.46.18,1,1.18,1.09.91.82.64,1.1.09,1.36.55,2.37-.37,1.46-.82,1.37L108.09,162l-2.1,1.09-.73-.73v-1.45l1.19-.46.91-.55.82-.45.73-1.37a6.55,6.55,0,0,0,.18-1.27c0-.55-.09-1.46-.09-1.46s-.19-1.19-.28-1.46a12.56,12.56,0,0,0-1.45-1.55s-1.1-.54-1.37-.73a4,4,0,0,1-.82-.63,8.88,8.88,0,0,1-.91-1.28l-1.82-.82-1.19-.36a2.89,2.89,0,0,1-1.27,0,11.87,11.87,0,0,1-1.1-.73s-.73-.64-1-.55a2.94,2.94,0,0,0-.73.55l-.64.82-1.18.09-.64.27-.45,1.82-.46,1.37-1.18.27-1.92-.54-.82-1.46a1.51,1.51,0,0,0-.27.82c0,.45.09,1.37.09,1.37l.82,1.09s.46.73.64,1a12.8,12.8,0,0,1,1.36,1.73,2.77,2.77,0,0,1-.09,1.55c-.18.27-1.09,1.19-1.09,1.19l-1.64.54a6,6,0,0,1-1.64-.36c-.55-.28-1.46-1.19-2.19-1.19s-1.91-.09-1.91-.09l-1,.55.54.82,1.37,1.37.82.63v.73l.64.64,1.55.09,3.37.18.73.82s.91.55,1.36.46,1.83-.18,1.83-.18l1.64-.46h1.55l.82.18,2,.47,1.91.9h5.65a2.51,2.51,0,0,1,1.73-.46,24,24,0,0,0,3-.27l1.37-.09,5.54-.93,6.17-.22,1.39.09,1.74.4,1.8.54,1.15-.18,1.58.16L136,164l.77-.63.57-1.13,1-.6,1.57-2.6,1.83-1,1.74-.13,2.62-.16,1.28,1-.24-2.46-1.91-.32-1-1,.39-1.67-4,2.39-.75.19-.14-.19-.5-.76.16-.59.6-.56.47.24-.32.52L140,155l.36.16.64-.12,3.34-2.34-.68-.24-.24-.48-.12-.75.48-.6.6-.48.71.12.64.48.55.8.88-.44.71.08,1.39-.2,1,1,2.26.56,2.74-1.79.36-1.91.95-.83.84,1.07-.84,1.67L154.9,152l-2.51,1.63-2-.36-2-.83-1.54.61-1.32,1.42,1.31.83,2.74,1,.36,3.77,4.89,3,.95,3.57-1.19,1.08-1.55.83-1.19-1.19-.6-1.55,1.31-.83.36,1.66,1.43-.47-.48-1.67-1.55-1.43-2-1.19-1.67-1.2-1.38.21-1.84-1-2.74-.24-2.06.46-.92,2.05-1,1.9-1.78,1.55-2.39,1.67-2.62-1.19-3.58-.72-2.26,1.2,1,1.43,2.62,1.78,3.22,1.67,3.46-.59L139,170l1.79-.71,2.5-.12,1.31,1.31,1.08,2.15-1.43.95L143,172.13l-.71-1.19-2.38.71-3.7.72-3.34.95-3-2-4.29-2.74-1.43-2.14-2.15-1-2.5-.47-5.18.91a1.21,1.21,0,0,1-1,.48,14.73,14.73,0,0,0-2.83,0,24.08,24.08,0,0,1-3.64.55h-3.19l-2.82-.27a4.67,4.67,0,0,0-1.37-.73c-.36,0-2.1-.37-2.1-.37l-1.64.19-2.18.36a4.47,4.47,0,0,1-1.46-.09c-.46-.18-2.1-.91-2.1-.91s.28-.46-1.09-.55-1.09-.18-2.55-.27-1.37-.18-2.19-.18-2.82-.1-3.19-.1l-4.55-.09-2.19.37-3.46,1.27-2.1-.54a2.82,2.82,0,0,1-1.82-.46l-1.36-1.37-1.92-1.64L61.25,161l-2.36.18s-2.46.82-2.83.91l-3.83,1-2.46,1.28-2.73.55s-2.91.18-3.19.18-4.19-.18-4.19-.18l-1.73-.64a5,5,0,0,1-1.73-1.1l-2-2.91-1-1.28s0,.55-.36-.45a7.1,7.1,0,0,0-1.19-1.92s-.09-.18-.63-.18-1.92.09-1.92.09-1,.19-1.27.19-2.37.09-2.37.09-.18-.28-1.09-.28H22.08l-1.92,1.37-1.27.82-1.64.82-1.64,1,.09.91s.27.82,0,1-1.55,1.18-1.55,1.18a8.78,8.78,0,0,1-1.37.46c-1,.27-2.36.54-2.36.54s-.73-.27-.55-.64a6,6,0,0,1,.82-1l1-.09a1.32,1.32,0,0,0,.64-.18c.27-.18.45.09.91-.64a1.91,1.91,0,0,0,.36-1.46c0-.54-.09-1.09-.09-1.45a12.06,12.06,0,0,1,.19-1.37l.91-.73a7,7,0,0,1,1.09-.91c.36-.18,1-.55,1-.55l1.1-.73,1-.54-1.19-1a5.66,5.66,0,0,1-1.82.1c-.27-.19-.36-1.1-.36-1.1s0-.36.54-.54a8.14,8.14,0,0,1,1.46-.28l1.19.5.72,1.23.28.55a5.41,5.41,0,0,0,1.64-.09,3.89,3.89,0,0,1,1.27-.55c.28,0,1.46-.09,1.46-.09l1.55.64a3.31,3.31,0,0,0,1.37.18c.63-.09,2.27-.18,2.27-.18l2.37.18,1.73.73,1.37,1.64,2.28,1.64,1.46-1,.72-1.64,1.74-.28,1.09-.72,1.55-.73s.82.09.82.36.36,1.73,0,1.91-1.37.64-1.37.64l-1.73.73-1.73.46-1.28.82a9.38,9.38,0,0,1-1.36.36,4.66,4.66,0,0,1-1.37-.18,7.84,7.84,0,0,1-1.91-1.37l.64,1.46.45.82.82.64s.55.36,1.09.64a10.86,10.86,0,0,0,1.37.54c.27.09,2.46,1.19,2.46,1.19l2.82.36,1.83-.27,3.37.09a11.07,11.07,0,0,1,1.64-.55,12,12,0,0,0,1.73-.64L53.6,161l1.37-.55,1.18-.73-2.82-.82-1.82-.18a5.46,5.46,0,0,1-1.46.36c-.55,0-.91.19-1-.09a4.18,4.18,0,0,1-.37-1.18,3.48,3.48,0,0,1,.27-1l1-.55a1.08,1.08,0,0,1,.63,0l1.37.27s.46.09.82.19.55.09.82.18a7.49,7.49,0,0,1,.82.27c.73.27,1.37.46,1.37.46a3.26,3.26,0,0,0,.73.54,6.89,6.89,0,0,1,.82.55s.73.18.91-.09.64-.27.82-.73.09-.18.36-1.82a11.92,11.92,0,0,0,.46-2.74c-.09-.63-.09-3.37-.09-3.37l-.37-1a5.3,5.3,0,0,0-1.36-.64,25.92,25.92,0,0,0-3-.82,22.84,22.84,0,0,0-2.55-.18,2.69,2.69,0,0,1-1.82-.18c-1.19-.46-3-.91-3.28-1a5.84,5.84,0,0,1-2.65-.82c-.91-.73-.45-.82-1.55-1.28a13.62,13.62,0,0,0-1.91-.64,5.14,5.14,0,0,1-.64.37c-.36.18.28-.09-.36.18l-1.73.73a7.61,7.61,0,0,1-1.64.27c-.28.09.09-.45-.28.09s.55,1.1.55,1.1.46,0,1.37.09a11.17,11.17,0,0,0,2.09.18c.28-.09.64-.36.91-.09a2.74,2.74,0,0,0,.82.46s.37.45.19.72.18.19-.19.28-.18.27-1.64.18-2.73-.18-3.46-.27-2.37-.28-3.37-.37S30.1,147,29.64,147s-1.37-.09-2.19-.18a5.38,5.38,0,0,1-1.27-.19,19.3,19.3,0,0,0-1.92-.45c-.63-.09-1.64-.18-2.27-.28a8.84,8.84,0,0,0-1.1-.18l-3.73.09a4.53,4.53,0,0,0-1.28.46c-.36.27-.82.45-1,.73a5.51,5.51,0,0,0-.46.73,2.84,2.84,0,0,1-.54,1,4.13,4.13,0,0,0-.73,1c-.18.36.55-.27-.18.36s-.19.37-.73.64a3.16,3.16,0,0,0-.55.28,3.69,3.69,0,0,0-1.09,1l-.55.5c-.64,0-1.37-.45-1.37-.91s-.45-.91,0-1.18a6.51,6.51,0,0,1,1-.46v-.82a.83.83,0,0,1,0-.72c.18-.37.63-.28.91-.46s.45-.09.82-.27-.82.09.36-.19.18.46,1.19-.27a6.39,6.39,0,0,0,1.55-1.37c.27-.36.63-.63.63-.91s.09-1.36.09-1.36l-.09-.82a19,19,0,0,0-1.45-1.64c-.28-.19-1.64-1.46-1.64-1.46l-.73-.55-.91-.64v-1.36L13,139.22l2.46,2,1.27,1.46.55,1.18v.64h2.19l1,.27H32.19l2.1-.64,2.46-.54,1.18-.28.91-.18.37-.82-.55-1.09-1.09-1-1.83-.1-3.09.19-6.56.09-5,.82-1.28-1.92,1.28-.82,4.64-.45,2.74.18,3-.09,2.46.36,2.19.28,1.82.64,1.46.63L41,141l2.18,1.1,2.19,1,1.55.36,1.91-.09,2.74,1,2.37,1,2,.73,2.55.91,1.55.64,1.28.27h3l8.29.27,1.37-.54.64-.82.64-1,10.93-1.09h1.27l1.92.91,1.82,1.09,1.18.64h1.37l.73-.45,1.18-.64.64-.46,1.19-.27.91-.18V144l.82-1.32,1.09-1,2.1-1.18,1.09-.28,2.28.1,1.27-.19,1.1-.36h2c.82,0,2.83.09,3.65.09h3.09l1.64-.64,1.64-.73h1.1l1.45-.09.91.73v.73l-1.18.46H121.3l-2.1.54-1.91.55-3.19.55-2.73.09H106l-2.28.45-1.55.23-.82.87-.45.63-.18,1,.18,1.36.54.46,1.37.82,2.28-.09,2.19-.09,2.73.09h1.64l1.55.18,2.27.91,1.65,1.37,1.36,1,1.64,1.18,1.64,1.19,1.91.73,1.28.72,1.82.92,1.64.36a7.76,7.76,0,0,1,1.46,0,5.23,5.23,0,0,1,.82.46l.91.36.91-.27.73-.46H134v-.73l-.73-1-1.09-.36a6,6,0,0,1-1.28-.55c-.36-.27-1.27-.73-1.55-.91s-1.55-1.1-1.55-1.1l-1.64-1.36L124.3,149l-1.36-1.55-1-1.45-.54-1.28.54-.73,1.1.46.54.63.64.82,1.37.73.82.28,1.36,1.18.73,1.46s.64.82.82,1.09a7.61,7.61,0,0,0,1.1.91l1,.37,1,.27a4.66,4.66,0,0,0,.82-.09,1.26,1.26,0,0,0,.73-.64l.46-1.27L135,149l.18-1.18.46-.69-.27-1.5-.28-1.55.55-.54,1.18-.82v-1.28l.82-.64V139.5l1.19-.46.18.73V141s.46,1.1.27,1.37-1,1.64-1,1.64l-1,1.37-.64,1v.77l.73.69h.91c.28,0,1.46-.18,1.92-.18s1.64-.1,1.64-.1l1.73-.63,1.36-.55.73.09,1.1-.73,1.18-.54a5.2,5.2,0,0,1,.64-1,12.66,12.66,0,0,0,.91-1.27l.91-.46.27,1.1Z"/><rect class="cls-2" y="12.55" width="158.4" height="42.91"/><rect class="cls-3" y="5.96" width="158.4" height="7.31"/><rect class="cls-4" x="67.12" y="5.96" width="24.16" height="71.84"/><rect class="cls-5" x="70.46" y="5.96" width="17.48" height="128.42"/><rect class="cls-6" x="77.77" y="5.96" width="2.86" height="111.58"/><rect class="cls-7" x="75.23" y="117.53" width="7.95" height="29.56"/><rect x="75.23" y="117.41" width="7.95" height="7.95"/><rect class="cls-8" width="158.4" height="5.96"/></g></g></svg>