<?xml version="1.0" encoding="utf-8"?>
<!-- Generator: Adobe Illustrator 24.1.1, SVG Export Plug-In . SVG Version: 6.00 Build 0)  -->
<svg version="1.1" id="Layer_1" xmlns="http://www.w3.org/2000/svg" xmlns:xlink="http://www.w3.org/1999/xlink" x="0px" y="0px"
	 viewBox="0 0 63 30" style="enable-background:new 0 0 63 30;" xml:space="preserve">
<style type="text/css">
	.st0{fill:#040005;}
	.st1{fill:#518532;stroke:#040005;stroke-miterlimit:10;}
</style>
<g>
	<path class="st0" d="M63,23.09v-0.31c-5.59,3.77-15.38,6.46-26.85,7.08C47.42,29.26,57.12,26.7,63,23.09z"/>
	<path class="st0" d="M0,23.67c5.98,3.32,15.3,5.65,26.03,6.2C15.14,29.29,5.75,26.86,0,23.41V23.67z"/>
	<path class="st0" d="M49.92,2h-5.45C52.29,3.2,58.82,5.41,63,8.22V6.91C59.71,4.89,55.21,3.2,49.92,2z"/>
	<path class="st0" d="M12.06,2C7.29,3.09,3.17,4.57,0,6.33v1.26C4.18,5.08,10.29,3.11,17.5,2H12.06z"/>
	<path class="st0" d="M17.5,2C10.29,3.11,4.18,5.08,0,7.59v15.82c5.75,3.45,15.14,5.88,26.03,6.46c0.12,0.01,0.25,0.01,0.37,0.02
		c0.6,0.03,1.2,0.05,1.81,0.07c0.18,0.01,0.36,0.01,0.54,0.02C29.5,29.99,30.25,30,31,30c0.79,0,1.56-0.01,2.34-0.03
		c0.18,0,0.37-0.01,0.55-0.02c0.66-0.02,1.32-0.05,1.97-0.08c0.1,0,0.2-0.01,0.29-0.01c11.48-0.63,21.26-3.32,26.85-7.08V8.22
		C58.82,5.41,52.29,3.2,44.47,2H17.5z"/>
</g>
<ellipse class="st1" cx="31.5" cy="6.5" rx="31" ry="6"/>
</svg>
