<?xml version="1.0" encoding="utf-8"?>
<!-- Generator: Adobe Illustrator 24.1.1, SVG Export Plug-In . SVG Version: 6.00 Build 0)  -->
<svg version="1.1" id="Layer_1" xmlns="http://www.w3.org/2000/svg" xmlns:xlink="http://www.w3.org/1999/xlink" x="0px" y="0px"
	 viewBox="0 0 126 186" style="enable-background:new 0 0 126 186;" xml:space="preserve">
<style type="text/css">
	.st0{fill:#3E3E3E;}
	.st1{fill:none;}
</style>
<path class="st0" d="M86.87,19H41.13C39.96,19,39,18.04,39,16.87V8.13C39,6.96,39.96,6,41.13,6h45.73C88.04,6,89,6.96,89,8.13v8.73
	C89,18.04,88.04,19,86.87,19z"/>
<path class="st0" d="M114.63,32.5H13.38c-1.31,0-2.38-1.06-2.38-2.38V19.88c0-1.31,1.06-2.38,2.38-2.38h101.25
	c1.31,0,2.38,1.06,2.38,2.38v10.25C117,31.44,115.94,32.5,114.63,32.5z"/>
<line class="st1" x1="-19" y1="331" x2="55" y2="388"/>
<g>
	<path class="st0" d="M123,34.4c0-1.88-1.52-3.4-3.4-3.4H6.4C4.52,31,3,32.52,3,34.4v107L49.39,178h25.88L123,139.97V34.4z"/>
</g>
</svg>
