<?xml version="1.0" encoding="utf-8"?>
<!-- Generator: Adobe Illustrator 24.1.1, SVG Export Plug-In . SVG Version: 6.00 Build 0)  -->
<svg version="1.1" id="Layer_1" xmlns="http://www.w3.org/2000/svg" xmlns:xlink="http://www.w3.org/1999/xlink" x="0px" y="0px"
	 viewBox="0 0 88 95" style="enable-background:new 0 0 88 95;" xml:space="preserve">
<style type="text/css">
	.st0{fill:url(#SVGID_1_);}
	.st1{fill:url(#SVGID_2_);stroke:#E6E7E8;stroke-width:5;stroke-miterlimit:10;}
	.st2{fill:none;}
	.st3{fill:#E1E3E4;}
	.st4{fill:#2D313A;}
</style>
<linearGradient id="SVGID_1_" gradientUnits="userSpaceOnUse" x1="24.2851" y1="6.585" x2="62.4072" y2="88.3381">
	<stop  offset="0" style="stop-color:#58677A"/>
	<stop  offset="0.048" style="stop-color:#5D6677"/>
	<stop  offset="0.1302" style="stop-color:#5E636F"/>
	<stop  offset="0.2184" style="stop-color:#595C65"/>
	<stop  offset="0.3113" style="stop-color:#515359"/>
	<stop  offset="0.4102" style="stop-color:#46474B"/>
	<stop  offset="0.5174" style="stop-color:#3A393C"/>
	<stop  offset="0.637" style="stop-color:#232324"/>
	<stop  offset="0.7788" style="stop-color:#0B0B0B"/>
	<stop  offset="1" style="stop-color:#000000"/>
</linearGradient>
<ellipse class="st0" cx="43.35" cy="47.46" rx="43.35" ry="45.46"/>
<linearGradient id="SVGID_2_" gradientUnits="userSpaceOnUse" x1="27.9229" y1="14.2653" x2="58.6022" y2="80.0573">
	<stop  offset="0" style="stop-color:#58677A"/>
	<stop  offset="0.048" style="stop-color:#5D6677"/>
	<stop  offset="0.1302" style="stop-color:#5E636F"/>
	<stop  offset="0.2184" style="stop-color:#595C65"/>
	<stop  offset="0.3113" style="stop-color:#515359"/>
	<stop  offset="0.4102" style="stop-color:#46474B"/>
	<stop  offset="0.5174" style="stop-color:#3A393C"/>
	<stop  offset="0.637" style="stop-color:#232324"/>
	<stop  offset="0.7788" style="stop-color:#0B0B0B"/>
	<stop  offset="1" style="stop-color:#000000"/>
</linearGradient>
<circle class="st1" cx="43.26" cy="47.16" r="36.29"/>
<path class="st2" d="M80.93,72.08"/>
<polyline class="st2" points="83.03,88.92 98.15,80.62 94.92,72.08 83.03,73.46 "/>
<g>
	<g>
		<path d="M18.79,78.76l36.19-29.92L42.4,35.38c-0.08,0.06-0.18,0.11-0.26,0.17L7.36,64.31c-2.68,2.21-3.14,6.17-1.06,8.95
			l3.28,4.39C11.78,80.59,15.96,81.1,18.79,78.76z"/>
	</g>
	<g>
		<path d="M58.56,22.85L21.75,52.07l12.3,13.7c0.08-0.06,0.18-0.1,0.26-0.17l35.38-28.08c2.72-2.16,3.27-6.1,1.24-8.93l-3.19-4.45
			C65.61,21.16,61.44,20.57,58.56,22.85z"/>
	</g>
</g>
<g>
	<polygon class="st3" points="66.7,28.88 66.69,28.87 52.63,32.38 33.63,46.88 41.4,54.82 58.77,41.57 	"/>
	<path class="st4" d="M29.93,50.09L29.85,50c-0.05,0.04-0.1,0.07-0.15,0.11l-2.43,2.13l0.09,0.12L29.93,50.09z"/>
	<g>
		<path class="st4" d="M31.04,48.64l-0.1-0.13L10.72,65.45c-1.77,1.48-2.05,4.09-0.63,5.9l2.23,2.85c1.5,1.92,4.29,2.21,6.16,0.64
			l14.93-12.51l-7.26-9.6L31.04,48.64z"/>
		<polygon class="st4" points="41.57,53.95 37.51,56.65 33.06,51.14 30.99,54 33.06,51.14 31.04,48.64 26.15,52.74 33.41,62.34 
			42.41,54.8 		"/>
		<polygon class="st4" points="37.51,56.65 41.57,53.95 35.51,47.74 33.06,51.14 		"/>
		<polygon class="st4" points="31.04,48.64 33.06,51.14 35.51,47.74 33.99,46.17 		"/>
	</g>
</g>
</svg>
