<?xml version="1.0" encoding="UTF-8"?><svg id="Layer_2" xmlns="http://www.w3.org/2000/svg" viewBox="0 0 494.7 138.51"><g id="Layer_1-2"><path d="M65.9,33.71c3.6-2.1,9.8-7.8,11.6-8.9,1.7-1.1,7.1-5.3,9.2-7,2.1-1.6,7.5-4.8,8.8-5.6,2.3-1.2,4.8-2.2,7.2-2.9,1-.3,2-.6,2.9-1.1,1.3-2.9,.4-6.3-2.2-8.2-.3-.1-2.4,.9-2.4,.9,0,0-12,6.9-14.2,8.7s-4.1,4-7.1,6.5c-2.9,2.5-8.6,5.8-11.1,7.4-2.5,1.6-8.7,3.8-10.3,4.7-1.6,.9-6.2,3.5-7.1,4.1s-2.4,1.5-2.4,1.5l4.9,7c.1,.1,8.6-5,12.2-7.1Z"/><path d="M38.5,39.71h0c-1,.6-1.3,1.7-.7,2.6,0,.1,.1,.1,.1,.2l2.9,4.2c.6,.9,1.8,1.2,2.8,.7l.3-.2,.1,.1c5.2,9.3,5.4,17.1,5.4,17.1,15.3-3.8,20.9-12.6,20.9-12.6-4.6,.2-10.3-2-13.7-3.9-2-1.1-3.4-3-3.8-5.2l-6.7-9.5c-.2-.3-.5-.4-.8-.3l-7.6,4.7c-.2,.2-.3,.6-.1,.8h0l.9,1.3Z"/><path d="M19.4,71.41v11.2c4.1,3.3,17.1,6.5,31.7,6.5s27.7-3,32-6.3v-11.2c-4.3,3.2-17.5,6.3-32,6.3s-27.6-3.2-31.7-6.5Z"/><path d="M83.1,115.91v-11.2c-4.3,3.2-17.5,6.3-32,6.3s-27.7-3.2-31.7-6.5v11.2c4,3.3,17.1,6.5,31.8,6.5,14.4,0,27.7-3,31.9-6.3Z"/><path d="M51.1,127.61c-14.6,0-27.7-3.2-31.8-6.5v9c0,4.6,14.3,8.4,31.9,8.4s31.9-3.8,31.9-8.4v-8.8c-4.2,3.2-17.4,6.3-32,6.3Zm25.1,4.3l-1.5,.4c-1,.2-2-.5-2.2-1.5-.3-.9,.1-1.9,1-2.3h.1l1.5-.4c1-.2,2,.5,2.2,1.5,.3,.9-.1,1.9-1.1,2.3h0Z"/><path d="M8.2,98.21c1.1-.4,1.9-1.4,2-2.5,0-.7,0-1.5-.2-2.2,.1,0,.3-.1,.5-.2,.9-.2,1.7-.7,2.2-1.4,2.2,1.5,4.5,3.1,6.7,4.6v2.8c4.1,3.3,17.1,6.5,31.7,6.5s27.7-3.1,32-6.3v-11.2c-4.3,3.2-17.5,6.3-32,6.3s-27.7-3.2-31.7-6.5v2.9c-4-2.6-7.9-5.6-11.4-8.8,0,0-3.3,1.2-2.8,4.4,0,0,3.1,2.1,6.8,4.8-.5,.9-1.4,1.5-2.4,1.6-1-1.2-2.5-1.8-4.1-1.8-1.8,.2-3.3,1.2-4.2,2.7s-1.3,3.3-1.3,5c0,.8,.2,1.5,.3,2.3H.3c1.2-1.6,2.9-2.1,4.9-2.3,1.1-.1,2-.4,3-.7Z"/><path d="M51.1,72.51c17.6,0,32.1-3.8,32.1-8.1,0-2.9-6.3-5.3-15.7-6.6-5.7,4.6-12.5,7.8-19.7,9.3-.2-3.5-.8-7-2-10.3-15.1,.6-26.6,3.5-26.6,7.4,0,4.4,14.3,8.3,31.9,8.3Z"/><path d="M94.3,100.31v-34.3h6.7v27.5h25.9v6.8h-32.6Z"/><path d="M140.1,100.31c-1.6,0-3.2-.2-4.8-.6-1.2-.3-2.3-1-3.2-1.9s-1.5-2.1-1.8-3.3c-.4-1.6-.6-3.3-.6-5v-23.5h6.7v23.5c-.1,1.1,.2,2.2,.8,3.2,.7,.7,1.8,1.1,2.8,1h16.8c1,.1,2.1-.2,2.8-1,.6-.9,.9-2,.8-3.2v-23.5h6.7v23.5c0,1.7-.2,3.4-.6,5-.3,1.2-.9,2.4-1.8,3.3-.9,.9-2,1.6-3.2,1.9-1.6,.4-3.2,.6-4.8,.6h-16.6Z"/><path d="M205.3,100.31v-22.5l-10.8,22.5h-6.2l-10.9-22.5v22.5h-6.3v-34.3h7.4l12.8,27.5,12.9-27.5h7.2v34.3h-6.1Z"/><path d="M215.4,100.31v-34.3h27.4c1.5,0,3.1,.1,4.5,.4,1.1,.2,2.2,.7,3,1.4,.8,.7,1.4,1.7,1.7,2.7,.4,1.4,.5,2.8,.5,4.2v2.1c0,3.3-1.5,5.1-4.5,5.6,1.4,.2,2.8,.8,3.8,1.8s1.5,2.5,1.5,4.6v2.2c0,1.5-.2,3-.6,4.4-.3,1.1-1,2.1-1.9,2.8-1,.7-2.1,1.3-3.3,1.5-1.6,.3-3.2,.4-4.7,.4l-27.4,.2Zm30.4-24.6c.1-.8-.2-1.6-.7-2.3-.7-.5-1.5-.7-2.3-.7h-20.6v7.4h20.7c.8,.1,1.7-.2,2.3-.7,.5-.7,.8-1.6,.7-2.5l-.1-1.2Zm.8,13.4c.1-.9-.2-1.9-.7-2.7-.5-.5-1.4-.8-2.8-.8h-20.9v7.9h20.6c1.5,0,2.5-.2,3-.7,.6-.7,.9-1.6,.8-2.5v-1.2Z"/><path d="M256.6,100.31v-34.3h33v6.8h-26.2v7.5h25.5v5.5h-25.5v7.7h26.3v6.7l-33.1,.1Z"/><path d="M323.4,100.31l-11.9-11.2h-10.8v11.2h-6.8v-34.3h28.1c1.6,0,3.1,.2,4.6,.6,1.2,.3,2.2,.9,3.1,1.8,.8,1,1.4,2.1,1.7,3.3,.4,1.6,.6,3.3,.5,4.9v2.1c0,1.7-.2,3.5-.6,5.1-.4,1.2-1.1,2.3-2,3.1-1,.8-2.3,1.4-3.6,1.6-1.8,.3-3.6,.5-5.4,.4l12.7,11.3-9.6,.1Zm1.7-22.5c.1-1.3-.1-2.5-.6-3.7-.4-.8-1.3-1.2-2.8-1.2h-21v10.6h21.1c.9,.1,1.9-.2,2.6-.9,.6-.9,.9-2,.8-3.1l-.1-1.7Z"/><path d="M336.1,100.31v-6.7h19.6c1.4,0,2.4-.3,2.9-.9,.6-.9,.9-2.1,.8-3.2v-23.5h6.7v23.5c0,1.7-.1,3.5-.5,5.2-.3,1.2-.8,2.4-1.7,3.3-.9,.9-2,1.5-3.2,1.8-1.6,.4-3.3,.6-5,.6l-19.6-.1Z"/><path d="M403.5,100.31l-4.3-8h-20.7l-4.3,8h-7.7l18.8-34.3h7l18.8,34.3h-7.6Zm-14.7-27.7l-7.8,14.2h15.6l-7.8-14.2Z"/><path d="M422.4,100.31c-1.7,0-3.5-.1-5.1-.6-1.2-.3-2.4-.9-3.3-1.8-.9-1-1.5-2.1-1.8-3.4-.4-1.8-.6-3.5-.5-5.3v-12.1c0-1.8,.1-3.6,.5-5.3,.3-1.3,.9-2.5,1.8-3.4s2-1.5,3.3-1.8c1.7-.4,3.4-.6,5.1-.5h19.3c1.1,0,2.3,.2,3.3,.5,.9,.3,1.7,.7,2.4,1.3,.6,.5,1.2,1,1.6,1.7,.3,.5,.6,1,.9,1.6l-4.3,4.4c-.3-.7-.8-1.3-1.5-1.8-.9-.6-1.9-.9-2.9-.8h-18.8c-1.5,0-2.5,.3-3.1,1-.6,.6-.9,1.8-.9,3.4v12.1c0,.6,0,1.3,.2,1.9,.1,.5,.3,.9,.6,1.3,.3,.4,.7,.7,1.2,.8,.7,.2,1.4,.3,2.1,.3h19c1,.1,2.1-.2,2.9-.8,.6-.5,1.1-1.1,1.4-1.8l4.3,4.3c-.2,.6-.6,1.1-.9,1.6-.4,.6-1,1.2-1.6,1.7-.7,.6-1.6,1-2.4,1.3-1.1,.4-2.2,.5-3.3,.5l-19.5-.3Z"/><path d="M484.9,100.31l-13.5-13.5-10.3,9.3v4.2h-6.8v-34.3h6.8v21.7l23.9-21.7h9.7l-18.6,16.7,18.5,17.7-9.7-.1Z"/><g><path d="M103.6,113.41h2.8l6.7,18.4h-2.7l-1.9-5.5h-7.3l-2,5.5h-2.6l7-18.4Zm4.1,10.8l-2.8-8.1-3,8.1h5.8Z"/><path d="M121.4,113.41h8.3c1.6,0,2.9,.5,4,1.4,1,.9,1.5,2.2,1.5,3.9,0,1.4-.4,2.7-1.3,3.8-.9,1.1-2.3,1.6-4.1,1.6h-5.8v7.8h-2.6v-18.5Zm9.7,2.5c-.5-.3-1.3-.4-2.3-.4h-4.9v6.4h4.9c1.1,0,2-.2,2.7-.7s1-1.3,1-2.5c.1-1.4-.4-2.3-1.4-2.8Z"/><path d="M145.2,113.41h8.3c1.6,0,2.9,.5,4,1.4,1,.9,1.5,2.2,1.5,3.9,0,1.4-.4,2.7-1.3,3.8-.9,1.1-2.3,1.6-4.1,1.6h-5.8v7.8h-2.5v-18.5h-.1Zm9.7,2.5c-.5-.3-1.3-.4-2.3-.4h-4.9v6.4h4.9c1.1,0,2-.2,2.7-.7s1-1.3,1-2.5c.1-1.4-.4-2.3-1.4-2.8Z"/><path d="M168.8,113.41h2.5v16.2h9.3v2.2h-11.8v-18.4Z"/><path d="M189.9,113.41h2.5v18.4h-2.5v-18.4Z"/><path d="M216.7,114.71c1.3,1.2,2,2.6,2.1,4.2h-2.4c-.3-1.2-.8-2.1-1.6-2.8-.8-.7-1.9-1-3.4-1-1.8,0-3.2,.6-4.3,1.9-1.1,1.3-1.6,3.2-1.6,5.9,0,2.2,.5,3.9,1.5,5.3,1,1.3,2.5,2,4.4,2,1.8,0,3.2-.7,4.1-2.1,.5-.7,.9-1.7,1.1-2.9h2.4c-.2,1.9-.9,3.6-2.1,4.9-1.4,1.6-3.4,2.4-5.9,2.4-2.1,0-3.9-.6-5.3-1.9-1.9-1.7-2.8-4.4-2.8-8,0-2.7,.7-5,2.1-6.7,1.5-1.9,3.7-2.8,6.4-2.8,2.2-.3,4,.4,5.3,1.6Z"/><path d="M233.3,113.41h2.8l6.7,18.4h-2.7l-1.9-5.5h-7.3l-2,5.5h-2.6l7-18.4Zm4.1,10.8l-2.8-8.1-3,8.1h5.8Z"/><path d="M263.8,113.41v2.2h-6.2v16.2h-2.5v-16.2h-6.2v-2.2s14.9,0,14.9,0Z"/><path d="M273.3,113.41h2.5v18.4h-2.5v-18.4Z"/><path d="M302.2,116.01c1.2,1.6,1.8,3.7,1.8,6.3,0,2.8-.7,5-2.1,6.9-1.6,2.1-4,3.2-7,3.2-2.8,0-5.1-.9-6.7-2.8-1.4-1.8-2.2-4.1-2.2-6.9,0-2.5,.6-4.6,1.9-6.4,1.6-2.3,3.9-3.4,7.1-3.4,3.3-.1,5.7,1,7.2,3.1Zm-2.2,11.7c1-1.6,1.5-3.4,1.5-5.4,0-2.2-.6-3.9-1.7-5.2s-2.7-2-4.7-2-3.5,.7-4.7,2-1.8,3.2-1.8,5.8c0,2,.5,3.8,1.6,5.2,1,1.4,2.7,2.1,5,2.1,2.3-.1,3.8-.9,4.8-2.5Z"/><path d="M314.2,113.41h2.9l9.2,14.9v-14.9h2.4v18.4h-2.8l-9.3-14.9v14.9h-2.4v-18.4h0Z"/><path d="M355.8,125.81c.1,1,.3,1.9,.7,2.5,.8,1.2,2.2,1.8,4.2,1.8,.9,0,1.7-.1,2.5-.4,1.4-.5,2.2-1.4,2.2-2.8,0-1-.3-1.7-.9-2.1-.6-.4-1.6-.8-2.9-1.1l-2.4-.6c-1.6-.4-2.7-.8-3.4-1.2-1.1-.8-1.7-1.9-1.7-3.5,0-1.7,.6-3,1.7-4.1s2.7-1.6,4.7-1.6,3.5,.5,4.8,1.4,2,2.4,2,4.5h-2.3c-.1-1-.4-1.7-.8-2.3-.7-1-2-1.4-3.7-1.4-1.4,0-2.4,.3-3,.9-.6,.6-.9,1.3-.9,2.2s.4,1.6,1.1,2c.5,.3,1.6,.6,3.2,1l2.5,.6c1.2,.3,2.1,.7,2.8,1.2,1.1,.9,1.7,2.1,1.7,3.8,0,2-.7,3.5-2.2,4.4-1.4,.9-3.1,1.3-5.1,1.3-2.2,0-4-.6-5.3-1.8s-1.9-2.7-1.9-4.7h2.4Z"/><path d="M376.6,113.41h2.9l5.3,8.9,5.3-8.9h2.9l-7,11v7.4h-2.5v-7.4l-6.9-11Z"/><path d="M403.5,125.81c.1,1,.3,1.9,.7,2.5,.8,1.2,2.2,1.8,4.2,1.8,.9,0,1.7-.1,2.5-.4,1.4-.5,2.2-1.4,2.2-2.8,0-1-.3-1.7-.9-2.1-.6-.4-1.6-.8-2.9-1.1l-2.4-.6c-1.6-.4-2.7-.8-3.4-1.2-1.1-.8-1.7-1.9-1.7-3.5,0-1.7,.6-3,1.7-4.1s2.7-1.6,4.7-1.6,3.5,.5,4.8,1.4,2,2.4,2,4.5h-2.3c-.1-1-.4-1.7-.8-2.3-.7-1-2-1.4-3.7-1.4-1.4,0-2.4,.3-3,.9-.6,.6-.9,1.3-.9,2.2s.4,1.6,1.1,2c.5,.3,1.6,.6,3.2,1l2.5,.6c1.2,.3,2.1,.7,2.8,1.2,1.1,.9,1.7,2.1,1.7,3.8,0,2-.7,3.5-2.2,4.4-1.4,.9-3.1,1.3-5.1,1.3-2.2,0-4-.6-5.3-1.8s-1.9-2.7-1.9-4.7h2.4Z"/><path d="M439.1,113.41v2.2h-6.2v16.2h-2.5v-16.2h-6.2v-2.2s14.9,0,14.9,0Z"/><path d="M448.3,113.41h13.4v2.3h-10.9v5.6h10.1v2.1h-10.1v6.3h11.1v2.2h-13.6v-18.5Z"/><path d="M472.3,113.41h3.6l5.3,15.6,5.3-15.6h3.6v18.4h-2.4v-15.6l-5.3,15.6h-2.5l-5.3-15.6v15.6h-2.4v-18.4h.1Z"/></g></g></svg>