<?xml version="1.0" encoding="UTF-8"?><svg id="Layer_2" xmlns="http://www.w3.org/2000/svg" viewBox="0 0 106.19 138.51"><g id="Layer_1-2"><path d="M65.9,33.71c3.6-2.1,9.8-7.8,11.6-8.9,1.7-1.1,7.1-5.3,9.2-7,2.1-1.6,7.5-4.8,8.8-5.6,2.3-1.2,4.8-2.2,7.2-2.9,1-.3,2-.6,2.9-1.1,1.3-2.9,.4-6.3-2.2-8.2-.3-.1-2.4,.9-2.4,.9,0,0-12,6.9-14.2,8.7s-4.1,4-7.1,6.5c-2.9,2.5-8.6,5.8-11.1,7.4-2.5,1.6-8.7,3.8-10.3,4.7-1.6,.9-6.2,3.5-7.1,4.1s-2.4,1.5-2.4,1.5l4.9,7c.1,.1,8.6-5,12.2-7.1Z"/><path d="M38.5,39.71h0c-1,.6-1.3,1.7-.7,2.6,0,.1,.1,.1,.1,.2l2.9,4.2c.6,.9,1.8,1.2,2.8,.7l.3-.2,.1,.1c5.2,9.3,5.4,17.1,5.4,17.1,15.3-3.8,20.9-12.6,20.9-12.6-4.6,.2-10.3-2-13.7-3.9-2-1.1-3.4-3-3.8-5.2l-6.7-9.5c-.2-.3-.5-.4-.8-.3l-7.6,4.7c-.2,.2-.3,.6-.1,.8h0l.9,1.3Z"/><path d="M19.4,71.41v11.2c4.1,3.3,17.1,6.5,31.7,6.5s27.7-3,32-6.3v-11.2c-4.3,3.2-17.5,6.3-32,6.3s-27.6-3.2-31.7-6.5Z"/><path d="M83.1,115.91v-11.2c-4.3,3.2-17.5,6.3-32,6.3s-27.7-3.2-31.7-6.5v11.2c4,3.3,17.1,6.5,31.8,6.5,14.4,0,27.7-3,31.9-6.3Z"/><path d="M51.1,127.61c-14.6,0-27.7-3.2-31.8-6.5v9c0,4.6,14.3,8.4,31.9,8.4s31.9-3.8,31.9-8.4v-8.8c-4.2,3.2-17.4,6.3-32,6.3Zm25.1,4.3l-1.5,.4c-1,.2-2-.5-2.2-1.5-.3-.9,.1-1.9,1-2.3h.1l1.5-.4c1-.2,2,.5,2.2,1.5,.3,.9-.1,1.9-1.1,2.3h0Z"/><path d="M8.2,98.21c1.1-.4,1.9-1.4,2-2.5,0-.7,0-1.5-.2-2.2,.1,0,.3-.1,.5-.2,.9-.2,1.7-.7,2.2-1.4,2.2,1.5,4.5,3.1,6.7,4.6v2.8c4.1,3.3,17.1,6.5,31.7,6.5s27.7-3.1,32-6.3v-11.2c-4.3,3.2-17.5,6.3-32,6.3s-27.7-3.2-31.7-6.5v2.9c-4-2.6-7.9-5.6-11.4-8.8,0,0-3.3,1.2-2.8,4.4,0,0,3.1,2.1,6.8,4.8-.5,.9-1.4,1.5-2.4,1.6-1-1.2-2.5-1.8-4.1-1.8-1.8,.2-3.3,1.2-4.2,2.7s-1.3,3.3-1.3,5c0,.8,.2,1.5,.3,2.3H.3c1.2-1.6,2.9-2.1,4.9-2.3,1.1-.1,2-.4,3-.7Z"/><path d="M51.1,72.51c17.6,0,32.1-3.8,32.1-8.1,0-2.9-6.3-5.3-15.7-6.6-5.7,4.6-12.5,7.8-19.7,9.3-.2-3.5-.8-7-2-10.3-15.1,.6-26.6,3.5-26.6,7.4,0,4.4,14.3,8.3,31.9,8.3Z"/></g></svg>