<?xml version="1.0" encoding="UTF-8"?><svg id="Layer_2" xmlns="http://www.w3.org/2000/svg" viewBox="0 0 107 107.1"><defs><style>.cls-1{fill:#3f87e0;}</style></defs><g id="Layer_1-2"><path class="cls-1" d="M95.5,0H11.5C5.2,0,0,5.1,0,11.5V95.6c0,6.3,5.2,11.5,11.5,11.5H95.5c6.3,0,11.5-5.2,11.5-11.5V11.6c0-6.4-5.1-11.6-11.5-11.6ZM38.9,99.7h-11.4V53.9h0v-.4c0-14.4,11.6-26.2,26.1-26.2s26.2,11.6,26.2,26.1-11.7,26-26.1,26.1c-3.6,0-7.2-.7-10.6-2.2v-13.6c5.7,5.7,14.9,5.8,20.7,.1,5.7-5.7,5.8-14.9,.1-20.7s-14.9-5.8-20.7-.1c-2.8,2.8-4.3,6.5-4.3,10.4v.1h0v46.2Zm21.1-4.7c-5.3,.8-10.8,.6-16-.6-.7-.2-.9-.4-.9-1.1v-9.8c2.1,.4,4.1,1,6.2,1.3,17.3,2.4,33.3-9.6,35.7-26.9s-9.7-33.4-27-35.8S24.7,31.7,22.3,49v.1c-.2,1.5-.3,2.9-.3,4.4v27.5c-.3-.4-.5-.6-.7-.8-9.9-12.5-12.5-26.5-7-41.4S30.8,14.8,46.6,12c22.9-3.7,44.5,11.9,48.2,34.8,3.7,22.9-11.9,44.5-34.8,48.2h0Z"/></g></svg>