<svg xmlns="http://www.w3.org/2000/svg" viewBox="0 0 26.98 21.31"><defs><style>.cls-1{fill:#fff;}.cls-2{fill:none;stroke:#010101;stroke-miterlimit:10;}</style></defs><g id="Layer_2" data-name="Layer 2"><g id="Layer_1-2" data-name="Layer 1"><path class="cls-1" d="M20.16,7.34H11.74a4.68,4.68,0,0,1,8.42,0Z"/><polygon class="cls-1" points="15.95 15.24 5.42 20.5 5.42 9.98 15.95 15.24"/><polygon class="cls-1" points="26.48 9.98 26.48 20.5 15.95 15.24 26.48 9.98"/><polyline class="cls-2" points="15.95 4.71 15.95 0.5 1.21 0.5 15.95 15.24"/><path class="cls-2" d="M16,4.71a4.72,4.72,0,0,0-4.21,2.63h8.42A4.69,4.69,0,0,0,16,4.71Z"/><line class="cls-2" x1="15.95" y1="15.24" x2="15.95" y2="7.34"/><polygon class="cls-2" points="15.95 15.24 26.48 20.5 26.48 9.98 15.95 15.24"/><polygon class="cls-2" points="5.42 20.5 5.42 9.98 15.95 15.24 5.42 20.5"/></g></g></svg>