<svg xmlns="http://www.w3.org/2000/svg" viewBox="0 0 18.3 13.96"><defs><style>.cls-1{fill:#fff;}.cls-2{fill:none;stroke:#010101;stroke-miterlimit:10;}</style></defs><g id="Layer_2" data-name="Layer 2"><g id="Layer_1-2" data-name="Layer 1"><path class="cls-1" d="M5.78,2.62a3.79,3.79,0,0,1,6.8,0H5.78Z"/><path class="cls-1" d="M10.68,8a1.65,1.65,0,0,1,.19.76A1.69,1.69,0,1,1,9.18,7.09,1.66,1.66,0,0,1,10.68,8Z"/><path class="cls-2" d="M5.78,2.62h6.8a3.79,3.79,0,0,0-6.8,0Z"/><line class="cls-2" x1="9.18" y1="7" x2="9.18" y2="2.62"/><path class="cls-2" d="M10.87,8.77A1.7,1.7,0,0,0,9.18,7.09a1.69,1.69,0,1,0,1.69,1.68Z"/><path class="cls-2" d="M10.65,8l0,0,7.12-3.2v8.34"/><path class="cls-2" d="M.5,4.81v8.34L7.69,9.57"/></g></g></svg>