<svg xmlns="http://www.w3.org/2000/svg" viewBox="0 0 21.64 316.84"><defs><style>.cls-1,.cls-2{fill:#fdfefe;}.cls-1{stroke:#010101;}.cls-1,.cls-2,.cls-3{stroke-miterlimit:10;}.cls-2,.cls-3{stroke:#020404;}.cls-3{fill:none;}</style></defs><g id="Layer_2" data-name="Layer 2"><g id="Layer_1-2" data-name="Layer 1"><path class="cls-1" d="M21.14,6.07S18.89.5,10.82.5C2.47.5.5,6.07.5,6.07V312.39a16,16,0,0,0,10.32,3.95,16.94,16.94,0,0,0,10.32-3.95Z"/><line class="cls-1" x1="0.5" y1="311.39" x2="21.14" y2="311.39"/><line class="cls-1" x1="0.5" y1="6.56" x2="21.14" y2="6.56"/><rect class="cls-2" x="-2.5" y="14.74" width="26.63" height="20.57" transform="translate(-14.21 35.84) rotate(-90)"/><line class="cls-3" x1="0.53" y1="38.34" x2="21.1" y2="11.71"/><line class="cls-3" x1="21.1" y1="38.34" x2="0.53" y2="11.71"/><rect class="cls-2" x="-2.5" y="48.39" width="26.63" height="20.57" transform="translate(-47.85 69.49) rotate(-90)"/><line class="cls-3" x1="0.53" y1="71.99" x2="21.1" y2="45.36"/><line class="cls-3" x1="21.1" y1="71.99" x2="0.53" y2="45.36"/><rect class="cls-2" x="-2.5" y="86.46" width="26.63" height="20.57" transform="translate(-85.93 107.56) rotate(-90)"/><line class="cls-3" x1="0.53" y1="110.06" x2="21.1" y2="83.43"/><line class="cls-3" x1="21.1" y1="110.06" x2="0.53" y2="83.43"/><rect class="cls-2" x="-25.63" y="148.49" width="72.9" height="20.57" transform="translate(-147.95 169.59) rotate(-90)"/><line class="cls-3" x1="0.53" y1="195.23" x2="21.1" y2="122.32"/><line class="cls-3" x1="21.1" y1="195.23" x2="0.53" y2="122.32"/><rect class="cls-2" x="-0.33" y="253.14" width="22.3" height="20.57" transform="translate(-252.6 274.24) rotate(-90)"/><line class="cls-3" x1="0.53" y1="274.57" x2="21.1" y2="252.27"/><line class="cls-3" x1="21.1" y1="274.57" x2="0.53" y2="252.27"/></g></g></svg>