<svg xmlns="http://www.w3.org/2000/svg" viewBox="0 0 22.58 20.03"><defs><style>.cls-1{fill:#fdfefe;}.cls-2,.cls-3{fill:none;stroke:#010101;stroke-miterlimit:10;}.cls-3{stroke-dasharray:1.5;}</style></defs><g id="Layer_2" data-name="Layer 2"><g id="Layer_1-2" data-name="Layer 1"><polygon class="cls-1" points="1.86 2.01 1.86 4.41 1.86 10.01 1.86 15.62 1.86 18.01 1.86 19.53 0.5 19.53 0.5 0.5 1.86 0.5 1.86 2.01"/><polygon class="cls-1" points="1.86 4.41 1.86 2.01 20.73 2.01 20.73 4.41 20.49 4.41 19.1 4.41 12.52 9.2 11.3 9.94 3.72 4.41 1.86 4.41"/><polygon class="cls-1" points="20.49 4.41 20.73 4.41 20.73 10.01 11.42 10.01 12.52 9.2 20.49 4.41"/><polygon class="cls-1" points="19.1 4.41 20.49 4.41 12.52 9.2 19.1 4.41"/><polygon class="cls-1" points="1.86 4.41 3.72 4.41 11.3 9.94 11.18 10.01 11.17 10.01 1.86 4.41"/><polygon class="cls-1" points="1.86 4.41 11.17 10.01 1.86 10.01 1.86 4.41"/><polygon class="cls-1" points="12.52 9.2 11.42 10.01 11.41 10.01 11.4 10.01 11.3 9.94 12.52 9.2"/><polygon class="cls-1" points="11.3 9.94 11.4 10.01 11.18 10.01 11.3 9.94"/><polygon class="cls-1" points="11.42 10.01 20.73 10.01 20.73 15.62 20.49 15.62 12.52 10.83 11.41 10.01 11.42 10.01"/><polygon class="cls-1" points="11.4 10.01 11.41 10.01 11.3 10.09 11.18 10.01 11.4 10.01"/><polygon class="cls-1" points="11.17 10.01 11.18 10.01 1.86 15.62 1.86 10.01 11.17 10.01"/><polygon class="cls-1" points="11.18 10.01 11.3 10.09 3.72 15.62 1.86 15.62 11.18 10.01"/><polygon class="cls-1" points="11.41 10.01 12.52 10.83 11.3 10.09 11.41 10.01"/><polygon class="cls-1" points="19.1 15.62 12.52 10.83 20.49 15.62 19.1 15.62"/><polygon class="cls-1" points="20.73 18.01 1.86 18.01 1.86 15.62 3.72 15.62 11.3 10.09 12.52 10.83 19.1 15.62 20.49 15.62 20.73 15.62 20.73 18.01"/><polygon class="cls-1" points="20.73 18.01 20.73 15.62 20.73 10.01 20.73 4.41 20.73 2.01 20.73 0.5 22.08 0.5 22.08 19.53 20.73 19.53 20.73 18.01"/><polygon class="cls-2" points="20.73 2.01 20.73 0.5 22.08 0.5 22.08 19.53 20.73 19.53 20.73 18.01 20.73 15.62 20.73 10.01 20.73 4.41 20.73 2.01"/><polygon class="cls-2" points="1.86 18.01 1.86 19.53 0.5 19.53 0.5 0.5 1.86 0.5 1.86 2.01 1.86 4.41 1.86 10.01 1.86 15.62 1.86 18.01"/><line class="cls-2" x1="11.42" y1="10.01" x2="20.73" y2="10.01"/><line class="cls-2" x1="1.86" y1="10.01" x2="11.17" y2="10.01"/><line class="cls-2" x1="1.86" y1="18.01" x2="20.73" y2="18.01"/><line class="cls-2" x1="1.86" y1="2.01" x2="20.73" y2="2.01"/><polyline class="cls-3" points="11.41 10.01 11.42 10.01 12.52 9.2 19.1 4.41 20.49 4.41"/><polyline class="cls-3" points="1.86 15.62 3.72 15.62 11.3 10.09"/><polyline class="cls-3" points="1.86 4.41 3.72 4.41 11.3 9.94 11.4 10.01 11.41 10.01 12.52 10.83 19.1 15.62 20.49 15.62"/></g></g></svg>