<svg xmlns="http://www.w3.org/2000/svg" viewBox="0 0 73.15 26.61"><defs><style>.cls-1{fill:#fff;stroke:#000;}.cls-1,.cls-2{stroke-miterlimit:10;}.cls-2{fill:none;stroke:#010101;}</style></defs><g id="Layer_2" data-name="Layer 2"><g id="Layer_1-2" data-name="Layer 1"><rect class="cls-1" x="0.5" y="0.5" width="72.15" height="25.61"/><polyline class="cls-2" points="9.89 0.37 9.93 2.33 8.2 4.52 11.59 8.8 8.2 13.07 11.59 17.35 8.2 21.27 9.88 24 9.89 26.11"/><polyline class="cls-2" points="28.39 0.37 28.43 2.33 26.7 4.52 30.08 8.8 26.7 13.07 30.08 17.35 26.7 21.27 28.37 24 28.39 26.11"/><polyline class="cls-2" points="46.61 0.37 46.64 2.33 44.91 4.52 48.3 8.8 44.91 13.07 48.3 17.35 44.91 21.27 46.59 24 46.61 26.11"/><polyline class="cls-2" points="63.74 0.71 63.77 2.68 62.05 4.86 65.43 9.14 62.05 13.42 65.43 17.7 62.05 21.62 63.72 24.34 63.74 26.45"/></g></g></svg>