<svg xmlns="http://www.w3.org/2000/svg" viewBox="0 0 31.09 170.52"><defs><style>.cls-1{fill:#fdfefe;stroke:#000;stroke-miterlimit:10;}</style></defs><g id="Layer_2" data-name="Layer 2"><g id="Layer_1-2" data-name="Layer 1"><path class="cls-1" d="M30.59,6.39c-4-6.93-9.39-5.83-15-5.83S4.48-.54.5,6.39v155.8c4,6.93,9.39,7.83,15.05,7.83s11.06-.9,15-7.83Z"/><path class="cls-1" d="M30.59,158.44v-30s-4.39-6.58-15-6.58c-10.87,0-15,6.58-15,6.58v30"/><line class="cls-1" x1="30.59" y1="162.44" x2="0.5" y2="162.44"/><line class="cls-1" x1="30.59" y1="54.69" x2="0.5" y2="54.69"/><line class="cls-1" x1="30.59" y1="6.62" x2="0.5" y2="6.62"/><path class="cls-1" d="M18,104.48v17.35H12.85V104.48a4.19,4.19,0,0,1,2.57-1A4.33,4.33,0,0,1,18,104.48Z"/></g></g></svg>