<svg xmlns="http://www.w3.org/2000/svg" viewBox="0 0 64.5 9.26"><defs><style>.cls-1{fill:#fff;}</style></defs><g id="Layer_2" data-name="Layer 2"><g id="Layer_1-2" data-name="Layer 1"><path d="M1.32,0H1A3.16,3.16,0,0,0,0,2.33a3.41,3.41,0,0,0,1.24,2.6,2.64,2.64,0,0,1,1,2,2.64,2.64,0,0,1-1,2c-.09.1-.16.19-.26.29H63.53a3.13,3.13,0,0,0,1-2.31,3.39,3.39,0,0,0-1.24-2.6,2.67,2.67,0,0,1-1-2,2.64,2.64,0,0,1,1-2c.08-.09.22-.18.3-.27l0,0H1.32Z"/><path d="M63.31,1H2.75A3,3,0,0,1,3,2.33a3.41,3.41,0,0,1-1.24,2.6,2.63,2.63,0,0,0-1,2,2.09,2.09,0,0,0,.42,1.31H61.74a3,3,0,0,1-.28-1.32A3.43,3.43,0,0,1,62.7,4.33a2.64,2.64,0,0,0,1-2A2.12,2.12,0,0,0,63.31,1ZM1.13,0h62.4a3.18,3.18,0,0,1,1,2.32,3.38,3.38,0,0,1-1.25,2.6,2.63,2.63,0,0,0-1,2,2.63,2.63,0,0,0,1,2c.1.1.17.19.26.29H1A3.13,3.13,0,0,1,0,6.94,3.43,3.43,0,0,1,1.24,4.33a2.64,2.64,0,0,0,1-2,2.64,2.64,0,0,0-1-2L1,0Z"/><path class="cls-1" d="M3,1H63.31a2.12,2.12,0,0,1,.42,1.32,2.64,2.64,0,0,1-1,2,3.43,3.43,0,0,0-1.24,2.61,3,3,0,0,0,.28,1.32H1.19A2.09,2.09,0,0,1,.77,7a2.63,2.63,0,0,1,1-2A3.41,3.41,0,0,0,3,2.33,3,3,0,0,0,2.75,1Z"/></g></g></svg>