<svg xmlns="http://www.w3.org/2000/svg" viewBox="0 0 9.26 64.5"><defs><style>.cls-1{fill:#fff;}</style></defs><g id="Layer_2" data-name="Layer 2"><g id="Layer_1-2" data-name="Layer 1"><path d="M9.26,1.32h0V1A3.13,3.13,0,0,0,6.94,0,3.43,3.43,0,0,0,4.33,1.24a2.64,2.64,0,0,1-2,1,2.64,2.64,0,0,1-2-1C.2,1.15.11,1.08,0,1v.16H0V62.42H0V63H0v.55a3.14,3.14,0,0,0,2.32,1,3.41,3.41,0,0,0,2.6-1.24,2.64,2.64,0,0,1,2-1,2.67,2.67,0,0,1,2,1c.08.08.17.22.26.3l0,0V63h0Z"/><path d="M8.26,63.31V2.75A3,3,0,0,1,6.93,3a3.41,3.41,0,0,1-2.6-1.24,2.63,2.63,0,0,0-2-1A2.09,2.09,0,0,0,1,1.19V61.74a3,3,0,0,1,1.32-.28A3.43,3.43,0,0,1,4.93,62.7a2.64,2.64,0,0,0,2,1A2.12,2.12,0,0,0,8.26,63.31Zm1-62.18V63h0v.55a3.18,3.18,0,0,1-2.32,1,3.38,3.38,0,0,1-2.6-1.25,2.63,2.63,0,0,0-2-1,2.63,2.63,0,0,0-2,1c-.1.1-.19.17-.29.26V1A3.13,3.13,0,0,1,2.32,0,3.43,3.43,0,0,1,4.93,1.24a2.64,2.64,0,0,0,2,1,2.64,2.64,0,0,0,2-1L9.26,1Z"/><path class="cls-1" d="M8.26,3V63.31a2.12,2.12,0,0,1-1.32.42,2.64,2.64,0,0,1-2-1,3.43,3.43,0,0,0-2.61-1.24A3,3,0,0,0,1,61.74V1.19A2.09,2.09,0,0,1,2.31.77a2.63,2.63,0,0,1,2,1A3.41,3.41,0,0,0,6.93,3a3,3,0,0,0,1.33-.28Z"/></g></g></svg>