<svg xmlns="http://www.w3.org/2000/svg" viewBox="0 0 19.82 17.04"><defs><style>.cls-1{fill:#fdfefe;}.cls-2{fill:none;stroke:#000;stroke-miterlimit:10;}</style></defs><g id="Layer_2" data-name="Layer 2"><g id="Layer_1-2" data-name="Layer 1"><path class="cls-1" d="M8.42.5h10.9V5.79H15.41s1.19,5.07-2.17,7.68L3.73,13.4A7.89,7.89,0,0,1,1.26,9.07C0,3.58,5.86.93,5.86.93A9.62,9.62,0,0,1,8.42.5Z"/><path class="cls-1" d="M1.08,16.54,3.73,13.4a7.58,7.58,0,0,0,8.5.71,5.62,5.62,0,0,0,1-.64l2.59,3.07Z"/><path class="cls-1" d="M13.24,13.47a5.62,5.62,0,0,1-1,.64,7.58,7.58,0,0,1-8.5-.71Z"/><path class="cls-2" d="M3.73,13.4,1.08,16.54H15.83l-2.59-3.07a5.62,5.62,0,0,1-1,.64A7.58,7.58,0,0,1,3.73,13.4Z"/><path class="cls-2" d="M13.24,13.47c3.36-2.61,2.17-7.68,2.17-7.68h3.91V.5H8.42A9.62,9.62,0,0,0,5.86.93S0,3.58,1.26,9.07A7.89,7.89,0,0,0,3.73,13.4"/></g></g></svg>