<svg xmlns="http://www.w3.org/2000/svg" viewBox="0 0 27.03 18.15"><defs><style>.cls-1{fill:#fff;}.cls-2{fill:#010101;}</style></defs><g id="Layer_2" data-name="Layer 2"><g id="Layer_1-2" data-name="Layer 1"><polygon class="cls-1" points="0.97 17.39 2.69 12.97 5.51 16.11 0.97 17.39"/><circle class="cls-1" cx="13.76" cy="8.95" r="8.45"/><path class="cls-2" d="M22.71,9a8.95,8.95,0,1,1-9-8.95A9,9,0,0,1,22.71,9ZM5.82,9A7.95,7.95,0,1,0,13.76,1,7.95,7.95,0,0,0,5.82,9Z"/><path class="cls-2" d="M27,.88,13.26,12.76V7.24l-8.07,7.6,1.42,1.65L0,18.15l3.06-5.88,1.48,1.8,9.72-9.14v5.65L26.38.12ZM1.91,16.63l2.88-.72-1-1.14h0l-.56-.69Z"/></g></g></svg>