<svg version="1.1" id="Layer_1" xmlns="http://www.w3.org/2000/svg" xmlns:xlink="http://www.w3.org/1999/xlink" x="0px" y="0px" viewBox="0 0 100 100" xml:space="preserve"><desc>Copyright Opto 22</desc> 
<g>
<g id="shape">
	<path fill="#DE6430" stroke="#000000" stroke-width="0.2176" d="M82.04,92.659V89.14v0.49l-0.077-23.654
		c1.113-0.589,1.716-1.218,1.716-1.873c0-0.639-0.577-1.255-1.64-1.831V37.498c0-0.171-0.027-0.341-0.077-0.509
		c1.113-0.589,1.716-1.218,1.716-1.873c0-0.639-0.577-1.255-1.64-1.831V8.385c1.063-0.5,1.64-1.033,1.64-1.587
		S83.102,5.71,82.04,5.21V5.1c0-2.688-14.224-4.868-31.77-4.868S18.499,2.411,18.499,5.1V5.21c-1.063,0.5-1.64,1.033-1.64,1.587
		s0.577,1.088,1.64,1.587v24.899c-1.063,0.577-1.64,1.192-1.64,1.831c0,0.655,0.604,1.285,1.716,1.873
		c-0.049,0.168-0.077,0.338-0.077,0.509v17.937v6.838c-1.063,0.577-1.64,1.192-1.64,1.831c0,0.655,0.604,1.285,1.716,1.873
		c-0.049,0.168-0.077,0.338-0.077,0.509v4.945v18.2v0.195v2.834l-0.08,0.186c0,4.08,14.242,7.387,31.811,7.387
		s31.811-3.307,31.811-7.387V92.659z"></path>
</g>
<g id="light">
	<path fill="#FF9264" d="M80.508,6.018c0.027-0.068,0.041-0.136,0.041-0.205h-0.164c-1.581-1.976-14.461-3.516-30.116-3.516
		s-28.535,1.54-30.116,3.516h-0.164c0,0.069,0.014,0.137,0.041,0.205c-0.027,0.068-0.041,0.136-0.041,0.205h0.164
		c1.581,1.976,14.461,3.516,30.116,3.516c15.655,0,28.535-1.54,30.116-3.516h0.164C80.549,6.154,80.535,6.086,80.508,6.018z"></path>
	<path fill="#FF9264" d="M20.153,10.575v24.603c1.346,1.682,10.883,3.047,23.347,3.417V13.296
		C32.313,12.988,23.357,11.937,20.153,10.575z"></path>
	<path fill="#FF9264" d="M20.153,63.994c1.346,1.682,10.883,3.047,23.347,3.417V41.849c-11.188-0.312-20.421-1.374-23.347-2.779
		V63.994z"></path>
	<path fill="#FF9264" d="M20.153,94.113c3.59,2.415,12.43,4.258,23.347,4.805v-27.91c-11.188-0.312-20.421-1.374-23.347-2.78V94.113
		z"></path>
</g>
<g id="shadow">
	<path fill="#1A1A1A" d="M81.618,9.984c-4.709,1.953-16.968,2.935-31.349,2.935c-14.835,0-27.411-1.755-31.772-3.805V8.385
		c4.361,2.05,16.937,3.531,31.772,3.531c14.381,0,26.64-1.392,31.349-3.345V9.984z"></path>
	<path fill="#1A1A1A" d="M81.618,38.702c-4.709,1.953-16.968,2.935-31.349,2.935c-14.835,0-27.411-1.755-31.772-3.805v-0.729
		c4.361,2.05,16.937,3.531,31.772,3.531c14.381,0,26.64-1.392,31.349-3.345V38.702z"></path>
	<path fill="#1A1A1A" d="M81.618,67.69c-4.709,1.953-16.968,2.935-31.349,2.935c-14.835,0-27.411-1.755-31.772-3.805v-0.729
		c4.361,2.05,16.937,3.531,31.772,3.531c14.381,0,26.64-1.392,31.349-3.345V67.69z"></path>
	<path fill="#1A1A1A" d="M82.04,8.385c-2.882,1.942-12.97,2.977-12.97,2.977s1.936,0.364,1.936,1.458s0.114,2.915,0.114,3.644
		s0.319,5.284,0.273,6.559c-0.05,1.387,0.319,11.094,0.319,12.005s-0.159,3.006-0.159,3.006s9.725-0.979,10.454-3.895L82.04,8.385z"></path>
	<path fill="#1A1A1A" d="M82.04,37.482c-2.882,1.942-12.97,2.977-12.97,2.977s1.936,0.364,1.936,1.458s0.114,2.915,0.114,3.644
		s0.319,5.284,0.273,6.559c-0.05,1.387,0.319,11.094,0.319,12.005c0,0.911-0.159,3.006-0.159,3.006s9.725-0.979,10.454-3.895
		L82.04,37.482z"></path>
	<path fill="#1A1A1A" d="M82.04,67.085c-2.882,1.942-12.97,2.977-12.97,2.977s1.936,0.364,1.936,1.458s0.475,5.835,0.615,7.509
		c0.182,2.186-0.091,5.855-0.091,6.402s0.182,2.817,0.182,3.728s-0.159,8.054-0.159,8.054s9.725-1.914,10.454-4.829L82.04,67.085z"></path>
</g>
<g id="hlight">
	<path fill="#FFFFFF" d="M80.193,4.078c-4.08-2.331-15.613-3.005-21.943-3.2v1.136c2.923,0.05,7.122,0.27,12.204,0.957
		c5.056,0.683,7.539,1.394,8.758,1.933C80.43,5.444,80.193,4.078,80.193,4.078z"></path>
	<path fill="#FFFFFF" d="M20.153,6.223L19.049,7.59c1.404,1.693,11.409,3.065,24.451,3.423V9.64
		C31.036,9.271,21.499,7.905,20.153,6.223z"></path>
	<path fill="#FFFFFF" d="M20.153,35.463l-0.82,1.435c1.348,1.684,11.503,3.001,24.167,3.354V38.88
		C31.036,38.511,21.499,37.145,20.153,35.463z"></path>
	<path fill="#FFFFFF" d="M20.153,64.451l-0.82,1.435c1.348,1.684,11.503,3.001,24.167,3.354v-1.372
		C31.036,67.499,21.499,66.133,20.153,64.451z"></path>
</g>
</g>
</svg>