<svg version="1.1" id="Layer_1" xmlns="http://www.w3.org/2000/svg" xmlns:xlink="http://www.w3.org/1999/xlink" x="0px" y="0px" viewBox="0 0 100 100" xml:space="preserve"><desc>Copyright Opto 22</desc> 
<g id="frame">
	<g id="frame_1_">
		<rect fill="none" width="100" height="100"></rect>
	</g>
</g>
<g id="shape">
	<path fill="#E6E6E6" d="M32.056,0.737l-1.239,2.148v3.333l6.82,9.996V37.52l-5.783,5.579v2.124L0.487,61.029
		c0,7.084,0.229,12.827,0.512,12.827l32.272-9.601c-0.043,0-0.085-0.104-0.125-0.279c0.435,0.409,1.041,0.617,1.661,0.519
		l45.537-7.153c7.721-1.206,13.412-7.856,13.412-15.671V15.47L99.75,4.731V0.737H32.056z"></path>
</g>
<g id="radial">
</g>
<g id="linear">
</g>
<g id="light">
	<polygon fill="#187AA0" points="37.051,15.355 33.225,9.749 33.225,41.775 37.051,38.085 	"></polygon>
	<path fill="#187AA0" d="M93.849,15.305v48.292H40.517l-5.71,0.897c-0.582,0.091-1.154-0.083-1.582-0.442v32.246l1.078,0.749h2.747
		V66.83h56.798v29.384l1.02,0.832h2.805V66.83v-3.233V9.965V8.451L93.849,15.305z"></path>
	<path fill="#187AA0" d="M96.16,6.482H36.569l-1.032,0.832v91.028l1.032,0.749h2.793V68.108H96.16v30.172l1.02,0.813h2.805V68.108
		v-3.315V9.798V6.482H96.16z M96.16,64.793H39.362V9.798H96.16V64.793z"></path>
</g>
<g id="dark">
	<polygon fill="#115670" points="93.849,15.305 93.849,63.597 94.869,64.013 94.869,13.477 	"></polygon>
	<polyline fill="#115670" points="94.869,97.047 94.869,66.83 93.849,66.83 93.849,96.214 	"></polyline>
	<polygon fill="#115670" points="34.304,11.329 33.225,9.749 33.225,41.775 34.304,40.735 	"></polygon>
	<path fill="#115670" d="M33.225,64.052v32.246l1.078,0.749V64.501C33.904,64.462,33.528,64.306,33.225,64.052z"></path>
	<polygon fill="#115670" points="36.569,6.482 35.537,7.315 35.537,98.343 36.569,99.092 	"></polygon>
	<polyline fill="#115670" points="97.18,65.042 97.18,9.215 96.16,9.798 96.16,64.543 	"></polyline>
	<polyline fill="#115670" points="97.18,99.029 97.18,68.108 96.16,68.108 96.16,98.279 	"></polyline>
	<polygon fill="#115670" points="97.18,9.215 39.362,9.215 39.362,9.798 96.16,9.798 	"></polygon>
</g>
<g id="shadow">
	<polygon fill="#1A1A1A" points="32.056,4.731 30.817,6.218 35.537,13.136 35.537,10.212 	"></polygon>
	<rect x="38.875" y="15.47" fill="#1A1A1A" width="54.881" height="0.606"></rect>
	<polygon fill="#1A1A1A" points="99.42,5.337 32.551,5.337 32.056,4.731 99.75,4.731 	"></polygon>
	<rect x="38.875" y="16.015" fill="#1A1A1A" width="0.464" height="48.089"></rect>
</g>
<g id="hlight">
	<polygon fill="#FFFFFF" points="31.854,43.099 33.093,43.677 35.537,41.18 35.537,39.545 	"></polygon>
	<path fill="#F2F2F2" d="M32.45,44.597L0.324,60.785c0,7.084,0.229,12.827,0.512,12.827l0.163,0.244
		c-0.283,0-0.512-5.743-0.512-12.827l32.125-16.188L32.45,44.597z"></path>
	<path fill="#F2F2F2" d="M33.994,45.572L1.674,61.191c0,7.084-0.229,12.827-0.512,12.827l-0.163-0.163
		c0.283,0,0.512-5.743,0.512-12.827L33.832,45.41L33.994,45.572z"></path>
</g>
</svg>