<svg version="1.1" id="Layer_1" xmlns="http://www.w3.org/2000/svg" xmlns:xlink="http://www.w3.org/1999/xlink" x="0px" y="0px" viewBox="0 0 100 100" xml:space="preserve"><desc>Copyright Opto 22</desc> 
<g id="frame">
	<g id="frame_1_">
		<rect fill="none" width="100" height="100"></rect>
	</g>
</g>
<g id="shape">
	<path fill="#E6E6E6" d="M32.056,0.737l-1.239,2.148v3.333l6.82,9.996V37.52l-5.783,5.579v2.124L0.487,61.029
		c0,7.084,0.229,12.827,0.512,12.827l32.272-9.601c-0.043,0-0.085-0.104-0.125-0.279c0.435,0.409,1.041,0.617,1.661,0.519
		l45.537-7.153c7.721-1.206,13.412-7.856,13.412-15.671V15.47L99.75,4.731V0.737H32.056z"></path>
</g>
<g id="radial">
</g>
<g id="linear">
</g>
<g id="dark">
</g>
<g id="light">
</g>
<g id="shadow">
	<polygon fill="#1A1A1A" points="32.056,4.731 38.875,15.47 37.636,16.214 30.817,6.218 	"></polygon>
	<polygon fill="#1A1A1A" points="33.093,44.09 38.875,38.181 38.875,37.768 33.093,43.677 	"></polygon>
	<rect x="38.875" y="15.47" fill="#1A1A1A" width="54.881" height="0.606"></rect>
	<polygon fill="#1A1A1A" points="99.42,5.337 32.551,5.337 32.056,4.731 99.75,4.731 	"></polygon>
	<rect x="38.875" y="16.015" fill="#1A1A1A" width="0.464" height="48.089"></rect>
</g>
<g id="hlight">
	<g>
		<polygon fill="#FFFFFF" points="38.875,37.768 33.093,43.677 31.854,43.099 37.636,37.52 		"></polygon>
	</g>
	<g>
		<path fill="#F2F2F2" d="M32.45,44.597L0.324,60.785c0,7.084,0.229,12.827,0.512,12.827l0.163,0.244
			c-0.283,0-0.512-5.743-0.512-12.827l32.125-16.188L32.45,44.597z"></path>
		<path fill="#F2F2F2" d="M33.994,45.572L1.674,61.191c0,7.084-0.229,12.827-0.512,12.827l-0.163-0.163
			c0.283,0,0.512-5.743,0.512-12.827L33.832,45.41L33.994,45.572z"></path>
	</g>
</g>
</svg>