<svg version="1.1" id="Layer_1" xmlns="http://www.w3.org/2000/svg" xmlns:xlink="http://www.w3.org/1999/xlink" x="0px" y="0px" viewBox="0 0 100 100" xml:space="preserve"><desc>Copyright Opto 22</desc> 
<g>
<g id="shape">
	<path fill="#333333" d="M57.053,98.609l-4.808-9.375V40.237h2.181v-2.053h-0.706v-2.566h1.724v-1.86v-0.706h0.797v-2.309h-0.797
		v-7.697H45.197v7.697H44.4v2.309h0.797v0.706v1.86h1.724v2.566h-0.706v2.053h0.62v52.041l-3.247,6.331h-3.018v1.026h19.5v-1.026
		H57.053z M55.514,98.609h-3.268v-6.373L55.514,98.609z M48.397,98.609h-0.791v-4.83l0.791-1.543V98.609z M52.951,38.184h-0.706
		v-2.566h0.706V38.184z M47.691,35.618h0.706v2.566h-0.706V35.618z M47.606,40.237h0.791v48.997l-0.791,1.543V40.237z
		 M46.836,95.279v3.329h-1.707L46.836,95.279z"></path>
</g>
<g id="light">
	<rect x="47.583" y="96.917" fill="#CCCCCC" width="0.833" height="1"></rect>
	<rect x="47.583" y="73.167" fill="#CCCCCC" width="0.833" height="1"></rect>
	<rect x="47.583" y="50.5" fill="#CCCCCC" width="0.833" height="1"></rect>
</g>
<g id="linear">
	<linearGradient class="linear" id="SVGID_1_" gradientUnits="userSpaceOnUse" x1="46.8362" y1="69.4227" x2="47.606" y2="69.4227">
		<stop offset="0" style="stop-color:#CCCCCC"></stop>
		<stop offset="0.0943" style="stop-color:#FFFFFF"></stop>
		<stop offset="1" style="stop-color:#000000"></stop>
	</linearGradient>
	<rect class="linear" x="46.836" y="40.237" fill="url(#SVGID_1_)" width="0.77" height="58.372"></rect>
	<linearGradient class="linear" id="SVGID_2_" gradientUnits="userSpaceOnUse" x1="48.3971" y1="67.0814" x2="52.2458" y2="67.0814">
		<stop offset="0" style="stop-color:#CCCCCC"></stop>
		<stop offset="0.0943" style="stop-color:#FFFFFF"></stop>
		<stop offset="1" style="stop-color:#000000"></stop>
	</linearGradient>
	<rect class="linear" x="48.397" y="35.554" fill="url(#SVGID_2_)" width="3.849" height="63.054"></rect>
	<linearGradient class="linear" id="SVGID_3_" gradientUnits="userSpaceOnUse" x1="44.4004" y1="29.3322" x2="56.2425" y2="29.3322">
		<stop offset="0.0094" style="stop-color:#4D4D4D"></stop>
		<stop offset="0.3417" style="stop-color:#999999"></stop>
		<stop offset="1" style="stop-color:#000000"></stop>
	</linearGradient>
	<polygon class="linear" fill="url(#SVGID_3_)" points="56.242,30.743 55.445,30.743 55.445,23.046 45.197,23.046 45.197,30.743 44.4,30.743 
		44.4,33.053 45.197,33.053 45.197,35.618 55.445,35.618 55.445,33.053 56.242,33.053 	"></polygon>
</g>
<g id="dark">
	<rect x="46.216" y="38.184" fill="#1A1A1A" width="8.211" height="2.053"></rect>
</g>
<g id="shadow">
	<rect x="45.197" y="33.053" fill="#1A1A1A" width="10.248" height="0.706"></rect>
</g>
<g id="hlight">
	<rect x="44.4" y="30.622" fill="#FFFFFF" width="7.629" height="0.5"></rect>
</g>
<g id="flame">
	<path fill="#FBB03B" d="M48.91,7.854c-0.257,1.539,1.026,3.849,1.026,3.849s-1.539-2.822-4.362-3.079
		C48.14,8.623,48.91,7.854,48.91,7.854z"></path>
	<path fill="none" stroke="#FF0000" stroke-width="0.25" stroke-miterlimit="10" d="M50.153,21.891c0,0,0-1.026,1.368-1.882"></path>
	<g>
		<path fill="#FBB03B" d="M55.859,9.21c0.04-0.223,0.059-0.461,0.054-0.715C55.9,8.742,55.881,8.978,55.859,9.21z"></path>
		<path fill="#FBB03B" d="M48.272,19.155c0.342,2.395-1.539,3.75-1.539,3.75l4.447-0.066l3.763,0.158c0,0,1.026-1.276-0.342-2.132
			l-0.342,0.855c0,0-0.855-1.711,0.684-2.566c1.539-0.855,0.684,0.855,0.684,0.855s2.737-0.855,0.855-2.908
			c-0.342,0.855-1.026,0.342-1.026,0.342s-0.342-1.539,1.026-2.224c-1.712-0.114-2.583,0.611-2.874,1.512l0.039-1.605
			c0.709-0.826,1.902-2.666,2.211-5.917c-0.213,1.192-1.042,1.938-2.118,2.117l0.005-0.212c0,0,1.79-1.954,0.605-4.115
			c1.66-5.736-2.059-4.865-2.059-4.865s2.566-0.257,0.513,3.336c-0.958,1.677-1.245,2.906-1.279,3.741l-0.004-0.02
			c-0.684-1.368,0.171-3.25,0.171-3.25s-3.25,1.882-1.539,3.763c1.71,1.882,1.368,4.789,1.368,4.789
			c-0.171-1.368-2.566-3.25-2.566-3.25c1.796,2.566,1.026,3.592-0.513,5.132c-1,1-0.269,1.782,0.367,2.209"></path>
	</g>
	<path fill="#FCEE21" d="M50.496,14.322c0,0-1.411,1.155-1.539,2.951s2.309,0.257,1.283,2.694c1.668-1.539,0.77-3.079,2.181-2.951
		C51.009,15.477,50.496,14.322,50.496,14.322z"></path>
	<path fill="#FCEE21" d="M52.292,15.22c0,0,0.257-2.309-0.641-3.849c1.475,2.128,3.079,0.141,3.079,0.141
		S53.318,14.451,52.292,15.22z"></path>
	<path fill="#FCEE21" d="M53.061,10.602c0,0-0.257-3.079,0.77-4.875c-1.924,3.464-2.181,5.645-2.181,5.645
		S52.548,11.243,53.061,10.602z"></path>
	<path fill="#FCEE21" d="M51.265,21.122c0,0,1.283-1.283,1.411-2.053s0.257-2.566,0.257-2.566s0.641,2.566,0.513,3.592
		s-0.128,2.694-0.128,2.694s-0.513-1.411-1.539-0.641c-1.026,0.77-1.026,0.77-1.026,0.77L51.265,21.122z"></path>
	<path fill="#FCEE21" d="M54.088,18.684c0,0-0.257-2.309,0.898-2.822c0,1.796,0.385,2.694,0.385,2.694S54.601,17.914,54.088,18.684z
		"></path>
	<path fill="#FCEE21" d="M49.469,19.582c0,0,0.128,0.898-0.898,2.053c1.668-1.668,2.309-1.668,2.309-1.668L49.469,19.582z"></path>
</g>
</g>
</svg>