<svg version="1.1" id="Layer_1" xmlns="http://www.w3.org/2000/svg" xmlns:xlink="http://www.w3.org/1999/xlink" x="0px" y="0px" viewBox="0 0 100 100" xml:space="preserve"><desc>Copyright Opto 22</desc> 
<g>
<g id="shape">
	<polygon fill="#808080" points="61.6,97 66.2,97 66.2,15.5 64.5,11.3 63.4,11.3 63.4,1 3.8,1 3.8,11.3 2.7,11.3 
		1,15.5 1,97 5.6,97 5.6,35.9 26.2,63.4 42.9,63.4 61.6,36.1 	"></polygon>
</g>
<g id="hlight">
	<path fill="#E6E6E6" d="M67.2,98h-6.6V39.3L43.4,64.4H25.7L6.6,38.9V98H0l0-82.8l2-5h0.8V0h61.6v10.3h0.8l2,5.2V98z M61.6,97h4.6
		V15.5l-1.7-4.3h-1.1V1H3.8v10.3H2.7L1,15.5V97h4.6V35.9l20.6,27.6h16.7l18.7-27.3V97z"></path>
</g>
</g>
</svg>