<svg version="1.1" id="Layer_1" xmlns="http://www.w3.org/2000/svg" xmlns:xlink="http://www.w3.org/1999/xlink" x="0px" y="0px" viewBox="0 0 100 100" xml:space="preserve"><desc>Copyright Opto 22</desc> 
<g>
	<g id="shape">
		<path fill="#CCCCCC" d="M76.5,0.5L5,5.5l0.5,20.3l0,0l0.8,31.6l0.6,2.3l4-0.3l-0.6-33.3L15,42.6L14.7,42l1.1,56.4l0.6,2.1l4.3-0.4
			l-0.4-52.6L42.7,62l1.8-0.1l2.8,8V70c0.8,2.7,4.1,4.2,7.4,3.2c1.4-0.4,2.5-1.2,3.3-2.2c1.1-1.3,1.6-3,1.1-4.6l0,0h0.1
			c-0.1-0.3-0.2-0.6-0.4-0.9L57.2,61l14.4-8.3l-0.1,1.8l4.2-0.4l0.1-3.9l15-8.7l-2.4,49l1.3,3.2l3.9-0.5l2.9-55L76.5,0.5z"></path>
	</g>
	
	<g id="shadow">
		<polygon fill="#808080" points="75.3,2.2 57.7,39 93.7,36.5 		"></polygon>
		<line fill="none" x1="95.2" y1="40" x2="92.4" y2="91.1"></line>
		
			<line fill="none" stroke="#999999" stroke-width="0.8368" stroke-linecap="round" stroke-miterlimit="10" x1="17.2" y1="45.2" x2="17.2" y2="45.2"></line>
		
			<line fill="none" stroke="#999999" stroke-width="0.8368" stroke-linecap="round" stroke-miterlimit="10" stroke-dasharray="8.539748e-002,4.2707" x1="17.3" y1="49.5" x2="18" y2="90.9"></line>
		
			<line fill="none" stroke="#999999" stroke-width="0.8368" stroke-linecap="round" stroke-miterlimit="10" x1="18.1" y1="93" x2="18.1" y2="92.5"></line>
		<polygon fill="#999999" points="5,5.5 6.3,57.4 6.9,59.7 5.7,7.6 		"></polygon>
	</g>
	
	<g id="dark">
		<line fill="none" x1="17.2" y1="45.2" x2="18.1" y2="93.1"></line>
		
			<line fill="none" stroke="#999999" stroke-width="0.8368" stroke-linecap="round" stroke-miterlimit="10" stroke-dasharray="8.351464e-002,4.1763" x1="94.9" y1="44.3" x2="92.6" y2="89"></line>
		
			<line fill="none" stroke="#999999" stroke-width="0.8368" stroke-linecap="round" stroke-miterlimit="10" x1="92.4" y1="91.1" x2="92.4" y2="91.1"></line>
		
			<line fill="none" stroke="#999999" stroke-width="0.8368" stroke-linecap="round" stroke-miterlimit="10" x1="95.2" y1="40" x2="95.2" y2="40.1"></line>
		<polygon fill="#B3B3B3" points="10.4,32.7 10.3,26.1 5.6,7.5 6.3,25.8 		"></polygon>
		<polygon fill="#999999" points="96.6,38.2 56.9,61.2 42.7,62 15.5,44.4 		"></polygon>
		<polygon fill="#999999" points="16.4,100.5 15.8,98.4 14.7,42 15.5,44.4 		"></polygon>
		<polygon fill="#999999" points="93,38.4 90.9,40.8 88.5,90.5 89.8,93.7 		"></polygon>
		
			<rect x="-6.7" y="27.4" transform="matrix(0.2721 0.9623 -0.9623 0.2721 34.3832 9.7467)" fill="#808080" width="34.9" height="0.4"></rect>
		
			<ellipse transform="matrix(-0.294 -0.9558 0.9558 -0.294 3.4188 141.3059)" fill="#B3B3B3" cx="53.9" cy="69.4" rx="2.3" ry="2.7"></ellipse>
	</g>
	<g id="linear">
		
		<linearGradient class="linear" id="SVGID_1_" gradientUnits="userSpaceOnUse" x1="43.5769" y1="50" x2="58.3075" y2="50">
			<stop offset="0" style="stop-color:#333333"></stop>
			<stop offset="1" style="stop-color:#E6E6E6"></stop>
		</linearGradient>
		<path class="linear" fill="url(#SVGID_1_)" d="M47.4,70c0.8,2.7,4.1,4.1,7.4,3.1c3.2-1,5.2-4,4.3-6.7l-3.2-9c-0.8-2.7-4.1-4.1-7.4-3.1
			c-3.2,1-5.2,4-4.3,6.7L47.4,70z"></path> 
	</g>
	<g id="light">
		<path fill="#B3B3B3" d="M47.4,63.4c1.3-2.3,4.4-2.4,4.4-2.4l-2-4.1c-0.4-1.2-1.8-1.8-3.2-1.3c-1.4,0.4-2.2,1.7-1.9,2.9l0.6,0.9
			L47.4,63.4z"></path>
		<polygon fill="#E6E6E6" points="7.1,7.2 39.7,40.8 17.6,42.3 		"></polygon>
		

		
		<path fill="#E6E6E6" d="M56.4,68.7c0.4,1.2-0.5,2.5-1.9,2.9s-2.9-0.2-3.2-1.4l-0.6-1.3c-0.4-1.2,0.5-2.5,1.9-2.9s2.9,0.2,3.2,1.4
			L56.4,68.7z"></path>
		<path fill="#CCCCCC" d="M46.7,62.5c-0.4-1.2,0.5-2.5,1.9-2.9s2.8,0.2,3.2,1.3c0,0-3.1,0.1-4.4,2.4L46.7,62.5z"></path>
		<path fill="#CCCCCC" d="M48.8,52.6c4.4-1,8.5,0,9.3,2.1c0-0.2,0-0.4,0-0.5c-0.5-2.4-4.7-3.5-9.3-2.4c-4.6,1-8,3.8-7.4,6.2
			c0,0.1,0.1,0.2,0.1,0.3C41.3,56,44.5,53.6,48.8,52.6z"></path>
		<ellipse transform="matrix(-0.294 -0.9558 0.9558 -0.294 3.6553 139.11)" fill="#CCCCCC" cx="53.2" cy="68.2" rx="5.2" ry="6.1"></ellipse>
	</g>
	<g id="hlight">
		<path fill="none" stroke="#FFFFFF" stroke-width="0.2092" stroke-miterlimit="10" d="M54.4,71.9c-2.4,0.7-4.8-0.3-5.4-2.3"></path>
		<polygon fill="#FFFFFF" points="19.2,43.6 19.2,43.2 95.4,37.4 76,1.1 76.4,0.9 96,37.8 95.7,37.8 		"></polygon>
		
			<rect x="41" y="-29.5" transform="matrix(7.240542e-002 0.9974 -0.9974 7.240542e-002 42.9035 -36.7302)" fill="#FFFFFF" width="0.4" height="68.4"></rect>
		
			<rect x="-5.9" y="24.5" transform="matrix(0.2866 0.9581 -0.9581 0.2866 32.4713 5.728)" fill="#FFFFFF" width="36.6" height="0.4"></rect>
		<path fill="none" stroke="#FFFFFF" stroke-width="0.4184" stroke-miterlimit="10" d="M53.2,67.3c1.4-0.4,2.9,0.2,3.2,1.4"></path>
		<path fill="none" stroke="#FFFFFF" stroke-width="0.4184" stroke-miterlimit="10" d="M51.8,63.3c3.2-1,6.5,0.4,7.4,3.1"></path>
	</g>
</g>
</svg>