<svg version="1.1" id="Layer_1" xmlns="http://www.w3.org/2000/svg" xmlns:xlink="http://www.w3.org/1999/xlink" x="0px" y="0px" viewBox="0 0 100 100" xml:space="preserve"><desc>Copyright Opto 22</desc> 
<g>
<g id="shape">
	<path fill="#808080" d="M98.771,53.659h-0.915c-0.367,0-0.693,0.518-0.918,1.323h-7.149c0.415-1.05,0.706-2.551,0.801-4.263h1.826
		c0.246,0.791,0.611,1.304,1.025,1.304h0.997c0.74,0,1.34-1.61,1.34-3.597s-0.6-3.597-1.34-3.597H93.44
		c-0.414,0-0.779,0.514-1.025,1.304h-2.068c-0.383-2.183-1.126-3.663-1.98-3.663c-0.11,0-0.219,0.026-0.325,0.074
		c-0.034-0.092-0.07-0.172-0.105-0.259c-0.035-0.086-0.068-0.175-0.104-0.257c-0.094-0.214-0.19-0.415-0.292-0.593
		c-0.143-0.28-0.329-0.533-0.552-0.749c-0.043-0.043-0.087-0.083-0.132-0.12c-0.498-0.427-1.144-0.687-1.852-0.687
		c-0.204,0-0.404,0.022-0.596,0.063c-0.101,0.022-0.194,0.062-0.291,0.095c-0.087,0.029-0.178,0.048-0.26,0.085
		c-0.118,0.052-0.225,0.123-0.333,0.19c-0.053,0.033-0.112,0.057-0.162,0.093c-0.107,0.076-0.201,0.168-0.296,0.258
		c-0.042,0.039-0.09,0.071-0.13,0.113h0.001c-0.003,0.003-0.006,0.005-0.009,0.008h-1.052c-0.015-0.001-0.03-0.008-0.045-0.008
		c-0.015,0-0.029,0.007-0.044,0.008h-0.054c-0.054,0-0.107,0.016-0.161,0.025c-0.065-0.016-0.131-0.033-0.197-0.033h-0.524h-0.602
		h-0.484c-0.048,0-0.095,0.016-0.142,0.025c-0.042-0.009-0.084-0.025-0.127-0.025c-0.439,0-0.847,0.485-1.195,1.31h-3.321
		l-2.223,2.627L72.59,44.45H62.583c0,0-0.672,0.075-0.672,0.672H60.48c-0.118-0.093-0.268-0.155-0.435-0.157l-6.255-0.069
		c-0.02-0.025-0.046-0.049-0.07-0.073c-0.036-0.141-0.074-0.239-0.114-0.239h-0.2c-0.222-0.134-0.494-0.257-0.829-0.361V43.52
		c0.848-0.265,1.382-0.636,1.382-1.048v-0.896c0-0.413-0.533-0.783-1.382-1.048v-0.632l5.794-5.635h3.018v-1.008l-1.839-4.077
		H22.454l-4.752,4.077v1.008l27.413,6.993c-0.073,0.104-0.118,0.211-0.118,0.322v0.896c0,0.413,0.533,0.783,1.382,1.048v0.704
		c-0.334,0.104-0.606,0.227-0.829,0.361h-0.79c-0.131-1.862-0.335-3.062-0.564-3.062h-0.522l-0.096-0.635H27.057l-0.313,0.248
		l-0.062,0.387h-0.46c0.221-0.477,0.466-0.747,0.723-0.747H16.752c-1.479,0-2.687,3.58-2.79,8.112l-0.079,0.089
		c-0.657-1.049-3.483-1.839-6.869-1.839C3.14,47.138,0,48.171,0,49.444c0,1.269,2.313,2.33,5.415,2.607l-0.268,1.422
		c-1.115,0.215-1.871,0.608-1.871,1.063v0.56c0,0.253,0.233,0.487,0.63,0.683v2.031c-0.591,0.337-1.094,0.801-1.443,1.38
		c-0.628,0.771-0.985,1.774-0.906,2.885c0.172,2.413,2.267,4.369,4.68,4.369c1.51,0,2.787-0.767,3.488-1.932
		c0.342-0.419,0.595-0.907,0.746-1.447c0.614-0.338,1.135-0.813,1.494-1.409c0.369-0.452,0.633-0.986,0.777-1.576h1.516
		l-4.509,6.532v0.056l0,0v3.809h81.828V70.42h0.168v-3.809l-2.688-3.915v-2.618h7.881c0.225,0.805,0.551,1.323,0.918,1.323h0.915
		c0.679,0,1.229-1.733,1.229-3.872S99.45,53.659,98.771,53.659z M8.115,51.244v-0.928c0.004-0.001,0.007-0.003,0.01-0.004
		l1.852,0.697C9.416,51.122,8.784,51.201,8.115,51.244z M5.724,50.286c0.057,0.023,0.12,0.044,0.188,0.064v0.894
		c-0.736-0.048-1.425-0.138-2.029-0.27L5.724,50.286z M11.696,51.435l-1.984,2.23c-0.12-0.04-0.257-0.073-0.393-0.107l-0.284-1.548
		C10.036,51.894,10.939,51.695,11.696,51.435z M14.543,54.872c0.009,0.036,0.017,0.074,0.026,0.11h-0.11L14.543,54.872z
		 M77.399,46.135H76.01l0.934-1.169h0.614C77.498,45.339,77.444,45.727,77.399,46.135z M46.378,39.895v0.42L33.578,34.26h6.92
		L46.378,39.895z M32.066,34.26l13.664,6.464L20.391,34.26H32.066z M12.693,49.416c0,0.545-0.711,1.036-1.844,1.377l-2.29-0.856
		v-0.521c0-0.056-0.034-0.108-0.082-0.159l2.837-1.06C12.173,48.524,12.693,48.95,12.693,49.416z M7.014,47.549
		c1.334,0,2.56,0.152,3.53,0.405l-2.727,1.019c-0.248-0.052-0.542-0.083-0.858-0.083c-0.35,0-0.67,0.038-0.934,0.1l-2.676-1
		C4.338,47.715,5.616,47.549,7.014,47.549z M2.61,48.237l2.798,1.053c-0.031,0.041-0.052,0.083-0.052,0.126v0.476l-2.305,0.861
		c-1.059-0.339-1.718-0.813-1.718-1.337C1.334,48.969,1.813,48.559,2.61,48.237z"></path>
</g>
<g id="linear">
	<linearGradient class="linear" id="SVGID_1_" gradientUnits="userSpaceOnUse" x1="57.0676" y1="46.1348" x2="57.0676" y2="50.7193">
		<stop offset="0" style="stop-color:#FFFFFF"></stop>
		<stop offset="1" style="stop-color:#000000"></stop>
	</linearGradient>
	<path class="linear" fill="url(#SVGID_1_)" d="M63.276,48.916h-9.673l-0.37-2.781h-2.375v4.584h12.346C63.247,50.157,63.276,49.561,63.276,48.916z
		"></path>
	<linearGradient class="linear" id="SVGID_2_" gradientUnits="userSpaceOnUse" x1="92.3213" y1="46.1348" x2="92.3213" y2="50.7193">
		<stop offset="0" style="stop-color:#FFFFFF"></stop>
		<stop offset="1" style="stop-color:#000000"></stop>
	</linearGradient>
	<path class="linear" fill="url(#SVGID_2_)" d="M93.44,46.135h-3.092c0.176,1.003,0.277,2.154,0.277,3.379c0,0.412-0.014,0.813-0.035,1.206h2.851
		c0.472,0,0.854-1.026,0.854-2.292S93.912,46.135,93.44,46.135z"></path>
	<linearGradient class="linear" id="SVGID_3_" gradientUnits="userSpaceOnUse" x1="20.4485" y1="40.7763" x2="20.4485" y2="54.9819">
		<stop offset="0" style="stop-color:#FFFFFF"></stop>
		<stop offset="1" style="stop-color:#000000"></stop>
	</linearGradient>
	<path class="linear" fill="url(#SVGID_3_)" d="M25.549,54.982c-0.247-1.497-0.396-3.397-0.396-5.468c0-4.825,0.802-8.737,1.792-8.737H16.752
		c-1.547,0-2.8,3.912-2.8,8.737c0,2.071,0.232,3.971,0.618,5.468H25.549z"></path>
	<linearGradient class="linear" id="SVGID_4_" gradientUnits="userSpaceOnUse" x1="48.9268" y1="44.5849" x2="48.9268" y2="54.4423">
		<stop offset="0" style="stop-color:#FFFFFF"></stop>
		<stop offset="1" style="stop-color:#000000"></stop>
	</linearGradient>
	<path class="linear" fill="url(#SVGID_4_)" d="M44.248,54.442c-0.215,0-0.39-2.207-0.39-4.929c0-2.722,0.175-4.929,0.39-4.929h9.357
		c0.215,0,0.39,2.207,0.39,4.929c0,2.722-0.175,4.929-0.39,4.929H44.248z"></path>
	<linearGradient class="linear" id="SVGID_5_" gradientUnits="userSpaceOnUse" x1="54.9468" y1="54.9819" x2="54.9468" y2="60.0786">
		<stop offset="0" style="stop-color:#FFFFFF"></stop>
		<stop offset="1" style="stop-color:#000000"></stop>
	</linearGradient>
	<path class="linear" fill="url(#SVGID_5_)" d="M97.868,54.982h-86.15c-0.194,0-0.37,0.22-0.51,0.572c0.932,0.799,1.571,1.938,1.662,3.216
		c0.033,0.459-0.027,0.893-0.129,1.309h85.126c0.451,0,0.817-1.141,0.817-2.548S98.319,54.982,97.868,54.982z"></path>
	<linearGradient class="linear" id="SVGID_6_" gradientUnits="userSpaceOnUse" x1="46.3784" y1="51.4324" x2="52.5767" y2="51.4324">
		<stop offset="0" style="stop-color:#FFFFFF"></stop>
		<stop offset="1" style="stop-color:#000000"></stop>
	</linearGradient>
	<path class="linear" fill="url(#SVGID_6_)" d="M46.378,46.84v8.177c0,0.556,1.388,1.007,3.099,1.007c1.712,0,3.099-0.451,3.099-1.007V46.84H46.378
		z"></path>
	<linearGradient class="linear" id="SVGID_7_" gradientUnits="userSpaceOnUse" x1="3.9052" y1="57.1184" x2="10.1784" y2="57.1184">
		<stop offset="0" style="stop-color:#FFFFFF"></stop>
		<stop offset="1" style="stop-color:#000000"></stop>
	</linearGradient>
	<path class="linear" fill="url(#SVGID_7_)" d="M7.042,55.772c-1.31,0-2.462-0.22-3.137-0.553v2.591c0.598-0.341,1.286-0.552,2.046-0.552
		c1.43,0,2.738,0.697,3.611,1.76c0.383-0.171,0.617-0.38,0.617-0.608v-3.191C9.504,55.552,8.352,55.772,7.042,55.772z"></path>
	<linearGradient class="linear" id="SVGID_8_" gradientUnits="userSpaceOnUse" x1="3.2751" y1="55.4342" x2="10.8084" y2="55.4342">
		<stop offset="0" style="stop-color:#FFFFFF"></stop>
		<stop offset="1" style="stop-color:#000000"></stop>
	</linearGradient>
	<path class="linear" fill="url(#SVGID_8_)" d="M7.042,55.772c-2.08,0-3.767-0.554-3.767-1.236v0.56c0,0.683,1.686,1.236,3.767,1.236
		c2.08,0,3.767-0.553,3.767-1.236v-0.56C10.808,55.219,9.122,55.772,7.042,55.772z"></path>
	<linearGradient class="linear" id="SVGID_9_" gradientUnits="userSpaceOnUse" x1="46.3784" y1="44.4514" x2="52.5767" y2="44.4514">
		<stop offset="0" style="stop-color:#FFFFFF"></stop>
		<stop offset="1" style="stop-color:#000000"></stop>
	</linearGradient>
	<path class="linear" fill="url(#SVGID_9_)" d="M49.478,43.032c-1.205,0-2.294-0.156-3.099-0.408v2.648c0,0.556,1.388,1.007,3.099,1.007
		s3.099-0.451,3.099-1.007v-2.648C51.771,42.875,50.683,43.032,49.478,43.032z"></path>
	<linearGradient class="linear" id="SVGID_10_" gradientUnits="userSpaceOnUse" x1="44.9969" y1="42.7516" x2="53.9582" y2="42.7516">
		<stop offset="0" style="stop-color:#FFFFFF"></stop>
		<stop offset="1" style="stop-color:#000000"></stop>
	</linearGradient>
	<path class="linear" fill="url(#SVGID_10_)" d="M49.478,43.032c-2.475,0-4.481-0.652-4.481-1.456v0.896c0,0.804,2.006,1.456,4.481,1.456
		s4.481-0.652,4.481-1.456v-0.896C53.958,42.38,51.952,43.032,49.478,43.032z"></path>
	<linearGradient class="linear" id="SVGID_11_" gradientUnits="userSpaceOnUse" x1="63.882" y1="52.034" x2="63.882" y2="52.6328">
		<stop offset="0" style="stop-color:#FFFFFF"></stop>
		<stop offset="1" style="stop-color:#000000"></stop>
	</linearGradient>
	<path class="linear" fill="url(#SVGID_11_)" d="M63.872,52.633h0.015c0.001-0.107,0.006-0.21,0.006-0.319c0-0.096-0.004-0.186-0.005-0.28
		C63.885,52.239,63.878,52.435,63.872,52.633z"></path>
	<linearGradient class="linear" id="SVGID_12_" gradientUnits="userSpaceOnUse" x1="77.4933" y1="46.3945" x2="77.4933" y2="52.6328">
		<stop offset="0" style="stop-color:#FFFFFF"></stop>
		<stop offset="1" style="stop-color:#000000"></stop>
	</linearGradient>
	<path class="linear" fill="url(#SVGID_12_)" d="M79.499,46.394h-3.697l-1.012,1.267h-0.115l0.475,0.732v0.56v3.679h4.349
		c0.449,0,0.813-1.396,0.813-3.119S79.948,46.394,79.499,46.394z"></path>
	<linearGradient class="linear" id="SVGID_13_" gradientUnits="userSpaceOnUse" x1="57.9638" y1="46.8971" x2="57.9638" y2="52.6328">
		<stop offset="0" style="stop-color:#FFFFFF"></stop>
		<stop offset="1" style="stop-color:#000000"></stop>
	</linearGradient>
	<path class="linear" fill="url(#SVGID_13_)" d="M63.177,51.122c0.061-0.666,0.099-1.409,0.099-2.206h-9.673l-0.268-2.019
		c-0.111,0.062-0.234,0.12-0.371,0.175c-0.19,0.569-0.313,1.445-0.313,2.441c0,1.723,0.364,3.119,0.813,3.119h8.201l-0.134-0.297
		l-0.012-0.779l0.144-0.435H63.177z"></path>
	<linearGradient class="linear" id="SVGID_14_" gradientUnits="userSpaceOnUse" x1="44.9969" y1="46.4481" x2="53.9582" y2="46.4481">
		<stop offset="0" style="stop-color:#FFFFFF"></stop>
		<stop offset="1" style="stop-color:#000000"></stop>
	</linearGradient>
	<path class="linear" fill="url(#SVGID_14_)" d="M49.478,46.728c-2.475,0-4.481-0.652-4.481-1.456v0.896c0,0.804,2.006,1.456,4.481,1.456
		s4.481-0.652,4.481-1.456v-0.896C53.958,46.076,51.952,46.728,49.478,46.728z"></path>
	<linearGradient class="linear" id="SVGID_15_" gradientUnits="userSpaceOnUse" x1="60.5597" y1="50.4844" x2="60.5597" y2="52.2767">
		<stop offset="0" style="stop-color:#FFFFFF"></stop>
		<stop offset="1" style="stop-color:#000000"></stop>
	</linearGradient>
	<polygon class="linear" fill="url(#SVGID_15_)" points="63.203,50.484 57.916,50.484 57.916,52.277 63.035,52.277 	"></polygon>
	<linearGradient class="linear" id="SVGID_16_" gradientUnits="userSpaceOnUse" x1="56.0408" y1="49.5136" x2="56.0408" y2="54.4423">
		<stop offset="0" style="stop-color:#FFFFFF"></stop>
		<stop offset="1" style="stop-color:#000000"></stop>
	</linearGradient>
	<path class="linear" fill="url(#SVGID_16_)" d="M53.605,54.442h4.481c0.247,0,0.448-2.207,0.448-4.929h-4.987L53.605,54.442z"></path>
	<linearGradient class="linear" id="SVGID_17_" gradientUnits="userSpaceOnUse" x1="94.609" y1="44.8305" x2="94.609" y2="52.0236">
		<stop offset="0" style="stop-color:#B3B3B3"></stop>
		<stop offset="1" style="stop-color:#000000"></stop>
	</linearGradient>
	<path class="linear" fill="url(#SVGID_17_)" d="M94.438,44.831H93.44c0.74,0,1.34,1.61,1.34,3.597s-0.6,3.597-1.34,3.597h0.997
		c0.74,0,1.34-1.61,1.34-3.597S95.178,44.831,94.438,44.831z"></path>
	<linearGradient class="linear" id="SVGID_18_" gradientUnits="userSpaceOnUse" x1="98.928" y1="53.6588" x2="98.928" y2="61.4018">
		<stop offset="0" style="stop-color:#B3B3B3"></stop>
		<stop offset="1" style="stop-color:#000000"></stop>
	</linearGradient>
	<path class="linear" fill="url(#SVGID_18_)" d="M98.771,53.659h-0.916c0.679,0,1.229,1.733,1.229,3.872s-0.55,3.872-1.229,3.872h0.916
		c0.678,0,1.229-1.733,1.229-3.872S99.45,53.659,98.771,53.659z"></path>
	<linearGradient class="linear" id="SVGID_19_" gradientUnits="userSpaceOnUse" x1="49.5149" y1="54.2632" x2="49.5149" y2="60.7972">
		<stop offset="0" style="stop-color:#FFFFFF"></stop>
		<stop offset="1" style="stop-color:#000000"></stop>
	</linearGradient>
	<path class="linear" fill="url(#SVGID_19_)" d="M54.114,54.263h-1.537v0.754c0,0.556-1.388,1.007-3.099,1.007s-3.099-0.451-3.099-1.007v-0.754
		h-1.463c-0.052,0-0.093,1.463-0.093,3.267s0.042,3.267,0.093,3.267h9.198c0.052,0,0.093-1.463,0.093-3.267
		S54.165,54.263,54.114,54.263z"></path>
</g>
<g id="light">
	<polyline fill="#E6E6E6" points="26.665,41.631 26.744,41.136 27.057,40.888 43.578,40.888 43.69,41.631 	"></polyline>
	<polyline fill="#E6E6E6" points="26.18,42.733 26.259,42.294 26.46,41.878 43.429,41.878 43.317,42.733 	"></polyline>
	<polyline fill="#E6E6E6" points="25.898,44.04 26.066,43.162 43.167,43.162 43.111,44.04 	"></polyline>
	<polyline fill="#E6E6E6" points="25.693,45.459 25.805,44.581 43.018,44.581 42.962,45.459 	"></polyline>
	<polyline fill="#E6E6E6" points="25.618,46.653 25.674,46 42.943,46 42.887,46.653 	"></polyline>
	<polyline fill="#E6E6E6" points="25.562,47.811 25.562,47.27 42.831,47.27 42.831,47.811 	"></polyline>
	<polyline fill="#E6E6E6" points="42.831,48.894 42.831,48.352 25.506,48.352 25.506,48.894 	"></polyline>
	<rect x="25.506" y="49.417" fill="#E6E6E6" width="17.325" height="0.541"></rect>
	<polyline fill="#E6E6E6" points="25.562,50.593 25.618,51.246 42.831,51.246 42.831,50.593 	"></polyline>
	<polyline fill="#E6E6E6" points="25.674,51.825 25.73,52.478 42.831,52.478 42.831,51.825 	"></polyline>
	<polyline fill="#E6E6E6" points="25.786,53.001 25.842,53.655 42.887,53.655 42.887,53.001 	"></polyline>
	<path fill="#E6E6E6" d="M59.549,29.175H22.454l-4.752,4.077v1.008h43.686v-1.008L59.549,29.175z M39.116,32.614l0.784-1.96h19.155
		l0.706,1.96H39.116z"></path>
	<path fill="#E6E6E6" d="M63.749,54.982H75.15v-6.028v-0.56H63.651v0.56c0.149,0.88,0.241,2.061,0.241,3.36
		C63.892,53.298,63.839,54.213,63.749,54.982z"></path>
	<polygon fill="#E6E6E6" points="59.055,30.654 57.247,32.614 59.761,32.614 	"></polygon>
	<polygon fill="#E6E6E6" points="81.161,44.293 76.679,44.293 74.984,42.086 79.425,42.086 	"></polygon>
	<path fill="#B3B3B3" d="M88.483,54.982h1.306c0.51-1.291,0.836-3.26,0.836-5.468c0-3.889-1.01-7.042-2.257-7.042
		c-0.11,0-0.219,0.026-0.325,0.074c0.622,1.697,1.015,4.188,1.015,6.969C89.059,51.562,88.844,53.45,88.483,54.982z"></path>
	<g>
		<path fill="#E6E6E6" d="M74.675,47.662h-0.759l-1.479-2.566l0.324-0.383L72.59,44.45H62.583c0,0-0.672,0.075-0.672,0.672h-8
			c0.016,0.05,0.046,0.098,0.046,0.149v0.896c0,0.267-0.237,0.514-0.623,0.729l0.268,2.019h9.673c0-0.332,0.375-0.523,0.375-0.523
			H75.15L74.675,47.662z"></path>
	</g>
	<path fill="#E6E6E6" d="M9.32,53.557l0.093,0.508l-0.952,1.12l-0.753-0.059l-2.08-0.163l-0.751-0.059l0.27-1.432
		c-1.115,0.215-1.871,0.608-1.871,1.063c0,0.683,1.686,1.236,3.767,1.236c2.08,0,3.767-0.554,3.767-1.236
		C10.808,54.136,10.219,53.783,9.32,53.557z"></path>
	<path fill="#E6E6E6" d="M10.413,55.644c-0.071,0.047-0.147,0.092-0.234,0.136v2.367c0.189,0.323,0.318,0.684,0.345,1.072
		c0.029,0.401-0.054,0.772-0.207,1.102c0.16,0.415,0.281,0.848,0.314,1.306c0.036,0.506-0.033,0.985-0.159,1.437
		c1.332-0.733,2.183-2.171,2.064-3.846C12.429,57.737,11.596,56.434,10.413,55.644z"></path>
	<path fill="#E6E6E6" d="M10.294,62.074c0.172,2.413-1.645,4.369-4.058,4.369s-4.508-1.956-4.679-4.369s1.645-4.369,4.058-4.369
		S10.123,59.662,10.294,62.074z"></path>
	<polygon fill="#E6E6E6" points="81.813,52.516 81.66,51.919 82.052,51.919 82.205,52.516 	"></polygon>
	<polygon fill="#E6E6E6" points="82.149,47.251 81.996,46.655 82.388,46.655 82.541,47.251 	"></polygon>
	<polygon fill="#E6E6E6" points="78.409,54.209 78.273,53.68 78.62,53.68 78.756,54.209 	"></polygon>
	<path fill="#E6E6E6" d="M93.44,44.831c-0.414,0-0.779,0.514-1.024,1.304h1.024c0.472,0,0.854,1.026,0.854,2.292
		s-0.382,2.292-0.854,2.292h-1.024c0.246,0.791,0.611,1.304,1.024,1.304c0.74,0,1.34-1.61,1.34-3.597S94.18,44.831,93.44,44.831z"></path>
	<path fill="#E6E6E6" d="M97.856,53.659c-0.367,0-0.693,0.518-0.918,1.323h0.931c0.451,0,0.817,1.141,0.817,2.548
		s-0.366,2.548-0.817,2.548h-0.931c0.225,0.805,0.551,1.323,0.918,1.323c0.679,0,1.229-1.733,1.229-3.872
		S98.534,53.659,97.856,53.659z"></path>
	<path fill="#E6E6E6" d="M52.577,40.527v1.608h-6.198v-0.56l-1.263-0.322c-0.073,0.104-0.118,0.211-0.118,0.322
		c0,0.804,2.006,1.456,4.481,1.456s4.481-0.652,4.481-1.456C53.958,41.163,53.425,40.792,52.577,40.527z"></path>
	<path fill="#CCCCCC" d="M52.577,44.224v1.048c0,0.556-1.388,1.007-3.099,1.007s-3.099-0.451-3.099-1.007v-1.048
		c-0.848,0.265-1.382,0.636-1.382,1.048c0,0.804,2.006,1.456,4.481,1.456s4.481-0.652,4.481-1.456
		C53.958,44.859,53.425,44.489,52.577,44.224z"></path>
	<path fill="#E6E6E6" d="M81.78,47.307c0-0.186,0.056-0.336,0.126-0.336c0.007,0,0.014,0.003,0.02,0.005
		c-0.022-0.049-0.05-0.08-0.081-0.08c-0.07,0-0.126,0.15-0.126,0.336c0,0.167,0.046,0.305,0.106,0.331
		C81.798,47.501,81.78,47.41,81.78,47.307z"></path>
	<path fill="#E6E6E6" d="M81.444,52.572c0-0.186,0.056-0.336,0.126-0.336c0.007,0,0.014,0.003,0.02,0.005
		c-0.022-0.049-0.05-0.08-0.081-0.08c-0.07,0-0.126,0.15-0.126,0.336c0,0.167,0.046,0.305,0.106,0.331
		C81.462,52.766,81.444,52.675,81.444,52.572z"></path>
	<path fill="#E6E6E6" d="M78.082,54.258c0-0.165,0.05-0.298,0.112-0.298c0.006,0,0.012,0.002,0.018,0.005
		c-0.019-0.044-0.044-0.071-0.072-0.071c-0.062,0-0.112,0.133-0.112,0.298c0,0.148,0.041,0.27,0.094,0.293
		C78.097,54.431,78.082,54.35,78.082,54.258z"></path>
	<polygon fill="#E6E6E6" points="21.623,63.755 14.454,63.755 14.454,60.114 21.959,60.114 21.959,63.12 	"></polygon>
	<polygon fill="#E6E6E6" points="54.326,63.755 52.422,63.755 52.254,63.176 52.366,61.01 52.422,60.45 54.326,60.45 	"></polygon>
	<polygon fill="#E6E6E6" points="44.909,63.755 46.813,63.755 46.981,63.176 46.869,61.01 46.813,60.45 44.909,60.45 	"></polygon>
	<polygon fill="#E6E6E6" points="89.057,63.755 87.152,63.755 86.816,63.232 86.816,60.095 87.152,59.61 89.057,59.61 	"></polygon>
	<circle fill="#E6E6E6" cx="50.336" cy="45.16" r="1.718"></circle>
	<path fill="#E6E6E6" d="M50.523,44.861l9.521,0.105c0.37,0.004,0.672,0.276,0.672,0.605s-0.302,0.607-0.672,0.618l-10.082,0.315"></path>
	<path fill="#E6E6E6" d="M10.804,54.523l3.188-3.584c-0.02-0.385-0.033-0.777-0.036-1.177l-3.687,4.145
		C10.597,54.089,10.797,54.297,10.804,54.523z"></path>
</g>
<g id="dark">
	<path fill="#4D4D4D" d="M5.912,49.5c0-0.2,0.493-0.362,1.102-0.362c0.608,0,1.102,0.162,1.102,0.362v2.05
		c0,0.2-0.493,0.362-1.102,0.362c-0.608,0-1.102-0.162-1.102-0.362V49.5z"></path>
	<rect x="9.749" y="66.667" fill="#4D4D4D" width="81.828" height="3.809"></rect>
	<polygon fill="#4D4D4D" points="11.215,59.882 10.907,59.349 11.215,58.815 11.831,58.815 12.139,59.349 11.831,59.882 	"></polygon>
	<polygon fill="#4D4D4D" points="3.766,59.695 3.458,59.162 3.766,58.629 4.381,58.629 4.689,59.162 4.381,59.695 	"></polygon>
	<polygon fill="#4D4D4D" points="7.108,59.695 6.8,59.162 7.108,58.629 7.723,58.629 8.031,59.162 7.723,59.695 	"></polygon>
	<polygon fill="#4D4D4D" points="3.878,65.307 3.57,64.773 3.878,64.24 4.493,64.24 4.801,64.773 4.493,65.307 	"></polygon>
	<polygon fill="#4D4D4D" points="7.276,65.531 6.968,64.997 7.276,64.464 7.892,64.464 8.199,64.997 7.892,65.531 	"></polygon>
	<polygon fill="#4D4D4D" points="8.975,62.738 8.667,62.205 8.975,61.672 9.59,61.672 9.898,62.205 9.59,62.738 	"></polygon>
	<polygon fill="#4D4D4D" points="2.319,62.57 2.011,62.037 2.319,61.504 2.934,61.504 3.242,62.037 2.934,62.57 	"></polygon>
	<polygon fill="#4D4D4D" points="7.708,55.127 5.628,54.964 5.908,52.794 7.54,52.901 	"></polygon>
	<g>
		<g>
			<path fill="#4D4D4D" d="M7.014,47.138C3.14,47.138,0,48.171,0,49.444c0,1.48,3.14,2.679,7.014,2.679s7.014-1.2,7.014-2.679
				C14.028,48.171,10.887,47.138,7.014,47.138z M10.543,47.954l-3.646,1.363L3.349,47.99c0.989-0.275,2.268-0.441,3.665-0.441
				C8.348,47.549,9.574,47.701,10.543,47.954z M1.334,49.416c0-0.447,0.479-0.858,1.276-1.179l3.575,1.345l-3.134,1.171
				C1.993,50.414,1.334,49.941,1.334,49.416z M3.883,50.974l3.011-1.125l3.084,1.16c-0.863,0.174-1.878,0.274-2.964,0.274
				C5.857,51.283,4.781,51.169,3.883,50.974z M10.849,50.793l-3.241-1.211l3.706-1.385c0.859,0.327,1.38,0.753,1.38,1.219
				C12.693,49.961,11.982,50.452,10.849,50.793z"></path>
			<path fill="#4D4D4D" d="M5.356,49.416c0-0.291,0.717-0.526,1.601-0.526c0.884,0,1.601,0.236,1.601,0.526v0.538
				c0,0.291-0.717,0.526-1.601,0.526c-0.884,0-1.601-0.236-1.601-0.526V49.416z"></path>
		</g>
		<g>
			<path d="M7.014,47.138C3.14,47.138,0,48.171,0,49.444c0,1.48,3.14,2.679,7.014,2.679s7.014-1.2,7.014-2.679
				C14.028,48.171,10.887,47.138,7.014,47.138z M10.543,47.954l-3.646,1.363L3.349,47.99c0.989-0.275,2.268-0.441,3.665-0.441
				C8.348,47.549,9.574,47.701,10.543,47.954z M1.334,49.416c0-0.447,0.479-0.858,1.276-1.179l3.575,1.345l-3.134,1.171
				C1.993,50.414,1.334,49.941,1.334,49.416z M3.883,50.974l3.011-1.125l3.084,1.16c-0.863,0.174-1.878,0.274-2.964,0.274
				C5.857,51.283,4.781,51.169,3.883,50.974z M10.849,50.793l-3.241-1.211l3.706-1.385c0.859,0.327,1.38,0.753,1.38,1.219
				C12.693,49.961,11.982,50.452,10.849,50.793z"></path>
			<path d="M5.356,49.416c0-0.291,0.717-0.526,1.601-0.526c0.884,0,1.601,0.236,1.601,0.526v0.538c0,0.291-0.717,0.526-1.601,0.526
				c-0.884,0-1.601-0.236-1.601-0.526V49.416z"></path>
		</g>
	</g>
	<polygon fill="#4D4D4D" points="10.356,55.996 10.178,55.996 10.178,57.063 10.356,57.063 10.664,56.53 	"></polygon>
	<polygon fill="#4D4D4D" points="11.215,59.882 10.907,59.349 11.215,58.815 11.831,58.815 12.139,59.349 11.831,59.882 	"></polygon>
	<polygon fill="#4D4D4D" points="3.766,59.695 3.458,59.162 3.766,58.629 4.381,58.629 4.689,59.162 4.381,59.695 	"></polygon>
	<polygon fill="#4D4D4D" points="7.108,59.695 6.8,59.162 7.108,58.629 7.723,58.629 8.031,59.162 7.723,59.695 	"></polygon>
	<polygon fill="#4D4D4D" points="3.878,65.307 3.57,64.773 3.878,64.24 4.493,64.24 4.801,64.773 4.493,65.307 	"></polygon>
	<polygon fill="#4D4D4D" points="7.276,65.531 6.968,64.997 7.276,64.464 7.892,64.464 8.199,64.997 7.892,65.531 	"></polygon>
	<polygon fill="#4D4D4D" points="8.975,62.738 8.667,62.205 8.975,61.672 9.59,61.672 9.898,62.205 9.59,62.738 	"></polygon>
	<polygon fill="#4D4D4D" points="2.319,62.57 2.011,62.037 2.319,61.504 2.934,61.504 3.242,62.037 2.934,62.57 	"></polygon>
	<polyline fill="#4D4D4D" points="66.309,46.058 65.312,46.197 64.665,45.852 64.665,46.3 65.312,46.645 66.309,46.506 	"></polyline>
	<path fill="#4D4D4D" d="M65.106,45.874c0.082-0.058,0.261-0.098,0.47-0.098c0.209,0,0.388,0.04,0.47,0.098
		c0.03-0.021,0.048-0.045,0.048-0.07c0-0.093-0.232-0.168-0.518-0.168s-0.518,0.075-0.518,0.168
		C65.057,45.829,65.075,45.853,65.106,45.874z"></path>
	<polyline fill="#4D4D4D" points="71.91,46.058 70.913,46.197 70.266,45.852 70.266,46.3 70.913,46.645 71.91,46.506 	"></polyline>
	<path fill="#4D4D4D" d="M70.706,45.874c0.082-0.058,0.261-0.098,0.47-0.098s0.388,0.04,0.47,0.098
		c0.03-0.021,0.048-0.045,0.048-0.07c0-0.093-0.232-0.168-0.518-0.168s-0.518,0.075-0.518,0.168
		C70.658,45.829,70.676,45.853,70.706,45.874z"></path>
	<path fill="#4D4D4D" d="M8.283,62.074c0.093,1.302-0.888,2.358-2.19,2.358s-2.433-1.056-2.525-2.358s0.888-2.358,2.19-2.358
		S8.191,60.772,8.283,62.074z"></path>
</g>
<g id="shadow">
	<path d="M83.4,49.514c0,2.071-0.211,3.971-0.562,5.468h0.596c0.364-1.497,0.582-3.397,0.582-5.468c0-4.826-1.181-8.737-2.638-8.737
		h-0.524C82.26,40.776,83.4,44.688,83.4,49.514z"></path>
	<path d="M79.499,44.936c-0.344,0-0.651,0.566-0.869,1.459h0.869c0.449,0,0.813,1.396,0.813,3.119s-0.364,3.119-0.813,3.119H78.63
		c0.218,0.893,0.525,1.459,0.869,1.459c0.659,0,1.193-2.049,1.193-4.578S80.158,44.936,79.499,44.936z"></path>
	<polygon points="21.959,60.114 21.959,63.12 21.623,63.755 21.623,60.282 	"></polygon>
	<polygon points="86.816,60.095 86.816,63.232 87.152,63.755 87.152,59.61 	"></polygon>
	<path d="M54.168,60.17c-0.004,0.106-0.009,0.198-0.013,0.28h0.171v0.84h24.201v-1.12H54.168z"></path>
	<path d="M44.909,60.777c-0.018-0.048-0.034-0.263-0.047-0.607H24.535v1.12h20.374V60.777z"></path>
	<polygon points="46.848,60.797 46.869,61.01 46.884,61.29 52.352,61.29 52.366,61.01 52.387,60.797 	"></polygon>
	<path fill="#333333" d="M48.863,46.044c0.3,0.499,0.848,0.834,1.473,0.834c0.405,0,0.777-0.14,1.071-0.374l-1.3,0.021
		L48.863,46.044z"></path>
	<path fill="#333333" d="M49.963,46.504l10.082-0.315c0.369-0.012,0.672-0.29,0.672-0.618c0,0-0.154,0.429-0.779,0.429
		S49.963,46.504,49.963,46.504z"></path>
</g>
<g id="hlight">
	<path fill="#E6E6E6" d="M7.014,51.569c-3.812,0-6.902-0.951-6.902-2.125c0,1.315,3.09,2.381,6.902,2.381s6.902-1.066,6.902-2.381
		C13.916,50.618,10.826,51.569,7.014,51.569z"></path>
	<polygon fill="#FFFFFF" points="50.803,45.085 60.325,45.19 60.044,44.966 50.299,44.861 	"></polygon>
</g>
</g>
</svg>