<svg version="1.1" id="Layer_1" xmlns="http://www.w3.org/2000/svg" xmlns:xlink="http://www.w3.org/1999/xlink" x="0px" y="0px" viewBox="0 0 100 100" xml:space="preserve"><desc>Copyright Opto 22</desc> 
<g>
<g id="shape">
	<path fill="#1B5291" d="M88.053,83.655v-5.218H77.855V74.14h1.293v-1h-1.293v-6.438h1.293v-1h-1.293v-6.438h1.293v-1h-1.293v-6.438
		h1.293v-1h-1.293V44.39h1.293v-1h-1.293v-6.438h1.293v-1h-1.293v-6.438h1.293v-1h-1.293v-6.438h1.293v-1h-1.293V14.64h1.293v-1
		h-1.293V7.203h1.293v-1h-1.293V3.333h0.515c0.828,0,1.5-0.671,1.5-1.5s-0.672-1.5-1.5-1.5h-8.983c-0.828,0-1.5,0.671-1.5,1.5
		s0.672,1.5,1.5,1.5h0.014v48.97L40.851,71.12c-0.732-2.953-3.391-5.144-6.571-5.144c-3.744,0-6.776,3.034-6.776,6.778v9.89h-1.28
		V71.905c0-3.649,2.969-6.618,6.618-6.618v-1.5c-4.476,0-8.118,3.642-8.118,8.118v10.739h-1.421v-9.89
		c0-3.744-3.034-6.778-6.777-6.778c-3.743,0-6.777,3.034-6.777,6.778v9.89H8.486V71.905c0-3.649,2.969-6.618,6.619-6.618v-1.5
		c-4.477,0-8.119,3.642-8.119,8.118V99h1.5v-0.68H9.75V99h13.554v-0.68h1.421V99h1.5v-0.68h1.28V99h13.553v-0.68h4.06v-1.187h14.566
		v2.206h28.369V98.61h4.089v-7.198v-0.56v-7.197H88.053z M90.142,85.655v3.757h-2.089v-3.757H90.142z M61.184,85.155v-5.218h8.217
		v5.218H61.184z M86.553,79.938v3.718h-4.088v1.5h-4.61v-5.218H86.553z M69.401,78.438h-9.717v10.317H45.118v-6.11h-4.06v-2.544
		L69.401,61.42V78.438z M24.725,95.504h-1.421v-3.871h1.421V95.504z M26.225,91.633h1.28v3.871h-1.28V91.633z M41.058,95.504v-3.871
		h2.06v3.871H41.058z M41.058,88.754v-4.11h2.06v4.11H41.058z M27.505,84.645v4.11h-1.28v-4.11H27.505z M24.725,84.645v4.11h-1.421
		v-4.11H24.725z M8.611,96.32V84.645H9.75V96.32H8.611z M45.118,95.504v-3.871h14.566v3.871H45.118z M90.142,96.61h-2.089v-3.758
		h2.089V96.61z"></path>
</g>
<g id="hlight">
	<rect x="70.341" y="3.104" fill="#FFFFFF" width="1" height="75.479"></rect>
	<path fill="#FFFFFF" d="M69.401,53.623L41.036,72.319c0.009,0.145,0.022,0.288,0.022,0.435v0.747L69.401,54.82V53.623z"></path>
	<rect x="70.341" y="79.938" fill="#FFFFFF" width="1" height="4.896"></rect>
</g>
</g>
</svg>