<svg version="1.1" id="Layer_1" xmlns="http://www.w3.org/2000/svg" xmlns:xlink="http://www.w3.org/1999/xlink" x="0px" y="0px" viewBox="0 0 100 100" xml:space="preserve"><desc>Copyright Opto 22</desc> 
<g>
<g id="shape">
	<path fill="#B3B3B3" d="M91.9,37.5H19.1c-2.5,0-4.6,3.2-5.6,7.7H4.4c-1.3,0-2.4,2.3-2.4,5.1c0,2.8,1.1,5.1,2.4,5.1h9.1
		c0.9,4.5,3.1,7.7,5.6,7.7h72.8c3.4,0,6.1-5.7,6.1-12.8C98,43.2,95.3,37.5,91.9,37.5z"></path>
</g>
<g id="linear">
	<linearGradient class="linear" id="SVGID_1_" gradientUnits="userSpaceOnUse" x1="58.5635" y1="37.47" x2="58.5635" y2="63.038">
		<stop offset="0" style="stop-color:#9ACCE2"></stop>
		<stop offset="1" style="stop-color:#000000"></stop>
	</linearGradient>
	<path class="linear" fill="url(#SVGID_1_)" d="M91.9,37.5H19.1c3.4,0,6.1,5.7,6.1,12.8c0,7.1-2.7,12.8-6.1,12.8h72.8c3.4,0,6.1-5.7,6.1-12.8
		C98,43.2,95.3,37.5,91.9,37.5z"></path>
	<linearGradient class="linear" id="SVGID_2_" gradientUnits="userSpaceOnUse" x1="13.0497" y1="50.254" x2="13.0497" y2="48.947">
		<stop offset="0" style="stop-color:#B3B3B3"></stop>
		<stop offset="1" style="stop-color:#000000"></stop>
	</linearGradient>
	<path class="linear" fill="url(#SVGID_2_)" d="M13.1,48.9c0,0.4,0,0.9,0,1.3l0,0C13,49.8,13,49.4,13.1,48.9z"></path>
</g>
<g id="dark">
	<path fill="#29ABE2" d="M4.4,55.4c-1.3,0-2.4-2.3-2.4-5.1s1.1-5.1,2.4-5.1h14.7c1.3,0,2.4,2.3,2.4,5.1s-1.1,5.1-2.4,5.1H4.4z"></path>
</g>
<g id="light">
	<path fill="#9ACCE2" d="M19.1,45.1H4.4c0.5,0,1,0.4,1.4,1h14.7C20.1,45.5,19.7,45.1,19.1,45.1z"></path>
</g>
<g id="shadow">
	<path fill="#030303" d="M5.9,54.4c-0.4,0.6-0.9,1-1.4,1h14.7c0.5,0,1-0.4,1.4-1H5.9z"></path>
	<path fill="#030303" d="M21.5,50.8c0,0.9-0.2,1.8-0.5,2.5l2.1,4.6c0.8-1.9,1.2-4.4,1.3-7.1H21.5z"></path>
	<path fill="#030303" d="M21.1,47.2c0.3,0.7,0.4,1.6,0.5,2.5h2.9c-0.1-2.7-0.5-5.1-1.3-7.1L21.1,47.2z"></path>
	<path fill="#030303" d="M20.5,54.4c-0.3,0.4-0.6,0.7-0.9,0.8V62c1.1-0.2,2.2-1.3,3-3L20.5,54.4z"></path>
	<path fill="#030303" d="M17.3,55.4L15.6,59c0.8,1.6,1.9,2.7,3,3v-6.7H17.3z"></path>
	<path fill="#030303" d="M20.5,46.1l2.1-4.6c-0.8-1.6-1.9-2.7-3-3v6.8C19.9,45.4,20.2,45.7,20.5,46.1z"></path>
	<path fill="#030303" d="M18.6,45.1v-6.6c-1.1,0.2-2.2,1.3-3,3l1.7,3.7H18.6z"></path>
	<path fill="#030303" d="M14.3,55.4c0.2,0.9,0.4,1.7,0.7,2.5l1.1-2.5H14.3z"></path>
	<path fill="#030303" d="M15,42.7c-0.3,0.8-0.5,1.6-0.7,2.5h1.9L15,42.7z"></path>
	<ellipse fill="#030303" cx="4.4" cy="50.3" rx="2" ry="4.1"></ellipse>
</g>
<g id="hlight">
	<path fill="#FFFFFF" d="M94.9,39.1c-0.3-0.4-0.7-0.7-1.1-1H22c0,0-0.1,0-0.1,0c-0.3-0.3-0.6-0.5-1-0.7h-1.8c-0.2,0-0.3,0-0.5,0
		c0,0.3,0.2,0.5,0.5,0.5c1.9,0,3.7,2.3,4.7,5.9c0.1,0.2,0.3,0.4,0.5,0.4c0,0,0.1,0,0.1,0c0.3-0.1,0.4-0.4,0.3-0.6
		c-0.5-1.9-1.2-3.4-2.1-4.5L94.9,39.1C94.9,39.1,94.9,39.1,94.9,39.1z"></path>
</g>
</g>
</svg>