<svg version="1.1" id="Layer_1" xmlns="http://www.w3.org/2000/svg" xmlns:xlink="http://www.w3.org/1999/xlink" x="0px" y="0px" viewBox="0 0 100 100" xml:space="preserve"><desc>Copyright Opto 22</desc> 
<g id="frame">
	<g id="frame_1_">
		<rect fill="none" width="100" height="100"></rect>
	</g>
</g>
<g id="shape">
	<path d="M97.305,69.783H2.695C0.075,69.783,0,51.845,0,49.8c0-2.045,0.075-19.983,2.695-19.983h94.61
		c2.62,0,2.695,17.938,2.695,19.983C100,51.845,99.925,69.783,97.305,69.783z"></path>
</g>
<g id="radial" display="none">
</g>
<g id="linear">
	<linearGradient id="SVGID_1_" gradientUnits="userSpaceOnUse" x1="50" y1="30.3125" x2="50" y2="69.2878">
		<stop offset="0" style="stop-color:#FFFFFF"></stop>
		<stop offset="1" style="stop-color:#4D4D4D"></stop>
	</linearGradient>
	<path fill="url(#SVGID_1_)" d="M2.695,69.288c-1.215,0-2.2-8.725-2.2-19.488s0.985-19.488,2.2-19.488h94.609
		c1.215,0,2.2,8.725,2.2,19.488s-0.985,19.488-2.2,19.488H2.695z"></path>
</g>
<g id="dark">
	<g>
		<path d="M96.868,46.687H6.45c-0.198,0-0.359-0.161-0.359-0.359c0-0.198,0.161-0.359,0.359-0.359h90.419
			c0.198,0,0.359,0.161,0.359,0.359C97.227,46.526,97.067,46.687,96.868,46.687z"></path>
		<path d="M96.766,43.281H6.347c-0.198,0-0.359-0.161-0.359-0.359c0-0.198,0.161-0.359,0.359-0.359h90.419
			c0.198,0,0.359,0.161,0.359,0.359C97.125,43.121,96.964,43.281,96.766,43.281z"></path>
		<path d="M96.766,40.441H6.347c-0.17,0-0.308-0.138-0.308-0.308s0.138-0.308,0.308-0.308h90.419c0.17,0,0.308,0.138,0.308,0.308
			S96.936,40.441,96.766,40.441z"></path>
		<path d="M96.56,37.908H6.142c-0.142,0-0.256-0.115-0.256-0.256S6,37.395,6.142,37.395H96.56c0.142,0,0.256,0.115,0.256,0.256
			S96.702,37.908,96.56,37.908z"></path>
		<path d="M96.458,35.631H6.039c-0.142,0-0.256-0.115-0.256-0.256s0.115-0.256,0.256-0.256h90.419c0.142,0,0.256,0.115,0.256,0.256
			S96.6,35.631,96.458,35.631z"></path>
		<path d="M96.15,33.611H5.731c-0.113,0-0.205-0.092-0.205-0.205c0-0.113,0.092-0.205,0.205-0.205H96.15
			c0.113,0,0.205,0.092,0.205,0.205C96.355,33.519,96.264,33.611,96.15,33.611z"></path>
		<path d="M95.637,31.642H5.218c-0.113,0-0.205-0.092-0.205-0.205c0-0.113,0.092-0.205,0.205-0.205h90.419
			c0.113,0,0.205,0.092,0.205,0.205C95.842,31.55,95.751,31.642,95.637,31.642z"></path>
	</g>
	<g>
		<path d="M97.073,53.288H6.655c-0.227,0-0.41-0.184-0.41-0.41c0-0.227,0.184-0.41,0.41-0.41h90.419c0.227,0,0.41,0.184,0.41,0.41
			C97.484,53.105,97.3,53.288,97.073,53.288z"></path>
		<path d="M97.073,49.933H6.655c-0.227,0-0.41-0.184-0.41-0.41s0.184-0.41,0.41-0.41h90.419c0.227,0,0.41,0.184,0.41,0.41
			S97.3,49.933,97.073,49.933z"></path>
		<path d="M96.971,56.642H6.552c-0.198,0-0.359-0.161-0.359-0.359c0-0.198,0.161-0.359,0.359-0.359h90.419
			c0.198,0,0.359,0.161,0.359,0.359C97.33,56.481,97.169,56.642,96.971,56.642z"></path>
		<path d="M96.766,59.38H6.347c-0.17,0-0.308-0.138-0.308-0.308s0.138-0.308,0.308-0.308h90.419c0.17,0,0.308,0.138,0.308,0.308
			S96.936,59.38,96.766,59.38z"></path>
		<path d="M96.663,61.708H6.244c-0.142,0-0.256-0.115-0.256-0.256s0.115-0.256,0.256-0.256h90.419c0.142,0,0.256,0.115,0.256,0.256
			S96.805,61.708,96.663,61.708z"></path>
		<path d="M96.458,64.088H6.039c-0.142,0-0.256-0.115-0.256-0.256c0-0.141,0.115-0.256,0.256-0.256h90.419
			c0.142,0,0.256,0.115,0.256,0.256C96.714,63.972,96.6,64.088,96.458,64.088z"></path>
		<path d="M96.253,66.005H5.834c-0.113,0-0.205-0.092-0.205-0.205s0.092-0.205,0.205-0.205h90.419c0.113,0,0.205,0.092,0.205,0.205
			S96.366,66.005,96.253,66.005z"></path>
		<path d="M95.637,67.974H5.218c-0.113,0-0.205-0.092-0.205-0.205c0-0.113,0.092-0.205,0.205-0.205h90.419
			c0.113,0,0.205,0.092,0.205,0.205C95.842,67.882,95.751,67.974,95.637,67.974z"></path>
	</g>
</g>
<g id="light">
	<g>
		<path fill="#CCCCCC" d="M94.227,69.288c1.215,0,2.2-8.725,2.2-19.488s-0.985-19.488-2.2-19.488h3.078
			c1.215,0,2.2,8.725,2.2,19.488s-0.985,19.488-2.2,19.488H94.227z"></path>
		<path fill="#CCCCCC" d="M63.716,69.288c1.215,0,2.2-8.725,2.2-19.488s-0.985-19.488-2.2-19.488h3.078
			c1.215,0,2.2,8.725,2.2,19.488s-0.985,19.488-2.2,19.488H63.716z"></path>
		<path fill="#CCCCCC" d="M33.206,69.288c1.215,0,2.2-8.725,2.2-19.488s-0.985-19.488-2.2-19.488h3.078
			c1.215,0,2.2,8.725,2.2,19.488s-0.985,19.488-2.2,19.488H33.206z"></path>
		<path fill="#CCCCCC" d="M2.695,69.288c1.215,0,2.2-8.725,2.2-19.488s-0.985-19.488-2.2-19.488h3.078c1.215,0,2.2,8.725,2.2,19.488
			s-0.985,19.488-2.2,19.488H2.695z"></path>
	</g>
</g>
<g id="shadow">
	<g>
		<ellipse fill="#999999" cx="2.695" cy="49.8" rx="1.899" ry="16.816"></ellipse>
	</g>
</g>
<g id="hlight">
</g>
</svg>