<svg version="1.1" id="Layer_1" xmlns="http://www.w3.org/2000/svg" xmlns:xlink="http://www.w3.org/1999/xlink" x="0px" y="0px" viewBox="0 0 100 100" xml:space="preserve"><desc>Copyright Opto 22</desc> 
<g>
	<g id="linear">
			<linearGradient class="linear" id="SVGID_1_" gradientUnits="userSpaceOnUse" x1="32" y1="-287.153" x2="70" y2="-287.153">
			<stop offset="0" style="stop-color:#7F7F7F"></stop>
			<stop offset="1" style="stop-color:#3F3F3F"></stop>
		</linearGradient>
		<path class="linear" fill="url(#SVGID_1_)" d="M32.077,18.389C32.077,8.233,40.332,0,50.514,0S68.95,8.233,68.95,18.389v47.528
			c0,10.156-8.254,18.389-18.437,18.389s-18.437-8.233-18.437-18.389V18.389H32.077z"></path>
	</g>
	<g id="shadow">
		<path fill="#4F4F4F" d="M59.004,23.037l-0.068-0.495c5.932-0.824,9.765-2.454,9.765-4.152h0.5
			C69.2,20.413,65.389,22.15,59.004,23.037z"></path>
		<path fill="#4F4F4F" d="M57.992,70.694l-0.059-0.496c6.439-0.766,10.767-2.486,10.767-4.282h0.5
			C69.2,68.457,63.41,70.05,57.992,70.694z"></path>
		<path fill="#4F4F4F" d="M67.32,60.879c-0.949,0.564-2.284,1.071-3.908,1.499V100h3.908V60.879z"></path>
	</g>
	<g id="light">
		<path fill="#B5B5B5" d="M43.309,23.208c-5.555-0.631-11.49-2.229-11.49-4.82h0.519c0,1.825,4.433,3.555,11.03,4.304L43.309,23.208
			z"></path>
		<path fill="#B5B5B5" d="M43.309,70.735c-5.555-0.631-11.49-2.229-11.49-4.819h0.519c0,1.824,4.433,3.554,11.03,4.304
			L43.309,70.735z"></path>
		<path fill="#7F7F7F" d="M33.708,60.879V100h3.845V62.361C35.957,61.937,34.645,61.436,33.708,60.879z"></path>
	</g>
	<g id="dark">
		<path fill="#757575" d="M38.814,62.67c-0.44-0.097-0.857-0.201-1.261-0.308V100h1.261V62.67z"></path>
		<path fill="#757575" d="M62.214,62.67V100h1.198V62.378C63.027,62.479,62.631,62.578,62.214,62.67z"></path>
	</g>
	<g id="hlight">
		<path fill="#B5B5B5" d="M33.958,100h-0.5V60.439l0.377,0.225c0.908,0.539,2.181,1.029,3.782,1.457l-0.129,0.482
			c-1.438-0.383-2.623-0.819-3.531-1.299V100z"></path>
		<path fill="#B5B5B5" d="M38.329,5.152c-1.477,1.473-1.836,3.503-0.802,4.534s3.069,0.673,4.546-0.8s1.836-3.503,0.802-4.534
			S39.805,3.679,38.329,5.152z"></path>
		<path fill="#B5B5B5" d="M50.187,0C41.845,0,35,8.233,35,18.389V61.68c1,0.244,1.438,0.473,2.226,0.682L38,62.53V18.389
			C38,8.233,43.41,0,50.187,0z"></path>
	</g>
</g>
</svg>