<svg version="1.1" id="Layer_1" xmlns="http://www.w3.org/2000/svg" xmlns:xlink="http://www.w3.org/1999/xlink" x="0px" y="0px" viewBox="0 0 100 100" xml:space="preserve"><desc>Copyright Opto 22</desc> 
<g>
	<g id="shape">
		<path fill="#999999" d="M89.853,28.191c0.836,0.678,1.28,1.389,1.28,2.121v61.19c0,4.694-18.264,8.499-40.793,8.499
			S9.547,96.195,9.547,91.501v-61.19c0-0.742,0.456-1.461,1.313-2.147L43.849,0.993C44.713,0.418,47.292,0,50.34,0
			c3.183,0,5.855,0.456,6.595,1.071L89.853,28.191z"></path>
	</g>
	<g id="dark">
		<path fill="#808080" d="M87.887,33.638L55.633,0.535c-0.578-0.15-1.288-0.277-2.111-0.368l21.743,36.871v61.19
			c5.487-0.884,9.868-2.051,12.622-3.399V33.638z"></path>
	</g>
	<g id="shadow">
		<path fill="#666666" d="M87.887,94.828c2.089-1.022,3.246-2.146,3.246-3.327v-61.19c0-0.732-0.444-1.443-1.28-2.121L56.935,1.071
			c-0.241-0.2-0.702-0.38-1.302-0.536l32.253,33.104V94.828z"></path>
	</g>
	<g id="light">
		<path fill="#B3B3B3" d="M16.256,96.033c1.81,0.573,3.942,1.097,6.345,1.561V36.541L47.73,0.113
			c-0.326,0.028-0.638,0.062-0.936,0.1L16.256,34.98V96.033z"></path>
		<path fill="#B3B3B3" d="M50.34,38.385c24.147,0,40.368-4.175,40.368-8.074h0.85c0,5.585-20.957,8.924-41.218,8.924V38.385z"></path>
	</g>
	<g id="hlight">
		<path fill="#CCCCCC" d="M50.34,39.235c-20.261,0-41.218-3.338-41.218-8.924h0.85c0,3.899,16.221,8.074,40.368,8.074V39.235z"></path>
		<path fill="#CCCCCC" d="M43.849,0.993C44.713,0.418,47.292,0,50.34,0c3.183,0,5.855,0.456,6.595,1.071
			c-0.864,0.576-3.443,0.993-6.49,0.993C47.262,2.064,44.59,1.609,43.849,0.993z"></path>
	</g>
</g>
</svg>