<svg version="1.1" id="Layer_1" xmlns="http://www.w3.org/2000/svg" xmlns:xlink="http://www.w3.org/1999/xlink" x="0px" y="0px" viewBox="0 0 100 100" xml:space="preserve"><desc>Copyright Opto 22</desc> 
<g>
	<g id="shape">
		<path fill="#808080" d="M99.4,46.7c-0.4-3.4-1.1-6.6-2-9.7l0.1,0.1c-3.1-11.3-8.8-18.9-14.2-18.2l0.1,0.1c0,0,0,0-0.1,0l-2.9,0.3
			c-2.1,0.3-3.9,1.8-5.3,4.2l-14.2,1c-0.3,0-0.5,0-0.8,0l0,0l-29.7,2.1c-0.5-0.1-1.1-0.1-1.6,0l0.1,0.1c-0.1,0-0.2,0-0.3,0v0.1
			l-10.2,0.7c-1.6-2.1-3.2-3.3-4.8-3.4c-0.2,0-0.5,0-0.7,0l-3.3,0.3c0.3,0,0.6,0,0.9,0l-0.9,0.1C6.1,24.9,3.7,30.6,2.9,39L0,68.9
			L2.7,73h0.1l0.1,0.1h2.6l0.6-0.7L15.9,87l0.6,8.1l2.9,4.4h0.1l0,0l0,0l3.2-0.3L24.1,87l1.4,2.3c0.4,1.1,0.9,1.9,1.3,1.8
			c0.2,0,0.3-0.1,0.5-0.3l0.5-0.1c0.7,2.5,1.8,4.1,2.8,4c0.2,0,0.3-0.1,0.5-0.2c0,0,17.8-1.4,17.5-2.2l0.6-0.1
			c1.5-0.2,2.3-3.8,1.9-8.1c-0.4-4.3-1.9-7.7-3.3-7.6l-9.5,0.9c-0.2-0.2-0.4-0.3-0.6-0.4l41.9-3.6l6.9,7.2l-0.7,8.1l4.2,4.7v-0.1
			l2.9-0.2l5.6-26.4C100.1,61.1,100.4,54.2,99.4,46.7z"></path>
	</g>
	<g id="dark">

			<path fill="#333333" d="M90.2,93.4L95.8,67c1.3-5.4,1.6-12.5,0.6-19.9c-2.1-16.1-9.3-28.6-16-27.7c-4.2,0.5-7.2,5.9-8.5,13.8
				L66.2,67l3.4,3.7l4.7-2.9l12.6,13l-0.7,8.1L90.2,93.4z"></path>
			<path fill="#333333" d="M0.3,68.8L3,39c0.8-8.3,3.3-14.1,6.7-14.5C15,23.9,21,36.4,22.9,52.3c0.7,6.4,0.7,12.5,0.1,17.4
				l-3.5,29.5l-2.9-4.4L16,86.7L6.2,72l-0.7,0.9H3L0.3,68.8z"></path>

			<path fill="#333333" d="M90.2,93.4L95.8,67c1.3-5.4,1.6-12.5,0.6-19.9c-2.1-16.1-9.3-28.6-16-27.7c-4.2,0.5-7.2,5.9-8.5,13.8
				L66.2,67l3.4,3.7l4.7-2.9l12.6,13l-0.7,8.1L90.2,93.4z"></path>
			<path fill="#333333" d="M0.3,68.8L3,39c0.8-8.3,3.3-14.1,6.7-14.5C15,23.9,21,36.4,22.9,52.3c0.7,6.4,0.7,12.5,0.1,17.4
				l-3.5,29.5l-2.9-4.4L16,86.7L6.2,72l-0.7,0.9H3L0.3,68.8z"></path>

	</g>
	<g id="linear">
		<linearGradient class="linear" id="SVGID_1_" gradientUnits="userSpaceOnUse" x1="15.548" y1="75.7994" x2="10.548" y2="30.0494">
			<stop offset="0" style="stop-color:#C9C9C9"></stop>
			<stop offset="1" style="stop-color:#333333"></stop>
		</linearGradient>
		<path class="linear" fill="url(#SVGID_1_)" d="M21.1,52.5c1.5,13.1-0.9,24.2-5.2,24.7c-4.4,0.5-9.3-9.7-10.8-22.9C3.6,41.2,6,30.1,10.3,29.6
			C14.7,29.2,19.6,39.4,21.1,52.5z"></path>
		<linearGradient class="linear" id="SVGID_2_" gradientUnits="userSpaceOnUse" x1="54.7038" y1="24.5823" x2="61.7038" y2="74.8323">
			<stop offset="0" style="stop-color:#C9C9C9"></stop>
			<stop offset="1" style="stop-color:#333333"></stop>
		</linearGradient>
		<path class="linear" fill="url(#SVGID_2_)" d="M94.7,46.5c-1.8-13.8-8.4-24.2-14.8-23.4l-61.7,4.4c3.5,4.7,6.5,13.8,7.9,24.6
			c0.7,6.4,0.7,12.5,0.1,17.4l-1,8.5l61.1-5.1C92.8,71.9,96.4,60.2,94.7,46.5z"></path>
		<linearGradient class="linear" id="SVGID_3_" gradientUnits="userSpaceOnUse" x1="12.7449" y1="37.8317" x2="12.2449" y2="65.3317">
			<stop offset="0" style="stop-color:#CCCCCC"></stop>
			<stop offset="1" style="stop-color:#808080"></stop>
		</linearGradient>
		<path class="linear" fill="url(#SVGID_3_)" d="M11.2,57.7c0,0-0.6-10.5,7.4-17.2l-1.1-2.8c0,0-7.6,3.8-8.2,18.9l-2.9,5.5l1.3,3.4L11.2,57.7z"></path>
		<linearGradient class="linear" id="SVGID_4_" gradientUnits="userSpaceOnUse" x1="44.5501" y1="76.8762" x2="46.0501" y2="92.6262">
			<stop offset="0" style="stop-color:#C9C9C9"></stop>
			<stop offset="1" style="stop-color:#333333"></stop>
		</linearGradient>
		<path class="linear" fill="url(#SVGID_4_)" d="M51.3,83.9c-0.4-4.3-1.9-7.7-3.3-7.6l-9.5,0.9c1.2,1,2.3,4.1,2.7,7.7c0.3,3.6-0.2,6.6-1.1,8
			l9.3-0.9C50.9,91.8,51.7,88.2,51.3,83.9z"></path>
		<linearGradient class="linear" id="SVGID_5_" gradientUnits="userSpaceOnUse" x1="34.3652" y1="77.2411" x2="35.6152" y2="93.4911">
			<stop offset="0" style="stop-color:#C9C9C9"></stop>
			<stop offset="1" style="stop-color:#333333"></stop>
		</linearGradient>
		<path class="linear" fill="url(#SVGID_5_)" d="M41.2,84.9c-0.5-4.6-2.1-8.2-3.6-8.1l-8.4,0.8c-0.4,0-0.7,0.3-1,0.7c0.3-0.4,0.6-0.6,0.9-0.6
			c1.5-0.1,3.1,3.5,3.6,8.1c0.4,4.1-0.3,7.6-1.5,8.4l8-0.8C40.7,93.4,41.6,89.6,41.2,84.9z"></path>
	</g>
	<g id="light">
		<path fill="#C9C9C9" d="M99.4,46.7c-2.1-16.1-9.3-28.6-16-27.7l-2.9,0.3c6.7-0.9,14,11.6,16,27.7c1,7.5,0.7,14.5-0.6,19.9
			l-5.6,26.3l2.9-0.2l5.6-26.4C100.1,61.1,100.4,54.2,99.4,46.7z"></path>
		<polygon fill="#C9C9C9" points="16.6,94.9 16,86.9 6.2,72.1 6.1,72.2 15.9,86.9 16.5,94.9 19.4,99.4 19.5,99.3 		"></polygon>
		<path fill="#C9C9C9" d="M26.1,52c-1.9-15.9-7.8-28.4-13.2-27.8l-3.3,0.3C6.1,24.9,3.7,30.6,2.9,39L0.2,68.8l2.7,4.1H3l-2.7-4.1
			L2.9,39c0.8-8.3,3.3-14.1,6.7-14.5c5.3-0.6,11.3,11.9,13.2,27.8c0.7,6.4,0.7,12.5,0.1,17.4l-3.5,29.5l3.2-0.3l3.5-29.5
			C26.8,64.5,26.8,58.5,26.1,52z"></path>
		<path fill="#C9C9C9" d="M7.7,65.7l3.5-8c0,0-0.6-10.5,7.4-17.2l0.2,1.1c-7.6,6.6-6.6,16.9-6.6,16.9l-3.8,8.6L7.7,65.7z"></path>
		<path fill="#C9C9C9" d="M32.7,85.9c-0.4-4.6-2-8.2-3.6-8.1s-2.4,4-2,8.6s2,8.2,3.6,8.1C32.3,94.4,33,90.5,32.7,85.9z M30.6,93.1
			c-1.3,0.1-2.6-2.9-3-6.7c-0.4-3.9,0.4-7,1.6-7.2c1.3-0.1,2.6,2.9,3,6.7C32.6,89.8,31.8,93,30.6,93.1z"></path>
		<path fill="#C9C9C9" d="M26.9,90.6c-0.8,0.1-1.6-1.8-1.8-4.1c-0.2-2.3,0.2-4.3,1-4.4l3.5-0.4c0.8-0.1,1.6,1.8,1.8,4.1
			c0.2,2.3-0.2,4.3-1,4.4L26.9,90.6z"></path>
		<polyline fill="#C9C9C9" points="29.5,81.7 26.5,68 24,86.6 26.4,90.4 		"></polyline>
	</g>
	<g id="shadow">
		<path d="M66.7,74.5v-0.3c6.1-0.8,9.9-12.5,8.3-26.1h0.3C76.9,62,73.2,73.7,66.7,74.5z"></path>
		<path d="M35.3,77.2v-0.3c1.6-0.2,3.1-1.2,4.4-2.8c3.6-4.6,5-13.9,3.8-23.7h0.2c1.3,9.9-0.2,19.2-3.8,23.9
			C38.7,76,37.1,77,35.3,77.2z"></path>
		<path d="M15.7,79.2c-4.8,0-9.8-10.8-11.4-24.6c-1.6-14.3,0.9-25.9,5.8-26.5c4.9-0.5,10.1,10.4,11.7,24.6
			C23.4,67,20.9,78.6,16,79.2C15.9,79.1,15.8,79.2,15.7,79.2z M10.6,28.5c-0.1,0-0.2,0-0.3,0C5.7,29,3.4,40.7,5,54.4
			C6.6,68,11.5,79.1,16.2,78.5c4.6-0.5,6.9-12.2,5.3-25.9C19.9,39.4,15,28.5,10.6,28.5z"></path>
		<path d="M4.1,66.7c0.8,3.3,2.1,5.4,2.1,5.4l-0.7,0.8H3L4.1,66.7z"></path>
		<path d="M91.6,68.9c-1.4,2.2-3.2,3.6-5.2,3.9l-6.5,0.6l6.9,7.2L91.6,68.9z"></path>
		<path d="M39.2,93.8v-0.5c0.2,0,0.4-0.1,0.6-0.4c1-1.1,1.5-4.4,1.1-8h0.5c0.3,3.7-0.2,7-1.3,8.3C39.9,93.6,39.6,93.8,39.2,93.8z"></path>
		<rect x="45.591" y="83.146" transform="matrix(0.09 0.9959 -0.9959 0.09 127.8531 32.8691)" width="0.7" height="6.5"></rect>
		<rect x="45.334" y="80.216" transform="matrix(0.0977 0.9952 -0.9952 0.0977 124.0387 29.6203)" width="0.7" height="6"></rect>
		<rect x="44.417" y="76.518" transform="matrix(0.1029 0.9947 -0.9947 0.1029 119.1515 26.6221)" width="0.8" height="5.7"></rect>
		<polygon points="43.7,90.8 42.4,90.4 42.6,89.7 43.7,90.1 49.4,89.6 49.4,90.3 		"></polygon>
		<path d="M84,25.5c0,0.2-0.2,0.2-0.4,0.2s-0.4,0-0.4-0.2s0.2-0.4,0.4-0.4S84,25.3,84,25.5z"></path>
		<path d="M78.8,25.9c0,0.2-0.2,0.2-0.4,0.2s-0.4,0-0.4-0.2s0.2-0.4,0.4-0.4C78.6,25.5,78.8,25.7,78.8,25.9z"></path>
		<path d="M73.6,26.3c0,0.2-0.2,0.2-0.4,0.2c-0.2,0-0.4,0-0.4-0.2s0.2-0.4,0.4-0.4S73.6,26,73.6,26.3z"></path>
		<path d="M68.4,26.6c0,0.2-0.2,0.2-0.4,0.2s-0.4,0-0.4-0.2s0.2-0.4,0.4-0.4C68.2,26.2,68.4,26.4,68.4,26.6z"></path>
		<path d="M63.1,27c0,0.2-0.2,0.2-0.4,0.2s-0.4,0-0.4-0.2s0.2-0.4,0.4-0.4S63.1,26.8,63.1,27z"></path>
		<path d="M57.9,27.4c0,0.2-0.2,0.2-0.4,0.2s-0.4,0-0.4-0.2s0.2-0.4,0.4-0.4S57.9,27.2,57.9,27.4z"></path>
		<path d="M52.8,27.8c0,0.2-0.2,0.2-0.4,0.2S52,28,52,27.8s0.2-0.4,0.4-0.4S52.8,27.6,52.8,27.8z"></path>
		<path d="M47.5,28.2c0,0.2-0.2,0.2-0.4,0.2s-0.4,0-0.4-0.2s0.2-0.4,0.4-0.4S47.5,28,47.5,28.2z"></path>
		<path d="M42.4,28.6c0,0.2-0.2,0.2-0.4,0.2s-0.4,0-0.4-0.2s0.2-0.4,0.4-0.4S42.4,28.4,42.4,28.6z"></path>
		<path d="M37.2,29c0,0.2-0.2,0.2-0.4,0.2s-0.4,0-0.4-0.2s0.2-0.4,0.4-0.4S37.2,28.7,37.2,29z"></path>
		<path d="M31.9,29.3c0,0.2-0.2,0.2-0.4,0.2s-0.4,0-0.4-0.2s0.2-0.4,0.4-0.4C31.7,28.9,31.9,29.1,31.9,29.3z"></path>
		<path d="M26.7,29.7c0,0.2-0.2,0.2-0.4,0.2s-0.4,0-0.4-0.2s0.2-0.4,0.4-0.4S26.7,29.5,26.7,29.7z"></path>
		<path d="M21.6,30c0,0.2-0.2,0.2-0.4,0.2s-0.4,0-0.4-0.2s0.2-0.4,0.4-0.4C21.4,29.7,21.6,29.9,21.6,30z"></path>
		<ellipse cx="93.5" cy="46.3" rx="0.4" ry="0.4"></ellipse>
		<ellipse cx="88" cy="46.7" rx="0.4" ry="0.4"></ellipse>
		<ellipse cx="82.7" cy="47.1" rx="0.4" ry="0.4"></ellipse>
		<ellipse cx="77.2" cy="47.4" rx="0.4" ry="0.4"></ellipse>
		<ellipse cx="71.8" cy="47.8" rx="0.4" ry="0.4"></ellipse>
		<ellipse cx="66.4" cy="48.2" rx="0.4" ry="0.4"></ellipse>
		<ellipse cx="61" cy="48.6" rx="0.4" ry="0.4"></ellipse>
		<ellipse cx="55.6" cy="49" rx="0.4" ry="0.4"></ellipse>
		<ellipse cx="50.3" cy="49.3" rx="0.4" ry="0.4"></ellipse>
		<ellipse cx="44.8" cy="49.7" rx="0.4" ry="0.4"></ellipse>
		<ellipse cx="39.4" cy="50.2" rx="0.4" ry="0.4"></ellipse>
		<ellipse cx="33.9" cy="50.5" rx="0.4" ry="0.4"></ellipse>
		<ellipse cx="28.6" cy="50.9" rx="0.4" ry="0.4"></ellipse>
		<ellipse cx="91.3" cy="66.1" rx="0.4" ry="0.4"></ellipse>
		<ellipse cx="85.9" cy="66.6" rx="0.4" ry="0.4"></ellipse>
		<ellipse cx="80.6" cy="67" rx="0.4" ry="0.4"></ellipse>
		<ellipse cx="75.2" cy="67.5" rx="0.4" ry="0.4"></ellipse>
		<ellipse cx="69.9" cy="67.9" rx="0.4" ry="0.4"></ellipse>
		<ellipse cx="64.5" cy="68.3" rx="0.4" ry="0.4"></ellipse>
		<ellipse cx="59.1" cy="68.8" rx="0.4" ry="0.4"></ellipse>
		<ellipse cx="53.8" cy="69.2" rx="0.4" ry="0.4"></ellipse>
		<ellipse cx="48.4" cy="69.7" rx="0.4" ry="0.4"></ellipse>
		<ellipse cx="43" cy="70.1" rx="0.4" ry="0.4"></ellipse>
		<ellipse cx="37.7" cy="70.6" rx="0.4" ry="0.4"></ellipse>
		<ellipse cx="32.4" cy="71" rx="0.4" ry="0.4"></ellipse>
	</g>
	<g id="hlight">
		<g>
			<linearGradient id="SVGID_6_" gradientUnits="userSpaceOnUse" x1="129.4149" y1="247.3657" x2="101.204" y2="166.763">
				<stop offset="0" style="stop-color:#333333"></stop>
				<stop offset="1" style="stop-color:#E6E6E6"></stop>
			</linearGradient>
			<path fill="url(#SVGID_6_)" d="M80.5,19.2c6.7-0.9,14,11.6,16,27.7l2.9-0.3c-2.1-16.1-9.3-28.6-16-27.7L80.5,19.2z"></path>
			<linearGradient id="SVGID_7_" gradientUnits="userSpaceOnUse" x1="129.4149" y1="247.3657" x2="101.204" y2="166.763">
				<stop offset="0" style="stop-color:#333333"></stop>
				<stop offset="1" style="stop-color:#E6E6E6"></stop>
			</linearGradient>
			<path fill="url(#SVGID_7_)" d="M74.4,48c-1.8-13.6-8.3-24-14.6-23.3v-0.3c6.3-0.8,13.2,9.8,15,23.5L74.4,48z"></path>
			<linearGradient id="SVGID_8_" gradientUnits="userSpaceOnUse" x1="129.4149" y1="247.3657" x2="101.204" y2="166.763">
				<stop offset="0" style="stop-color:#333333"></stop>
				<stop offset="1" style="stop-color:#E6E6E6"></stop>
			</linearGradient>
			<path fill="url(#SVGID_8_)" d="M43.1,50.5c-1.8-13.8-8.3-24.3-14.6-23.6v-0.3c6.3-0.8,13.2,9.9,15,23.8L43.1,50.5z"></path>
			<linearGradient id="SVGID_9_" gradientUnits="userSpaceOnUse" x1="129.4149" y1="247.3657" x2="101.204" y2="166.763">
				<stop offset="0" style="stop-color:#333333"></stop>
				<stop offset="1" style="stop-color:#E6E6E6"></stop>
			</linearGradient>
			<path fill="url(#SVGID_9_)" d="M22.8,52.2C21,36.3,15.1,23.8,9.6,24.4l3.3-0.3c5.3-0.6,11.3,11.9,13.2,27.8L22.8,52.2z"></path>
			<linearGradient id="SVGID_10_" gradientUnits="userSpaceOnUse" x1="129.4149" y1="247.3657" x2="101.204" y2="166.763">
				<stop offset="0" style="stop-color:#333333"></stop>
				<stop offset="1" style="stop-color:#E6E6E6"></stop>
			</linearGradient>
			<polygon fill="url(#SVGID_10_)" points="40.6,79.3 40.2,79 40.9,77.6 48,76.9 48.9,77.8 48.6,79.2 48.2,79.1 48.3,77.9 
				47.8,77.4 41.3,78.1 			"></polygon>
			<linearGradient id="SVGID_11_" gradientUnits="userSpaceOnUse" x1="129.4149" y1="247.3657" x2="101.204" y2="166.763">
				<stop offset="0" style="stop-color:#333333"></stop>
				<stop offset="1" style="stop-color:#E6E6E6"></stop>
			</linearGradient>
			<polygon fill="url(#SVGID_11_)" points="49.8,82.9 49.3,82.8 49.4,81.7 49.3,81.3 42.8,81.9 41.8,82.3 41.6,81.8 42.7,81.4 
				49.5,80.9 50.1,81.6 			"></polygon>
			<linearGradient id="SVGID_12_" gradientUnits="userSpaceOnUse" x1="129.4149" y1="247.3657" x2="101.204" y2="166.763">
				<stop offset="0" style="stop-color:#333333"></stop>
				<stop offset="1" style="stop-color:#E6E6E6"></stop>
			</linearGradient>
			<polygon fill="url(#SVGID_12_)" points="50,85.7 49.9,84.6 42.7,85.3 42.7,84.8 50.3,84.1 50.4,85.6 			"></polygon>
			<linearGradient id="SVGID_13_" gradientUnits="userSpaceOnUse" x1="129.4149" y1="247.3657" x2="101.204" y2="166.763">
				<stop offset="0" style="stop-color:#333333"></stop>
				<stop offset="1" style="stop-color:#E6E6E6"></stop>
			</linearGradient>
			<polygon fill="url(#SVGID_13_)" points="50.4,89.6 50,89.5 50,88.4 43.9,89 42.9,88.8 42.9,88.3 43.9,88.5 50.6,87.9 			"></polygon>
			<linearGradient id="SVGID_14_" gradientUnits="userSpaceOnUse" x1="129.4149" y1="247.3657" x2="101.204" y2="166.763">
				<stop offset="0" style="stop-color:#333333"></stop>
				<stop offset="1" style="stop-color:#E6E6E6"></stop>
			</linearGradient>
			<path fill="url(#SVGID_14_)" d="M84.2,25.5c0,0.2-0.2,0.2-0.4,0.2c-0.2,0-0.4,0-0.4-0.2s0.2-0.4,0.4-0.4
				C84.1,25.1,84.2,25.3,84.2,25.5z"></path>
			<linearGradient id="SVGID_15_" gradientUnits="userSpaceOnUse" x1="129.4149" y1="247.3657" x2="101.204" y2="166.763">
				<stop offset="0" style="stop-color:#333333"></stop>
				<stop offset="1" style="stop-color:#E6E6E6"></stop>
			</linearGradient>
			<path fill="url(#SVGID_15_)" d="M79,25.9c0,0.2-0.2,0.2-0.4,0.2c-0.2,0-0.4,0-0.4-0.2s0.2-0.4,0.4-0.4S79,25.7,79,25.9z"></path>
			<linearGradient id="SVGID_16_" gradientUnits="userSpaceOnUse" x1="129.4149" y1="247.3657" x2="101.204" y2="166.763">
				<stop offset="0" style="stop-color:#333333"></stop>
				<stop offset="1" style="stop-color:#E6E6E6"></stop>
			</linearGradient>
			<path fill="url(#SVGID_16_)" d="M73.8,26.3c0,0.2-0.2,0.2-0.4,0.2s-0.4,0-0.4-0.2s0.2-0.4,0.4-0.4S73.8,26,73.8,26.3z"></path>
			<linearGradient id="SVGID_17_" gradientUnits="userSpaceOnUse" x1="129.4149" y1="247.3657" x2="101.204" y2="166.763">
				<stop offset="0" style="stop-color:#333333"></stop>
				<stop offset="1" style="stop-color:#E6E6E6"></stop>
			</linearGradient>
			<path fill="url(#SVGID_17_)" d="M68.6,26.6c0,0.2-0.2,0.2-0.4,0.2c-0.2,0-0.4,0-0.4-0.2s0.2-0.4,0.4-0.4S68.6,26.4,68.6,26.6z"></path>
			<linearGradient id="SVGID_18_" gradientUnits="userSpaceOnUse" x1="129.4149" y1="247.3657" x2="101.204" y2="166.763">
				<stop offset="0" style="stop-color:#333333"></stop>
				<stop offset="1" style="stop-color:#E6E6E6"></stop>
			</linearGradient>
			<path fill="url(#SVGID_18_)" d="M63.4,27c0,0.2-0.2,0.2-0.4,0.2s-0.4,0-0.4-0.2s0.2-0.4,0.4-0.4S63.4,26.8,63.4,27z"></path>
			<linearGradient id="SVGID_19_" gradientUnits="userSpaceOnUse" x1="129.4149" y1="247.3657" x2="101.204" y2="166.763">
				<stop offset="0" style="stop-color:#333333"></stop>
				<stop offset="1" style="stop-color:#E6E6E6"></stop>
			</linearGradient>
			<path fill="url(#SVGID_19_)" d="M58.2,27.4c0,0.2-0.2,0.2-0.4,0.2s-0.4,0-0.4-0.2s0.2-0.4,0.4-0.4S58.2,27.2,58.2,27.4z"></path>
			<linearGradient id="SVGID_20_" gradientUnits="userSpaceOnUse" x1="129.4149" y1="247.3657" x2="101.204" y2="166.763">
				<stop offset="0" style="stop-color:#333333"></stop>
				<stop offset="1" style="stop-color:#E6E6E6"></stop>
			</linearGradient>
			<path fill="url(#SVGID_20_)" d="M53.1,27.8c0,0.2-0.2,0.2-0.4,0.2s-0.4,0-0.4-0.2s0.2-0.4,0.4-0.4S53.1,27.6,53.1,27.8z"></path>
			<linearGradient id="SVGID_21_" gradientUnits="userSpaceOnUse" x1="129.4149" y1="247.3657" x2="101.204" y2="166.763">
				<stop offset="0" style="stop-color:#333333"></stop>
				<stop offset="1" style="stop-color:#E6E6E6"></stop>
			</linearGradient>
			<path fill="url(#SVGID_21_)" d="M47.7,28.2c0,0.2-0.2,0.2-0.4,0.2s-0.4,0-0.4-0.2s0.2-0.4,0.4-0.4S47.7,28,47.7,28.2z"></path>
			<linearGradient id="SVGID_22_" gradientUnits="userSpaceOnUse" x1="129.4149" y1="247.3657" x2="101.204" y2="166.763">
				<stop offset="0" style="stop-color:#333333"></stop>
				<stop offset="1" style="stop-color:#E6E6E6"></stop>
			</linearGradient>
			<path fill="url(#SVGID_22_)" d="M42.6,28.6c0,0.2-0.2,0.2-0.4,0.2s-0.4,0-0.4-0.2s0.2-0.4,0.4-0.4S42.6,28.4,42.6,28.6z"></path>
			<linearGradient id="SVGID_23_" gradientUnits="userSpaceOnUse" x1="129.4149" y1="247.3657" x2="101.204" y2="166.763">
				<stop offset="0" style="stop-color:#333333"></stop>
				<stop offset="1" style="stop-color:#E6E6E6"></stop>
			</linearGradient>
			<path fill="url(#SVGID_23_)" d="M37.4,29c0,0.2-0.2,0.2-0.4,0.2s-0.4,0-0.4-0.2s0.2-0.4,0.4-0.4S37.4,28.7,37.4,29z"></path>
			<linearGradient id="SVGID_24_" gradientUnits="userSpaceOnUse" x1="129.4149" y1="247.3657" x2="101.204" y2="166.763">
				<stop offset="0" style="stop-color:#333333"></stop>
				<stop offset="1" style="stop-color:#E6E6E6"></stop>
			</linearGradient>
			<path fill="url(#SVGID_24_)" d="M32.2,29.3c0,0.2-0.2,0.2-0.4,0.2s-0.4,0-0.4-0.2s0.2-0.4,0.4-0.4S32.2,29.1,32.2,29.3z"></path>
			<linearGradient id="SVGID_25_" gradientUnits="userSpaceOnUse" x1="129.4149" y1="247.3657" x2="101.204" y2="166.763">
				<stop offset="0" style="stop-color:#333333"></stop>
				<stop offset="1" style="stop-color:#E6E6E6"></stop>
			</linearGradient>
			<path fill="url(#SVGID_25_)" d="M27,29.7c0,0.2-0.2,0.2-0.4,0.2c-0.2,0-0.4,0-0.4-0.2s0.2-0.4,0.4-0.4S27,29.5,27,29.7z"></path>
			<linearGradient id="SVGID_26_" gradientUnits="userSpaceOnUse" x1="129.4149" y1="247.3657" x2="101.204" y2="166.763">
				<stop offset="0" style="stop-color:#333333"></stop>
				<stop offset="1" style="stop-color:#E6E6E6"></stop>
			</linearGradient>
			<path fill="url(#SVGID_26_)" d="M21.8,30c0,0.2-0.2,0.2-0.4,0.2c-0.2,0-0.4,0-0.4-0.2s0.2-0.4,0.4-0.4
				C21.6,29.7,21.8,29.9,21.8,30z"></path>
			<linearGradient id="SVGID_27_" gradientUnits="userSpaceOnUse" x1="129.4149" y1="247.3657" x2="101.204" y2="166.763">
				<stop offset="0" style="stop-color:#333333"></stop>
				<stop offset="1" style="stop-color:#E6E6E6"></stop>
			</linearGradient>
			<ellipse fill="url(#SVGID_27_)" cx="93.7" cy="46.3" rx="0.4" ry="0.4"></ellipse>
			<linearGradient id="SVGID_28_" gradientUnits="userSpaceOnUse" x1="129.4149" y1="247.3657" x2="101.204" y2="166.763">
				<stop offset="0" style="stop-color:#333333"></stop>
				<stop offset="1" style="stop-color:#E6E6E6"></stop>
			</linearGradient>
			<ellipse fill="url(#SVGID_28_)" cx="88.2" cy="46.7" rx="0.4" ry="0.4"></ellipse>
			<linearGradient id="SVGID_29_" gradientUnits="userSpaceOnUse" x1="129.4149" y1="247.3657" x2="101.204" y2="166.763">
				<stop offset="0" style="stop-color:#333333"></stop>
				<stop offset="1" style="stop-color:#E6E6E6"></stop>
			</linearGradient>
			<ellipse fill="url(#SVGID_29_)" cx="82.9" cy="47.1" rx="0.4" ry="0.4"></ellipse>
			<linearGradient id="SVGID_30_" gradientUnits="userSpaceOnUse" x1="129.4149" y1="247.3657" x2="101.204" y2="166.763">
				<stop offset="0" style="stop-color:#333333"></stop>
				<stop offset="1" style="stop-color:#E6E6E6"></stop>
			</linearGradient>
			<ellipse fill="url(#SVGID_30_)" cx="77.4" cy="47.4" rx="0.4" ry="0.4"></ellipse>
			<linearGradient id="SVGID_31_" gradientUnits="userSpaceOnUse" x1="129.4149" y1="247.3657" x2="101.204" y2="166.763">
				<stop offset="0" style="stop-color:#333333"></stop>
				<stop offset="1" style="stop-color:#E6E6E6"></stop>
			</linearGradient>
			<ellipse fill="url(#SVGID_31_)" cx="72.1" cy="47.8" rx="0.4" ry="0.4"></ellipse>
			<linearGradient id="SVGID_32_" gradientUnits="userSpaceOnUse" x1="129.4149" y1="247.3657" x2="101.204" y2="166.763">
				<stop offset="0" style="stop-color:#333333"></stop>
				<stop offset="1" style="stop-color:#E6E6E6"></stop>
			</linearGradient>
			<ellipse fill="url(#SVGID_32_)" cx="66.7" cy="48.2" rx="0.4" ry="0.4"></ellipse>
			<linearGradient id="SVGID_33_" gradientUnits="userSpaceOnUse" x1="129.4149" y1="247.3657" x2="101.204" y2="166.763">
				<stop offset="0" style="stop-color:#333333"></stop>
				<stop offset="1" style="stop-color:#E6E6E6"></stop>
			</linearGradient>
			<ellipse fill="url(#SVGID_33_)" cx="61.3" cy="48.6" rx="0.4" ry="0.4"></ellipse>
			<linearGradient id="SVGID_34_" gradientUnits="userSpaceOnUse" x1="129.4149" y1="247.3657" x2="101.204" y2="166.763">
				<stop offset="0" style="stop-color:#333333"></stop>
				<stop offset="1" style="stop-color:#E6E6E6"></stop>
			</linearGradient>
			<ellipse fill="url(#SVGID_34_)" cx="55.8" cy="49" rx="0.4" ry="0.4"></ellipse>
			<linearGradient id="SVGID_35_" gradientUnits="userSpaceOnUse" x1="129.4149" y1="247.3657" x2="101.204" y2="166.763">
				<stop offset="0" style="stop-color:#333333"></stop>
				<stop offset="1" style="stop-color:#E6E6E6"></stop>
			</linearGradient>
			<ellipse fill="url(#SVGID_35_)" cx="50.5" cy="49.3" rx="0.4" ry="0.4"></ellipse>
			<linearGradient id="SVGID_36_" gradientUnits="userSpaceOnUse" x1="129.4149" y1="247.3657" x2="101.204" y2="166.763">
				<stop offset="0" style="stop-color:#333333"></stop>
				<stop offset="1" style="stop-color:#E6E6E6"></stop>
			</linearGradient>
			<ellipse fill="url(#SVGID_36_)" cx="45" cy="49.7" rx="0.4" ry="0.4"></ellipse>
			<linearGradient id="SVGID_37_" gradientUnits="userSpaceOnUse" x1="129.4149" y1="247.3657" x2="101.204" y2="166.763">
				<stop offset="0" style="stop-color:#333333"></stop>
				<stop offset="1" style="stop-color:#E6E6E6"></stop>
			</linearGradient>
			<ellipse fill="url(#SVGID_37_)" cx="39.7" cy="50.2" rx="0.4" ry="0.4"></ellipse>
			<linearGradient id="SVGID_38_" gradientUnits="userSpaceOnUse" x1="129.4149" y1="247.3657" x2="101.204" y2="166.763">
				<stop offset="0" style="stop-color:#333333"></stop>
				<stop offset="1" style="stop-color:#E6E6E6"></stop>
			</linearGradient>
			<ellipse fill="url(#SVGID_38_)" cx="34.2" cy="50.5" rx="0.4" ry="0.4"></ellipse>
			<linearGradient id="SVGID_39_" gradientUnits="userSpaceOnUse" x1="129.4149" y1="247.3657" x2="101.204" y2="166.763">
				<stop offset="0" style="stop-color:#333333"></stop>
				<stop offset="1" style="stop-color:#E6E6E6"></stop>
			</linearGradient>
			<ellipse fill="url(#SVGID_39_)" cx="28.9" cy="50.9" rx="0.4" ry="0.4"></ellipse>
		</g>
		<g>
			<path fill="#E6E6E6" d="M80.5,19.2c6.7-0.9,14,11.6,16,27.7l2.9-0.3c-2.1-16.1-9.3-28.6-16-27.7L80.5,19.2z"></path>
			<path fill="#E6E6E6" d="M74.4,48c-1.8-13.6-8.3-24-14.6-23.3v-0.3c6.3-0.8,13.2,9.8,15,23.5L74.4,48z"></path>
			<path fill="#E6E6E6" d="M43.1,50.5c-1.8-13.8-8.3-24.3-14.6-23.6v-0.3c6.3-0.8,13.2,9.9,15,23.8L43.1,50.5z"></path>
			<path fill="#E6E6E6" d="M22.8,52.2C21,36.3,15.1,23.8,9.6,24.4l3.3-0.3c5.3-0.6,11.3,11.9,13.2,27.8L22.8,52.2z"></path>
			<polygon fill="#FFFFFF" points="40.6,79.3 40.2,79 40.9,77.6 48,76.9 48.9,77.8 48.6,79.2 48.2,79.1 48.3,77.9 47.8,77.4 
				41.3,78.1 			"></polygon>
			<polygon fill="#FFFFFF" points="49.8,82.9 49.3,82.8 49.4,81.7 49.3,81.3 42.8,81.9 41.8,82.3 41.6,81.8 42.7,81.4 49.5,80.9 
				50.1,81.6 			"></polygon>
			<polygon fill="#FFFFFF" points="50,85.7 49.9,84.6 42.7,85.3 42.7,84.8 50.3,84.1 50.4,85.6 			"></polygon>
			<polygon fill="#FFFFFF" points="50.4,89.6 50,89.5 50,88.4 43.9,89 42.9,88.8 42.9,88.3 43.9,88.5 50.6,87.9 			"></polygon>
			<path fill="#FFFFFF" d="M84.2,25.5c0,0.2-0.2,0.2-0.4,0.2c-0.2,0-0.4,0-0.4-0.2s0.2-0.4,0.4-0.4C84.1,25.1,84.2,25.3,84.2,25.5z"></path>
			<path fill="#FFFFFF" d="M79,25.9c0,0.2-0.2,0.2-0.4,0.2c-0.2,0-0.4,0-0.4-0.2s0.2-0.4,0.4-0.4S79,25.7,79,25.9z"></path>
			<path fill="#FFFFFF" d="M73.8,26.3c0,0.2-0.2,0.2-0.4,0.2s-0.4,0-0.4-0.2s0.2-0.4,0.4-0.4S73.8,26,73.8,26.3z"></path>
			<path fill="#FFFFFF" d="M68.6,26.6c0,0.2-0.2,0.2-0.4,0.2c-0.2,0-0.4,0-0.4-0.2s0.2-0.4,0.4-0.4S68.6,26.4,68.6,26.6z"></path>
			<path fill="#FFFFFF" d="M63.4,27c0,0.2-0.2,0.2-0.4,0.2s-0.4,0-0.4-0.2s0.2-0.4,0.4-0.4S63.4,26.8,63.4,27z"></path>
			<path fill="#FFFFFF" d="M58.2,27.4c0,0.2-0.2,0.2-0.4,0.2s-0.4,0-0.4-0.2s0.2-0.4,0.4-0.4S58.2,27.2,58.2,27.4z"></path>
			<path fill="#FFFFFF" d="M53.1,27.8c0,0.2-0.2,0.2-0.4,0.2s-0.4,0-0.4-0.2s0.2-0.4,0.4-0.4S53.1,27.6,53.1,27.8z"></path>
			<path fill="#FFFFFF" d="M47.7,28.2c0,0.2-0.2,0.2-0.4,0.2s-0.4,0-0.4-0.2s0.2-0.4,0.4-0.4S47.7,28,47.7,28.2z"></path>
			<path fill="#FFFFFF" d="M42.6,28.6c0,0.2-0.2,0.2-0.4,0.2s-0.4,0-0.4-0.2s0.2-0.4,0.4-0.4S42.6,28.4,42.6,28.6z"></path>
			<path fill="#FFFFFF" d="M37.4,29c0,0.2-0.2,0.2-0.4,0.2s-0.4,0-0.4-0.2s0.2-0.4,0.4-0.4S37.4,28.7,37.4,29z"></path>
			<path fill="#FFFFFF" d="M32.2,29.3c0,0.2-0.2,0.2-0.4,0.2s-0.4,0-0.4-0.2s0.2-0.4,0.4-0.4S32.2,29.1,32.2,29.3z"></path>
			<path fill="#FFFFFF" d="M27,29.7c0,0.2-0.2,0.2-0.4,0.2c-0.2,0-0.4,0-0.4-0.2s0.2-0.4,0.4-0.4S27,29.5,27,29.7z"></path>
			<path fill="#FFFFFF" d="M21.8,30c0,0.2-0.2,0.2-0.4,0.2c-0.2,0-0.4,0-0.4-0.2s0.2-0.4,0.4-0.4C21.6,29.7,21.8,29.9,21.8,30z"></path>
			<ellipse fill="#FFFFFF" cx="93.7" cy="46.3" rx="0.4" ry="0.4"></ellipse>
			<ellipse fill="#FFFFFF" cx="88.2" cy="46.7" rx="0.4" ry="0.4"></ellipse>
			<ellipse fill="#FFFFFF" cx="82.9" cy="47.1" rx="0.4" ry="0.4"></ellipse>
			<ellipse fill="#FFFFFF" cx="77.4" cy="47.4" rx="0.4" ry="0.4"></ellipse>
			<ellipse fill="#FFFFFF" cx="72.1" cy="47.8" rx="0.4" ry="0.4"></ellipse>
			<ellipse fill="#FFFFFF" cx="66.7" cy="48.2" rx="0.4" ry="0.4"></ellipse>
			<ellipse fill="#FFFFFF" cx="61.3" cy="48.6" rx="0.4" ry="0.4"></ellipse>
			<ellipse fill="#FFFFFF" cx="55.8" cy="49" rx="0.4" ry="0.4"></ellipse>
			<ellipse fill="#FFFFFF" cx="50.5" cy="49.3" rx="0.4" ry="0.4"></ellipse>
			<ellipse fill="#FFFFFF" cx="45" cy="49.7" rx="0.4" ry="0.4"></ellipse>
			<ellipse fill="#FFFFFF" cx="39.7" cy="50.2" rx="0.4" ry="0.4"></ellipse>
			<ellipse fill="#FFFFFF" cx="34.2" cy="50.5" rx="0.4" ry="0.4"></ellipse>
			<ellipse fill="#FFFFFF" cx="28.9" cy="50.9" rx="0.4" ry="0.4"></ellipse>
		</g>
	</g>
</g>
</svg>