<?xml version="1.0" encoding="utf-8"?>
<!-- Generator: Adobe Illustrator 24.1.1, SVG Export Plug-In . SVG Version: 6.00 Build 0)  -->
<svg version="1.1" id="Layer_1" xmlns="http://www.w3.org/2000/svg" xmlns:xlink="http://www.w3.org/1999/xlink" x="0px" y="0px"
	 viewBox="0 0 97 100" style="enable-background:new 0 0 97 100;" xml:space="preserve">
<style type="text/css">
	.st0{fill:#00BC07;stroke:#666666;stroke-miterlimit:10;}
	.st1{fill:#00BC07;}
	.st2{fill:#00BC07;stroke:#666666;stroke-width:2;stroke-miterlimit:10;}
	.st3{fill:#5E665E;stroke:#666666;stroke-width:0.5;stroke-miterlimit:10;}
	.st4{fill:#00BC07;stroke:#666666;stroke-width:0.5;stroke-miterlimit:10;}
</style>
<path class="st0" d="M84.32,97.68L84.32,97.68c-5.94,0-10.75-5.15-10.75-11.5v-73c0-6.35,4.81-11.5,10.75-11.5h0
	c5.94,0,10.75,5.15,10.75,11.5v73C95.07,92.53,90.26,97.68,84.32,97.68z"/>
<rect x="61" y="42" class="st1" width="12" height="15"/>
<rect x="9" y="38" class="st0" width="47" height="22"/>
<rect x="63" y="46" class="st2" width="2" height="8"/>
<rect x="4.5" y="60.5" class="st0" width="56" height="5.5"/>
<rect x="55.29" y="36.47" class="st0" width="5.21" height="35.03"/>
<rect x="4.36" y="37.15" class="st0" width="5.14" height="34.35"/>
<rect x="2" y="71" class="st1" width="61" height="11"/>
<path class="st0" d="M-95.5,47.5l1.75,2.5L-95.5,47.5z"/>
<rect x="4.5" y="60.75" class="st3" width="5" height="0.5"/>
<rect x="4.38" y="66.05" class="st3" width="5" height="0.5"/>
<rect x="55.38" y="61.01" class="st3" width="5" height="0.5"/>
<rect x="55.38" y="66.01" class="st3" width="5" height="0.5"/>
<polygon class="st4" points="78.42,46.11 82.15,42.3 86.57,42.89 89.82,43.16 94.39,46.79 91.3,49.56 84.43,50.72 79,52.87 
	72.61,49.95 "/>
<rect x="72" y="46.27" class="st2" width="0.78" height="8"/>
</svg>
