<?xml version="1.0" encoding="utf-8"?>
<!-- Generator: Adobe Illustrator 24.1.1, SVG Export Plug-In . SVG Version: 6.00 Build 0)  -->
<svg version="1.1" id="Layer_1" xmlns="http://www.w3.org/2000/svg" xmlns:xlink="http://www.w3.org/1999/xlink" x="0px" y="0px"
	 viewBox="0 0 75 75" style="enable-background:new 0 0 75 75;" xml:space="preserve">
<style type="text/css">
	.st0{fill:#00B33D;}
	.st1{fill:#060909;stroke:#09AB39;stroke-width:5;stroke-miterlimit:10;}
	.st2{fill:#00B33D;stroke:#808080;stroke-width:0.3;stroke-miterlimit:10;}
	.st3{fill:none;}
</style>
<rect x="-6.5" y="43.5" transform="matrix(-1.836970e-16 1 -1 -1.836970e-16 62.5 39.5)" class="st0" width="36" height="15"/>
<circle class="st1" cx="33.5" cy="31.5" r="27"/>
<circle class="st0" cx="32.5" cy="32.5" r="11.5"/>
<rect x="40" y="25" class="st0" width="27" height="15"/>
<ellipse class="st0" cx="69.5" cy="32.5" rx="3.5" ry="13.5"/>
<ellipse class="st0" cx="12" cy="70" rx="12" ry="3"/>
<ellipse class="st2" cx="12" cy="70" rx="11" ry="2.5"/>
<ellipse class="st2" cx="69.5" cy="32.5" rx="2.5" ry="12.5"/>
<line class="st3" x1="43" y1="20" x2="51" y2="12"/>
<g>
	<g>
		<path class="st0" d="M44.43,9.7c-1.42,4.39-2.83,9.02-6.38,12.2c-0.43,0.39,0.21,1.02,0.64,0.64c3.66-3.28,5.14-8.07,6.61-12.6
			C45.47,9.39,44.61,9.15,44.43,9.7L44.43,9.7z"/>
	</g>
</g>
<g>
	<g>
		<path class="st0" d="M21.59,32.94c-4.2-0.91-8.67-1.76-12.04-4.61c-0.44-0.37-1.08,0.26-0.64,0.64c3.51,2.97,8.06,3.9,12.44,4.85
			C21.92,33.93,22.16,33.07,21.59,32.94L21.59,32.94z"/>
	</g>
</g>
<g>
	<g>
		<path class="st0" d="M26.9,22.91c-2.29-4.27-4.79-8.67-5.14-13.61c-0.04-0.57-0.94-0.58-0.9,0c0.36,5.11,2.89,9.64,5.27,14.06
			C26.39,23.88,27.17,23.42,26.9,22.91L26.9,22.91z"/>
	</g>
</g>
<g>
	<g>
		<path class="st0" d="M36.08,42.82c1.45,4.04,3.1,8.28,2.47,12.65c-0.08,0.57,0.79,0.81,0.87,0.24c0.66-4.56-0.95-8.9-2.47-13.13
			C36.76,42.04,35.89,42.28,36.08,42.82L36.08,42.82z"/>
	</g>
</g>
<g>
	<g>
		<path class="st0" d="M26.17,41.05c-4.01,3.13-8.23,6.53-13.5,6.99c-0.57,0.05-0.58,0.95,0,0.9c5.54-0.48,9.91-3.96,14.14-7.25
			C27.26,41.33,26.62,40.7,26.17,41.05L26.17,41.05z"/>
	</g>
</g>
</svg>
