<?xml version="1.0" encoding="utf-8"?>
<!-- Generator: Adobe Illustrator 24.1.1, SVG Export Plug-In . SVG Version: 6.00 Build 0)  -->
<svg version="1.1" id="Layer_1" xmlns="http://www.w3.org/2000/svg" xmlns:xlink="http://www.w3.org/1999/xlink" x="0px" y="0px"
	 viewBox="0 0 97 100" style="enable-background:new 0 0 97 100;" xml:space="preserve">
<style type="text/css">
	.st0{fill:#00BC07;stroke:#666666;stroke-miterlimit:10;}
	.st1{fill:#00BC07;}
	.st2{fill:#00BC07;stroke:#666666;stroke-width:2;stroke-miterlimit:10;}
	.st3{fill:#00BC07;stroke:#666666;stroke-width:0.5;stroke-miterlimit:10;}
	.st4{fill:#5E665E;stroke:#666666;stroke-width:0.5;stroke-miterlimit:10;}
</style>
<path class="st0" d="M14.25,98.5L14.25,98.5C8.31,98.5,3.5,93.35,3.5,87V14c0-6.35,4.81-11.5,10.75-11.5h0C20.19,2.5,25,7.65,25,14
	v73C25,93.35,20.19,98.5,14.25,98.5z"/>
<rect x="25" y="42" class="st1" width="8" height="15"/>
<rect x="39" y="38" class="st0" width="47" height="22"/>
<rect x="33.29" y="42.5" class="st2" width="3.21" height="15"/>
<rect x="87.92" y="42.46" class="st2" width="3.21" height="15"/>
<rect x="34.5" y="59.5" class="st0" width="56" height="5.5"/>
<rect x="85.29" y="36.47" class="st0" width="5.21" height="35.03"/>
<rect x="34.36" y="37.15" class="st0" width="5.14" height="34.35"/>
<rect x="32" y="71" class="st1" width="61" height="11"/>
<rect x="25.08" y="45.46" class="st0" width="3.42" height="8.04"/>
<polygon class="st3" points="10.68,43.11 15.45,40.64 19.27,43.11 22.14,44.75 25,50.5 21.18,52.14 14.5,50.5 8.77,50.5 4,44.75 "/>
<path class="st0" d="M-95.5,47.5l1.75,2.5L-95.5,47.5z"/>
<rect x="34.5" y="60.75" class="st4" width="5" height="0.5"/>
<rect x="34.38" y="66.05" class="st4" width="5" height="0.5"/>
<rect x="85.38" y="61.01" class="st4" width="5" height="0.5"/>
<rect x="85.38" y="66.01" class="st4" width="5" height="0.5"/>
</svg>
